<?xml version="1.0" encoding="utf-8"?>
<!-- Generator: Adobe Illustrator 15.0.0, SVG Export Plug-In . SVG Version: 6.00 Build 0)  -->
<!DOCTYPE svg PUBLIC "-//W3C//DTD SVG 1.1//EN" "http://www.w3.org/Graphics/SVG/1.1/DTD/svg11.dtd">
<svg version="1.1" xmlns="http://www.w3.org/2000/svg" xmlns:xlink="http://www.w3.org/1999/xlink" x="0px" y="0px"
	 width="595.276px" height="413.858px" viewBox="0 0 595.276 413.858" enable-background="new 0 0 595.276 413.858"
	 xml:space="preserve">
<g id="Layer_1">
	<rect fill="#000033" stroke="#231F20" stroke-miterlimit="10" width="595.276" height="413.858"/>
</g>
<g id="Layer_2">
	<circle opacity="0.57" fill="#000066" cx="81.41" cy="70.072" r="81.41"/>
	<circle opacity="0.32" fill="#333366" cx="281.265" cy="70.452" r="50.218"/>
	<circle opacity="0.57" fill="#000066" cx="399.996" cy="332.447" r="81.411"/>
	<circle opacity="0.13" fill="#000066" stroke="#231F20" stroke-miterlimit="10" cx="334.944" cy="316.069" r="74.411"/>
	<circle opacity="0.57" fill="#000066" cx="547.509" cy="126.438" r="16.026"/>
	<circle opacity="0.57" fill="#000066" stroke="#231F20" stroke-miterlimit="10" cx="71.96" cy="342.146" r="16.026"/>
	<circle opacity="0.57" fill="#000066" stroke="#231F20" stroke-miterlimit="10" cx="518.663" cy="384.479" r="16.026"/>
	<circle opacity="0.15" fill="#CCCCFF" cx="499.645" cy="188.412" r="88.699"/>
	<circle opacity="0.57" fill="#000066" cx="518.663" cy="173.875" r="31.411"/>
	<circle opacity="0.1" fill="#000066" cx="38.944" cy="292.787" r="81.411"/>
	<circle opacity="0.14" fill="#CCCCFF" cx="173.791" cy="425.197" r="81.411"/>
	<circle fill="#CCCCFF" cx="21.154" cy="390.479" r="50.806"/>
	<circle opacity="0.13" stroke="#231F20" stroke-miterlimit="10" cx="141.509" cy="286.787" r="21.154"/>
	<circle opacity="0.32" fill="#333366" cx="173.791" cy="202.176" r="21.211"/>
	<circle opacity="0.13" fill="#000066" cx="540.482" cy="110.412" r="124.731"/>
	<circle opacity="0.13" fill="#000066" cx="407.482" cy="188.412" r="124.731"/>
	<circle opacity="0.57" fill="#000066" stroke="#231F20" stroke-miterlimit="10" cx="108.406" cy="241.659" r="16.026"/>
	<circle opacity="0.57" fill="#000066" cx="443.765" cy="126.438" r="16.026"/>
	<circle opacity="0.57" fill="#000066" cx="481.406" cy="4.688" r="16.026"/>
	<circle opacity="0.33" stroke="#231F20" stroke-miterlimit="10" cx="318.585" cy="251.037" r="21.154"/>
	<circle opacity="0.1" stroke="#231F20" stroke-miterlimit="10" cx="173.792" cy="63.683" r="21.154"/>
	<circle opacity="0.15" fill="#CCCCFF" cx="450.802" cy="20.234" r="81.411"/>
	<circle opacity="0.41" fill="#CCCCFF" cx="512.589" cy="218.915" r="20.371"/>
	<circle opacity="0.41" fill="#CCCCFF" cx="521.662" cy="225.633" r="20.371"/>
	<circle opacity="0.12" fill="#000066" cx="387.996" cy="316.069" r="81.411"/>
	<circle opacity="0.57" fill="#000066" cx="481.663" cy="188.479" r="16.026"/>
	<circle opacity="0.41" fill="#CCCCFF" cx="525.589" cy="214.915" r="20.371"/>
</g>
</svg>
