<?xml version="1.0" encoding="utf-8"?>
<!-- Generator: Adobe Illustrator 15.0.0, SVG Export Plug-In . SVG Version: 6.00 Build 0)  -->
<!DOCTYPE svg PUBLIC "-//W3C//DTD SVG 1.1//EN" "http://www.w3.org/Graphics/SVG/1.1/DTD/svg11.dtd">
<svg version="1.1" xmlns="http://www.w3.org/2000/svg" xmlns:xlink="http://www.w3.org/1999/xlink" x="0px" y="0px"
	 width="456.068px" height="345.651px" viewBox="0 0 456.068 345.651" enable-background="new 0 0 456.068 345.651"
	 xml:space="preserve">
<g id="Layer_1">
	<g>
		<g>
			<path fill="#CCCCCC" d="M258.431,506.61c-2.241-0.327-4.953-0.036-6.497,1.814c-0.077,0.093-0.134,0.214-0.021,0.309
				c2.082,1.764,5.422,1.469,7.8,0.528c0.7-0.276,1.93-0.834,1.988-1.722c0.069-1.049-1.721-1.402-2.432-1.562
				c-0.451-0.101-0.951,0.011-1.356,0.223c-0.165,0.085-0.668,0.492-0.212,0.595c0.624,0.14,1.745,0.307,2.041,0.986
				c0.221,0.503-0.564,0.845-0.903,0.979c-1.626,0.643-3.772,0.418-5.115-0.72c-0.007,0.103-0.015,0.206-0.021,0.309
				c0.914-1.095,2.199-1.043,3.503-0.853C257.687,507.565,259.454,506.759,258.431,506.61L258.431,506.61z"/>
		</g>
	</g>
	<g>
		<g>
			<path fill="#CCCCCC" d="M505.909,942.366c-2.491,0.091-4.974,2.193-5.068,4.766c-0.036,0.988,1.924,0.687,1.955-0.158
				c0.058-1.577,1.275-3.173,2.932-3.234C506.809,943.7,507.227,942.317,505.909,942.366L505.909,942.366z"/>
		</g>
	</g>
</g>
<g id="Layer_13">
</g>
<g id="grass_midsection">
</g>
<g id="board_2">
	<g id="Layer_3" display="none">
		<g id="Layer_4">
			<g display="inline">
				<g>
					<g>
						<path fill="#CC9933" d="M3.849,884.937c20.667-4.667,42.225-19.665,64.225-27.665c22-7.333,45.333-8,66.667-17.333
							c14.667-6.667,24.43-13.606,39.764-16.94c14-3.333,27.559-5.859,40.226-11.859c18-8.667,23.344-21.867,2.678-27.867
							c-6-2-21.334-2.667-24-6l-0.334-7.669c5,2,11.334,1.334,17,2.334c8,1.333,23.667,3.333,23.667,3.333
							c14.667,1.333,29.667,4,44.333,6c7.667,1.333,44.667,3.667,37.334,16c-1.667,2.5-17.277,19.248-19.819,21.081
							c-2.542,1.834-4.572,4.905-6.738,6.739c-4.334,4-2.983,2.978-6.649,7.978c-8,11.333-4.793,12.202-4.793,26.202
							c0,11.667-0.334,35,9.333,43c0,0,9.132,16.279,17.743,29.227c2.547,3.83,5.049,7.368,7.256,10.107
							c5.294,7.059,11.05,13.772,16.521,20.683c3.829,4.836,9.519,29.936,12.812,35.15c0.779,1.17,2.915,5.322,5.579,10.728
							c2.36,4.788,5.136,10.56,7.751,16.113c4.524,9.608,8.572,18.567,9.17,20.659c0.225,0.896,4.778,58.258,6.504,68.317
							c1.382,8.06-149.445,0-165.562,0c-5.288,0-200.667,0-200.667,0s0-59.806,0-98.26C3.849,965.614,3.581,884.713,3.849,884.937"
							/>
					</g>
				</g>
				<g>
					<g>
						<path fill="#996633" d="M3.862,884.363c20.252-4.657,41.378-19.623,62.937-27.606c21.559-7.318,44.424-7.983,65.329-17.298
							c14.374-6.653,23.94-13.579,38.967-16.905c13.72-3.326,27.006-5.847,39.419-11.834c17.64-8.648,22.875-21.822,2.624-27.81
							c-5.88-1.996-20.906-2.661-23.52-5.987l-0.326-7.653c4.899,1.996,11.106,1.331,16.659,2.329
							c7.84,1.33,23.191,3.326,23.191,3.326c14.373,1.33,29.072,3.992,43.443,5.987c7.515,1.33,43.771,3.66,36.586,15.967
							c-1.635,2.495-16.931,19.207-19.422,21.037s-4.481,4.896-6.603,6.726c-4.248,3.992-2.924,2.972-6.517,7.961
							c-7.84,11.31-4.696,12.177-4.696,26.147c0,11.644-0.328,34.929,9.146,42.912c0,0,8.948,16.245,17.388,29.164
							c2.495,3.823,4.946,7.354,7.11,10.088c5.187,7.043,10.828,13.744,16.189,20.64c3.752,4.826,9.328,29.874,12.555,35.077
							c0.764,1.167,2.857,5.312,5.468,10.705c2.313,4.779,5.033,10.537,7.597,16.08c4.434,9.588,8.4,18.529,8.985,20.615
							c0.22,0.896,4.682,58.139,6.373,68.176c1.354,8.044-146.447,0-162.24,0c-5.183,0-196.643,0-196.643,0s0-59.681,0-98.055
							C3.862,964.874,3.598,884.14,3.862,884.363"/>
					</g>
				</g>
			</g>
		</g>
	</g>
</g>
<g id="Layer_11">
</g>
<g id="Layer_10">
	<g>
		<g>
			<path fill="#F7DCAB" d="M596.197,314.465c0.427,0,2.209-0.825,1.242-0.825C597.012,313.64,595.23,314.465,596.197,314.465
				L596.197,314.465z"/>
		</g>
	</g>
</g>
<g id="Layer_12">
</g>
<g id="flat_layer_of_mountain">
</g>
<g id="flat_back_layer_of_mountain">
	<g display="none">
		<path display="inline" fill="#003366" d="M177.818,388.141c-0.167,2.833,8.5,6.333,10.833,7.667c6,3.333,11.333,7.833,16.167,12.5
			l-3.833-3.833c2.833,4,6.667,7.5,10,11.167c1.833,2.167,3.167,5,5.333,6.833c2.334,2.167,5.5,3.667,7.834,6l6.5-6
			c-0.667-0.333-1.334-0.667-1.834-1c1.167,1,3,1.167,4.167,2c-2.333-0.5-4.833-1.333-7.333-1.167c3.666,0,7.166,0.5,10.666,1
			c1.834,0.333,4.834,1.167,6.5,0.333c-2.166-1.5-5.5-1.333-8-1.333c-3.666,0.167-6.666-0.333-10.166-0.667
			c4.833,0,10.333,1.167,15,2.5c-1.5-0.5-3.667-0.667-4.667,0.833c0.5-0.5,0.667-1.5,1-2c0,0,0-0.167-0.167-0.167
			c-0.5,0.667-0.5,0.833-0.666,1.667c1.166-0.5,2.166-1.5,3.166-2.5c-0.166,0.5,0,1,0,1.5c0.334-0.5,1-0.833,1.334-1.167
			c0,0.5,0.333,1.5,0.333,2.167c0.167-0.333,0.5-0.667,0.667-1c-0.167,0.667,0.166,1.5,0.166,2.167
			c0.167-0.333,0.334-0.833,0.5-1.333c0,0.667,0.167,1.5,0.167,2.333c0.167-0.333,0.5-0.833,0.667-1.333c0,1,0,1.833-0.167,2.667
			c0.333-1,0.833-2.167,1.5-3c0,1.333-0.667,2.833-1.333,4.167c0.833-1.333,1.5-2.667,2.333-3.833c-0.5,1-1.167,2.167-2,3.167
			c1-1.167,2-2.667,3.167-3.667c-0.5,1.333-1.5,2.333-2.334,3.5c0.167,0,0.834-0.667,1-0.833c0,0-0.166,0.5,0,0.5
			c0.334-0.833,1-1.333,1.5-2c0,0.167,0,0.5,0.167,0.667c0-0.333,0.333-1.167,0.5-1.667c0,1.333,0,2.667,0.5,4
			c0.167-1.167,0.167-2.333,0.333-3.5c0,1.667-0.333,3.833,0.667,5.167c0.167-1.333,0.5-2.667,0.833-4c0,2.167-1.5,4-1.333,6.167
			c0.667-2.667,1.167-5.167,2.333-7.833c0.334,1.333-0.5,2.833-0.333,4.167c0.833-0.833,0.833-2.167,1-3.333
			c0,1.5-0.167,2.833,0.333,4.333c0.334-1.333,0.5-2.667,0.667-4c-0.167,1,0,2.167,0.5,3c0.167-1,0.333-2,0.333-3
			c0.334,1.167,0.5,2.5,1.167,3.5c0-1-0.167-2-0.333-3c-0.167,1,0.166,2.167,0.166,3c-1-0.833-0.833-2.333-2.333-3
			c-2-0.833-2.333,2-1.333,3.833c0.833-1.5,1-4.833-1.167-5.333c-0.5,0.833-1.333,4.667-0.5,5.5c1.5,1.167,2.333-2.667,2-3.667
			c-1.833-5.333-4,2.833-1.333,2.833c1.666,0,1.5-3.667,0.666-4.5c-1.5-1.833-2-0.333-3.666,0.333c-2.834,1.167-5,0-7.667-1.167
			c1,0.667,2,1.167,3.167,1.5c-1-1-2.167-1.667-3.334-2.167c0.667,0.333,1.5,0.833,2.334,1.167c-1.5-0.167-3-0.5-4.5-0.833
			c0.833,0.167,1.333,0,2.166-0.167c-1.5-0.167-3-0.5-4.333-0.333c1.5,1,3.5,1,5.333,1.167c-1.166-0.833-3.166-0.833-4.666-1.167
			c1.666,1.833,4.333,1.667,6.5,2.667c-0.667-0.667-1.5-1.333-2.334-2c0.667,1.333,1.667,2.833,2.834,3.667
			c0-0.5-0.167-1.333-0.5-1.833c-0.334,4.833,4,3,2.166-0.667c-0.666,1.5-0.666,3.5-0.333,5c1.333-0.833,1.667-4.333,1-5.667
			c-1,1-1.833,2.833-1.333,4.167c1.833-0.667,2.166-4.333,1.833-6.167c-0.833,2-2,5.667-1.167,7.5c1.167-1.667,1.667-4.333,2-6.333
			c-0.333,1-0.5,2.167-0.166,3c1.5-2.333,5.333,1,5.5-1.833c1.166,0.5,2.5,0.5,3.5-0.333c-0.5-0.5-1.167-1.167-1.834-1.333
			c0.5,1.333,2.167,2.167,3.5,2.833c-0.833-0.333-1.666-0.667-2.5-1.167c2,0.667,4,0.5,5.834-0.667
			c-1.167-0.5-3.834-0.167-3.667,1.5c0.167,2.167,4-0.167,4.5-1c-1.5-0.5-4.5-0.5-5.5,1.167c1,0.167,2.167-0.167,3.167-0.333
			c-0.167,0.833-0.5,2-0.5,2.833c1.5,0,3.333-1.167,4.333-2.333c-0.833,0.333-1.333,0.667-2,1c1,0.167,1.5,0,1.833-1
			c-0.833,0.667-1.333,1.667-1.666,2.667c1.166-0.167,1.166-0.5,1.166-1.333c-0.5,0.167-1.333,2.333,0,1.833
			c1.667-0.833,0.667-2.333-0.666-2.5c-0.5,1.833,1.5,2.667,2.833,1.333c-0.667-1-3.167-1.833-4.333-1.333
			c0.333,1.667,3.166,2.167,4.166,1c-1-0.5-2-0.667-3-0.833c0.167,1.667,2.5,3.167,4,3.167c-1-1.5-3-2.5-4.666-2.833
			c0.166,1.167,1.5,1.833,2.666,2c0,0-0.333-0.5-0.333-0.333c0.667,0.167,1.333,0.333,1.833,0.5c-1.666-0.5-4.333-2.5-5.833-0.833
			c0.333,0.167,1.167,0.5,1.333,0.5c-1.5-0.667-3-0.5-4.5,0.5c0.334-0.167,0.5-0.333,0.834-0.5c-0.667,0.5-1.167,1.167-1.834,1.667
			c0.334-0.167,0.667-0.333,1-0.5c-2,0.167-3.5-1.667-5.333-2.333c-0.167,1.5,0,3.167-0.833,4.5c0.5-1,1.166-2,2-2.833
			c-0.334,0.5-0.667,1.167-1,1.833c0.333-0.5,0.666-1,1-1.333c-1.834,2-3.834-3.833-5.5-5.167c0.5,1,1.333,1.833,2,2.833
			c-0.667-0.833-1.667-1.333-2.5-1.5c0.333,1,1.166,2.167,2.333,2.5c-0.333-1-1.333-1.667-2.167-1.667
			c-0.166,0.833,0,1.667,0.667,2.333c-2-1.667-4.5-3-6.833-4.167c0,2.167,2,4.5,3,6.167c1-0.5,1.5-0.667,1.5,0.5
			c0.333,0.333,0.5-0.333,0.5-0.333c0,0.333,0,0.667-0.167,1c0.333-0.333,1.333-0.833,1.833-1.167c-0.166,0.5-0.166,1-0.333,1.667
			c0.5-0.167,1.167,0,1.667-0.167c-0.334,0.833-0.5,1.667-0.667,2.667c3.167,0.5,2.167,2.833,2.333,4.5l-33.667-23.333
			c6.5,3,12.667,4.167,19.667,4.833c4,0.333,7.834,0,11.667,0.667c2,0.167,3.667,0.5,5.5,0.667s3.833,1,5.667,1
			c0.666,0,1-0.167,1.666-0.5l-13.333-2.333c3.333,0.333,6.667-1.667,10-2.667c6.667-2,14-2.667,20.667-3.333
			c8-0.667,13.666-2,20.333-6c5.667-3.333,5.667-2.667,11-1.667c2.333,0.333,6.333,1.333,8.667,0.333l-6.858,3.069
			c26.419-13.566,55.694-22.849,82.828-36.416l23.03-7.32l24.555,7c0,0,10.277-3,17.361-4.667s7.541-10.696,16.312-8.681
			s20.106-12.652,20.106-12.652l19.334-7.349c0,0,7.163-2.015,13.247,0s17.417,7.015,17.417,7.015l27,10l17,2.985l50.667-10.986
			l10.667,13.147l6,58.19l2.592,108.33h-19.299c-10.915,0.56-21.732,1.002-32.358,1.002c-15.898,0-28.617-8.666-44.515-9.333
			c-16.535-1.333-33.705-2.667-49.603,0.667c-10.176,2-17.807,6-27.982,5.333c-6.358-0.667-12.718-2.667-19.077-2.667
			c-9.174,0.001-17.224,4.836-26.53,3.647c-6.19-0.79-12.634-2.228-18.864-1.038c-3.415,0.651-5.007,2.62-7.844,4.084
			c-2.73,1.408-5.82,2.275-8.775,3.906c-3.662,2.019-10.188,0.754-13.998-0.316c-6.201-1.744-13.269-2.025-19.132-4.634
			c-3.021-1.345-4.973-2.882-5.701-6.602c-4.204-0.91-10.894,7.745-13.942,9.96c-2.103,1.527-3.211,2.975-6.042,3.324
			c-2.081,0.257-3.827-0.297-5.724-0.666l6.199-3.667c-7.154,1-15.739,2-22.894,0.5c-4.77-1.5-9.062-5-13.831-6.5l1.27,0.662
			c-23.53,4-47.059-7.332-69.952,0.668l-26.165-1.455l-26,8.625L177.818,388.141z"/>
		<g display="inline">
			<path fill="#CC9933" d="M176.852,388.4c0.509,3.655,6.839,5.701,9.651,7.083c6.536,3.214,12.171,8.153,17.402,13.142
				c0.336,0.321,2.066-0.395,1.826-0.635c-1.277-1.278-2.555-2.556-3.833-3.833c-0.308-0.308-2.003,0.409-1.879,0.576
				c3.567,4.792,8.305,8.606,11.716,13.494c3.196,4.579,7.419,6.894,11.504,10.565c0.328,0.295,1.516-0.166,1.782-0.412
				c2.167-2,4.333-4,6.5-6c0.056-0.051,0.165-0.162,0.044-0.223c-0.63-0.298-1.242-0.632-1.834-1
				c-0.444-0.26-2.024,0.51-1.826,0.635c1.327,0.836,2.788,1.263,4.167,2c0.57-0.223,1.142-0.447,1.713-0.67
				c-1.803-0.422-3.763-1.095-5.626-1.137c-2.381,0.994-1.685,1.323,2.089,0.987c1.763,0.163,3.519,0.439,5.271,0.688
				c2.652,0.375,4.77,0.96,7.368,0.237c0.063-0.018,1.158-0.408,0.845-0.573c-2.242-1.187-4.461-1.354-6.969-1.385
				c-2.66-0.034-5.278-0.029-7.935-0.292c-4.284-0.424,0.527,0.773,1.732,0.951c2.264,0.333,4.493,0.896,6.708,1.459
				c1.118,0.285,3.434-0.941,0.291-0.6c-1.542,0.167-2.343,0.638-3.442,1.612c0.605-0.092,1.212-0.184,1.817-0.276
				c0.4-0.633,0.734-1.3,1-2c0.034-0.058,0.022-0.103-0.036-0.136c-0.056-0.056-0.111-0.111-0.167-0.167
				c-0.303-0.303-1.672,0.177-1.862,0.499c-0.395,0.486-0.617,1.042-0.666,1.667c-0.105,0.454,1.505-0.082,1.681-0.184
				c1.279-0.743,2.232-1.548,3.303-2.592c-0.611,0.118-1.223,0.235-1.834,0.353c0,0.5,0,1,0,1.5c0,0.372,1.674-0.197,1.834-0.353
				c0.404-0.437,0.849-0.826,1.334-1.167c-0.611,0.118-1.223,0.235-1.834,0.353c0.123,0.72,0.234,1.443,0.333,2.167
				c0.06,0.412,1.749-0.191,1.915-0.44c0.223-0.333,0.445-0.667,0.667-1c-0.638,0.147-1.276,0.293-1.915,0.44
				c-0.027,0.729,0.027,1.451,0.166,2.167c0.048,0.355,1.795-0.119,1.915-0.44c0.167-0.444,0.334-0.889,0.5-1.333
				c-0.638,0.147-1.276,0.293-1.915,0.44c0.062,0.777,0.117,1.555,0.167,2.333c0.024,0.357,1.768-0.146,1.915-0.44
				c0.223-0.444,0.445-0.889,0.667-1.333c-0.638,0.147-1.276,0.293-1.915,0.44c0.033,0.895-0.022,1.784-0.167,2.667
				c-0.026,0.23,1.771-0.057,1.915-0.44c0.411-1.095,0.855-2.023,1.5-3c-0.638,0.147-1.276,0.293-1.915,0.44
				c-0.179,1.455-0.618,2.818-1.316,4.089c-0.117,0.251,1.654,0.048,1.898-0.363c0.767-1.288,1.517-2.576,2.333-3.833
				c-0.633,0.121-1.266,0.242-1.898,0.363c-0.601,1.127-1.237,2.143-2,3.167c-0.093,0.124,1.565,0.05,1.898-0.363
				c0.97-1.244,1.998-2.437,3.086-3.58c-0.605,0.092-1.212,0.184-1.817,0.276c-0.667,1.289-1.453,2.349-2.334,3.5
				c-0.172,0.224,1.563-0.096,1.817-0.276c0.375-0.228,0.708-0.506,1-0.833c-0.605,0.092-1.212,0.184-1.817,0.276
				c-0.076,0.306-0.093,0.271-0.017,0.577c0.105,0.424,1.747-0.18,1.915-0.44c0.407-0.737,0.907-1.403,1.5-2
				c-0.638,0.147-1.276,0.293-1.915,0.44c0.056,0.222,0.111,0.444,0.167,0.667c0.09,0.359,1.833-0.102,1.915-0.44
				c0.113-0.571,0.279-1.127,0.5-1.667c-0.638,0.147-1.276,0.293-1.915,0.44c0.02,1.423,0.137,2.622,0.5,4
				c0.099,0.374,1.893-0.103,1.932-0.518c0.111-1.167,0.223-2.333,0.333-3.5c-0.644,0.172-1.288,0.345-1.932,0.518
				c-0.052,1.882-0.137,3.432,0.667,5.167c0.185,0.399,1.866-0.115,1.932-0.518c0.202-1.323,0.475-2.63,0.816-3.923
				c-0.638,0.147-1.276,0.293-1.915,0.44c-0.32,2.173-1.144,4.003-1.333,6.167c-0.02,0.222,1.814-0.026,1.915-0.44
				c0.653-2.67,1.32-5.273,2.333-7.833c-0.638,0.147-1.276,0.293-1.915,0.44c0.025,1.43-0.244,2.742-0.333,4.167
				c-0.021,0.321,1.745-0.16,1.915-0.44c0.706-1.161,0.854-2.098,1.017-3.411c-0.644,0.172-1.288,0.345-1.932,0.518
				c-0.026,1.528,0.016,2.835,0.333,4.333c0.074,0.349,1.842-0.096,1.915-0.44c0.29-1.358,0.505-2.698,0.684-4.077
				c-0.644,0.172-1.288,0.345-1.932,0.518c-0.171,1.057-0.005,2.057,0.5,3c0.138,0.396,1.871-0.118,1.932-0.518
				c0.193-0.991,0.305-1.991,0.333-3c-0.644,0.172-1.288,0.345-1.932,0.518c0.312,1.241,0.612,2.345,1.167,3.5
				c0.178,0.37,1.96-0.108,1.932-0.518c-0.029-1.009-0.14-2.009-0.333-3c-0.05-0.325-1.938,0.068-1.932,0.518
				c-0.033,1.005,0.022,2.005,0.166,3c0.644-0.172,1.288-0.345,1.932-0.518c-1.205-1.521-1.798-3.781-4.229-3.13
				c-2.252,0.604-2.122,2.578-1.368,4.481c0.154,0.389,1.786-0.117,1.915-0.44c0.826-2.06,0.974-4.342-1.203-5.469
				c-0.37-0.192-1.688,0.082-1.862,0.499c-0.57,1.355-1.997,5.519,0.25,5.888c1.072,0.176,2.114-0.582,2.671-1.39
				c1.888-2.74-1.654-7.275-3.391-4.06c-1.316,2.439,0.919,6.654,3.141,3.66c0.947-1.276,1.15-4.917-1.061-5.28
				c-0.496-0.082-1.164,0.006-1.667,0.141c-2.895,0.775-5.595,1.189-8.581-0.124c-0.428-0.188-2.049,0.5-1.826,0.635
				c1.043,0.634,2.014,1.099,3.167,1.5c0.334,0.116,2.137-0.37,1.826-0.635c-1.072-0.915-2.066-1.554-3.334-2.167
				c-0.473-0.229-1.999,0.544-1.826,0.635c0.761,0.422,1.539,0.812,2.334,1.167c0.57-0.223,1.142-0.447,1.713-0.67
				c-1.82-0.262-3.123-0.009-4.852-0.076c0.457,0.018,1.2-0.193,1.527-0.256c0.128-0.025,1.584-0.589,0.99-0.668
				c-1.532-0.203-2.959-0.372-4.498-0.345c-0.197,0.003-1.868,0.527-1.548,0.681c1.786,0.858,3.467,1.043,5.446,1.202
				c0.277,0.022,2.011-0.527,1.713-0.67c-1.541-0.743-3.098-0.913-4.779-1.202c-0.26-0.044-2.044,0.406-1.713,0.67
				c2.027,1.621,4.063,1.79,6.5,2.667c0.33,0.119,2.138-0.353,1.826-0.635c-0.742-0.708-1.521-1.375-2.334-2
				c-0.283-0.231-2.029,0.311-1.879,0.576c0.851,1.498,1.645,2.574,2.887,3.726c0.259,0.241,1.934-0.175,1.879-0.576
				c-0.011-0.653-0.178-1.264-0.5-1.833c-0.153-0.375-1.941,0.105-1.932,0.518c0.115,4.995,5.578,2.911,4.098-1.184
				c-0.136-0.376-1.811,0.108-1.915,0.44c-0.551,1.744-0.627,3.247-0.35,5.077c0.06,0.396,1.666-0.175,1.834-0.353
				c1.492-1.577,1.717-3.791,1.098-5.832c-0.136-0.448-1.726,0.201-1.915,0.44c-1.098,1.387-1.58,2.516-1.35,4.244
				c0.051,0.381,1.537-0.156,1.697-0.261c2.16-1.414,2.337-4.027,2.067-6.424c-0.039-0.351-1.791,0.119-1.915,0.44
				c-0.943,2.442-1.831,4.961-1.184,7.577c0.102,0.411,1.759-0.162,1.915-0.44c1.142-2.023,1.617-4.147,2.017-6.41
				c0.028-0.157-1.817-0.022-1.915,0.44c-0.428,2.005-0.409,1.132-0.183,3.077c0.047,0.4,1.665-0.191,1.834-0.353
				c1.63-1.562,4.718,1.169,5.581-1.921c-0.583,0.178-1.166,0.356-1.749,0.534c1.978,0.527,3.273,0.226,5.031-0.688
				c0.108-0.057,0.32-0.188,0.182-0.315c-0.503-0.594-1.114-1.038-1.834-1.333c-0.283-0.157-2.057,0.293-1.879,0.576
				c0.899,1.437,2.042,2.112,3.553,2.892c0.608-0.211,1.218-0.423,1.826-0.635c-0.865-0.321-1.698-0.709-2.5-1.167
				c-0.57,0.223-1.142,0.447-1.713,0.67c2.69,0.613,4.742,0.27,7.181-0.929c0.143-0.07,0.671-0.346,0.253-0.443
				c-1.754-0.407-6.322-0.054-5.157,2.782c0.748,1.821,5.624-1.551,6.14-2.111c0.098-0.105-0.101-0.159-0.149-0.171
				c-2.488-0.588-5.354-0.339-7.168,1.613c-0.197,0.211,0.013,0.275,0.233,0.27c2.262-0.06,2.653-0.008,2.336,2.395
				c-0.025,0.192,0.723,0.066,0.775,0.057c2.194-0.376,3.765-1.172,5.392-2.743c0.444-0.429-1.242-0.077-1.415,0.004
				c-0.787,0.371-1.421,0.685-2.185,1.092c-0.339,0.181-0.242,0.347,0.097,0.362c1.479,0.065,2.673-0.17,3.417-1.545
				c0.141-0.26-1.625,0.039-1.898,0.363c-0.811,0.729-1.365,1.619-1.666,2.667c-0.146,0.329,0.926,0.101,1.018,0.074
				c1.224-0.35,1.975-0.45,2.063-1.848c0.021-0.338-1.674,0.181-1.834,0.353c-0.586,0.627-0.808,1.083-0.73,1.946
				c0.036,0.061,0.092,0.092,0.167,0.094c2.135,0.176,4.931-1.877,1.679-3.118c-0.349-0.133-1.866,0.071-1.879,0.576
				c-0.078,2.973,2.872,2.138,4.53,1.072c0.104-0.067,0.322-0.181,0.182-0.315c-1.458-1.399-3.164-1.669-5.056-1.331
				c-0.11,0.02-1.297,0.316-1.156,0.574c1.264,2.325,3.915,1.989,5.863,0.739c0.034-0.022,0.384-0.243,0.182-0.315
				c-1.802-0.651-1.267-0.509-3.113-0.869c-0.236-0.046-1.905,0.208-1.766,0.611c0.687,1.98,2.147,2.91,4.166,3.26
				c0.209,0.036,1.974-0.378,1.766-0.611c-1.39-1.56-2.833-2.351-4.832-2.927c-0.225-0.065-1.938,0.272-1.766,0.611
				c0.704,1.392,1.352,1.672,2.832,2.094c0.225,0.064,1.958-0.346,1.766-0.611c-0.164-0.226-0.168-0.255-0.386-0.392
				c-0.57,0.223-1.142,0.447-1.713,0.67c0.617,0.146,1.229,0.312,1.833,0.5c0.433,0.127,1.873-0.608,1.713-0.67
				c-2.751-1.066-4.828-2.26-7.478-0.514c-0.044,0.029-0.377,0.232-0.182,0.315c0.427,0.213,0.871,0.38,1.333,0.5
				c0.57-0.223,1.142-0.447,1.713-0.67c-3.045-0.789-4.812-0.028-7.168,2.114c-0.449,0.408,1.389,0.009,1.6-0.096
				c0.333-0.167,0.667-0.333,1-0.5c0.146-0.074,0.386-0.319,0.068-0.351c-2.06-0.206-3.44-1.44-5.22-2.298
				c-0.351-0.169-1.846,0.09-1.879,0.576c-0.015,1.515-0.287,2.989-0.816,4.423c-0.117,0.303,1.672,0.021,1.898-0.363
				c0.517-1.051,1.183-1.995,2-2.833c-0.633,0.121-1.266,0.242-1.898,0.363c-0.369,0.592-0.702,1.203-1,1.833
				c-0.132,0.258,1.632-0.007,1.898-0.363c0.334-0.444,0.667-0.889,1-1.333c0.18-0.239-1.574,0.11-1.817,0.276
				c0.286-0.195-3.059-4.9-3.719-5.578c-0.288-0.296-2.013,0.375-1.879,0.576c0.61,0.984,1.277,1.928,2,2.833
				c0.626-0.192,1.253-0.384,1.879-0.576c-0.666-0.784-1.499-1.284-2.5-1.5c-0.256-0.098-2.062,0.2-1.879,0.576
				c0.648,1.338,1.131,1.872,2.386,2.559c0.279,0.153,2.057-0.28,1.879-0.576c-0.652-1.091-1.099-1.459-2.333-1.761
				c-0.318-0.078-1.773,0.148-1.766,0.611c-0.186,0.892,0.037,1.67,0.667,2.333c0.626-0.192,1.253-0.384,1.879-0.576
				c-2.148-1.646-4.426-2.939-6.833-4.167c-0.294-0.15-1.953,0.125-1.879,0.576c0.396,2.405,1.697,4.158,3,6.167
				c0.228,0.352,1.244-0.055,1.513-0.168c-0.004,0.223-0.009,0.446-0.013,0.668c0.035,0.161,0.448,0.103,0.537,0.093
				c0.125-0.014,0.25-0.028,0.375-0.042c0.329-0.036,1.22-0.164,1.378-0.533c0.042-0.097,0.084-0.195,0.125-0.292
				c-0.638,0.147-1.276,0.293-1.915,0.44c-0.056,0.333-0.111,0.667-0.167,1c-0.059,0.348,1.687-0.252,1.834-0.353
				c0.565-0.358,1.131-0.716,1.696-1.074c-0.561,0.061-1.121,0.122-1.681,0.184c-0.135,0.625-0.231,1.109-0.35,1.744
				c-0.027,0.146,0.503,0.096,0.537,0.093c1.463-0.146,0.67,1.338,0.463,2.407c0.018,0.02,0.035,0.039,0.053,0.059
				c2.485,0.771,2.254,2.261,2.28,4.441c0.626-0.192,1.253-0.384,1.879-0.576c-11.222-7.778-22.444-15.556-33.667-23.333
				c-0.609,0.211-1.217,0.423-1.826,0.635c8.536,3.758,17.42,4.903,26.67,5.109c4.85,0.108,9.809,0.953,14.542,1.96
				c1.595,0.339,2.977,0.018,4.414-0.629c0.129-0.059,0.682-0.368,0.253-0.443c-2.695-0.472-5.391-0.943-8.086-1.415
				c-1.503-0.263-3.006-0.526-4.509-0.789c-1.017-0.178-0.362,0.573-0.506,0.575c0.796-0.006,1.605-0.212,2.369-0.417
				c3.904-1.046,7.531-2.688,11.513-3.557c3.925-0.856,7.951-1.266,11.941-1.687c5.431-0.572,10.979-0.88,16.185-2.682
				c5.336-1.847,11.021-6.771,16.71-5.609c2.146,0.438,4.432,0.965,6.626,1.024c1.249,0.034,1.544,0.022,2.771-0.092
				c0.439-0.041,1.385-0.94,0.466-0.528c-1.524,0.682-3.048,1.364-4.572,2.046c-0.548,0.245-1.096,0.49-1.644,0.735
				c2.419-1.083,5.027-1.81,7.483-3.001c7.154-3.47,14.465-6.614,21.795-9.689c14.253-5.979,28.666-11.562,42.764-17.908
				c4.352-1.959,8.595-4.559,13.142-6.004c3.454-1.098,6.907-2.195,10.361-3.293c3.143-0.999,6.285-1.998,9.428-2.997
				c1.477-0.469,1.748,0.016,0.546-0.327c0.876,0.25,1.752,0.5,2.628,0.749c6.771,1.931,13.543,3.861,20.314,5.791
				c1.1,0.313,1.733,0.552,2.838,0.232c4.76-1.381,9.541-2.692,14.346-3.913c3.476-0.883,5.992-1.641,8.609-4.188
				c1.388-1.351,2.57-2.874,4.058-4.129c2.431-2.052,6.08-0.321,8.888-0.828c6.954-1.258,12.412-6.424,16.932-11.549
				c1.791-2.031,0.404-1.203,3.168-2.253c3.615-1.375,7.23-2.749,10.846-4.123c1.899-0.722,4.233-1.813,6.008-2.286
				c7.226-1.925,13.568,0.485,20.153,3.144c5.036,2.033,9.971,4.189,15.062,6.075c6.651,2.463,13.302,4.927,19.953,7.39
				c4.593,1.701,9.84,2.01,14.645,2.854c3.573,0.627,5.244,0.464,8.758-0.298c7.008-1.52,14.016-3.039,21.022-4.559
				c7.008-1.52,14.016-3.039,21.022-4.559c1.404-0.304,2.809-0.609,4.213-0.913c-0.878,0.19-0.393,0.272,0.354,1.193
				c1.229,1.515,2.459,3.03,3.688,4.545c2.614,3.222,5.778,5.686,6.206,9.831c0.645,6.249,1.289,12.498,1.933,18.747
				c1.267,12.285,2.533,24.569,3.8,36.854c0.533,5.165,0.26,10.541,0.384,15.726c0.295,12.344,0.591,24.688,0.886,37.033
				c0.444,18.553,0.888,37.107,1.332,55.66c0.533-0.208,1.066-0.415,1.601-0.623c-5.926,0-11.851,0-17.775,0
				c-13.382,0-27.01,2.203-40.354,0.531c-12.42-1.556-23.766-8.007-36.351-8.761c-14.833-0.888-29.518-2.352-44.357-0.611
				c-6.019,0.706-11.874,2.193-17.687,3.857c-4.523,1.294-9.018,2.428-13.738,2.705c-4.307,0.253-8.661-0.838-12.867-1.625
				c-5.742-1.074-11.109-1.349-16.855-0.309c-3.282,0.595-6.501,1.562-9.758,2.279c-5.824,1.282-11.214,0.312-16.977-0.455
				c-4.557-0.606-9.617-0.923-14.036,0.613c-1.966,0.683-3.638,1.935-5.354,3.071c-2.646,1.753-5.813,2.484-8.618,3.914
				c-6.702,3.416-15.153-0.371-22.006-1.606c-6.378-1.149-14.76-2.17-16.614-9.45c-0.036-0.061-0.092-0.092-0.166-0.094
				c-4.607-0.388-8.261,3.414-11.291,6.359c-1.242,1.207-2.447,2.446-3.745,3.594c-0.574,0.458-1.154,0.909-1.738,1.353
				c-2.047,0.626-4.095,1.253-6.142,1.88c-0.889-0.255-1.794-0.356-2.716-0.303c2.019-1.194,4.036-2.388,6.055-3.582
				c0.477-0.282,0.033-0.396-0.303-0.35c-6.439,0.884-12.878,1.586-19.377,0.996c-6.208-0.564-11.146-4.896-16.863-6.961
				c-0.439-0.159-2.034,0.527-1.826,0.635c0.423,0.221,0.847,0.441,1.27,0.662c0.368-0.211,0.735-0.422,1.104-0.633
				c-18.755,2.889-37.176-3.723-55.907-2.125c-3.691,0.315-7.271,0.899-10.865,1.794c-1.693,0.421-2.643,0.956-4.325,0.863
				c-4.482-0.25-8.966-0.499-13.448-0.748c-5.8-0.322-10.367-1.002-15.804,0.801c-7.426,2.463-14.853,4.927-22.28,7.391
				c0.43-0.027,0.859-0.054,1.289-0.081c-2.545-47.757-5.09-95.513-7.635-143.27c-0.066-1.243-0.132-2.486-0.199-3.729
				C178.769,387.606,176.826,387.916,176.852,388.4c2.545,47.757,5.09,95.513,7.635,143.27c0.066,1.243,0.132,2.486,0.199,3.729
				c0.016,0.299,1.177-0.044,1.289-0.081c6.949-2.305,13.897-4.61,20.846-6.915c1.379-0.458,2.758-0.915,4.137-1.372
				c1.924-0.639-0.709-0.194,0.793-0.111c4.117,0.229,8.233,0.458,12.35,0.687c3.986,0.222,7.972,0.443,11.958,0.665
				c0.621,0.035,1.219,0.118,1.827-0.045c6.17-1.653,11.908-2.76,18.315-2.827c17.275-0.18,34.066,4.885,51.378,2.219
				c0.095-0.015,1.43-0.463,1.104-0.633c-0.423-0.221-0.847-0.441-1.27-0.662c-0.608,0.211-1.218,0.423-1.826,0.635
				c4.821,1.742,9.01,4.758,13.831,6.5c3.454,1.248,8.146,0.862,11.726,0.734c3.1-0.111,9.503-0.456,10.81-1.229
				c-1.887,1.116-3.772,2.232-5.659,3.348c-0.162,0.096-0.371,0.286-0.068,0.35c9.141,1.93,13.195-2.881,19.519-8.843
				c0.874-0.824,1.801-1.577,2.747-2.315c3.399-2.65,3.657,0.179,4.604,1.815c0.935,1.613,2.829,2.527,4.427,3.291
				c5.941,2.839,12.942,3.03,19.245,4.669c9.855,2.564,16.877,0.335,25.634-4.709c5.503-3.17,10.044-3.678,16.328-2.975
				c3.121,0.349,6.27,1.161,9.416,1.215c6.391,0.111,12.343-1.795,18.536-3.113c8.9-1.894,16.63,1.631,25.34,1.978
				c5.889,0.235,11.405-0.857,17.055-2.418c16.517-4.563,32.387-5.501,49.434-4.419c7.49,0.476,15.036,0.84,22.358,2.566
				c6.79,1.601,13.332,4.13,20.092,5.86c13.945,3.568,29.393,1.539,43.595,0.84c7.055-0.347,14.161-0.098,21.224-0.098
				c0.295,0,1.611-0.174,1.601-0.623c-1.041-43.499-0.417-87.243-4.882-130.541c-1.118-10.849-2.237-21.697-3.355-32.545
				c-0.688-6.665-6.897-11.498-11.021-16.582c-0.156-0.193-0.571-0.101-0.775-0.057c-11.922,2.585-23.845,5.17-35.767,7.755
				c-4.894,1.062-9.787,2.123-14.681,3.184c0.019-0.004,0.435,0.018-0.694-0.18c-1.509-0.265-3.018-0.53-4.526-0.795
				c-3.588-0.63-7.176-1.26-10.764-1.89c-4.996-0.877-10.179-3.655-14.933-5.416c-4.644-1.72-9.389-3.274-13.932-5.25
				c-8.562-3.723-17.098-8.208-26.663-7.071c-5.023,0.597-9.785,3.029-14.457,4.804c-3.921,1.49-8.065,2.208-10.813,5.402
				c-3.055,3.548-6.576,6.787-10.642,9.133c-4.34,2.504-9.07-0.298-13.292,1.996c-3.882,2.109-5.795,6.731-10.18,8.055
				c-5.215,1.574-10.586,2.727-15.83,4.225c-0.477,0.136-0.952,0.274-1.428,0.412c0.754-0.219,0.929-0.02,0.351-0.185
				c-0.969-0.276-1.938-0.552-2.905-0.828c-3.77-1.074-7.538-2.149-11.307-3.223c-3.182-0.907-8.129-3.584-11.481-2.519
				c-6.392,2.031-12.783,4.063-19.175,6.094c-9.982,3.173-19.36,8.604-29.026,12.677c-14.196,5.981-28.57,11.529-42.636,17.82
				c-5.062,2.264-10.059,4.671-15,7.187c-0.815,0.415,1.006,0.21,1.278,0.088c2.286-1.023,4.572-2.046,6.858-3.069
				c0.966-0.432-0.158-0.478-0.615-0.346c-4.718,1.355-9.191-1.969-13.782-1.185c-4.333,0.74-7.955,3.774-11.91,5.506
				c-7.456,3.265-16.195,3.007-24.145,4.083c-2.495,0.338-5.004,0.762-7.447,1.367c-4.133,1.024-8.41,3.422-12.68,3.454
				c-0.279,0.002-1.991,0.619-1.435,0.716c2.381,0.417,4.762,0.833,7.143,1.25c1.642,0.287,3.282,0.574,4.924,0.861
				c3.089,0.541-2.409-0.603-3.066-0.757c-4.928-1.156-10.301-1.316-15.341-1.41c-7.829-0.146-15.619-1.796-22.78-4.948
				c-0.398-0.175-2.08,0.459-1.826,0.635c11.222,7.778,22.444,15.556,33.667,23.333c0.306,0.212,1.885-0.132,1.879-0.576
				c-0.011-0.903,0.026-1.786-0.041-2.688c-0.163-2.187-2.809-0.657-1.642-4.402c0.077-0.246-0.401-0.182-0.521-0.17
				c-1.029,0.382-1.3-0.062-0.813-1.33c0.099-0.456-1.502,0.077-1.681,0.184c-0.768,0.458-1.24,0.761-1.97,1.259
				c0.611-0.118,1.223-0.235,1.834-0.353c0.056-0.333,0.111-0.667,0.167-1c0.034-0.207-1.751,0.057-1.915,0.44
				c0.416-0.289,0.832-0.578,1.248-0.866c-0.036-0.061-0.092-0.092-0.166-0.094c-1.037-0.192-1.712,0.113-2.68,0.521
				c0.504-0.056,1.009-0.112,1.513-0.168c-1.303-2.008-2.604-3.761-3-6.167c-0.626,0.192-1.253,0.384-1.879,0.576
				c2.407,1.228,4.685,2.521,6.833,4.167c0.287,0.22,2.033-0.312,1.879-0.576c-0.63-0.664-0.853-1.441-0.667-2.333
				c-0.588,0.204-1.177,0.408-1.766,0.611c0.667,0.524,1.334,1.049,2.001,1.573c0.626-0.192,1.253-0.384,1.879-0.576
				c-1.154-0.499-1.914-1.312-2.28-2.441c-0.626,0.192-1.253,0.384-1.879,0.576c1,0.216,1.834,0.716,2.5,1.5
				c0.317,0.268,2.014-0.396,1.879-0.576c-0.723-0.905-1.389-1.85-2-2.833c-0.626,0.192-1.253,0.384-1.879,0.576
				c2.253,2.313,3.436,7.371,7.281,4.755c-0.605,0.092-1.212,0.184-1.817,0.276c-0.334,0.444-0.667,0.889-1,1.333
				c0.633-0.121,1.266-0.242,1.898-0.363c0.298-0.63,0.632-1.242,1-1.833c0.134-0.227-1.612,0.018-1.898,0.363
				c-0.818,0.838-1.484,1.783-2,2.833c0.633-0.121,1.266-0.242,1.898-0.363c0.612-1.588,0.731-2.854,0.85-4.577
				c-0.626,0.192-1.253,0.384-1.879,0.576c2.973,1.435,4.79,3.626,7.948,0.755c0.429-0.39-1.361-0.046-1.6,0.096
				c-0.278,0.167-0.556,0.333-0.834,0.5c-0.803,0.481,1.017,0.214,1.278,0.088c1.051-0.079,2.103-0.159,3.153-0.238
				c0.465,0.121,1.829-0.634,1.713-0.67c-1.724-0.535,2.266,0.811,2.674,0.968c0.57-0.223,1.142-0.447,1.713-0.67
				c-0.605-0.188-1.217-0.354-1.833-0.5c-0.319-0.082-1.996,0.493-1.713,0.67c0.094,0.092,0.187,0.184,0.28,0.275
				c0.588-0.204,1.177-0.408,1.766-0.611c-0.834-0.635-1.667-1.271-2.5-1.906c-0.588,0.204-1.177,0.408-1.766,0.611
				c1.83,0.368,3.33,1.281,4.5,2.739c0.588-0.204,1.177-0.408,1.766-0.611c-1.901-0.33-3.204-1.256-3.834-3.073
				c-0.588,0.204-1.177,0.408-1.766,0.611c0.2-0.259,0.4-0.519,0.6-0.778c-0.386,0.191-0.771,0.383-1.156,0.574
				c2.997-0.537,2.589,2.021,2.656-0.574c-0.626,0.192-1.253,0.384-1.879,0.576c0.812,1.169,1.628,1.254,2.447,0.255
				c-0.611,0.118-1.223,0.235-1.834,0.353c1.095-0.191,1.9-0.783,2.415-1.774c-0.633,0.121-1.266,0.242-1.898,0.363
				c-0.66,1.296-1.249,1.008-1.768-0.863c0.067-0.304-0.619-0.16-0.759-0.134c1.646-1.081,0.403-1.315-3.725-0.704
				c-0.344-0.078-1.968,0.539-1.713,0.67c0.802,0.458,1.635,0.846,2.5,1.167c0.461,0.192,2.012-0.54,1.826-0.635
				c-1.45-0.749-2.521-1.293-3.447-2.774c-0.626,0.192-1.253,0.384-1.879,0.576c1.291,0.365,1.307,0.697,0.047,0.997
				c-0.334-0.089-1.635,0.125-1.749,0.534c-0.116,0.414-4.438,0.807-5.419,1.746c0.611-0.118,1.223-0.235,1.834-0.353
				c0.05-0.974,0.1-1.949,0.149-2.923c-0.638,0.147-1.276,0.293-1.915,0.44c-0.402,2.275-0.852,4.249-1.983,6.256
				c0.638-0.147,1.276-0.293,1.915-0.44c-0.634-2.562,0.226-5.026,1.15-7.423c-0.638,0.147-1.276,0.293-1.915,0.44
				c0.224,1.987,0.298,4.67-1.599,5.91c0.565-0.087,1.132-0.174,1.697-0.261c-0.249-1.867,0.26-2.753,1.316-4.09
				c-0.638,0.147-1.276,0.293-1.915,0.44c0.56,1.846,0.513,4.006-0.902,5.502c0.611-0.118,1.223-0.235,1.834-0.353
				c-0.274-1.813-0.265-3.08,0.316-4.923c-0.638,0.147-1.276,0.293-1.915,0.44c0.899,2.488-0.161,3.328-0.234,0.149
				c-0.644,0.172-1.288,0.345-1.932,0.518c0.322,0.569,0.488,1.181,0.5,1.833c0.626-0.192,1.253-0.384,1.879-0.576
				c-1.189-1.014-2.116-2.217-2.781-3.608c-0.626,0.192-1.253,0.384-1.879,0.576c0.813,0.625,1.591,1.292,2.334,2
				c0.608-0.211,1.218-0.423,1.826-0.635c-2.245-0.808-4.596-1.145-6.5-2.667c-0.57,0.223-1.142,0.447-1.713,0.67
				c1.591,0.273,3.057,0.411,4.553,1.131c0.57-0.223,1.142-0.447,1.713-0.67c-1.909-0.153-3.416-0.265-5.22-1.131
				c-0.516,0.227-1.031,0.454-1.548,0.681c1.253,0.471,2.397,0.395,3.437-0.228c-0.29-0.011-1.992,0.595-1.435,0.716
				c1.499,0.327,2.982,0.615,4.5,0.833c0.317,0.046,1.981-0.543,1.713-0.67c-0.795-0.356-1.572-0.745-2.334-1.167
				c-0.608,0.211-1.218,0.423-1.826,0.635c1.268,0.614,2.262,1.252,3.334,2.167c0.608-0.211,1.218-0.423,1.826-0.635
				c-1.153-0.402-2.123-0.867-3.167-1.5c-0.608,0.211-1.218,0.423-1.826,0.635c3.75,1.649,6.704,2.294,10.376,0.256
				c2.276-1.263,0.835,7.874,0.944,2.109c0.05-2.646,0.372-0.521,0.627,0.076c0.421,0.988-0.129,3.102-1.165,3.626
				c0.548-0.106,1.097-0.213,1.645-0.32c-1.914-0.69-0.523-4.488-0.064-5.581c-0.62,0.167-1.241,0.333-1.862,0.499
				c2.152,1.115,1.902,3.271,1.131,5.198c0.638-0.147,1.276-0.293,1.915-0.44c-1.161-2.933,0.466-1.917,1.734-0.316
				c0.253,0.32,1.976-0.084,1.932-0.518c-0.144-0.995-0.198-1.995-0.166-3c-0.644,0.172-1.288,0.345-1.932,0.518
				c0.193,0.991,0.304,1.991,0.333,3c0.644-0.172,1.288-0.345,1.932-0.518c-0.555-1.156-0.854-2.259-1.167-3.5
				c-0.092-0.367-1.902,0.097-1.932,0.518c-0.028,1.009-0.14,2.009-0.333,3c0.644-0.172,1.288-0.345,1.932-0.518
				c-0.505-0.943-0.671-1.943-0.5-3c0-0.262-1.869,0.036-1.932,0.518c-0.146,1.318-0.364,2.626-0.65,3.923
				c0.638-0.147,1.276-0.293,1.915-0.44c-0.317-1.498-0.358-2.806-0.333-4.333c0.004-0.25-1.871,0.026-1.932,0.518
				c0.075,1.236-0.253,2.322-0.983,3.256c0.638-0.147,1.276-0.293,1.915-0.44c0.09-1.425,0.359-2.737,0.333-4.167
				c-0.006-0.314-1.783,0.106-1.915,0.44c-1.014,2.56-1.681,5.163-2.333,7.833c0.638-0.147,1.276-0.293,1.915-0.44
				c0.187-2.127,1.023-4.068,1.333-6.167c0.027-0.182-1.808,0-1.915,0.44c-0.334,1.359-0.626,2.697-0.85,4.077
				c0.644-0.172,1.288-0.345,1.932-0.518c-0.804-1.734-0.719-3.285-0.667-5.167c0.007-0.237-1.884,0.014-1.932,0.518
				c-0.11,1.167-0.222,2.333-0.333,3.5c0.644-0.172,1.288-0.345,1.932-0.518c-0.363-1.378-0.48-2.577-0.5-4
				c-0.004-0.302-1.794,0.091-1.915,0.44c-0.222,0.54-0.388,1.095-0.5,1.667c0.638-0.147,1.276-0.293,1.915-0.44
				c-0.056-0.222-0.111-0.444-0.167-0.667c-0.114-0.456-1.726,0.222-1.915,0.44c-0.594,0.597-1.094,1.263-1.5,2
				c0.638-0.147,1.276-0.293,1.915-0.44c-0.005-0.141-0.011-0.282-0.017-0.423c0.109-0.436-1.616,0.083-1.817,0.276
				c-0.293,0.328-0.626,0.605-1,0.833c0.605-0.092,1.212-0.184,1.817-0.276c0.881-1.15,1.668-2.211,2.334-3.5
				c0.153-0.296-1.583,0.038-1.817,0.276c-1.176,1.195-2.194,2.447-3.248,3.754c0.633-0.121,1.266-0.242,1.898-0.363
				c0.764-1.024,1.4-2.04,2-3.167c0.117-0.219-1.632-0.048-1.898,0.363c-0.817,1.257-1.566,2.545-2.333,3.833
				c0.633-0.121,1.266-0.242,1.898-0.363c0.686-1.47,1.123-2.663,1.35-4.244c0.041-0.285-1.73,0.16-1.915,0.44
				c-0.646,0.977-1.09,1.905-1.5,3c0.638-0.147,1.276-0.293,1.915-0.44c0.145-0.883,0.2-1.772,0.167-2.667
				c0.005-0.321-1.762,0.133-1.915,0.44c-0.223,0.444-0.445,0.889-0.667,1.333c0.638-0.147,1.276-0.293,1.915-0.44
				c-0.05-0.778-0.105-1.556-0.167-2.333c-0.025-0.335-1.792,0.111-1.915,0.44c-0.167,0.444-0.334,0.889-0.5,1.333
				c0.638-0.147,1.276-0.293,1.915-0.44c-0.139-0.716-0.193-1.438-0.166-2.167c-0.007-0.373-1.748,0.189-1.915,0.44
				c-0.223,0.333-0.445,0.667-0.667,1c0.638-0.147,1.276-0.293,1.915-0.44c-0.099-0.724-0.209-1.447-0.333-2.167
				c-0.069-0.425-1.654,0.212-1.834,0.353c-0.486,0.342-0.931,0.731-1.334,1.167c0.611-0.118,1.223-0.235,1.834-0.353
				c0-0.5,0-1,0-1.5c0-0.371-1.674,0.196-1.834,0.353c-0.879,0.96-1.889,1.763-3.029,2.408c0.561-0.061,1.121-0.122,1.681-0.184
				c0.05-0.625,0.271-1.181,0.666-1.667c-0.62,0.167-1.241,0.333-1.862,0.499c-0.138,0.742-0.428,1.418-0.869,2.031
				c-0.166,0.293,1.583-0.068,1.817-0.276c1-0.129,2-0.258,2.999-0.387c0.407,0.097,2.106-0.565,1.6-0.705
				c-4.985-1.375-9.985-2.379-15.165-2.511c-0.333-0.009-1.938,0.665-1.434,0.716c5.182,0.535,10.568,0.191,15.685,0.988
				c0.453,0.786,0.053,0.857-1.2,0.216c-1.57-0.294-3.142-0.513-4.727-0.724c-2.437-0.325-4.868-0.477-7.324-0.53
				c-0.37-0.008-2.192,0.707-1.27,0.728c2.542,0.057,4.74,0.587,7.168,1.156c0.34,0.08,1.973-0.531,1.713-0.67
				c-1.379-0.737-2.84-1.164-4.167-2c-0.609,0.211-1.217,0.423-1.826,0.635c0.458,0.268,2.058,0.612,1.519,1.109
				c-0.733,0.676-1.466,1.353-2.198,2.029c-1.314,1.213-2.628,2.425-3.942,3.638c0.594-0.137,1.188-0.274,1.782-0.412
				c-2.064-1.855-4.37-3.332-6.605-4.965c-2.408-1.76-3.954-4.28-5.627-6.679c-3.116-4.463-7.613-7.907-10.881-12.297
				c-0.626,0.192-1.252,0.384-1.879,0.576c1.277,1.278,2.555,2.556,3.833,3.833c0.609-0.211,1.217-0.423,1.826-0.635
				c-5.091-4.856-10.491-9.441-16.713-12.795c-2.879-1.552-9.712-3.558-10.234-7.313C178.739,387.562,176.79,387.957,176.852,388.4z
				"/>
		</g>
	</g>
</g>
<g id="Layer_2">
	<g display="none">
		<path display="inline" fill="#666666" d="M168.037,553.562c-20.258,4.947-39.528,12.144-59.292,17.991
			c-22.235,6.297-44.963,10.794-67.198,17.091c-5.93,1.799-34.304,8.225-36.28,5.075L6.616,372.71l135.357-1.307
			c1.303,12.914,3.91,24.469,7.167,36.704c5.213,18.352,3.91,38.063,7.167,56.416C161.521,495.108,168.037,522.296,168.037,553.562"
			/>
	</g>
	<g display="none">
		<g display="inline">
			<path fill="#CC9933" d="M359.84,388.401c-12.685,7.309-26.136,13.085-39.415,19.201c-7.012,3.229-13.788,7.02-20.864,10.09
				c-5.346,2.32-11.073,5.688-16.627,7.285c-0.157,0.045-1.354,0.617-0.677,0.808c3.199,0.903,6.22-0.874,9.257-1.886
				c1.083-0.361,0.373-0.966-0.462-0.694c-9.151,2.978-17.706,7.412-26.697,10.801c-2.743,1.034-5.838,1.321-8.342,2.851
				c-1.813,1.108-3.626,2.216-5.438,3.325c0.487,0.059,0.976,0.118,1.464,0.177c3.01-4.144,9.647-6.624,13.939-9.31
				c5.417-3.39,10.787-6.642,16.636-9.248c10.725-4.78,22.092-7.92,32.448-13.543c-0.444-0.099-0.889-0.197-1.334-0.296
				c-5.597,4.083-11.194,8.167-16.792,12.25c-0.814,0.595,0.809,0.521,1.114,0.397c0.926-0.373,1.569-0.663,2.47-1.101
				c1.164-0.565-0.619-0.666-1.154-0.409c-3.306,1.582-6.702,2.905-9.875,4.75c-1.041,0.605,0.403,0.751,0.935,0.51
				c6.671-3.023,12.68-5.568,18.774-9.714c0.84-0.571-0.824-0.505-1.114-0.397c-5.365,1.989-10.26,4.953-15.474,7.284
				c-2.359,1.054-4.811,1.834-7.21,2.782c-1.208,0.477-6.14,3.528-1.007,1.069c1.169-0.56-0.621-0.658-1.154-0.409
				c-7.048,3.289-13.607,7.435-20.404,11.21c-12.641,7.023-27.255,12.094-41.044,16.297c-1.123,0.342-0.929,1.123,0.208,0.776
				c14.41-4.391,28.274-10.188,41.887-16.606c2.878-1.356,5.622-3.123,8.403-4.668c2.128-1.183,4.091-2.615,6.245-3.772
				c1.446-0.776,2.944-1.459,4.428-2.16c-0.386-0.554-0.756-0.683-1.11-0.386c-0.776,0.44-1.498,0.955-2.167,1.546
				c-0.799,0.636,0.811,0.509,1.114,0.397c7.464-2.749,14.843-6.497,21.95-10.119c1.461-0.744,2.951-1.426,4.471-2.045
				c-0.89-0.25-1.638,0.034-2.244,0.852c-2.683,1.808-5.412,3.413-8.378,4.711c-1.158,0.453-2.322,0.89-3.492,1.31
				c-1.849,0.136-2.229,0.527-1.141,1.172c2.189-1.273,4.613-2.167,6.921-3.205c-0.905,0.407,0.93-0.888,1.621-1.393
				c1.851-1.35,3.701-2.699,5.551-4.049c3.061-2.233,6.122-4.466,9.183-6.698c0.851-0.621-0.996-0.48-1.334-0.296
				c-11.295,6.132-23.801,9.488-35.426,14.898c-5.846,2.72-11.198,6.387-16.671,9.765c-3.787,2.338-8.851,4.192-11.546,7.902
				c-0.481,0.663,1.235,0.317,1.464,0.177c2.106-1.287,4.213-2.575,6.318-3.862c1.722-1.052,5.045-1.408,7.021-2.111
				c3.099-1.103,6.116-2.444,9.13-3.756c3.146-1.37,6.28-2.759,9.449-4.075c1.563-0.649,3.147-1.244,4.734-1.831
				c5.195-1.92,2.24-1.608,1.244-1.276c-1.564,0.521-3.129,1.043-4.692,1.564c-1.91,0.637-0.231,0.292,0.705-0.179
				c24.83-12.493,51.224-22.348,75.355-36.254C362.119,388.163,360.373,388.094,359.84,388.401L359.84,388.401z"/>
		</g>
	</g>
	<g>
		<rect x="3.818" y="4.052" fill="#930027" width="448.67" height="325.98"/>
		<path opacity="0.16" fill="#0E53A7" d="M16.411,34.706c0.502-2.582-2.449-3.206-0.903-3.872c1.158-0.499,6.122,1.164,7.927,0.815
			c4.214-0.815-1.427-3.811,4.114-2.921c2.744,0.44,7.667,2.088,11.239,4.484c3.434,2.303,4.107,0.939,8.228,3.533
			s16.958,10.7,19.366,12.025c2.408,1.325-1.806-5.299,6.623-1.223c8.429,4.076,4.064-2.751,3.914-4.994
			c-0.151-2.242,7.225,2.479,14.148,6.93c6.924,4.45,14.048,14.029,16.557,12.331s24.583,20.993,31.909,31.388
			c7.325,10.394,10.335,7.269,17.459,15.082c7.125,7.813,3.834-0.812,5.419,0c1.584,0.813,9.934,5.096,9.934,5.096
			s3.411,2.174,7.827,3.465s3.913-1.63,3.913-1.63s0.703-0.068-3.01-3.465c-3.713-3.397,8.128,1.426,8.128,1.426
			s2.408,0.748,5.117-1.223c2.709-1.97,9.131,1.834,19.266,5.911c10.135,4.076,20.771,4.076,20.771,4.076s7.827,0,13.847,0
			c6.021,0,5.117-2.854,5.117-2.854s-3.511,1.223,0-2.853s14.75-2.718,26.791,0.815c12.041,3.532,3.116-2.451,3.312-3.669
			c0.172-1.066,18.514,6.947,15.45,4.631c-8.152-6.163,4.395,0.229,6.828,0.738c19.466,4.077,35.818,20.516,35.818,20.516
			s4.216,5.774,2.709-1.427c-1.504-7.201,5.118,2.31,9.935,5.299c4.816,2.99,4.214-2.039,4.214-2.039s11.64,8.424,10.536,3.465
			c-1.103-4.959,4.516-3.873,4.516-3.873s0.199-1.767,6.623-2.446c6.422-0.679,17.259,13.859,16.255,10.802
			c-1.002-3.057,9.953,7.21,10.234,2.514c0.41-6.763,4.901,4.438,4.684,6.961c-0.22,2.521,2.518-3.561,3.177-2.596
			c0.656,0.964-0.014,8.262,0.549,9.198c1.4,2.339-0.641,4.565,0.923,7.159c2.912,4.823,0,6.998,0,8.153s-0.501,10.53,0,13.248
			c0.505,2.717-4.393,6.726-5.255,6.114c-0.863-0.611,0.139-3.533-4.979,0c-5.118,3.533-16.958,7.338-15.353,3.057
			c1.606-4.28-6.223-1.698-8.127,0c-1.905,1.699-4.918,1.97-3.612-1.427c1.305-3.396-28.097,10.463-32.211,9.172
			c-4.112-1.291-11.941,3.397-9.632,0c2.309-3.397-4.215-2.038-4.215-2.038s-10.136,5.775-9.934,2.038
			c0.202-3.736-3.01-4.484-3.01-4.484s-8.53-1.767-9.031,0.815c-0.501,2.582-3.11-0.067-5.418-1.426
			c-2.307-1.359-16.959-0.204-24.082,1.019c-7.124,1.223,1.103-2.786-0.301-3.465s-46.96,9.783-61.71,11.821
			s-31.709,2.718-33.715,1.63c-2.006-1.087,5.418-1.223-2.408-2.038c-7.826-0.815-25.99,0.815-30.103,0.408
			c-4.113-0.408-0.603-3.669-5.418-4.484s-48.757,1.099-58.997,2.995c-10.239,1.896-7.01-1.138-10.44-0.413
			c-3.429,0.724-6.824-1.698-10.737-3.397c-3.914-1.699-12.844,5.771-17.159,2.854c-4.315-2.917-2.208,0.135-3.512,4.076
			c-1.304,3.941-18.462,17.326-23.881,17.257c-5.418-0.068-13.747-0.34-13.747-0.34h-9.332L1.059,39.19l13.847-3.873"/>
		<path opacity="0.16" fill="#FFFFFF" d="M463.171,209.268c-0.588,0.222-2.623,2.808-3.177,3.694
			c-0.554,0.887-0.369-2.955-1.33-2.364c-0.96,0.591-0.738-0.037-1.625,0.295c-0.886,0.333-0.263-1.028-1.994,0
			s-2.882,1.478-2.882,1.478s-6.979,3.768-8.42,4.322s-3.292,0.369-2.957-0.333c0.334-0.702-2.293,0.59-3.842,0.369
			c-1.55-0.221-0.414-2.574-1.625-2.66c-1.212-0.086-2.292-0.185-4.211-0.222s-8.314,3.968-6.798,2.908s-1.036-0.935-2.438,0
			s1.034-2.464,0.738-2.316c-0.295,0.147-4.949,2.316-4.949,2.316s-5.95,3.926-7.979,4.776c-2.029,0.85,9.679-7.684,9.679-7.684
			s-1.923,1.588,0.665-0.591c2.588-2.18-0.842-0.787-0.518-1.625s0.887-2.29,0.887-2.29s0.22-2.512-0.665-1.847
			s-1.591-0.037-2.438,0c-0.847,0.037-1.146,1.773-1.772,1.921s-0.63-1.7-1.256-2.364s-0.937,3.213-2.382,0.591
			s-1.278-2.771-2.199-3.99s-0.991,0.889-2.299-1.365c-1.308-2.253-2.334-0.22-4.791,0.22c-5.541,0.992,3.64-2.616-2.219-0.554
			c-5.354,1.884-12.599,0.48-15.219,0.148c-2.621-0.332-4.583,0-6.724-1.034c-2.14-1.034-0.814,0.295-3.842,0
			c-3.026-0.295-3.067-0.518-6.575-1.478c-3.507-0.96-4.028-1.662-5.394-1.847c-1.364-0.185,2.03-2.364,3.178-2.216
			c1.147,0.147,1.623-0.739,3.177-0.961c1.554-0.221,8.679,0.222,11.673-1.255c2.994-1.478,17.321,0.221,18.1-1.478
			c0.778-1.699-11.859-2.291-15.515-2.807c-3.654-0.517-36.938,2.733-36.938,2.733s-24.641,2.327-28.444,3.103
			s-20.175,2.425-21.282,2.129c-1.108-0.296,8.797-1.501,9.314-2.055c0.519-0.554-13.816,1.921-14.037,1.699
			c-0.222-0.222,5.207-0.665,6.058-1.33s-6.612,0.775-9.013,1.108s3.028-1.477,6.501-3.103s9.788-2.364,11.377-2.512
			c1.59-0.147,2.513,0.591,1.7,1.699c-0.812,1.108,10.675-0.258,15.293-0.517c4.617-0.259,12.041-2.031,15.366-2.512
			s17.583,0.037,21.795-0.887c4.211-0.923,10.343-1.145,11.599-1.921c1.257-0.776-5.172-1.034-7.684-1.034
			c-2.511,0-24.897,2.216-28.518,2.881c-3.619,0.665-22.274,1.588-24.084,2.29c-1.81,0.702,3.065-3.952,5.984-4.433
			c2.918-0.48,9.973-2.548,13.889-1.995c3.917,0.554,12.67-0.407,14.85-1.552c2.181-1.145-12.375-1.995-14.997-3.029
			s2.031-0.554,4.433-0.443s15.44,2.66,16.254,1.773c0.812-0.886-1.146-1.145-0.222-1.404c0.924-0.258,7.904,3.214,10.712,2.66
			c2.809-0.554-4.433-1.551-1.847-2.216s12.892,0.407,15.478,0.074s13.778-0.074,17.62-0.295c3.843-0.222,1.44-2.327,6.428-2.216
			c4.987,0.11,1.329-2.364,10.27-1.773c8.939,0.591,20.907,4.913,22.606,5.984s3.398-0.48,3.104,0.517
			c-0.296,0.997,7.793,0.554,5.983-0.074c-1.809-0.628,1.551,0.185,5.394,0.074c3.842-0.111,3.656-3.509,5.614-2.216
			c1.959,1.292,4.691,3.883,5.541,4.804c0.851,0.921-0.259-1.697,1.773,0s1.699-0.445,1.699-0.445s1.847-0.074,1.847,1.847
			c0.001,1.921,1.033,4.249,1.478,3.694c0.444-0.555,0.701,1.367,0,2.438c-0.701,1.071-2.068,5.984-1.625,7.905
			c0.444,1.921,0.738,4.913-0.074,3.62c-0.812-1.293,1.291,3.509,0.296,3.768s-0.682,0.124,0.094,0.908
			C465.593,209.557,463.76,209.046,463.171,209.268z"/>
		<path opacity="0.98" fill="#CC4646" stroke="#CC33CC" stroke-miterlimit="10" d="M15.909,19.15
			c0.469-3.382-2.287-4.201-0.844-5.073c1.082-0.653,5.717,1.525,7.402,1.068c3.936-1.068-1.332-4.993,3.842-3.828
			c2.562,0.577,7.16,2.736,10.494,5.875c3.207,3.018,3.836,1.23,7.684,4.628s15.835,14.019,18.084,15.754
			c2.248,1.735-1.688-6.943,6.184-1.602c7.871,5.34,3.795-3.605,3.654-6.542c-0.141-2.938,6.746,3.249,13.211,9.079
			c6.466,5.83,13.118,18.379,15.461,16.155c2.343-2.225,22.956,27.503,29.797,41.121c6.84,13.618,9.65,9.523,16.303,19.759
			c6.653,10.236,3.58-1.064,5.061,0c1.479,1.064,9.275,6.676,9.275,6.676s3.186,2.848,7.309,4.54
			c4.123,1.691,3.654-2.136,3.654-2.136s0.656-0.089-2.811-4.54s7.59,1.869,7.59,1.869s2.248,0.979,4.778-1.602
			s8.526,2.403,17.99,7.744s19.396,5.34,19.396,5.34s7.309,0,12.931,0s4.778-3.738,4.778-3.738s-3.278,1.602,0-3.738
			s13.773-3.561,25.018,1.068c11.244,4.629,2.91-3.21,3.092-4.806c0.159-1.396,17.288,9.101,14.428,6.067
			c-7.613-8.074,4.103,0.299,6.375,0.966c18.178,5.34,33.449,26.878,33.449,26.878s3.936,7.565,2.53-1.869
			c-1.406-9.435,4.778,3.026,9.275,6.942c4.498,3.917,3.936-2.67,3.936-2.67s10.868,11.037,9.839,4.539
			c-1.03-6.497,4.216-5.073,4.216-5.073s0.187-2.314,6.185-3.204c5.997-0.89,16.115,18.157,15.179,14.152s9.293,9.446,9.558,3.293
			c0.381-8.859,4.575,5.815,4.371,9.12c-0.204,3.304,2.354-4.664,2.967-3.401c0.614,1.263-0.013,10.824,0.512,12.05
			c1.311,3.064-0.596,5.981,0.864,9.378c2.718,6.319,0,9.167,0,10.681c0,1.514-0.469,13.796,0,17.356s-4.103,8.812-4.908,8.011
			c-0.806-0.801,0.13-4.628-4.648,0c-4.779,4.628-15.836,9.613-14.336,4.005c1.499-5.607-5.812-2.226-7.59,0
			c-1.779,2.225-4.592,2.581-3.373-1.869s-26.236,13.707-30.077,12.016c-3.842-1.691-11.152,4.45-8.996,0
			c2.157-4.45-3.935-2.67-3.935-2.67s-9.466,7.565-9.276,2.67c0.188-4.895-2.812-5.875-2.812-5.875s-7.965-2.314-8.433,1.068
			c-0.468,3.382-2.905-0.089-5.06-1.869c-2.154-1.78-15.836-0.267-22.487,1.335c-6.652,1.603,1.029-3.649-0.281-4.539
			c-1.312-0.89-43.852,12.817-57.625,15.487c-13.773,2.67-29.609,3.56-31.482,2.136c-1.873-1.424,5.059-1.602-2.249-2.67
			c-7.308-1.068-24.269,1.068-28.11,0.534c-3.84-0.534-0.562-4.807-5.059-5.875c-4.498-1.068-45.53,1.439-55.092,3.924
			c-9.561,2.484-6.546-1.491-9.748-0.542c-3.203,0.949-6.372-2.225-10.026-4.45c-3.654-2.225-11.993,7.56-16.022,3.738
			s-2.062,0.177-3.279,5.34s-17.24,22.698-22.3,22.609s-12.837-0.446-12.837-0.446H0.167L1.573,25.024l12.93-5.073"/>
		<path opacity="0.98" fill="#CC4646" stroke="#CC33CC" stroke-miterlimit="10" d="M398.196,152.705
			c0.821,3.128,2.721,3.269,2.148,4.359c-0.428,0.818-3.883-0.135-4.733,0.636c-1.985,1.801,2.409,4.183-1.034,4.251
			c-1.707,0.034-5.132-0.91-8.127-3.002c-2.88-2.012-2.674-0.277-6.057-2.492c-3.384-2.214-13.937-9.146-15.834-10.216
			c-1.896-1.069,3.256,5.852-3.145,2.764c-6.399-3.088-1.078,4.043-0.04,6.642c1.035,2.6-5.053-1.458-10.779-5.287
			c-5.725-3.83-13.742-13.634-14.407-11.14c-0.667,2.497-22.537-19.685-31.014-30.406c-8.476-10.72-8.812-6.451-16.078-14.185
			c-7.267-7.733-1.776,1.722-2.999,1.089c-1.222-0.636-7.665-3.984-7.665-3.984s-2.812-1.864-5.806-2.491
			c-2.992-0.626-1.472,2.698-1.472,2.698s-0.36,0.221,3.14,3.459c3.499,3.239-5.105-0.04-5.105-0.04s-1.649-0.394-2.312,2.46
			c-0.661,2.854-5.834-0.318-13.176-3.065c-7.344-2.746-13.229-0.611-13.229-0.611s-4.331,1.571-7.664,2.78
			c-3.331,1.208-1.618,4.373-1.618,4.373s1.423-2.139,1.215,3.346c-0.208,5.486-7.008,6.148-15.174,4.423
			c-8.168-1.728-0.684,3.499-0.272,4.967c0.358,1.285-13.201-4.431-10.521-2.331c7.134,5.592-2.529,0.615-4.092,0.505
			c-12.509-0.873-28.552-16.871-28.552-16.871s-4.789-5.927-0.894,2.217c3.897,8.144-3.813-1.681-7.751-4.22
			c-3.938-2.541-1.465,3.235-1.465,3.235s-10.026-7.544-7.305-1.947c2.719,5.594-0.852,5.447-0.852,5.447s0.641,2.111-2.624,4.198
			c-3.267,2.084-15.448-12.792-13.593-9.406c1.856,3.384-8.575-6.458-6.734-0.894c2.651,8.012-4.598-4.223-5.552-7.224
			c-0.952-3.003,0.119,4.681-0.654,3.681c-0.772-0.998-3.506-9.691-4.215-10.677c-1.772-2.461-1.59-5.482-3.557-8.208
			c-3.664-5.074-2.979-8.208-3.47-9.564c-0.491-1.353-4.201-12.451-5.636-15.536c-1.436-3.087-0.43-8.771,0.309-8.229
			c0.736,0.545,1.426,4.173,2.754-0.999c1.33-5.17,6.264-12.009,7.195-6.667c0.932,5.341,4.166,0.742,4.498-1.632
			c0.332-2.375,1.885-3.299,2.607,0.947c0.721,4.247,11.097-17.91,13.923-17.223c2.826,0.689,5.164-6.38,5.33-1.934
			c0.168,4.448,3.199,1.545,3.199,1.545s3.154-8.808,4.631-4.385c1.479,4.423,3.574,4.654,3.574,4.654s5.472,0.36,4.651-2.768
			c-0.821-3.128,1.752-0.544,3.605,0.585c1.854,1.129,9.473-3.166,12.895-6.029c3.421-2.866,0.574,3.488,1.642,4.003
			c1.064,0.513,53.903-3.519,56.354-3.866c2.449-0.347,20.458,6.279,25.318,2c4.858-4.28,24.747,1.539,26.336,0
			c1.59-1.537,5.763-3.901,8.65-2.694s33.312,0.138,36.94,2.694c3.629,2.555,70.88,137.916,70.88,137.916l-6.017,7.322"/>
		<path opacity="0.16" fill="#FFFFFF" d="M388.555,300.737c-1.29,0.222-5.758,2.808-6.974,3.694c-1.215,0.887-0.81-2.955-2.92-2.364
			c-2.106,0.591-1.62-0.037-3.566,0.295c-1.944,0.333-0.577-1.028-4.378,0s-6.326,1.478-6.326,1.478s-15.321,3.768-18.483,4.322
			s-7.227,0.369-6.491-0.333c0.733-0.702-5.033,0.59-8.434,0.369c-3.402-0.221-0.909-2.574-3.567-2.66
			c-2.66-0.086-5.031-0.185-9.243-0.222c-4.213-0.037-18.252,3.968-14.923,2.908s-2.274-0.935-5.351,0s2.27-2.464,1.62-2.316
			c-0.647,0.147-10.864,2.316-10.864,2.316s-13.062,3.926-17.517,4.776c-4.455,0.85,21.247-7.684,21.247-7.684
			s-4.222,1.588,1.46-0.591c5.681-2.18-1.849-0.787-1.137-1.625s1.946-2.29,1.946-2.29s0.482-2.512-1.46-1.847
			c-1.941,0.665-3.492-0.037-5.353,0c-1.858,0.037-2.517,1.773-3.891,1.921s-1.383-1.7-2.757-2.364s-2.057,3.213-5.229,0.591
			c-3.173-2.622-2.807-2.771-4.828-3.99s-2.176,0.889-5.046-1.365c-2.871-2.253-5.124-0.22-10.518,0.22
			c-12.164,0.992,7.989-2.616-4.871-0.554c-11.754,1.884-27.656,0.48-33.408,0.148c-5.754-0.332-10.061,0-14.76-1.034
			c-4.697-1.034-1.788,0.295-8.434,0c-6.644-0.295-6.733-0.518-14.434-1.478c-7.698-0.96-8.843-1.662-11.84-1.847
			c-2.995-0.185,4.457-2.364,6.976-2.216c2.519,0.147,3.563-0.739,6.974-0.961c3.411-0.221,19.051,0.222,25.624-1.255
			c6.573-1.478,38.024,0.221,39.732-1.478c1.709-1.699-26.033-2.291-34.057-2.807c-8.022-0.517-81.087,2.733-81.087,2.733
			s-54.091,2.327-62.441,3.103s-44.288,2.425-46.719,2.129c-2.433-0.296,19.311-1.501,20.447-2.055
			c1.138-0.554-30.33,1.921-30.814,1.699c-0.486-0.222,11.431-0.665,13.298-1.33s-14.515,0.775-19.785,1.108
			s6.648-1.477,14.271-3.103s21.487-2.364,24.975-2.512c3.49-0.147,5.516,0.591,3.732,1.699c-1.784,1.108,23.433-0.258,33.571-0.517
			c10.136-0.259,26.433-2.031,33.732-2.512s38.598,0.037,47.844-0.887c9.244-0.923,22.704-1.145,25.461-1.921
			c2.759-0.776-11.353-1.034-16.867-1.034c-5.512,0-54.655,2.216-62.602,2.881c-7.945,0.665-48.897,1.588-52.869,2.29
			c-3.973,0.702,6.729-3.952,13.137-4.433c6.406-0.48,21.892-2.548,30.488-1.995c8.599,0.554,27.813-0.407,32.598-1.552
			c4.787-1.145-27.166-1.995-32.921-3.029s4.459-0.554,9.73-0.443s33.895,2.66,35.681,1.773c1.784-0.886-2.515-1.145-0.487-1.404
			c2.028-0.258,17.352,3.214,23.515,2.66c6.165-0.554-9.73-1.551-4.054-2.216c5.677-0.665,28.3,0.407,33.977,0.074
			c5.676-0.333,30.246-0.074,38.679-0.295c8.436-0.222,3.162-2.327,14.11-2.216c10.948,0.11,2.918-2.364,22.544-1.773
			c19.624,0.591,45.896,4.913,49.625,5.984c3.73,1.071,7.461-0.48,6.813,0.517c-0.65,0.997,17.106,0.554,13.135-0.074
			c-3.971-0.628,3.404,0.185,11.84,0.074c8.434-0.111,8.025-3.509,12.324-2.216c4.3,1.292,10.299,3.883,12.163,4.804
			c1.867,0.921-0.567-1.697,3.894,0s3.729-0.445,3.729-0.445s4.055-0.074,4.055,1.847c0.002,1.921,2.268,4.249,3.243,3.694
			c0.976-0.555,1.539,1.367,0,2.438c-1.539,1.071-4.54,5.984-3.567,7.905c0.976,1.921,1.621,4.913-0.163,3.62
			c-1.781-1.293,2.834,3.509,0.649,3.768c-2.184,0.259-1.496,0.124,0.206,0.908C393.872,301.026,389.848,300.515,388.555,300.737z"
			/>
		<path opacity="0.95" fill="#FEF8DB" d="M449.517,61.975c-0.588,0.222-2.623,2.808-3.177,3.694
			c-0.554,0.887-0.369-2.955-1.33-2.364c-0.96,0.591-0.738-0.037-1.625,0.295c-0.886,0.333-0.263-1.028-1.994,0
			s-2.882,1.478-2.882,1.478s-6.979,3.768-8.42,4.322s-3.292,0.369-2.957-0.333c0.334-0.702-2.293,0.59-3.842,0.369
			c-1.55-0.221-0.414-2.574-1.625-2.66c-1.212-0.086-2.292-0.185-4.211-0.222s-8.314,3.968-6.798,2.908s-1.036-0.935-2.438,0
			s1.034-2.464,0.738-2.316c-0.295,0.147-4.949,2.316-4.949,2.316s-5.95,3.926-7.979,4.776c-2.029,0.85,9.679-7.684,9.679-7.684
			s-1.923,1.588,0.665-0.591c2.588-2.18-0.842-0.787-0.518-1.625s0.887-2.29,0.887-2.29s0.22-2.512-0.665-1.847
			s-1.591-0.037-2.438,0c-0.847,0.037-1.146,1.773-1.772,1.921s-0.63-1.7-1.256-2.364s-0.937,3.213-2.382,0.591
			s-1.278-2.771-2.199-3.99s-0.991,0.889-2.299-1.365c-1.308-2.253-2.334-0.22-4.791,0.22c-5.541,0.992,3.64-2.616-2.219-0.554
			c-5.354,1.884-12.599,0.48-15.219,0.148c-2.621-0.332-4.583,0-6.724-1.034c-2.14-1.034-0.814,0.295-3.842,0
			c-3.026-0.295-3.067-0.518-6.575-1.478c-3.507-0.96-4.028-1.662-5.394-1.847c-1.364-0.185,2.03-2.364,3.178-2.216
			c1.147,0.147,1.623-0.739,3.177-0.961c1.554-0.221,8.679,0.222,11.673-1.255c2.994-1.478,17.321,0.221,18.1-1.478
			c0.778-1.699-11.859-2.291-15.515-2.807c-3.654-0.517-36.938,2.733-36.938,2.733S308,46.793,304.197,47.569
			s-20.175,2.425-21.282,2.129c-1.108-0.296,8.797-1.501,9.314-2.055c0.519-0.554-13.816,1.921-14.037,1.699
			c-0.222-0.222,5.207-0.665,6.058-1.33s-6.612,0.775-9.013,1.108s3.028-1.477,6.501-3.103s9.788-2.364,11.377-2.512
			c1.59-0.147,2.513,0.591,1.7,1.699c-0.812,1.108,10.675-0.258,15.293-0.517c4.617-0.259,12.041-2.031,15.366-2.512
			s17.583,0.037,21.795-0.887c4.211-0.923,10.343-1.145,11.599-1.921c1.257-0.776-5.172-1.034-7.684-1.034
			c-2.511,0-24.897,2.216-28.518,2.881c-3.619,0.665-22.274,1.588-24.084,2.29c-1.81,0.702,3.065-3.952,5.984-4.433
			c2.918-0.48,9.973-2.548,13.889-1.995c3.917,0.554,12.67-0.407,14.85-1.552c2.181-1.145-12.375-1.995-14.997-3.029
			s2.031-0.554,4.433-0.443s15.44,2.66,16.254,1.773c0.812-0.886-1.146-1.145-0.222-1.404c0.924-0.258,7.904,3.214,10.712,2.66
			c2.809-0.554-4.433-1.551-1.847-2.216s12.892,0.407,15.478,0.074s13.778-0.074,17.62-0.295c3.843-0.222,1.44-2.327,6.428-2.216
			c4.987,0.11,1.329-2.364,10.27-1.773c8.939,0.591,20.907,4.913,22.606,5.984s3.398-0.48,3.104,0.517
			c-0.296,0.997,7.793,0.554,5.983-0.074c-1.809-0.628,1.551,0.185,5.394,0.074c3.842-0.111,3.656-3.509,5.614-2.216
			c1.959,1.292,4.691,3.883,5.541,4.804c0.851,0.921-0.259-1.697,1.773,0s1.699-0.445,1.699-0.445s1.847-0.074,1.847,1.847
			c0.001,1.921,1.033,4.249,1.478,3.694c0.444-0.555,0.701,1.367,0,2.438c-0.701,1.071-2.068,5.984-1.625,7.905
			c0.444,1.921,0.738,4.913-0.074,3.62c-0.812-1.293,1.291,3.509,0.296,3.768s-0.682,0.124,0.094,0.908
			C451.939,62.264,450.106,61.753,449.517,61.975z"/>
		<polygon fill="#FEF8DB" points="-2.883,267.326 71.318,306.052 175.38,271.431 248.485,279.464 283.952,300.885 361.846,294.052 
			456.068,286.689 448.346,330.032 6.616,330.032 		"/>
		<polygon fill="#FEF8DB" points="74.818,131.167 65.429,101.664 86.284,78.782 116.529,85.402 125.918,114.904 105.062,137.787 		
			"/>
		<polygon fill="#FEF8DB" points="125.918,158.69 118.233,145.665 125.671,132.497 140.794,132.355 148.479,145.38 141.041,158.548 
					"/>
		<polygon fill="#FEF8DB" points="331.505,93.052 328.725,69.327 347.881,55.057 369.818,64.511 372.598,88.236 353.442,102.507 		
			"/>
		<polygon fill="#FEF8DB" points="410.751,216.428 411.36,168.806 452.907,145.522 451.688,240.766 		"/>
		<g>
			<g>
				<path fill="#FEF8DB" d="M366.772,93.886c3.193-6.614,5.311-14.965,2.604-22.099c-2.557-6.736-10.538-7.449-16.642-6.05
					c-11.789,2.703-23.153,15.323-16.201,27.68c6.119,10.879,26.919,8.501,33.523-0.679c8.034-11.168,0.021-29.512-12.184-34.114
					c-5.014-1.89-11.402-1.737-16.095,1.095c-5.366,3.238-5.517,8.887-3.262,14.239c5.349,12.697,21.239,21.796,34.64,17.328
					c1.308-0.436,0.07-0.718-0.676-0.47c-9.689,3.231-19.743-2.371-26.388-9.172c-4.481-4.587-9.633-12.782-5.803-19.186
					c2.739-4.579,9.838-4.862,14.406-3.628c3.868,1.045,7.154,3.704,9.79,6.62c5.149,5.699,7.962,14.161,6.383,21.748
					c-2.241,10.773-15.479,14.247-24.908,11.486c-7.139-2.09-10.304-9.332-9.233-16.257c1.483-9.589,10.339-15.781,19.561-16.471
					c11.301-0.846,13.362,10.327,11.75,18.994c-0.599,3.219-1.754,6.328-3.174,9.268C364.708,94.542,366.53,94.388,366.772,93.886
					L366.772,93.886z"/>
			</g>
		</g>
		<g>
			<g>
				<path fill="#FEF8DB" d="M445.083,168.941c0.839-4.156,1.549-10.456-4.16-10.835c-5.415-0.36-11.267,4.122-15.329,7.105
					c-11.697,8.589-21.316,20.119-22.386,35.202c-0.796,11.216,7.718,18.686,18.594,18.239c12.568-0.516,23.529-8.85,28.578-20.168
					c6.104-13.685,3.589-31.808-9.087-40.857c-11.342-8.098-26.727-8.734-39.255-3.071c-15.422,6.972-24.156,26.118-21.061,42.448
					c3.124,16.483,19.851,26.745,35.938,24.321c5.099-0.769,9.85-3.002,14.029-5.954c1.072-0.757-0.574-1.089-1.215-0.637
					c-17.772,12.548-42.046,2.8-46.821-18.248c-4.509-19.871,10.023-40.738,29.68-44.035c16.171-2.712,33.31,5.635,37.874,21.964
					c4.511,16.135-3.602,34.647-19.155,41.131c-6.999,2.918-16.009,2.985-21.8-2.466c-7.25-6.824-4.17-18.491-0.784-26.372
					c3.766-8.763,10.559-15.19,18.085-20.862c3.632-2.737,7.95-5.832,12.549-6.535c5.546-0.848,4.432,6.666,3.788,9.852
					C442.987,169.95,444.941,169.64,445.083,168.941L445.083,168.941z"/>
			</g>
		</g>
		<g>
			<g>
				<path fill="#FEF8DB" d="M96.068,238.082c-3.064,12.376,8.234,15.58,18.186,13.293c10.776-2.475,21.194-11.719,16.892-23.581
					c-3.993-11.011-14.944-15.175-24.767-9.148c-8.803,5.401-15.659,17.73-13.851,28.134c2.102,12.088,19.354,13.075,27.65,7.267
					c6.245-4.373,8.029-12.991,8.378-20.095c0.442-8.988-2.079-17.45-7.486-24.655c-12.279-16.364-32.752-22.138-52.391-18.558
					c-19.294,3.517-35.932,17.621-48.846,31.636c-13.718,14.888-31.176,42.935-15.29,62.223
					c11.764,14.283,37.058,5.335,50.829-0.405c1.262-0.526,0.074-0.856-0.694-0.536c-15.496,6.458-42.169,14.868-51.583-4.939
					c-10.166-21.388,8.264-46.162,22.423-60.555c16.689-16.965,37.652-30.627,62.414-26.975c21.13,3.117,38.749,20.447,38.72,42.218
					c-0.013,10.267-4.211,22.689-16.246,23.124c-6.731,0.244-13.548-2.213-15.667-9.101c-3.409-11.078,6-26.108,16.18-30.195
					c7.333-2.944,13.715,2.644,17.149,8.628c3.54,6.168,2.681,13.083-2.112,18.243c-7.355,7.918-30.997,12.261-28.343-4.698
					c0.1-0.552,0.223-1.098,0.37-1.639C98.106,237.259,96.198,237.555,96.068,238.082L96.068,238.082z"/>
			</g>
		</g>
		<g>
			<g>
				<path fill="#FEF8DB" d="M-9.186,56.209c-1.252,13.194,4.078,23.832,17.784,26.169c13.888,2.368,29.15-3.04,41.439-9.04
					c9.994-4.879,21.183-11.686,25.875-22.248c2.66-5.986,4.583-12.435,5.834-18.857c0.697-3.579,2.178-10.459-1.424-13.074
					c-3.875-2.812-10.682,3.468-13.035,5.66c-5.024,4.679-5.186,11.028-1.642,16.596c4.124,6.479,11.699,10.771,18.518,13.805
					c5.193,2.312,11.391,4.327,17.14,3.386c11.749-1.923,23.392-6.996,34.356-11.424c15.233-6.152,30.358-13.118,44.22-21.987
					c6.308-4.036,23.511-14.831,16.797-24.485c-0.35-0.503-1.373-0.267-1.689,0.151c-11.269,14.861-2.588,30.75,10.592,40.775
					c12.706,9.665,28.07,11.333,43.532,10.309c16.545-1.097,33.011-5.494,48.169-12.136c13.197-5.782,26.639-14.114,34.431-26.582
					c0.127-0.203,0.05-0.537-0.172-0.644c-7.242-3.488-13.684,0.21-17.254,6.922c-3.65,6.862-1.983,14.768,2.407,20.794
					c8.08,11.09,24.501,12.011,36.924,11.442c17.414-0.798,34.748-5.461,51.144-11.141c13.824-4.789,28.193-10.429,39.096-20.492
					c4.128-3.811,10.821-13.726,1.932-16.373c-10.062-2.996-20.473,7.74-25.921,14.519c-8.016,9.972-12.075,23.928-1.578,33.618
					c9.503,8.771,24.727,9.208,36.674,6.894c1.219-0.236,0.85-1.507-0.342-1.276c-11.429,2.214-24.37,1.425-33.899-5.91
					c-9.723-7.483-7.707-19.583-2.019-28.881c4.743-7.754,15.446-19.999,25.961-17.694c10.578,2.317-3.547,15.703-6.466,17.979
					c-12.163,9.485-28.07,14.73-42.601,19.234c-17.001,5.27-35.352,9.46-53.252,8c-14.248-1.162-31.745-10.196-27.442-27.358
					c0.792-3.162,2.684-6.08,5.092-8.235c2.047-1.831,11.394-3.646,8.363,0.702c-2.581,3.703-5.863,6.902-9.299,9.801
					c-8.06,6.801-17.676,11.671-27.402,15.601c-19.067,7.703-41.086,12.111-61.631,9.376c-20.979-2.793-50.485-26.213-33.431-48.707
					c-0.563,0.05-1.126,0.101-1.689,0.151c6.466,9.299-11.905,20.044-17.818,23.772c-14.362,9.056-30.165,16.001-45.921,22.226
					c-6.752,2.667-13.588,5.148-20.524,7.297c-4.258,1.319-8.787,2.896-13.301,2.548c-11.959-0.922-42.188-16.095-29.17-31.285
					c1.966-2.293,6.618-6.344,9.96-6.11c2.312,0.162,2.39,4.122,2.408,5.668c0.075,6.38-2.037,13.002-4.061,18.974
					c-1.541,4.548-3.263,8.976-6.373,12.684c-4.125,4.918-9.722,8.665-15.216,11.876c-12.117,7.082-26.729,12.506-40.925,12.235
					c-6.018-0.114-12.212-1.718-16.5-6.156c-4.869-5.039-5.32-12.652-4.695-19.231C-7.139,55.078-9.105,55.366-9.186,56.209
					L-9.186,56.209z"/>
			</g>
		</g>
		<g>
			<g>
				<path fill="#FEF8DB" d="M11.831,68.807c33.8,28.804,66.11-16.292,95.266-29.03c1.244-0.543,0.087-1.014-0.727-0.658
					c-28.504,12.454-59.953,56.906-92.734,28.97C13.165,67.688,11.386,68.428,11.831,68.807L11.831,68.807z"/>
			</g>
		</g>
		<g>
			<g>
				<path fill="#FEF8DB" d="M-11.041,28.893c11.115,4.871,25.022,0.325,35.577-3.945c12.566-5.084,26.37-12.999,34.091-24.502
					c0.47-0.7-1.462-0.48-1.787,0.004C49.979,10.671,38.35,17.57,27.422,22.66C16.855,27.582,1.954,33.019-9.492,28.002
					C-10.025,27.769-11.8,28.561-11.041,28.893L-11.041,28.893z"/>
			</g>
		</g>
		<g>
			<g>
				<path fill="#FEF8DB" d="M58.823,4.387c-9.88,16.715-31.465,22.247-48.492,28.587c-0.644,0.24-0.792,1.068,0.045,1.09
					c14.045,0.37,27.969-0.641,41.383-5.054c13.575-4.466,25.832-12.261,37.592-20.208c-0.503,0.015-1.006,0.029-1.509,0.044
					c7.609,11.513,18.75,15.443,31.294,9.075c1.186-0.603,0.105-1.409-0.805-0.947c-11.863,6.023-21.757,1.59-28.706-8.925
					c-0.292-0.441-1.179-0.179-1.509,0.044c-11.535,7.794-23.428,15.232-36.658,19.792c-12.971,4.471-26.755,5.305-40.367,4.946
					c0.015,0.363,0.029,0.727,0.045,1.09c17.443-6.496,39.373-12.266,49.508-29.413C61.149,3.651,59.191,3.765,58.823,4.387
					L58.823,4.387z"/>
			</g>
		</g>
		<g>
			<g>
				<path fill="#FEF8DB" d="M147.824,12.782c17.167,8.727,37.107,9.049,55.667,5.336c4.571-0.915,8.988-2.376,13.609-3.031
					c4.425-0.627,8.869-1.07,13.284-1.774c5.974-0.952,12.896-2.356,17.226-6.928c0.426-0.449-1.428-0.22-1.754,0.125
					c-5.523,5.831-15.514,6.216-23.028,7.144c-6.514,0.805-12.586,2.333-18.988,3.711c-17.924,3.857-37.644,3.165-54.198-5.252
					C149.129,11.853,147.562,12.648,147.824,12.782L147.824,12.782z"/>
			</g>
		</g>
		<g>
			<g>
				<path fill="#FEF8DB" d="M96.768,17.707c0,3.333,0,6.667,0,10c0,0.337,1.932,0.052,1.932-0.518c0-3.333,0-6.667,0-10
					C98.699,16.852,96.768,17.137,96.768,17.707L96.768,17.707z"/>
			</g>
		</g>
		<g>
			<g>
				<path fill="#FEF8DB" d="M98.704,29.344c0.022-0.858,0.289-1.706,0.235-2.562c-0.053-0.833-1.251-0.919-1.845-0.938
					c-0.465-0.014-1.203,0.178-1.332,0.708c-0.244,1.009-0.641,2.248-0.299,3.285c0.234,0.709,0.955,1.212,1.304,1.87
					c0.619-0.218,1.239-0.436,1.858-0.654c-0.784-0.971-0.1-2.393,0.063-3.48c0.096-0.639-0.325-0.921-0.944-0.854
					c-1.192,0.128-2.07,1.393-2.521,2.396c-0.604,1.345,0.209,2.205,1.641,2.059c1.017-0.104,1.892-0.445,2.444-1.375
					c0.514-0.866-0.62-0.95-1.214-0.953c0.201,0.115,0.403,0.23,0.604,0.345c-0.009-0.191-0.083-0.289-0.243-0.401
					c-0.351-0.249-1.063-0.084-1.374,0.158c-0.905,0.708-1.054,2.55-1.319,3.606c-0.084,0.335,0.357,0.5,0.609,0.5
					c0.334,0,0.667,0,1,0c0.403,0,1.078-0.122,1.27-0.551c0.398-0.892,0.591-1.714,0.433-2.687
					c-0.065-0.405-0.223-0.796-0.322-1.193c-0.041-0.164,0.02-0.537-0.141-0.667c-0.942-0.768-1.859,0.229-2.178,1.05
					c-0.333,0.86-0.668,1.918-0.533,2.851c0.19,1.317,2.143,0.251,2.62-0.202c-0.383,0.133-0.766,0.266-1.148,0.399
					c1.107-0.005,2.738-0.329,2.327-1.862c-0.194-0.724-1.54-0.84-2.112-0.696c-1.095,0.275-1.854,0.972-2.641,1.751
					c-0.828,0.821,1.066,0.912,1.574,0.408c0.217-0.22,0.438-0.436,0.666-0.645c0.272-0.411,0.534-0.431,0.787-0.06
					c-0.07-0.132-0.141-0.264-0.211-0.396c0.003,0.177-0.001,0.353-0.011,0.529c0.729-0.198,0.844-0.277,0.343-0.237
					c-0.347,0.001-0.682,0.068-0.976,0.261c-0.844,0.556,0.755,0.385,0.713,0.23c-0.053-0.196,0.002-0.43,0.028-0.625
					c0.062-0.451,0.187-0.895,0.316-1.33c0.059-0.198,0.127-0.392,0.198-0.586c0.171-0.467,0.315-0.213-0.274-0.001
					c-0.431-0.021-0.86-0.043-1.291-0.064c-0.099-0.081-0.046-0.074-0.028,0.192c0.021,0.303,0.146,0.613,0.232,0.902
					c0.273,0.911,0.201,1.699-0.188,2.571c0.423-0.184,0.846-0.367,1.27-0.551c-0.334,0-0.667,0-1,0
					c0.203,0.167,0.406,0.333,0.609,0.5c0.105-0.422,0.217-0.843,0.33-1.263c0.09-0.335,0.186-0.669,0.284-1.002
					c0.102-0.343,0.447-0.804-0.008-0.448c-0.458,0.052-0.916,0.105-1.374,0.158c-0.142-0.221-0.197-0.248-0.169-0.081
					c0.011,0.244,0.429,0.344,0.604,0.345c0.122,0.036,0.235,0.031,0.342-0.016c-0.07-0.132-0.14-0.264-0.21-0.396
					c0,0.391-0.615,0.531-0.565-0.02c0.048-0.533,0.432-1.088,0.758-1.492c0.1-0.124,0.271-0.318,0.361-0.385
					c-1.535,1.147-1.184-0.799-1.347,0.293c-0.045,0.295-0.127,0.588-0.194,0.879c-0.235,1.021-0.373,2.065,0.324,2.928
					c0.396,0.49,2.196-0.016,1.858-0.654c-0.332-0.628-0.766-1.112-1.191-1.67c-0.601-0.787-0.002-2.36,0.196-3.175
					c-0.444,0.236-0.888,0.472-1.332,0.708c0.562,0.017,0.676,0.056,0.609,0.621c-0.074,0.632-0.201,1.24-0.219,1.88
					C96.739,30.435,98.685,30.065,98.704,29.344L98.704,29.344z"/>
			</g>
		</g>
		<g>
			<g>
				<path fill="#FEF8DB" d="M183.768,16.707c0.062,3.771,0.835,7.423,2,11c0.172,0.527,2.09-0.032,1.932-0.518
					c-1.165-3.577-1.938-7.229-2-11C185.692,15.77,183.758,16.091,183.768,16.707L183.768,16.707z"/>
			</g>
		</g>
		<g>
			<g>
				<path fill="#FEF8DB" d="M187.31,27.818c0.621-0.075,2.104-0.375,1.178-1.09c-0.848-0.655-1.888-1.125-2.842-1.604
					c-0.282-0.142-2.086,0.252-1.878,0.582c0.423,0.671,0.731,1.335,0.811,2.129c0.048,0.482,0.015,0.941,0.355,1.33
					c1.026,1.17,3.177,2.152,4.638,1.274c1.102-0.663-0.188-2.867-0.64-3.588c-0.729-1.167-2.021-1.104-3.069-0.32
					c0.612-0.114,1.225-0.228,1.837-0.342c-0.079-0.533-1.38-0.053-1.65,0.071c-0.662,0.303-1.126,0.956-1.577,1.501
					c-0.676,0.814-1.304,1.67-1.916,2.532c-0.197,0.276-1.004,1.123-0.916,1.511c0.063,0.279,0.899,0.057,1.041,0.019
					c0.336-0.092,0.667-0.215,0.924-0.458c-0.594,0.136-1.188,0.271-1.783,0.407c0.667,0.667,1.334,1.333,2,2
					c0.308,0.308,1.817-0.15,1.878-0.582c0.258-1.821,0.774-4.048,0.359-5.864c-0.173-0.756-1.579-0.198-1.978,0.042
					c-0.8,0.481-0.089,3.232,0.653,3.67c0.417,0.246,1.471-0.086,1.783-0.407c0.153-0.157,0.155-0.217,0.182-0.441
					c0.042-0.362-1.673,0.172-1.837,0.342c-0.254,0.263-0.891,0.769-0.966,1.178c-0.058,0.318,0.607,0.196,0.767,0.161
					c1.386-0.308,1.94-1.286,2.036-2.681c0.017-0.24-1.894-0.035-1.932,0.518c-0.045,0.65-0.215,1.452-0.745,1.9
					c0.352-0.14,0.704-0.28,1.057-0.419c-0.016,0.003-0.031,0.007-0.046,0.01c0.255,0.053,0.511,0.107,0.766,0.16
					c0.068-0.373,0.56-0.738,0.806-0.994c-0.612,0.114-1.225,0.228-1.837,0.342c0.002,0.03,0.005,0.061,0.007,0.091
					c0.595-0.136,1.189-0.271,1.783-0.407c-0.626-0.37-0.624-3.121-1.34-2.841c-0.375,0.055-0.75,0.11-1.125,0.165
					c0.524,0.068-0.239,5.383-0.325,5.992c0.626-0.194,1.252-0.388,1.878-0.582c-0.667-0.667-1.334-1.333-2-2
					c-0.322-0.322-1.521,0.159-1.783,0.407c-0.263,0.234-0.039,0.146,0.669-0.264c0.347,0.006,0.694,0.013,1.041,0.019
					c-0.085-0.375,1.237-1.837,1.493-2.186c0.422-0.575,0.858-1.139,1.309-1.692c0.199-0.246,0.408-0.484,0.625-0.716
					c0.229-0.245,0.578-0.334-0.014-0.144c-0.375,0.055-0.75,0.11-1.125,0.165c-0.09-0.095-0.121-0.098-0.093-0.007
					c0.069,0.465,1.652-0.204,1.837-0.342c-1.238,0.925-1.297,0.02-0.605,1.004c0.264,0.375,0.451,0.805,0.629,1.224
					c0.132,0.31,0.698,1.625,0.336,1.917c0.353-0.14,0.705-0.28,1.057-0.42c-0.034,0.007-0.068,0.015-0.102,0.021
					c0.242,0.004,0.484,0.009,0.727,0.013c-0.962-0.393-2.775-0.881-3.071-2.061c-0.269-1.071-0.242-1.872-0.875-2.875
					c-0.626,0.194-1.252,0.388-1.878,0.582c0.449,0.225,3.017,1.853,3.15,1.747c0.432-0.151,0.863-0.302,1.295-0.454
					c-0.037,0.004-0.073,0.009-0.109,0.013C187.685,27.134,186.049,27.969,187.31,27.818L187.31,27.818z"/>
			</g>
		</g>
		<g>
			<g>
				<path fill="#FEF8DB" d="M46.496,32.957c-1.808-0.815-3.55-0.137-3.459,1.978c0.128,2.99,1.777,5.981,2.73,8.771
					c0.25,0.733,2.171,0.184,1.932-0.518c-0.58-1.698-1.255-3.361-1.827-5.062c-0.304-0.898-0.565-1.81-0.764-2.737
					c-0.096-0.449-0.154-0.906-0.142-1.365c0.009-0.158,0.038-0.311,0.089-0.46c-0.619,0.13-0.647,0.255-0.085,0.374
					C45.589,34.217,47.346,33.34,46.496,32.957L46.496,32.957z"/>
			</g>
		</g>
		<g>
			<g>
				<path fill="#FEF8DB" d="M43.699,49.189c-0.155-1.047-1.513-0.648-2.056-0.203c-1.064,0.874-1.778,2.162-2.724,3.157
					c-0.8,0.842,0.865,1.262,1.46,0.769c1.764-1.462,7.722-0.523,6.179-4.135c-0.412-0.966-0.956-2.027-1.695-2.786
					c-0.628-0.644-1.976-0.497-2.11,0.523c0.621-0.167,1.242-0.333,1.863-0.499c-0.35-0.656-1.169-0.777-1.762-0.32
					c-0.545,0.421-0.373,1.146-0.291,1.734c0.199,1.447,0.396,3.446,1.188,4.711c0.412,0.658,1.61,0.293,1.883-0.306
					c0.323-0.712,0.328-1.756,0.544-2.521c0.349-1.232,0.738-2.452,1.131-3.669c0.16-0.496,0.56-1.2,0.289-1.705
					c-0.131-0.243-0.559-0.336-0.804-0.3c-1.382,0.202-1.683,2.087-2.066,3.186c-0.302,0.864-0.586,1.734-0.849,2.61
					c-0.123,0.412-0.458,1.115-0.308,1.56c0.129,0.377,0.525,0.489,0.888,0.474c0.363-0.014,0.658-0.18,0.91-0.43
					c0.395-0.391,0.306-0.25-0.176-0.009c0.667-0.335,1.325-0.688,1.973-1.058c0.535-0.306,1.369-0.688,1.643-1.29
					c0.125-0.275,0.06-0.566-0.178-0.755c-0.069-0.06-0.148-0.105-0.236-0.137c-0.688-0.257,0.282,0.236,0.001,0.028
					c-0.924-0.683-2.397-1.973-3.64-1.775c-2.766,0.438,0.325,3.068,1.094,3.837c0.641,0.641,2.465-0.166,1.766-0.865
					c-0.39-0.389-0.778-0.777-1.167-1.167c-0.136-0.136-0.271-0.272-0.408-0.408c-0.372-0.707-0.881-0.69-1.526,0.047
					c0.21,0.058,0.414,0.176,0.603,0.281c0.655,0.362,1.275,0.803,1.875,1.25c0.81,0.604-0.001-0.675,0.08-0.75
					c-0.156,0.144-0.355,0.26-0.534,0.37c-0.478,0.293-0.976,0.555-1.47,0.816c-0.556,0.294-1,0.652-1.325,0.976
					c0.297-0.143,0.595-0.286,0.893-0.429c-0.006,0-0.013,0-0.019,0c0.296,0.158,0.592,0.316,0.888,0.475
					c0.051,0.151,0.162-0.563,0.229-0.794c0.208-0.709,0.441-1.412,0.678-2.112c0.26-0.771,0.662-2.454,1.097-2.892
					c-0.297,0.143-0.595,0.286-0.893,0.429c0.008-0.001,0.015-0.002,0.021-0.003c-0.268-0.1-0.536-0.2-0.804-0.3
					c-0.18-0.334,0.028-0.652-0.125-0.187c-0.085,0.259-0.17,0.518-0.254,0.777c-0.291,0.899-0.574,1.802-0.848,2.707
					c-0.23,0.762-0.449,1.529-0.646,2.3c-0.072,0.28-0.133,0.563-0.183,0.849c-0.06,0.341-0.192,0.575,0.096,0.182
					c0.381-0.14,0.761-0.281,1.142-0.421c0.401,0.021,0.552,0.42,0.433,0.095c-0.077-0.209-0.135-0.426-0.195-0.641
					c-0.144-0.508-0.262-1.023-0.377-1.539c-0.12-0.535-0.225-1.074-0.318-1.614c-0.043-0.25-0.078-0.5-0.108-0.752
					c-0.033-0.27,0.104-0.39-0.134-0.097c-0.298,0.143-0.596,0.286-0.893,0.429c-0.695,0.03-0.816-0.473-0.572-0.013
					c0.378,0.709,1.773,0.183,1.863-0.499c-0.041,0.082-0.082,0.163-0.123,0.244c-0.298,0.143-0.596,0.286-0.893,0.429
					c-0.669,0.024-0.506-0.137-0.149,0.356c0.197,0.274,0.37,0.566,0.542,0.856c0.371,0.626,0.729,1.304,0.869,2.024
					c0.706-0.507,0.819-0.653,0.339-0.439c-0.335,0.168-0.684,0.303-1.046,0.403c-0.75,0.241-1.535,0.383-2.303,0.554
					c-1.012,0.225-2.052,0.501-2.863,1.174c0.486,0.256,0.974,0.512,1.46,0.769c0.464-0.488,0.88-1.017,1.301-1.542
					c0.226-0.281,0.452-0.561,0.684-0.837c0.258-0.31,0.68-0.442,0.045-0.388c-0.268-0.1-0.535-0.2-0.804-0.3
					c-0.001,0.007-0.003,0.015-0.005,0.022C41.905,50.635,43.841,50.146,43.699,49.189L43.699,49.189z"/>
			</g>
		</g>
	</g>
</g>
</svg>
