<svg xmlns="http://www.w3.org/2000/svg" xmlns:xlink="http://www.w3.org/1999/xlink" viewBox="0 0 234.46 715.15"><defs><style>.a{fill:none;}.b{clip-path:url(#a);}.c{fill:#fff;}</style><clipPath id="a" transform="translate(-1.2 -1.78)"><rect class="a" width="237.31" height="718.52"/></clipPath></defs><title>Asset 1</title><g class="b"><path d="M115.47,19.53h3.39l-3.38-12-.84,1.11c-1.8,0-3.69.37-5.38-.06a43.62,43.62,0,0,0-22.36.47,17,17,0,0,0-3.38,1.76l.3.42,16.66-1.9.12.85c-7.74,2.34-16.11,2.44-23.41,6.43A11.8,11.8,0,0,0,82,16.51c7.06-1.51,14.1-3.1,21.15-4.6.92-.2,2.53-.47,2.74-.09,1.47,2.59,3.83,1.43,5.86,1.73.84.12,2,.5,2.33,1.11a33.29,33.29,0,0,1,1.51,5,80.84,80.84,0,0,1-3.79,7.47c-1.8,2.83-3.9,5.49-7.94,5-.53-.06-1.14.56-1.72.87.36.61.61,1.62,1.09,1.74a10.07,10.07,0,0,0,3.18,0c2.55-.21,5.09-.53,7.64-.7,1.69-.11,3.4,0,5.51,0l2.2,18,1.79-.2c-.23-2.72-.38-5.46-.72-8.17-.58-4.62-1.17-9.23-2-13.81a3.29,3.29,0,0,0-2.3-2.12c-3.08-.09-3.71-.7-3.24-3.73a38.17,38.17,0,0,0,.2-4.43m-15.91,674,13.34,2.37.28-.9c-13.65-.54-21.42-10.41-31.07-18.61,3.79-.24,6.74-.19,9.6-.67,3.47-.58,6.58-.48,9.73,1.46a16.15,16.15,0,0,0,6.4,1.89,51.09,51.09,0,0,0,7.87.05,19.09,19.09,0,0,0,3.15-.62l-.12-1.26c-3.77,0-7.55.08-11.32,0-1.49,0-3.29-.06-4.38-.87-3.38-2.49-7-2.41-10.95-2.26-5.55.21-11.29.55-16.14-2.95a6.35,6.35,0,0,0-6.68-.77c-6.17,2.3-12.35,3.32-18.13-3,1,4.23-1.77,1.26-2.67,2.38,6.6,4.78,13.5,6,21,2.69,1-.43,2.31-1.17,3.05-.83,3,1.39,6.28,2.71,8.73,4.87,4.5,4,8.49,8.5,12.69,12.8-1.14-.62-2.32-1.17-3.4-1.88-4.4-2.87-8.75-5.82-13.15-8.68a16.9,16.9,0,0,0-2.75-1.17l-.52.91,22,16.28c-2.24.25-4.37.46-6.5.76-.73.1-2,.3-2,.64-.66,3.45-3.69,1.43-5.85,3.12L83.4,697l-3.81-.85,6.12-2.07a31.23,31.23,0,0,0-7.12,1c-4.73,1.06-9.45,1.84-14.17-.13-1.85-.77-2.81-1.87-2.36-4,.56-2.67,1-5.38,1.3-8.09a21.66,21.66,0,0,0-.16-3.66l-1,0c-.32,5.55-3.76,11,0,16.67-1.53,5.45.62,5.64,5.76,6.06a52.85,52.85,0,0,0,14.15-.88A56.86,56.86,0,0,0,96.27,697a5.3,5.3,0,0,1,5.44,0c1.64.79,3.4,1.33,5.11,2l.39-.85-7.65-4.62m89.82-92.47-4.49,10.24c3.86-2.52,9.84-15.18,9-18l-.71,1.13,3-7.75,1.31.38c-.58,4.17-.46,8.63-1.94,12.45-1.7,4.37-4.67,8.29-7.39,12.2s-1.34,8.77-3.13,12.88c-.09.2.42.67,1,1.49l7.4-16,1,.47c-1.43,6.77-6.52,12.29-7.51,19.21l1.14.56,4.59-8.42.61.25-4.41,14,.89.27A26.74,26.74,0,0,0,194,622.07c0-2.07-1.36-3.62,1.54-4.57.53-.17.76-1.73.86-2.68,2-18.94,4.26-37.87,5.82-56.85.49-5.92,2.34-12.55-3.45-18.34,0,5.83,0,11.08,0,16.33a7.43,7.43,0,0,1-.57,3.49c-3.9,6.77-8,13.45-11.95,20.16-.57,1-1,2-1.56,3l1,.62,11.84-18.73c-.24,7-.38,14.1-2.4,20.57s-5.87,12.14-8.92,18.17l1.44,1.35,1.71-3.51M103.78,93.81a12.31,12.31,0,0,0-1.15-2.66c-.51-.69-1.69-1.75-2-1.57-2.54,1.28-2.67-.78-3.28-2.17-1.82-4.16-3.6-8.33-5.4-12.5-4.43,2.69-6.12,6.1-4.16,10.52,2.39,5.4,5,10.69,7.72,16a23.16,23.16,0,0,0,3.09,3.78c1.81-2.74,2-5,.34-7.41-.48-.72.1-2.16.2-3.27l.84.11c.47,6.62,4.06,11.81,7.5,17.07l.44-.86L113.5,112c.36-.32,1.16-1.51,1.65-1.39a42.63,42.63,0,0,1,5.46,2c3.78-4.59,5.07-10.54,2.71-14l-1.7,6.77-.25-.11.37-2.85-.69.36-2.75-3.29-1,1.51a20.33,20.33,0,0,1-2.39-3.34,26.51,26.51,0,0,1-1.1-4.19c-.08-.3-.2-.73-.42-.82a7,7,0,0,1-4.54-6.26,16.12,16.12,0,0,0-1-3.29,13.77,13.77,0,0,0,.63,10.78,9.83,9.83,0,0,1,.87,4.66c-.11,1.51-1,3-1.74,5.07l-3.87-9.86L106,96.44c.43-1.11.9-1.7.82-2.21-.54-3.7-.75-7.54-2-11-.87-2.52-2.93-4.75-4.87-6.7-.71-.72-2.58-.3-3.86-.4-.94,4.25.48,8,3.71,8.94l-1.24-5c4.25,3.95,5.48,8.59,5.18,13.78m28,296.85a12,12,0,0,1-.85-2.34c-1.25-8.44-2.51-16.88-3.62-25.33-.53-4-.66-8.06-1.13-12.07a14.19,14.19,0,0,0-1.24-3.27l-1.1.35c-.41,23.31-1,46.64,5.28,69.51l-4.29-37.29,1.08-.12,7.22,57.32,2.29-.87-1.5,4.28.88.4,3.47-5.82-.86-.6-2.08,1.85c1.17-5.29,4.44-10.17,3.89-15.8l-1-.35-4.34,6.38-.67-.29q-.13-1.72-.27-3.44l2.2,1.86a23.66,23.66,0,0,1,1.43-4.59c1.62-3,2.32-6.71,6.17-8,.41-.14.76-.84.87-1.33.23-1.06.29-2.16.41-3.24a21.1,21.1,0,0,0-3,.43,15.48,15.48,0,0,0-2.47,1.18c-3.71-8.91-4.17-18-5.14-27s-2.27-17.85-3.51-27.38c-2,2.61-.57,22.52,1.9,35.65Zm90.78,20.7c-.07-2.62.22-5.3-.26-7.84-1.86-9.85-4.71-19.42-5.28-29.62-1.37-24.52-6.41-48.59-10.91-72.68-1.57-8.38-3.64-16.67-5.6-25a15.86,15.86,0,0,0-2-4.38c-.48-.81-1.79-1.21-2.1-2-3.57-9.41-6.9-18.92-10.57-28.29-1.76-4.5-4.09-8.77-6.16-13.15l-1.08.43c7.9,20.41,15.71,40.84,18.83,63.34l-3.57-6.6,11.33,67.66.93-.14c-3.62-25.95-4-52.29-9.63-78.06a41.87,41.87,0,0,1,3.49,10.11c2.89,15.58,5.86,31.15,8.29,46.8,2.69,17.29,4.71,34.69,7.25,52,1.38,9.36,1.4,19.12,7,27.43,2.74,14.42,2.64,28.74-1.75,43.14a73.9,73.9,0,0,1-7.1-13.49c-3.39-9.28-5.87-18.91-9.47-28.1-5-12.88-10.39-25.55-11.51-39.62-.42-5.28-2.31-10.46-3.69-15.64q-7.72-28.88-15.58-57.72c-3.18-11.61-6.53-23.17-9.87-34.74a25.61,25.61,0,0,0-1.84-3.86l-.69.32,23.23,89.48-.23.08-5.59-17.58-1.12.29a59.26,59.26,0,0,0,1.17,6.57c3.26,11.14,6.61,22.25,10,33.37,3,9.95,5.64,20,9.14,29.79,4.8,13.39,10.21,26.56,15.47,39.78.83,2.1,2.39,3.9,3.33,6,2.14,4.7,5.69,9.42,5.86,14.23.69,19.14.3,38.31.29,57.47a24.93,24.93,0,0,1-.44,3c-4.68-20-7.31-39.81-14.54-58.42l-1,.23.81,4.57c-1.37-1.89-2.77-3.24-3.45-4.89-4.34-10.41-8.77-20.79-12.7-31.35-9.93-26.67-19.84-53.39-25-81.49-3.08-16.68-5.36-33.51-8.05-50.27q-2.34-14.57-4.88-29.11a11.32,11.32,0,0,0-1.37-2.81l-1.05.38,11.5,71.23-1-1.48a5.72,5.72,0,0,0-.08,3.07c4.63,18.46,8.59,37.07,15.45,55,6.39,16.65,11.39,33.82,17,50.75.52,1.55.79,3.42,1.83,4.52,4,4.18,5.63,9.57,6.93,14.77,2.31,9.27,3,18.89,4.69,28.32,2.32,13.2,2.36,26.8,3.39,40.22.1,1.27.3,2.53.45,3.79l1.22-.17c0-24.7-2.24-49.17-8.71-73.26A49.38,49.38,0,0,1,208.85,480c4.42,18.62,8.55,37.31,12.8,56,.26,1.15.45,3,1.11,3.25,3.09,1,2.12,3.66,2.7,5.66.22.77.39,1.56.59,2.34L227,547c-.14-1.48-.29-3-.42-4.43-.57-6.95-1.5-13.89-1.6-20.84-.12-8.86.55-17.73.67-26.6.11-8-.24-16,0-24A30.84,30.84,0,0,0,224.34,460c-.77-2.26.48-5.33,1.19-7.93.6-2.2,1.81-4.23,2.6-6.39,1.23-3.39.34-6.7-.34-10.11-1.43-7.14-2.39-14.37-3.66-21.54-.17-.95-1-1.77-1.55-2.66M18.27,289.45c.9-1.36,2.24-2.6,2.6-4.09a50.13,50.13,0,0,0,1.22-9.07c.23-4.36,1.26-9.12-.09-13-1.56-4.54-.74-8.62,0-12.67,1.13-5.91,3.39-11.55,3.45-17.74,0-4.81.86-9.61,1.34-14.42l.54.06,1.13,4.92c1.42-3.79-.75-26.3-2.89-29-.17,1.18-.35,2.12-.42,3.07-.48,6.46-.94,12.91-1.41,19.37,0,.43,0,1-.22,1.26-2.53,2.24-1.73,5.23-1.86,8-.1,2,.14,4-.11,5.9-.56,4.26-1.44,8.47-2,12.73a48.26,48.26,0,0,0,0,6.07l-.53.05L18.18,248a43.12,43.12,0,0,0-2.72,11.75,72.1,72.1,0,0,0,.79,16c.41,2.26,1,4.06-.1,6.55-1.6-3.78-3.1-7.06-4.4-10.41-3.38-8.72-7.36-17.31-5.81-27.1.49-3.11.42-6.33,1.1-9.39,1.2-5.43,2.83-10.76,4.18-16.16,3.28-13.15,6.21-26.39,9.86-39.44,2.46-8.8,6.25-17.23,8.81-26,2-6.68,2.3-13.8,5.45-20.2.34-.69,0-1.68,0-2.53l-.83-.19q-2.64,5.34-5.27,10.68c-.34.69-1,1.57-.84,2.08,1.44,3.69-2,5.43-2.94,8.16.09-2.94,0-6,1.08-8.58,1.46-3.6,3.81-6.83,5.69-10.27a15.45,15.45,0,0,0,.77-3.26A11.11,11.11,0,0,0,30.9,131c-2.76,3.29-5.22,6.88-8.3,9.83A9.24,9.24,0,0,0,19.49,148c-.08,4.47-.57,8.93-.84,13.4a7.62,7.62,0,0,0,.33,1.82c.67,3.45,1.22,6.88-.86,10.09l-2,3,2.77-1.05c-1.2,6.39-2.63,12.29-6.24,17.44l1.69-14.1-1.24-.2a75.45,75.45,0,0,0-1.92,7.5c-1.6,10.37-2.85,20.79-4.6,31.13-1.53,9-3.59,18-5.31,27-.22,1.17-.07,3.42.32,3.52,2.12.52,1.56,2,1.62,3.32.14,2.72-.37,5.65.49,8.12,2,5.86,4.8,11.46,7.12,17.23,1.31,3.24,3,6.52,3.35,9.9.83,8.36,1.2,16.79,1.36,25.2a177.55,177.55,0,0,1-2.16,32c-1.58,9.73-3,19.42-5.86,28.84-.78,2.58-3,4.68-4.21,7.17-.65,1.35-.52,3.07-.75,4.62,1-.4,2-.8,3-1.18.18-.07.4,0,.07,0,1,3,1.83,5.88,2.95,8.64a101.75,101.75,0,0,0,5.12,11.52c2.24,4,2.1,8.17,1.57,12.43-1.28,10.09-2.65,20.16-3.86,30.26a20.8,20.8,0,0,0,.45,4.57l.94-.08a5.36,5.36,0,0,0,.65-1.44q1.94-15.55,3.81-31.11a25.38,25.38,0,0,1,.44-3.58c1.9-7,.42-13.73-1.78-20.54-.15,2.38-.3,4.75-.45,7.21-2.19-4.23-4.47-8.28-6.42-12.48a14.16,14.16,0,0,1,.21-12.35c.91-2,2.07-4,2.43-6.06,2.34-13.64,5.34-27.25,6.48-41,1.08-13,.16-26.24.11-39.37ZM164,173.6l-1-.39c-1.13,1.85-2.24,3.71-3.39,5.55-3.06,4.9-5.75,10.1-9.33,14.58-3.18,4-7.31,7.21-11.14,10.64-2.44,2.19-5.1,4.13-8,6.43L129.26,206c-.1,1.88-.18,3.3-.26,4.71l-.7-.07.43-2.84c-1,.64-1.7.85-1.92,1.31-2.85,5.9-5.67,11.81-8.34,17.78-.31.7.34,1.83.75,3.67-1,4.53-2.53,10.21-3.28,16-1.75,13.54-8.31,25.85-9.78,39.48-.42,3.92-2.35,7.67-3.53,11.52a12.57,12.57,0,0,0-.4,2.56c-.15,1.66.09,3.45-.43,5-2,5.88-2.56,11.9-2.63,18.09-.07,6-.85,11.93-1.36,17.89-.14,1.63-.5,3.24-.65,4.87-.56,6-1.68,11.8-5.2,17.12V350.37H90.6c0,2.64,0,5.28,0,7.91,0,6.23.09,12.4-2.46,18.39-1.14,2.7-1.06,6-1.3,9-.12,1.52.54,3.1.42,4.62-.29,3.81-.7,7.62-1.26,11.4-1.46,9.84-2.72,19.71-7.2,28.82-1.14,2.31-1.53,5-2.26,7.5l1.31.5L82,429.42l1.1.42-8.75,31.42c-1,0-1.77-.11-1.81,0-1.43,4.34-3.41,8.61-4,13.08a82.39,82.39,0,0,1-6.65,22.56c-5.15,11.59-9.9,23.36-14.87,35-.68,1.61-1.63,3.1-2.46,4.64l-.56-.26,2.37-9.22L45,526.75c-2.65,7.07-5.31,14.14-7.94,21.22-.18.48.09,1.13-.1,1.6a29.56,29.56,0,0,1-2.73,5.89c-1.88,2.63-4.21,4.93-6.29,7.42-1.07,1.28-2,2.66-3,4l-1.25-.43,6.67-50.35-.64-.09-3.46,24.52c-.42-5.75-.5-11.43-.39-17.11.09-4.79.79-9.62.43-14.37-.21-2.67-1.15-5.25-.71-8.08.33-2.1.78-3.08,3.26-3.46,6.79-1,9.19-3.83,10-10.54a67.87,67.87,0,0,1,2.08-9.12c1.46-5.65,3.37-11.21,4.38-16.93s.56-11.87,1.86-17.56c2.65-11.54,3.67-23.32,6.52-34.89,4.33-17.57,5.86-35.81,9.24-53.64,3.79-20,8.12-39.87,12.57-59.72,4.31-19.2,9.6-38.21,10.07-58,.08-3.43.85-6.05,3.92-8,1.42-.89,2.42-2.51,3.47-3.9,3.16-4.19,5.84-8.85,9.49-12.55,3.45-3.48,4.39-8,6.56-11.95.25-.46-.25-1.34-.4-2-.65.26-1.64.33-1.9.81-.85,1.52-1.37,3.21-2.12,4.78a28.46,28.46,0,0,1-2.45,4.57c-2.25,3.09-4.67,6-7,9.06l-6.91,8.87-.46-.35,12.13-23.54c-3.23.74-4.85,2.84-6,5.67-1.62,4.06-3.54,8-5.33,12l-.76-.35,1.28-5.73-1-.42c-1.52,3.12-3.08,6.21-4.56,9.35s-3,6.51-4.4,9.82c-.5,1.22-1.17,3.53-.77,3.79,2.18,1.38,1.18,3.17.77,4.61-2.28,7.87-4.8,15.68-7.12,23.54-.85,2.88-1.4,5.85-2.09,8.78l1.15.3,5.45-14.33c-.73,4.21-1.59,8.36-2.71,12.45-5.48,20-11,40.07-16.54,60.12a41.28,41.28,0,0,0-.74,4.77l1.07.19L64.65,316c-1.19,12-2.37,24-4.37,35.87C55.73,378.83,50.8,405.71,46,432.62c-1.73,9.69-3.59,19.33-3.42,29.27.05,3.24-1.24,6.52-2.06,9.74-1.4,5.55-2.9,11.07-4.41,16.59-.33,1.22-.89,2.38-1.34,3.57l-1.35-.35,7.91-53.56-1.08-.13c-2.39,17.65-4.85,35.29-7.08,53a4.25,4.25,0,0,1-2.86,3.84c-1.64.74-2.86.67-3.76-1.15-.22-.44-1.2-.5-1.22-.51L29.08,480l-1.14-.34c-.82,2.77-1.79,5.5-2.42,8.31-.58,2.63-2.11,3.5-4.84,3.3l-4.41-13.23c1.56,5.17.66,11.29,5.6,15.18.32.25.38,1,.34,1.52-.59,8.05-1.23,16.11-1.83,24.16a9.8,9.8,0,0,0,.05,2.83c.3,1.33,1.23,2.61,1.23,3.91.06,11.5,0,23-.07,34.51,0,2,0,4,0,6l-1.23.26c-.42-1.46-1.18-2.93-1.2-4.4-.11-9.42,0-18.84-.11-28.27,0-1-.83-1.94-1.28-2.92-.46,1-1.3,1.92-1.31,2.88q-.15,14.79,0,29.58A6.38,6.38,0,0,0,17.57,567c1.69,2.18,3.69,4.11,5.36,5.92l6.71-7c0,2,.07,3,0,4.06q-1.86,25.66-3.76,51.33c-.75,10-3.09,20-1.14,30.09.29,1.51.85,3,1.28,4.46l1.2-.09a34,34,0,0,0,.2-4.54c-.22-2.59-1.1-5.19-.94-7.74q.86-13.59,2.28-27.15C30.49,600,32.25,583.63,31,567.18c-.29-3.94,1-6.75,4-8.72,3.12-2.09,4.35-5,5.13-8.39a24.42,24.42,0,0,1,2.3-5.66c.9-1.74,2.23-3.26,3.12-5q9.19-18,18.24-36a22.86,22.86,0,0,0,1.3-3.71c5.06-16.76,10-33.55,15.2-50.27s6.85-34,8.55-51.3c1-10.4,3.08-20.72,5.07-31,1.31-6.73,3.92-13.23,4.91-20,1.88-13,5.76-25.66,5.2-38.95a6,6,0,0,1,.44-1.91c1.54-5,3-10,4.67-15,6.19-18.06,10-36.69,13.1-55.45a67.76,67.76,0,0,1,8.11-23.3c.93-1.6,4-2,6.16-2.83.82-.33,1.94-.17,2.56-.68a100.59,100.59,0,0,0,7.59-6.76c7.42-7.5,12.38-16.62,16.75-26.09a12.9,12.9,0,0,0,.61-2.65M38.64,213.5a12.33,12.33,0,0,0-.58,2.19c.22,8.42.34,16.84.76,25.25a29.5,29.5,0,0,1-4.22,16.61A28.15,28.15,0,0,0,33,261.77l.65.24,3.85-6.32,1,.36c-1.35,11.38-2.52,22.78-4.13,34.12-.57,4-2.66,7.78-3.22,11.78-1,7.39-1.46,14.88-2.14,22.32a51.42,51.42,0,0,0-.54,6.17,14.67,14.67,0,0,0,1.19,3.83l.9-.19c-1.21,10.86-2.36,21.73-3.69,32.58-.3,2.43-.36,4.3,2.84,4.36-.63,4.08-1.29,7.84-1.74,11.63a10.52,10.52,0,0,0,.64,3.19c.6-.82,1.65-1.6,1.73-2.47,1.34-14.36,2.57-28.74,3.81-43.11.7-8.16,1.38-16.32,2.08-24.48.54-6.31.88-12.66,1.71-18.93,2.16-16.37,4.76-32.67,6.73-49.06,1.33-11.06,1.92-22.2,2.77-33.31.9-11.87,3.72-23,11.48-32.47a7,7,0,0,0,1.54-3.23c.52-3.77,1.85-6.61,6.2-6.91.46,0,.92-.57,1.3-1,1.7-1.68,3.42-3.35,5.06-5.09s8.84-4.16,10.19-3.49c4.43,2.2,8.91,4.29,13.28,6.59,6.45,3.4,12.8,7,19.26,10.37a11.79,11.79,0,0,0,4.82,1.41c2.38.09,2.85-1.39,1.56-3.23a39.08,39.08,0,0,0-3.75-4.55c-3.24-3.4-6.77-6.55-9.8-10.12s-5.32-7.63-8.35-11.14c-5-5.78-10.29-11.3-15.51-16.89-.34-.37-1.1-.34-1.67-.5-.14.59-.58,1.35-.36,1.74a16.58,16.58,0,0,0,2.46,3.42c4.12,4.3,8.31,8.53,12.48,12.79l-.62.64c-4-3.43-8.8-6.32-11.94-10.44-2.89-3.79-6.2-4.65-10.29-5.09s-8.08-1.14-12.73-1.81c4.81-2,8.95-1.33,13.69,1.16-1.87-3.5-4.26-4.5-6.81-4-7.5,1.34-15.41-.26-22.6,3.24-.75.36-1.77.17-3.27.27,2.41-4.81,6.69-4.23,10.63-5.18-6.69-1.13-12,1.57-14.46,7.72,3-.29,5.63-.48,8.24-.81s5-1.32,7.38-1.06c7.8.87,15.56,2.15,23.33,3.36,1.89.29,3.6,1,2.48,2.79,9,6.07,16,14,23.95,21.07C97,163.78,90,161.45,83.35,158.4c-1.65-.75-2.77-2.68-3.6-3.53l-14,1-.24,1,7.24,2.64c-1.43.66-2.42,1.16-3.44,1.59-1.82.76-4.33.92-3.18,4.09.11.31-.77,1.31-1.35,1.5a12.83,12.83,0,0,0-9,9.81A31.41,31.41,0,0,1,53.91,181l-2.37-1.82a7.36,7.36,0,0,0-.78,1.51c-1.62,9-3.25,18.07-4.81,27.12-.43,2.48.25,5.9-1.16,7.28-2.44,2.38-1.73,4.91-2.09,7.44-.33,2.25-.53,4.52-.82,7.07-1.54-5.17,1.37-11-3.24-16.12M52.35,69.31c-1.86,2.8-3.88,5.26-5.27,8C45,81.52,43.32,85.9,41.53,90.21a18.11,18.11,0,0,0-.68,2.71l2.93.61c-1.52,1.78-3,3.39-4.32,5.11a14.11,14.11,0,0,0-1.27,2.51c1-.23,2.36-.12,3-.74,1.77-1.85,3.25-4,5.41-6.72.28,6.27-5.69,8.16-7.29,13a19.32,19.32,0,0,1,3.57-.45,42.09,42.09,0,0,1,4.41.79l.09-.11,5.79,1.51,1,10.7a46,46,0,0,0,5.23-8.61c.29-.57.27-1.6.68-1.77,3.37-1.46,3.16-4.25,2.91-7.14a3,3,0,0,1,.54-1.75c2.28-3.38,4.61-6.72,6.38-9.29-1-2.1-1.87-3.93-2.8-5.73-1.27-2.46-2.6-4.9-3.93-7.33-.35-.64-1.19-1.29-1.12-1.85.37-2.88-1.15-3.1-4-2.06l2.56-7.29c1.48,3.32,2.56,5.91,3.77,8.45,2.37,5,5.62,6.41,10.91,4.95,2.82-.78,3.83-2.62,3.1-6.61-1,1.17-2,1.89-2.27,2.84-.65,2-2.08,2.75-3.75,2.15-1.93-.7-4.2-1.63-5.3-3.18A45.15,45.15,0,0,1,61.82,65c-.78-2-.71-4.47-.68-6.72.05-3.59,2.73-4.67,5.63-5.81,2.44-1,2.73,1,3.88,1.94.33.26.9.66,1.11.55,3.31-1.76,3.95,1.08,5.06,3.2L80,56.44c-2.69,3.86-2.69,3.86.69,6V45.68L78.5,49.25l-.35-.2.7-4.66c3-1.41,5.87-3.14,9-4.1s6.28-1.09,9.44-1.58l0-.67-3.27-1,3-2.81c-3.69,1-6.72,1.83-9.72,2.73a60.9,60.9,0,0,0-8,2.69,67,67,0,0,0-7,4.31c2.39,3.82-1.54,3.42-3.39,5.3L69.67,46l-18,15.18.82,1.07,8.05-5.64c-.39,1.69-.26,3.43-1,4.09-2.83,2.37-2.67,5.75-3.52,8.79,0,.1,0,.26-.08.31-.6.52-1.16,1.26-1.86,1.44-.31.08-.91-1-1.73-1.92M213,508.63l-1.47.12c0,1.51-.08,3,0,4.53.73,12.34,1.89,24.66,2.16,37,.41,19.06,1,38.09,3.9,57,1.65,10.68,3.83,21.28,5.5,32,.28,1.78-.85,3.79-1.33,5.69l-1-.23-.12-2.21c-4.38,4.67.37,9.21-1.42,13.45l1.38.19,1.94-11.86c2.52,6.62,1.89,15.42-.75,17.38l.8-2.49a16.89,16.89,0,0,0-6.06,4.06c-3.78,4.25-8.67,4.08-13.35,3.12-3.13-.64-5.31-.28-7.26,2.05a11.2,11.2,0,0,1-10.46,4.15,15.55,15.55,0,0,0-3.6.19c-9.07,1.14-18.07,1.45-26.85-1.84-1.06-.4-2.4-.06-3.61-.06,0,.15,0,.3,0,.46l6.93,2.17-.21.77-5.95-.43-.18.57,2.34,1.6-4.25,8.12c1.91,1.49,3.06.84,3.63-1.32s1.11-4.42,1.58-6.33l33.67-1.91L183,678.58l.46.82a34.77,34.77,0,0,0,5.23-2.83c3.19-2.48,6.09-5.35,9.31-7.79,1-.74,2.62-.8,4-.78,4,.06,8,.7,12,.32,1.77-.17,3.36-2.24,5.86-4,5.38,0,6.26-1.57,6.49-8.29a138.71,138.71,0,0,0-2.12-29.33c-2.09-11.52-5.31-22.74-3.3-34.66,1.11-6.57,1.49-13.26,2.09-19.9.75-8.24,1.53-16.49,2-24.75.11-2.08-1.09-4.24-1.69-6.36l-.86.22-3.7,28.21c-3.49-20.25-2.59-40.72-5.72-60.8M71.35,194.92c-4,7.34-15.4,48.46-14.57,52.45,5.62-8.19,8.69-17.36,10.29-27.1L62,235.21l-.76-.27c3.92-13,6.2-26.51,13.78-38.22a4.53,4.53,0,0,1,3.7-2.53,59.29,59.29,0,0,0,10.27-2c9.32-2.82,18.72-4.29,28.44-2.59a7.33,7.33,0,0,0,2.45-.55c-2.34-4.41-6.94-2.51-10.13-3.83l.3-.78,2.91-.76V183l-2.91-.47,1.8-1.83a27.26,27.26,0,0,0-2.89-1.47c-4-1.5-9.53.22-11.72-5.53l4.18.41c-1.23-.8-1.77-1.45-2.38-1.51q-6.06-.62-12.14-1c-.47,0-1,.67-1.48,1,.45.51.82,1.31,1.38,1.48,2.45.73,4.95,1.28,7.43,1.89l-.21.78c-2.79-.42-5.56-1-8.37-1.2-1.08-.08-2.23.65-3.35,1,.89.77,1.67,1.94,2.69,2.21a60.7,60.7,0,0,0,7.1,1.06l11.48,1.53c-.38.49-.7.59-1,.55-11.13-1.42-20.58,4-30.42,7.65-4.06,1.49-4.08,3.14-.81,5.3m65.93,264.55-.32.09,2.45-15.6-1.14-.23a6,6,0,0,0-1,1.88c-.64,5.47-1.2,11-1.76,16.44,0,.42,0,1.07.21,1.26,2.66,2,1.32,4.71,1.26,7.17,0,1.64-.34,3.27-.33,4.91a7.48,7.48,0,0,0,.73,2.32c.39,1.05,1.22,2.12,1.15,3.14-.33,4.9-1.06,9.78-1.3,14.69-.16,3.32.86,3.77,3.48,2.34-.32,4.52-.73,9.19-.92,13.87,0,.69,1,1.42,1.47,2.13.48-.65,1.25-1.25,1.39-2,.57-3,.83-6.08,1.41-9.08,1.24-6.47,2.6-12.92,3.9-19.38l1,.19c-2.5,16.92-5.73,33.8-3.4,51.06a3.93,3.93,0,0,0,1.34-2.77c-.25-16.28,2.12-32.3,4.42-48.34a53.41,53.41,0,0,0,0-7.52l-1.63-.22-5.18,18.53a6.24,6.24,0,0,1-.08-2.57c1.07-7.25,2.21-14.5,3.16-21.77.14-1.09-.62-2.31-1-3.47-.84,1-2,1.81-2.44,2.93-.91,2.54-1.43,5.23-2.11,7.86a19.47,19.47,0,0,1,.28-6.31c.49-3.13,1.08-6.26,1.41-9.41.08-.78-.66-1.64-1-2.46-.62.49-1.29,1-1.86,1.5a6.07,6.07,0,0,0-.7,1.44l-.41-6.64-1.15-.08-1.37,4.07M24.87,66.14C17,64.86,13.44,57.91,16.46,50.21c2.17-5.54,4.38-11.05,6.81-17.18-1.11,1.21-2.15,1.92-2.58,2.89C18.22,41.6,16,47.4,13.48,53.05c-2.4,5.38-.17,9,3.46,13,4.29,4.72,8.64,8.6,15.21,9.4.88.11,1.65,1.14,3.09,2.2-6.17,1.09-10.21-1.26-14.44-4l6.86,10.87-.87,0-.91,3.88,8.58,5.28V89.3c4.69-1.68,13.92-14.44,13.11-19.36L38.34,83.7,34.45,71.25,40.16,73l.47-.9c-1.27-.86-2.57-1.68-3.8-2.59-.71-.53-1.66-1.09-1.91-1.83A62.92,62.92,0,0,1,31.45,46.4a4.66,4.66,0,0,1,3.16-4.75c2.24-1,4.36-2.25,6.53-3.4l-.4-.87L34,40.15l-.45-.67L45.07,27.57l-.76-.73-12.06,11L30.1,35.57c-3.53,10.31-1.44,20.13-.32,30.5l-5.7-4.24-.68.34,1.47,4M235.65,709.37c-2.33-2.88-4.25-3.18-6.9-2.12A185.81,185.81,0,0,1,211,713.67c-3.14.91-6.65.55-10,.77l0-1a21.55,21.55,0,0,0,4.67-.08c1.41-.32,3.62-1.08,3.81-2a6.69,6.69,0,0,0-1.27-4.9,21.47,21.47,0,0,0-5.12-4.06c-3.66-2.45-3.8-2.39-6.89,1.13a7.84,7.84,0,0,0,2.57.6c3.59-.51,6.09,1.45,8.37,3.69a4,4,0,0,1,1,3.07c-.07.48-1.75.9-2.74,1-2.23.23-5.36-.61-6.52.56-1.71,1.73-3.15,1-4.76,1.1-5.89.23-11.22-1-15.29-5.72a12.46,12.46,0,0,0-2.15-1.5c-6.14-4.56-12.29-9.1-18.4-13.71-1.43-1.08-2.69-2.39-4.07-3.64l-1.69,3.64c7.86,8.11,18.29,12.48,27.38,18.73l-.33.86-11.69-.68v-.84l6.19-1.27c-1.89-.36-3-.67-4.16-.77-3.26-.31-6.54-.5-9.8-.84-.84-.09-2.15-.31-2.38-.85-1.36-3.13-4.2-2.12-6.5-2.53a18.39,18.39,0,0,0-3.16,0c0-3.16-.08-6,0-8.81s.39-5.65.56-7.95c-2.37,4-3.76,14.21-1.68,18.59.86,1.81,3.14,3.93,4.94,4.1a74.22,74.22,0,0,1,12.72,2.1c6.18,1.67,12.7,2.09,19.08,3,12.52,1.7,25.06,2.42,37.42-.88,4.79-1.28,9.37-3.36,14.53-5.26M37.7,182.81l.92.23a22.29,22.29,0,0,1-.29,3.53c-1.75,7.33-3.6,14.63-5.36,22a11.67,11.67,0,0,0-.52,4.21c.15,1.07,1.14,2,1.76,3,.94-.66,2.39-1.12,2.73-2a82.38,82.38,0,0,0,3.79-11.51c2-8.62,3.59-17.32,5.3-26a45.63,45.63,0,0,0,1.15-7.74c.1-4.47,0-8.9,2.6-12.84a2.36,2.36,0,0,0,.2-1.58c-.86-4.76.29-6.86,4.73-8.25-1-2.54-3.28-3.49-5.16-2.27A16.4,16.4,0,0,0,44,149.71c-1.48,3-2,6.41-2.89,9.66-.11.39-.14,1.1.06,1.22,2.32,1.4,1.2,3.49.58,4.92-2.19,5.07-4.72,10-7.16,15-.72,1.46-1.86,2.79-2.24,4.32-.21.86.73,2,1.15,3a11.41,11.41,0,0,0,2.31-1.76,23.21,23.21,0,0,0,1.87-3.26M174.59,548.4l1,.43q-3.5,11.09-7,22.19c-4.29,13.56-8.62,27.11-12.82,40.69-.33,1.06.18,2.38.29,3.58.79-.84,2-1.55,2.3-2.54,7.28-24.34,14.55-48.68,21.59-73.08,1.84-6.37,3-13,4.33-19.45a26.67,26.67,0,0,0,.24-4.15c-2.35,5-4.3,10-6.15,15q-12.44,33.57-24.84,67.15a17,17,0,0,0-1.1,3.08,6.45,6.45,0,0,0,.5,2.27c.69-.41,1.63-.66,2-1.26a16.86,16.86,0,0,0,1.6-3.59c3.76-10.52,7.47-21.05,11.23-31.57,2.24-6.26,4.53-12.5,6.79-18.74M63.56,13.16c0-.35,0-.71,0-1.06C80.11,7.85,96.42,2,114.15,4.19a8.69,8.69,0,0,0-3-1.58,37.52,37.52,0,0,0-5.85-.75c-10.64-.53-21.08,1.9-31.75,2-7.79.08-15.66,3-23.28,5.34C45,10.85,40,13.62,35,16.06c-1.45.71-3,1.84-2.32,3.53C47.08,10.46,63.06,7.43,80.17,4.79,66.51,9.76,53.79,14.44,41,19c-1.36.48-3,.1-4.56.15-.16,0-.31.24-.62.51l.82,2.27c-1.9,2.59-6,1.59-6.92,5.46-.72,2.89-2.65,5.5-4.08,8.21-3.2,6.06-3.22,6.09-1.79,8.44A64.84,64.84,0,0,0,27,37.44C30.51,27.54,38,22,47.58,19.38c7.33-2,15-3,22.48-4.39,1.13-.21,2.25-.5,3.38-.76l-.14-1.08ZM103,420.52c1,5.79-4.77,8.43-4.61,13.54l3.91-6.16,1.13.67-8,14.62.67.35,5.08-7.89a12.36,12.36,0,0,1-.34,3.23c3.36,1.3.45,3,.18,4.3a25.28,25.28,0,0,1-1.93,4.7l.7.35,3-5.84.85.45-2.81,7,.54.21,2.35-2.49,2.22,32.1,1.45,0a33.84,33.84,0,0,0,.3-4c-.66-17.38-1.47-34.76-2-52.15-.36-11.38-.34-22.76-.55-34.15a31.8,31.8,0,0,0-.66-4.12l-5.11,19.51.34.14,3.3-7.38c0,3.26,1.48,6.64-1.63,9.77-1.5,1.5-2.06,3.93-3,5.94l.73.33,3.49-5.7.92.41-4.14,10,.72.32,2.73-5c1.37,5.09-3.14,7.48-3.45,11.56l3.61-4.6m3.68-206.32c6.15-3,12.17-6,18.26-8.91,1.25-.59,2.81-.5,4.06-1.08a11.75,11.75,0,0,0,2.55-2.25l-2.4-2.1a10.44,10.44,0,0,0,2.73-.69,19.58,19.58,0,0,0,2.76-2.24c-1-.58-1.94-1.6-3-1.67a92,92,0,0,0-10.48-.14,26.07,26.07,0,0,0-4.88,1.09l.94-5c-5.6,4.36-5.86,5.43-3,8.47-1.75,2.65-7,3.95-3.29,8.73-2.57,1.46-5.28,2.72-4.28,5.8M145,647.11l.53,0c0-.52.13-1,.12-1.55-.22-10.29-.24-20.59-.71-30.87-1.28-28.14-.48-56.39-3.49-84.33,0,16.53-.09,33.15,0,49.77.07,8.09.68,16.18.83,24.28.17,9.27,0,18.55.21,27.83,0,2,1,3.93,1.12,5.92A18.93,18.93,0,0,1,143,644a20.33,20.33,0,0,1-2.18,4.1l.71.39,2.75-4.21.78,2.85m.85-494.33a7.76,7.76,0,0,0-.95-1.18c-6.83-6.38-14.1-12.16-22.72-16-6-2.66-12-5.26-18.11-7.71-7.3-2.94-14.66-5.73-22-8.45-1.27-.47-2.78-.27-4.18-.38q0,.35,0,.69l6,1.93-1.16.73c11.84,4.76,23.77,9.66,35.77,14.37,12.16,4.77,20.92,14.5,31.86,21.75-2.21-4.27-1.9-5.19,1.63-7.52,1.87-1.23,3.54-2.75,5.3-4.14l-.56-.83-10.9,6.72M84.77,520l-1.06,0,1,76.39,1,0,.61-11.66h.4l1.5,36.28.93,0c-.4-14.1-.71-28.21-1.22-42.31-.44-12.25-1.24-24.48-1.64-36.73-.21-6.34.13-12.69.2-19a10.15,10.15,0,0,0-.32-1.86l-.47.09-.56,11.5h-.38Zm71-258.14c5.9-4.61,9.53-10.95,13-17.38,7.89-14.53,12.44-30.34,17.31-46,3.37-10.82.93-21.22-4.79-30.87a32.16,32.16,0,0,0-1.91-2.6l-.75.49c1.62,3.51,3.35,7,4.85,10.53,2.24,5.35,3.39,11.18,1.9,16.66-2.76,10.11-6.26,20-9.89,29.88a257.13,257.13,0,0,1-10.16,24.06c-2.62,5.35-6.35,10.16-9.58,15.21m-4.15,53.85c-1.64-2.79-3-1.55-4.45-1-8.42,3.37-16.45,8.28-26.15,6.9a5.67,5.67,0,0,0-2.39.65c-1.27.45-2.56,1.47-3.75,1.34-3.5-.38-7-1.2-10.72-1.9.22.68.23,1.25.5,1.42,2.6,1.62,4.83,3.93,8.4,3.58,5.52-.54,11.08-.65,16.6-1.14a58.83,58.83,0,0,0,6.92-1.46L135.38,333l1.13.17,2-9.47,13-8m58.68,79.81,1-.25c-.12-.49-.22-1-.37-1.47-2.25-6.86-4.84-13.63-6.71-20.58a619.44,619.44,0,0,1-14.77-70c-1.06-7.09-2.91-14.06-4.4-21.09,5.21,38.54,10.55,77.06,25.28,113.39M119,637l1.06-.07-8.15-105.87-.76,0-.27,1.06-1.15-8.2a6.81,6.81,0,0,0-.33,3.63c1.75,10.1.45,20.4,3.18,30.57,2,7.55,1.3,15.86,1.7,23.84.67,13.44,1.25,26.88,1.87,40.31l.6,0,.5-3.78.66,0q.54,9.27,1.08,18.53M44.16,647.78l.53.06a25,25,0,0,0,.56-2.81c1-11.12,2.1-22.22,2.82-33.35q1.8-28,3.13-56.07c.23-4.72-.25-9.47-.4-14.2H49.45L44.16,647.78m157,41.11-18.09,6.65a16.19,16.19,0,0,0-3.35,1.28c-.59.39-1.24,1.62-1,2.09a2.94,2.94,0,0,0,2.15,1.19,7.53,7.53,0,0,0,2.51-.66c6.3-1.81,12.59-3.66,18.91-5.4a5.25,5.25,0,0,1,3.14,0c3.26,1.33,6.39,2.95,9.63,4.33a11.74,11.74,0,0,0,2.93.45l.26-.89c-2.46-1-5.22-1.66-7.31-3.2-2.59-1.91-5.81-4.25-6.54-7-.56-2.11-1.25-3.16-2.78-4-2.31-1.23-4.72-2.28-7.13-3.31A12.06,12.06,0,0,0,192,680l-.44.94,9.58,8M112.84,360c.14,2.41-.37,5.64.49,6.07,2.37,1.17,1.72,2.84,1.89,4.51a6.73,6.73,0,0,0,.42,1.54q1.7,4.8,3.43,9.6c-2.11-1.1-3.41-2.58-5-3.66-1.78-1.21-3-.52-2.81,1.7a47.88,47.88,0,0,0,1,5.07l-4.41-5.09-.85.67,6.67,10.13,1.72-2.21c-2.46-2-3.16-5.12-1.84-9.18l7.08,7.73-4.16-26.35c0-.11,0-.27-.09-.31-3-1.67-1.47-4.3-1.35-6.61.16-3.06.43-6.11.57-9.17a8.17,8.17,0,0,0-.48-2.12l-.46.12q-.86,7.48-1.71,15l-1.13-.14c.6-8.46,1.21-16.91,1.83-25.47l-1.37,1.09L111.8,330a86.35,86.35,0,0,0-.67,11.55c-.17,5.36-.53,10.71-.75,16.07-.07,1.59,0,3.27,2.46,2.36m44.1,22.11a6.23,6.23,0,0,0-.12-1.6c-5.41-12.56-10.8-25.14-16.36-37.63-.45-1-2.09-1.49-3.65-2.54.49,8.12,16.14,40.47,20.14,41.78m-45.49-331,3.83-2.73c-3-4.5-7.72-6.22-12.83-7.35A3.45,3.45,0,0,0,98,43.39c2.74,5.85,8.33,4,12.79,5.28L96.9,53.48l0,.83h14.52ZM129,278.15l-1-.11a11.16,11.16,0,0,0-.84,1.18c-3.34,6.23-5.85,13.41-15.16,12.53-.49,0-1.14,1.61-1.85,2.67,3.77-.62,7-.48,9.46-1.75s4.45-4,7.48-6.88c0,2.35-.1,4.08,0,5.79.08,1,.21,2.56.88,3,2.65,1.73,11.75.26,14.07-2,1.45-1.43,1.41-2.27-.2-3.77-.35.84-.56,2.31-1.06,2.42-2.5.54-5.37,1.56-7.54.8s-4.63-2.55-4.32-5.92c.24-2.62,0-5.28,0-7.92m26.24,250.16c3.22-16.44,4.42-33.09,5.13-49.79-2,2.21-6.87,47.4-5.13,49.79M14.09,483.2c.58-9.39.85-18.42,1.8-27.37.88-8.34,2.71-16.58,3.71-24.92.5-4.21.09-8.53.09-12.8h-.51l-4.24,36H14l-1.65-2.75a7,7,0,0,0-.59,1.92c.4,4.53,1,9.05,1.27,13.59.22,4,0,8.09.11,12.13a20.62,20.62,0,0,0,1,4.14M178.15,683.43l.84.63c-1.1,1.49-2.19,3-3.3,4.47-1.24,1.67-2.59,3.27-3.73,5-1,1.48-1.72,3.1-2.56,4.66l.94.54,15.39-17.86-.88-1-4.52,2.85-.45-3.24c-1,.45-2.43.62-3.07,1.4-3.47,4.22-6.76,8.58-10.08,12.93-.19.24,0,.75,0,1.14l.9.63,10.53-12.16M156.9,554.67a16.12,16.12,0,0,0,2.09-3.25c2.09-6,3.95-12.14,6.08-18.15,1.57-4.43,3.5-8.73,5.11-13.14a24.07,24.07,0,0,0,.75-4.58c-5.6,9-15.26,35.59-14,39.13M149.29,543l1.1,0q2.52-23.88,5-47.76A191.06,191.06,0,0,0,149.29,543m45.06-185.64-12.18-59.48-.83.18c3.92,19.86,5.57,40.21,13,59.3M198.83,657c2.14-2,2.21-31.37.48-38.69-3,12.67-1.14,25.35-.48,38.69M74.07,71a44.7,44.7,0,0,0-1.3-5.56,102,102,0,0,0-4.14-9.52A2.74,2.74,0,0,0,66,55.5c-.68.64-.74,1.93-1.06,2.95l.65.28,1.2-1.34c3.52,3.27-1.24,4-1.65,6,2.23,3.13,4.16,6.43,8.91,7.67M93.26,682.08c0,3.88,9.34,9.65,13.29,7.92l-2.33-1.8,4.2.67.28-.81c-4.92-2.54-9.33-6.24-15.44-6m27.5-351.23-.64.71c7,10.36,14,20.69,17.06,33.09.43-.51.53-.85.46-1.15A91.53,91.53,0,0,0,122.91,332c-.43-.58-1.42-.75-2.15-1.11m26.75-62.31.43-1.67c-9.73-.12-18.35-3.43-26.18-8.9,0,5.33,3.86,6.46,7.2,7.28,6.09,1.48,12.35,2.24,18.55,3.3M83.94,497.13c.08-12.18.38-24.49-.87-36.74l-1,0v24.52c3.15,3.69.85,8.16,1.88,12.21m65.25,176.38-.09-.76c-1.75.6-3.67.92-5.21,1.85-2.7,1.63-5.07,3.82-7.78,5.41-1.08.63-3.1.92-4,.33-4.84-3.06-4.82-3.18-10.75-1.14a7.47,7.47,0,0,0,2.48.47c3-.7,5.22.15,7.54,2.33,1,.92,4,.62,5.53-.23,4.28-2.45,8.23-5.47,12.31-8.27M118.5,155.75l1-1.1c-1.35-1.75-2.45-3.81-4.11-5.18a102,102,0,0,0-9.9-6.94c-.46-.29-1.6.49-3.29,1.08-4.53-1.53-4.53-1.53-6.51-.57a36.55,36.55,0,0,1,22.81,12.7m6.2-101.46a34.26,34.26,0,0,0,6.94,16.9c1.19-7.15-3.38-11.8-6.94-16.9m-4.6,29.87-4-4.45-1.83,2.46L110.88,80l-.85.47c.17,1.51-.18,3.95.59,4.38,2.79,1.55,5.92,3.86,9.48-.64m-49,458.61H71V520.66h-.8q-.65,14.44-1.3,28.88l.66,0,1.25-12.72.28,5.92m54.7-447.23,1.33-.3c.3-5.6,1.27-11.18.2-16.88-1.84,5,.4,11.63-7,13.93l.53.84,3.65-.5,1.31,2.92M94.34,109,77.58,88.52c1.2,5.85,11.46,18,16.76,20.48m20.9,585,.25.75c3.82-1.1,7.64-2.24,11.48-3.29s7.28-4.35,11.82-3.5c.12,0,.34-.46.88-1.23-2.25-.15-3.92-4.2-6,.3-.24.52-1.29.71-2,1q-8.22,3-16.45,6M122,297.66l3.79-4-.59-1.19c-3.85,3.45-8.2,5.12-13.7,3.7,1.39,2.38,11,4,12.12,2.7L122,297.66M159.6,143.83a46.41,46.41,0,0,0,17.63,17.53L159.6,143.83M53.83,63.68c-1.92,1.19-3.31,2.4-4.93,3s-3.82.92-3.06-2.54l-7,.84L39,66.61l4.75-.27c.24,2.5,2.36,2.47,4.27,1.9,2.22-.66,5.54-.11,5.81-4.56m55.77,64.64,1.13-.09-1-15-1.37.1c-.5,5.08-.7,10.13,1.29,15M87.81,630h.3v30.35l1.46-.05q-.88-15.14-1.76-30.29m52-466.83,12.29,18.57.8-.58c-4.35-5.65-6-13.23-13.09-18m-115,497.4c1.64,2.92,9.85,5,20.22,4.38A9,9,0,0,0,42,663.69c-3.73-.57-7.5-.91-11.21-1.54a58.45,58.45,0,0,1-5.93-1.59m125-393.81a18.12,18.12,0,0,0,4.29-12c-.6,4.32-5.81,7-4.29,12M67.66,636.88l.5,0q.58-14.48,1.15-29l-.66,0Zm73.5-476.4c6.27,2.52,6.27,2.52,9.6.62-7.53-2.82-7.53-2.82-9.6-.62M12.9,288.75h-.5v17.62h.5Zm89.47,56.16,1,.19,3.19-16.83-1.37-.26-2.79,16.9m84.39,115-5.93-14.46-1.16.51c.86,5.36,4.36,9.53,7.09,14M52,120.22l-.29-1-13,4.2.34,1.12a34.09,34.09,0,0,0,13-4.37M212.43,699.93l-1,1.21c2.81,2.21,4.9,5.28,8.36,6.7l.84-1-8.19-6.89m-6.15-.82c0,4.25,4.31,9.38,7.8,9.83l-7.8-9.83M193,585.69l-.71-.61L185.16,597l1.35.77L193,585.69m-.19-6.81-.72-.47-8.51,12.06,1.15.76,8.08-12.34m27.1,117.39,9.44,4.94c0-2.71-5-6.09-9.44-4.94m-77-46.37-2.25,9.65c4-4.86,4.57-7,2.25-9.65m53.84-22.82-.73-.33-5.49,14.16,1.07.38,5.16-14.21m-90-569.83-.35,3.43c2.77.54,5.11.86,4.76-3l-4.41-.46M58.42,120.75l-.42-.88-14.44,6,.3.73,14.56-5.89m5.36-2.83-.29,1.28,9.91,2.43.26-1-9.88-2.66m88.65,42.86c2.78-2.77,3.39-7,1.62-9.56l-1.62,9.56m39.1,501.83c-1.78,2.22-4.39,3.51-3.92,6.61,1.54-1.92,4.79-2.82,3.92-6.61M160,402.8l.18-.95-12.07-3.42-.26.93L160,402.8M113.91,691.86c2-.31,5.08-3.45,5.15-6.23l-5.15,6.23m40.51-450.76.43-.09V224.87l-.43,0ZM113.22,698.6l.32.67,12.6-4-.26-.82-12.66,4.16M63.86,658.1c.86-3.71,3.17-7,.84-10.92l-.84,10.92m162.61,48.19c-1.67-3.2-4.6-4.47-7.33-3.59l7.33,3.59M127.95,144.58l.34-.59-11.4-6.68-.41.72,11.48,6.56m19.18,245.51.11-1.2c-2.42.39-4.42-1.81-6.82-1.61l-.26,1.49,7,1.32M186.42,664l.73.33,2.71-4-2.31-2L186.42,664" transform="translate(-1.2 -1.78)"/><path d="M164,173.6a12.89,12.89,0,0,1-.61,2.65c-4.37,9.47-9.33,18.59-16.75,26.09a100.77,100.77,0,0,1-7.59,6.76c-.62.51-1.74.35-2.56.67-2.13.86-5.23,1.23-6.16,2.83a67.72,67.72,0,0,0-8.11,23.3c-3.09,18.76-6.91,37.4-13.11,55.45-1.7,5-3.13,10-4.67,15a6,6,0,0,0-.44,1.91c.56,13.28-3.32,26-5.2,38.95-1,6.76-3.6,13.26-4.91,20-2,10.28-4,20.59-5.07,31-1.71,17.32-3.36,34.57-8.56,51.3S70.15,483,65.09,499.74a23,23,0,0,1-1.3,3.71q-9.07,18-18.24,36c-.89,1.74-2.23,3.26-3.12,5a24.4,24.4,0,0,0-2.3,5.66c-.78,3.43-2,6.3-5.13,8.39-2.93,2-4.25,4.78-4,8.72,1.22,16.45-.54,32.79-2.27,49.14q-1.43,13.55-2.28,27.15c-.16,2.55.72,5.15.94,7.74a33.94,33.94,0,0,1-.2,4.54l-1.2.09c-.43-1.49-1-3-1.28-4.46-1.95-10.11.39-20.07,1.14-30.09q1.91-25.66,3.76-51.33c.08-1,0-2.11,0-4.06l-6.71,7c-1.67-1.81-3.68-3.74-5.36-5.92a6.37,6.37,0,0,1-1.12-3.62q-.13-14.79,0-29.58c0-1,.85-1.92,1.31-2.88.44,1,1.27,1.94,1.28,2.92.1,9.42,0,18.84.11,28.27,0,1.47.78,2.93,1.2,4.4l1.23-.26c0-2,0-4,0-6,0-11.5.13-23,.07-34.51,0-1.3-.93-2.58-1.23-3.91a9.83,9.83,0,0,1-.05-2.83c.6-8.05,1.24-16.1,1.83-24.16,0-.51,0-1.27-.34-1.52-4.94-3.89-4-10-5.6-15.18l4.41,13.23c2.73.2,4.25-.67,4.84-3.3.62-2.81,1.6-5.54,2.42-8.31l1.14.34L25.3,492.9s1,.07,1.21.51c.9,1.82,2.12,1.88,3.76,1.15a4.25,4.25,0,0,0,2.86-3.84c2.24-17.67,4.69-35.32,7.08-53l1.08.13L33.4,491.45l1.35.35c.45-1.19,1-2.35,1.34-3.57,1.51-5.52,3-11,4.41-16.59.82-3.23,2.11-6.51,2.05-9.74-.16-9.94,1.69-19.58,3.42-29.27,4.82-26.9,9.74-53.78,14.29-80.73,2-11.84,3.19-23.83,4.37-35.87l-7.05,21.42-1.07-.19a41.29,41.29,0,0,1,.74-4.77c5.49-20,11.06-40.07,16.54-60.12,1.12-4.08,2-8.24,2.71-12.45l-5.45,14.33-1.15-.3c.69-2.93,1.24-5.9,2.09-8.78,2.33-7.86,4.84-15.67,7.12-23.54.42-1.44,1.41-3.23-.77-4.61-.4-.25.26-2.56.77-3.79,1.37-3.31,2.88-6.57,4.4-9.82s3-6.24,4.56-9.35l1,.42-1.28,5.73.76.35c1.79-4,3.71-7.94,5.33-12,1.13-2.83,2.75-4.94,6-5.67L87.74,226.41l.46.35,6.91-8.87c2.35-3,4.78-6,7-9.06a28.53,28.53,0,0,0,2.45-4.57c.75-1.58,1.28-3.27,2.12-4.78.27-.48,1.25-.55,1.9-.81.15.68.65,1.56.4,2-2.17,4-3.12,8.47-6.57,11.95-3.66,3.69-6.33,8.35-9.49,12.55-1.05,1.39-2.05,3-3.47,3.9-3.07,1.93-3.84,4.55-3.92,8-.47,19.84-5.76,38.85-10.07,58C71,315,66.71,334.84,62.92,354.83c-3.38,17.83-4.92,36.07-9.24,53.64-2.85,11.57-3.87,23.35-6.52,34.89-1.31,5.69-.84,11.78-1.87,17.56s-2.92,11.29-4.38,16.93A67.75,67.75,0,0,0,38.83,487c-.77,6.7-3.17,9.51-10,10.54-2.48.37-2.93,1.35-3.26,3.46-.44,2.82.51,5.41.71,8.08.36,4.75-.34,9.57-.43,14.37-.1,5.68,0,11.36.39,17.11L29.76,516l.64.09-6.67,50.35,1.25.43c1-1.34,1.94-2.72,3-4,2.08-2.49,4.42-4.79,6.29-7.42A29.64,29.64,0,0,0,37,549.57c.19-.47-.08-1.12.1-1.6,2.62-7.08,5.28-14.15,7.94-21.22l1.32.37L44,536.33l.56.26c.83-1.55,1.77-3,2.46-4.64,5-11.67,9.72-23.45,14.87-35a82.32,82.32,0,0,0,6.65-22.56c.61-4.46,2.59-8.74,4-13.08,0-.13.8,0,1.81,0l8.75-31.42-1.1-.42-4.15,9.07-1.31-.5c.73-2.51,1.12-5.19,2.26-7.5,4.48-9.11,5.74-19,7.2-28.82.56-3.78,1-7.59,1.26-11.4.11-1.52-.54-3.1-.42-4.62.24-3,.16-6.28,1.3-9,2.54-6,2.41-12.17,2.46-18.39,0-2.64,0-5.28,0-7.91H92V363c3.52-5.33,4.64-11.14,5.2-17.12.15-1.63.51-3.24.65-4.87.51-6,1.29-11.92,1.36-17.89.07-6.19.59-12.21,2.63-18.09.53-1.53.28-3.32.43-5a12.61,12.61,0,0,1,.4-2.56c1.18-3.84,3.1-7.6,3.53-11.52,1.47-13.63,8-25.94,9.78-39.48.75-5.79,2.33-11.47,3.28-16-.41-1.83-1.07-3-.75-3.67,2.67-6,5.5-11.89,8.34-17.78.22-.46.95-.66,1.92-1.31l-.43,2.84.7.07c.08-1.42.16-2.83.26-4.71l1.94,4.41c2.87-2.3,5.53-4.24,8-6.43,3.83-3.43,8-6.66,11.14-10.64,3.58-4.48,6.27-9.68,9.33-14.58,1.15-1.84,2.26-3.7,3.39-5.55l1,.39M66.43,321.66l.37.05,14.92-66.06-1-.24c-3.54,19.07-11.86,37-13,56.65-.19,3.21-.82,6.4-1.24,9.6" transform="translate(-1.2 -1.78)"/><path d="M38.64,213.5c4.61,5.16,1.7,11,3.24,16.12.29-2.54.49-4.82.82-7.07.37-2.53-.34-5.05,2.09-7.44,1.41-1.37.73-4.8,1.16-7.28,1.56-9,3.18-18.08,4.81-27.12a7.31,7.31,0,0,1,.78-1.51L53.91,181a31.37,31.37,0,0,0,1.86-4.53,12.83,12.83,0,0,1,9-9.81c.58-.19,1.47-1.19,1.35-1.51-1.15-3.17,1.36-3.32,3.18-4.09,1-.43,2-.92,3.44-1.59l-7.24-2.64.24-1,14-1c.83.84,1.94,2.78,3.6,3.53,6.7,3.05,13.65,5.38,21.21,5.66-8-7-15-15-23.95-21.07,1.12-1.81-.59-2.5-2.48-2.79-7.76-1.21-15.52-2.49-23.33-3.36-2.39-.27-4.91.75-7.38,1.06s-5.23.52-8.24.81c2.43-6.15,7.77-8.85,14.46-7.72-3.94.94-8.22.36-10.63,5.18,1.5-.1,2.52.09,3.27-.27,7.19-3.5,15.11-1.9,22.6-3.24,2.54-.45,4.93.55,6.81,4C71,134.2,66.82,133.52,62,135.54c4.64.67,8.67,1.37,12.73,1.81s7.4,1.29,10.29,5.09c3.14,4.12,7.89,7,11.94,10.44l.62-.64c-4.17-4.26-8.36-8.49-12.48-12.79A16.53,16.53,0,0,1,82.65,136c-.22-.39.22-1.15.36-1.74.57.16,1.33.14,1.67.5,5.22,5.58,10.52,11.1,15.51,16.89,3,3.5,5.34,7.61,8.35,11.14s6.56,6.72,9.8,10.12a39.09,39.09,0,0,1,3.75,4.55c1.29,1.84.82,3.32-1.56,3.23a11.79,11.79,0,0,1-4.82-1.41c-6.46-3.38-12.81-7-19.26-10.37-4.37-2.3-8.85-4.39-13.28-6.59-1.35-.67-8.68,1.89-10.19,3.49s-3.35,3.41-5.06,5.09c-.38.38-.85.92-1.3.95-4.34.31-5.67,3.15-6.2,6.91A7,7,0,0,1,58.88,182c-7.76,9.44-10.58,20.6-11.48,32.47-.85,11.11-1.44,22.26-2.77,33.31-2,16.39-4.58,32.69-6.73,49.06-.83,6.28-1.16,12.62-1.71,18.93-.7,8.16-1.38,16.32-2.08,24.48-1.24,14.37-2.47,28.75-3.81,43.11-.08.87-1.13,1.65-1.73,2.47a10.52,10.52,0,0,1-.64-3.19c.45-3.79,1.11-7.55,1.74-11.63-3.2-.06-3.14-1.93-2.84-4.36,1.33-10.85,2.48-21.72,3.69-32.58l-.9.19a14.69,14.69,0,0,1-1.19-3.83,51.37,51.37,0,0,1,.54-6.17c.68-7.44,1.1-14.93,2.14-22.32.56-4,2.65-7.78,3.22-11.78,1.61-11.34,2.78-22.74,4.13-34.12l-1-.36L33.61,262l-.65-.24a28.26,28.26,0,0,1,1.63-4.23,29.49,29.49,0,0,0,4.22-16.61c-.42-8.41-.54-16.83-.76-25.25a12.35,12.35,0,0,1,.58-2.19m79.51-35.89c-3.82-3.85-6.08-9.35-11.4-11.61.89,2,1.61,3.72,2.41,5.4a2.54,2.54,0,0,0,.92.86c2.69,1.79,5.38,3.57,8.08,5.35" transform="translate(-1.2 -1.78)"/><path d="M18.36,289.34c0,13.13,1,26.33-.11,39.37-1.14,13.75-4.14,27.36-6.48,41-.36,2.1-1.52,4.08-2.43,6.06a14.16,14.16,0,0,0-.21,12.35c1.94,4.2,4.22,8.25,6.42,12.48.15-2.46.3-4.84.45-7.21,2.2,6.81,3.68,13.56,1.78,20.54a25.33,25.33,0,0,0-.44,3.58q-1.89,15.56-3.81,31.11a5.35,5.35,0,0,1-.66,1.44l-.94.08a20.78,20.78,0,0,1-.45-4.57c1.21-10.09,2.58-20.17,3.86-30.26.54-4.26.68-8.39-1.57-12.43a101.84,101.84,0,0,1-5.12-11.53c-1.11-2.77-1.94-5.65-2.95-8.64.33,0,.11-.06-.07,0-1,.38-2,.79-3,1.18.22-1.55.1-3.27.74-4.62,1.2-2.5,3.44-4.6,4.21-7.17,2.84-9.42,4.29-19.12,5.86-28.84a177.68,177.68,0,0,0,2.16-32c-.16-8.41-.52-16.83-1.36-25.2-.34-3.38-2-6.66-3.35-9.9C8.53,270.43,5.78,264.83,3.73,259c-.86-2.46-.35-5.4-.49-8.12-.07-1.3.5-2.8-1.62-3.32-.39-.1-.55-2.35-.32-3.52,1.72-9,3.78-18,5.31-27,1.75-10.34,3-20.76,4.6-31.13a75.67,75.67,0,0,1,1.92-7.5l1.24.2-1.68,14.1c3.61-5.14,5-11,6.24-17.44l-2.77,1.05,2-3c2.08-3.21,1.53-6.65.86-10.09a7.58,7.58,0,0,1-.33-1.82c.27-4.47.76-8.93.84-13.4a9.24,9.24,0,0,1,3.11-7.14c3.08-2.95,5.54-6.54,8.3-9.83A11.15,11.15,0,0,1,33,129.72a15.39,15.39,0,0,1-.77,3.26c-1.88,3.44-4.22,6.67-5.69,10.27-1.05,2.59-1,5.64-1.08,8.58,1-2.73,4.38-4.47,2.94-8.16-.2-.51.5-1.39.84-2.08q2.62-5.35,5.26-10.68l.84.19c0,.85.29,1.85,0,2.53-3.15,6.39-3.49,13.52-5.45,20.2-2.57,8.78-6.35,17.21-8.81,26-3.65,13-6.58,26.29-9.86,39.44-1.35,5.4-3,10.73-4.18,16.16-.67,3.06-.61,6.28-1.1,9.39-1.54,9.8,2.43,18.39,5.81,27.1,1.3,3.35,2.8,6.63,4.4,10.41,1.15-2.5.51-4.3.1-6.55a72,72,0,0,1-.79-16A43.1,43.1,0,0,1,18.18,248l.83,2.83.53-.05a48.26,48.26,0,0,1,0-6.07c.55-4.26,1.42-8.47,2-12.73.25-1.94,0-3.93.12-5.9.14-2.76-.66-5.76,1.86-8,.25-.22.19-.83.23-1.26.47-6.46.93-12.91,1.41-19.37.07-.95.26-1.89.42-3.07,2.14,2.69,4.31,25.21,2.89,29l-1.13-4.92-.54-.06c-.48,4.81-1.29,9.61-1.34,14.42C25.43,239,23.17,244.69,22,250.6c-.78,4.06-1.6,8.13,0,12.67,1.34,3.89.31,8.65.09,13a50.3,50.3,0,0,1-1.22,9.07c-.36,1.49-1.7,2.73-2.6,4.08,0-1.11,0-2.23,0-3.83-2.65,4.87-3.15,10.12-1.29,13.62,0-2.76-.11-5.17.06-7.56.06-.81.85-1.56,1.31-2.33M29.2,149.54c-4.34,4.79-5.58,10.83-6.27,17.06l6.27-17.06M16.69,271.42l1,0q-.26-5.71-.53-11.42l-.47,0Z" transform="translate(-1.2 -1.78)"/><path d="M222.58,411.37a9.1,9.1,0,0,1,1.55,2.65c1.27,7.17,2.23,14.4,3.66,21.54.68,3.41,1.57,6.71.34,10.11-.79,2.16-2,4.19-2.6,6.39-.71,2.6-2,5.67-1.19,7.93a30.82,30.82,0,0,1,1.28,11.17c-.21,8,.14,16,0,24-.12,8.87-.79,17.74-.67,26.6.09,7,1,13.9,1.6,20.84.12,1.48.28,3,.42,4.43l-.93.18c-.19-.78-.36-1.57-.59-2.34-.59-2,.38-4.65-2.7-5.66-.66-.22-.85-2.1-1.11-3.25-4.25-18.66-8.38-37.35-12.8-56a49.42,49.42,0,0,0-5.23-12.27c6.47,24.09,8.66,48.56,8.71,73.26l-1.22.18c-.15-1.26-.36-2.52-.45-3.79-1-13.42-1.07-27-3.39-40.22-1.66-9.43-2.38-19-4.69-28.32-1.3-5.2-2.94-10.59-6.93-14.77-1-1.09-1.32-3-1.83-4.52-5.63-16.93-10.64-34.11-17-50.75-6.87-17.9-10.82-36.5-15.45-55a5.72,5.72,0,0,1,.08-3.07l1,1.48L150.87,271l1.05-.38a11.24,11.24,0,0,1,1.37,2.81q2.53,14.54,4.88,29.11c2.69,16.75,5,33.58,8.05,50.27,5.2,28.1,15.1,54.82,25,81.49,3.93,10.56,8.37,20.94,12.7,31.35.69,1.65,2.09,3,3.45,4.89l-.81-4.57,1-.23c7.23,18.62,9.86,38.44,14.54,58.42a24.75,24.75,0,0,0,.44-3c0-19.16.4-38.33-.29-57.47-.17-4.81-3.72-9.54-5.86-14.24-.94-2.07-2.5-3.86-3.33-6-5.26-13.22-10.67-26.39-15.47-39.78-3.5-9.77-6.14-19.85-9.14-29.79-3.35-11.11-6.7-22.23-10-33.37a59.54,59.54,0,0,1-1.17-6.57l1.12-.29,5.59,17.58.23-.08-23.23-89.48.69-.32a25.64,25.64,0,0,1,1.84,3.86c3.34,11.56,6.68,23.13,9.87,34.74q7.89,28.83,15.58,57.72c1.38,5.18,3.27,10.36,3.69,15.64,1.12,14.07,6.48,26.73,11.51,39.62,3.59,9.2,6.07,18.82,9.46,28.1a73.9,73.9,0,0,0,7.1,13.49c4.39-14.4,4.49-28.72,1.75-43.14Z" transform="translate(-1.2 -1.78)"/><path d="M52.35,69.31c.82.94,1.42,2,1.73,1.92.7-.18,1.26-.92,1.86-1.44.07-.06,0-.21.08-.31.85-3,.69-6.42,3.52-8.79.78-.66.65-2.4,1-4.09l-8.05,5.64-.82-1.07L69.66,46l-.92,3.24c1.85-1.88,5.79-1.48,3.39-5.3a66.74,66.74,0,0,1,7-4.31,60.89,60.89,0,0,1,8-2.69c3-.9,6-1.7,9.72-2.73l-3,2.81,3.27,1,0,.67c-3.16.49-6.42.65-9.44,1.58s-6,2.68-9,4.1L78.14,49l.35.21,2.16-3.58v16.8c-3.38-2.18-3.38-2.18-.69-6L76.82,58.2c-1.11-2.12-1.75-5-5.06-3.2-.22.12-.78-.29-1.11-.55-1.15-.89-1.44-2.9-3.88-1.94-2.9,1.15-5.58,2.22-5.63,5.81,0,2.25-.1,4.69.68,6.72A45.17,45.17,0,0,0,67,74.91c1.1,1.55,3.37,2.48,5.3,3.18,1.67.6,3.1-.15,3.75-2.15.31-.95,1.3-1.67,2.27-2.84.73,4-.28,5.84-3.1,6.61-5.29,1.46-8.55,0-10.91-4.95-1.21-2.54-2.3-5.13-3.77-8.45L57.95,73.6c2.9-1,4.42-.82,4,2.06-.07.56.77,1.21,1.12,1.85,1.33,2.44,2.66,4.87,3.93,7.33.93,1.79,1.78,3.63,2.79,5.73-1.77,2.57-4.1,5.91-6.38,9.29a3,3,0,0,0-.54,1.75c.25,2.9.46,5.68-2.91,7.14-.4.17-.39,1.2-.67,1.77a46.08,46.08,0,0,1-5.23,8.61l-1-10.7-5.79-1.51-.09.11a42.43,42.43,0,0,0-4.41-.79,19.33,19.33,0,0,0-3.57.45c1.6-4.86,7.57-6.75,7.29-13-2.16,2.74-3.64,4.87-5.41,6.72-.6.62-1.95.51-3,.74a14.12,14.12,0,0,1,1.27-2.51c1.33-1.71,2.79-3.32,4.32-5.11l-2.93-.61a18.29,18.29,0,0,1,.68-2.71c1.79-4.31,3.47-8.69,5.55-12.85,1.39-2.78,3.41-5.25,5.27-8m4.47,32.89,4.34-1.71c0-.32,0-.64,0-1l-6.28-1-.36,1,2.32,2.68" transform="translate(-1.2 -1.78)"/><path d="M213,508.63c3.13,20.08,2.23,40.55,5.72,60.8l3.7-28.21.87-.22c.6,2.12,1.8,4.27,1.69,6.36-.43,8.26-1.21,16.5-2,24.75-.6,6.65-1,13.34-2.09,19.9-2,11.92,1.21,23.14,3.3,34.66A138.71,138.71,0,0,1,226.34,656c-.23,6.72-1.11,8.26-6.49,8.29-2.5,1.8-4.09,3.87-5.87,4-4,.38-8-.26-12-.32-1.33,0-3,0-4,.78-3.22,2.44-6.12,5.31-9.31,7.79a34.72,34.72,0,0,1-5.23,2.83l-.46-.82,5.91-4.06-33.67,1.91c-.48,1.91-1,4.13-1.58,6.33s-1.72,2.8-3.63,1.32l4.25-8.12-2.34-1.6.18-.57,5.95.43.21-.77-6.93-2.17c0-.15,0-.3,0-.46,1.21,0,2.55-.34,3.61.05,8.79,3.29,17.78,3,26.85,1.84a15.55,15.55,0,0,1,3.6-.19,11.2,11.2,0,0,0,10.46-4.15c1.95-2.33,4.12-2.7,7.25-2.05,4.68,1,9.57,1.13,13.35-3.12a16.93,16.93,0,0,1,6.07-4.06l-.8,2.49c2.64-2,3.27-10.76.75-17.38l-1.94,11.86-1.38-.19c1.78-4.24-3-8.78,1.42-13.45.06,1.09.09,1.65.12,2.21l1,.23c.48-1.9,1.61-3.91,1.33-5.69-1.67-10.68-3.84-21.28-5.5-32-2.92-18.87-3.48-37.9-3.9-57-.27-12.34-1.43-24.67-2.16-37-.09-1.5,0-3,0-4.53l1.47-.12m6.23,84.79,1.06-9.74c-2.74,1-3,4.69-1.06,9.74" transform="translate(-1.2 -1.78)"/><path d="M222.57,411.35c-5.57-8.31-5.59-18.07-7-27.43-2.54-17.32-4.57-34.71-7.25-52-2.43-15.65-5.4-31.23-8.29-46.8A41.93,41.93,0,0,0,196.57,275c5.66,25.77,6,52.11,9.63,78.06l-.93.14-11.33-67.66,3.57,6.6c-3.13-22.5-10.93-42.93-18.83-63.34l1.08-.43c2.07,4.38,4.4,8.65,6.16,13.15,3.66,9.38,7,18.88,10.56,28.29.31.82,1.62,1.22,2.1,2a16,16,0,0,1,2,4.38c2,8.31,4,16.6,5.6,25,4.5,24.1,9.54,48.16,10.91,72.68.57,10.2,3.42,19.77,5.28,29.62.48,2.54.19,5.22.26,7.84h0" transform="translate(-1.2 -1.78)"/><path d="M71.35,194.92c-3.27-2.16-3.25-3.81.81-5.3C82,186,91.45,180.55,102.58,182c.3,0,.62-.06,1-.55L92.1,179.89a60.69,60.69,0,0,1-7.1-1.06c-1-.26-1.8-1.44-2.69-2.21,1.12-.36,2.26-1.1,3.35-1,2.8.21,5.58.78,8.37,1.2l.21-.78c-2.48-.61-5-1.16-7.43-1.89-.56-.17-.92-1-1.38-1.48.49-.36,1-1.05,1.48-1q6.08.35,12.14,1c.61.06,1.16.71,2.38,1.51l-4.18-.41c2.19,5.75,7.68,4,11.72,5.53a27.45,27.45,0,0,1,2.89,1.47l-1.8,1.83L113,183c0,.23,0,.46,0,.69l-2.91.76-.3.78c3.19,1.33,7.79-.58,10.13,3.83a7.34,7.34,0,0,1-2.45.56c-9.72-1.7-19.11-.23-28.44,2.59a59.38,59.38,0,0,1-10.27,2,4.54,4.54,0,0,0-3.7,2.53c-7.58,11.71-9.85,25.25-13.78,38.22l.76.28,5.06-14.94c-1.6,9.74-4.67,18.92-10.29,27.1-.82-4,10.56-45.11,14.57-52.45M81.12,190l27.48-5.09c-9.3-.46-18.38.22-27.48,5.09" transform="translate(-1.2 -1.78)"/><path d="M135.44,436.55l-2.29.87-7.22-57.32-1.08.12q2.14,18.64,4.29,37.29c-6.29-22.87-5.69-46.19-5.28-69.51l1.1-.35a14.13,14.13,0,0,1,1.24,3.27c.47,4,.6,8.06,1.13,12.07,1.11,8.46,2.38,16.89,3.62,25.33a12.16,12.16,0,0,0,.85,2.34c-1.88,10.06-.08,20,.84,29.89l.82.16,1.74-3.25c-2.5-1.4-2.48-1.39-1.23-3.59.32-.56.79-1.21.73-1.76-.42-3.81-1-7.6-1.48-11.4-.46-3.35-.94-6.69-1.41-10-2.47-13.13-3.85-33-1.9-35.65,1.24,9.53,2.55,18.43,3.51,27.38s1.43,18.1,5.14,27a15.49,15.49,0,0,1,2.47-1.18,21,21,0,0,1,3-.43c-.13,1.08-.18,2.18-.41,3.24-.11.5-.47,1.2-.87,1.33-3.85,1.33-4.54,5.06-6.17,8a23.79,23.79,0,0,0-1.43,4.59l-2.2-1.86.27,3.44.67.29,4.34-6.38,1,.35c.54,5.63-2.72,10.51-3.9,15.8Z" transform="translate(-1.2 -1.78)"/><path d="M137.28,459.47l1.37-4.07,1.15.08c.13,2,.25,4,.41,6.64a6.06,6.06,0,0,1,.7-1.44c.58-.55,1.23-1,1.86-1.5.36.82,1.1,1.69,1,2.46-.33,3.15-.92,6.28-1.41,9.41a19.41,19.41,0,0,0-.28,6.31c.68-2.63,1.2-5.32,2.11-7.86.4-1.12,1.6-2,2.44-2.93.35,1.16,1.11,2.37,1,3.47-.95,7.27-2.09,14.51-3.16,21.77a6.24,6.24,0,0,0,.08,2.57l5.18-18.53,1.63.22a53.41,53.41,0,0,1-.05,7.52c-2.3,16-4.66,32.07-4.41,48.35a3.94,3.94,0,0,1-1.34,2.77c-2.33-17.27.9-34.14,3.4-51.07l-1-.19c-1.31,6.46-2.67,12.91-3.91,19.38-.57,3-.84,6.07-1.41,9.08-.13.72-.91,1.32-1.39,2-.51-.71-1.5-1.44-1.47-2.13.19-4.68.59-9.35.92-13.87-2.63,1.43-3.65,1-3.49-2.34.24-4.91,1-9.79,1.31-14.69.07-1-.76-2.09-1.15-3.14a7.48,7.48,0,0,1-.73-2.32c0-1.64.29-3.27.33-4.91.07-2.45,1.41-5.15-1.26-7.17-.25-.19-.25-.84-.21-1.26.56-5.48,1.11-11,1.76-16.44a6,6,0,0,1,1-1.88l1.14.23L137,459.57l.31-.09" transform="translate(-1.2 -1.78)"/><path d="M24.87,66.14l-1.47-4,.68-.34,5.7,4.24c-1.12-10.37-3.21-20.19.32-30.5l2.15,2.26,12.06-11,.76.73L33.6,39.48l.45.67,6.69-2.76.4.87c-2.17,1.14-4.29,2.41-6.52,3.4a4.66,4.66,0,0,0-3.16,4.75,62.94,62.94,0,0,0,3.47,21.24c.25.74,1.2,1.3,1.91,1.83,1.23.91,2.53,1.73,3.8,2.59l-.47.89-5.71-1.71,3.89,12.45,9.21-13.76c.81,4.92-8.42,17.68-13.11,19.36v4.38L25.88,88.4l.91-3.88.87,0L20.8,73.61c4.23,2.74,8.27,5.09,14.44,4-1.44-1.06-2.21-2.1-3.09-2.2-6.56-.8-10.92-4.67-15.21-9.4-3.63-4-5.86-7.58-3.46-13C16,47.4,18.22,41.6,20.7,35.92c.43-1,1.47-1.68,2.58-2.9-2.43,6.13-4.65,11.65-6.82,17.18-3,7.7.58,14.65,8.4,15.93m9,20.51a25.86,25.86,0,0,0,1.62-4.42,2.43,2.43,0,0,0-1.43-1.91c-2.32-.42-4.7-.5-7.21-.72.67,4,3.52,5.55,7,7.06m-2-13.19c-.44-4.57-2.77-5.54-8.58-3.7l8.58,3.7" transform="translate(-1.2 -1.78)"/><path d="M103.71,93.71l3.87,9.87c.76-2.1,1.62-3.56,1.74-5.07a9.84,9.84,0,0,0-.87-4.66,13.76,13.76,0,0,1-.63-10.78,16.11,16.11,0,0,1,1,3.28,7,7,0,0,0,4.54,6.26c.22.09.35.53.42.83a26.38,26.38,0,0,0,1.1,4.19,20.27,20.27,0,0,0,2.39,3.34l1-1.51,2.74,3.29.69-.36-.37,2.85.25.11,1.7-6.76c2.36,3.46,1.07,9.41-2.71,14a42.64,42.64,0,0,0-5.46-2c-.49-.11-1.29,1.07-1.65,1.39l-5.62-1.19-.44.86c-3.44-5.26-7-10.44-7.5-17.07l-.84-.11c-.1,1.11-.68,2.55-.2,3.27,1.65,2.46,1.47,4.68-.34,7.41a23.24,23.24,0,0,1-3.09-3.78c-2.69-5.26-5.33-10.55-7.72-16-2-4.41-.27-7.82,4.16-10.52,1.8,4.17,3.58,8.34,5.4,12.5.6,1.38.73,3.45,3.28,2.17.35-.18,1.53.88,2,1.57a12.34,12.34,0,0,1,1.15,2.66Zm-9.11-2.2,1.3-.56-3-7.51-1.56.67,3.24,7.4" transform="translate(-1.2 -1.78)"/><path d="M235.65,709.37c-5.16,1.89-9.74,4-14.53,5.26-12.36,3.3-24.9,2.58-37.42.88-6.39-.87-12.91-1.3-19.08-3a74.2,74.2,0,0,0-12.72-2.1c-1.8-.17-4.08-2.29-4.94-4.1-2.08-4.38-.69-14.55,1.68-18.59-.17,2.29-.46,5.12-.56,7.95s0,5.64,0,8.81a18.38,18.38,0,0,1,3.16,0c2.3.41,5.14-.6,6.5,2.53.23.54,1.54.76,2.38.85,3.26.34,6.54.52,9.8.84,1.14.11,2.27.41,4.16.77l-6.19,1.27c0,.28,0,.56,0,.84l11.69.68.33-.87c-9.09-6.25-19.53-10.62-27.38-18.73l1.69-3.64c1.38,1.24,2.64,2.56,4.07,3.64,6.1,4.61,12.26,9.15,18.4,13.71a12.43,12.43,0,0,1,2.15,1.5c4.06,4.72,9.4,6,15.29,5.72,1.61-.06,3,.63,4.76-1.1,1.16-1.18,4.29-.33,6.52-.56,1-.1,2.67-.53,2.74-1a4,4,0,0,0-1-3.07c-2.28-2.24-4.78-4.19-8.37-3.69a7.87,7.87,0,0,1-2.57-.6c3.09-3.52,3.23-3.58,6.89-1.13a21.45,21.45,0,0,1,5.12,4.06,6.69,6.69,0,0,1,1.27,4.9c-.19.91-2.39,1.66-3.81,2a21.55,21.55,0,0,1-4.67.08c0,.32,0,.63,0,1,3.34-.22,6.85.14,10-.77a185.89,185.89,0,0,0,17.74-6.42c2.65-1.07,4.57-.76,6.9,2.12" transform="translate(-1.2 -1.78)"/><path d="M37.7,182.81a23,23,0,0,1-1.87,3.26,11.37,11.37,0,0,1-2.31,1.76c-.42-1-1.37-2.17-1.15-3,.38-1.53,1.52-2.86,2.24-4.32,2.44-5,5-9.89,7.16-15,.62-1.44,1.75-3.52-.58-4.92-.2-.12-.17-.83-.06-1.22.89-3.25,1.41-6.7,2.89-9.66a16.38,16.38,0,0,1,5.55-6.14c1.88-1.22,4.15-.27,5.16,2.27-4.44,1.39-5.59,3.49-4.73,8.25a2.36,2.36,0,0,1-.2,1.58c-2.64,3.94-2.5,8.38-2.6,12.84A45.48,45.48,0,0,1,46,176.25c-1.71,8.68-3.35,17.37-5.3,26A82.52,82.52,0,0,1,37,213.76c-.35.89-1.79,1.35-2.73,2-.62-1-1.61-2-1.76-3a11.66,11.66,0,0,1,.52-4.21c1.76-7.32,3.61-14.63,5.36-22a22.4,22.4,0,0,0,.29-3.53l-.92-.23" transform="translate(-1.2 -1.78)"/><path d="M189.38,601.07l-1.71,3.51-1.44-1.35c3.05-6,6.94-11.8,8.92-18.17s2.16-13.53,2.4-20.57l-11.84,18.73-1-.62c.52-1,1-2,1.56-3,4-6.72,8-13.4,11.95-20.16a7.45,7.45,0,0,0,.57-3.49c.06-5.25,0-10.5,0-16.33,5.79,5.79,3.94,12.41,3.45,18.34-1.56,19-3.8,37.91-5.82,56.85-.1.95-.33,2.51-.86,2.68-2.91.95-1.56,2.5-1.54,4.57a26.74,26.74,0,0,1-4.31,14.33l-.89-.27,4.41-14-.61-.25L188,630.32l-1.14-.56c1-6.92,6.08-12.44,7.51-19.21l-1-.47-7.4,16c-.55-.82-1.05-1.29-1-1.49,1.8-4.1.38-8.93,3.14-12.88s5.69-7.83,7.39-12.2c1.49-3.82,1.36-8.28,1.94-12.45l-1.31-.38-3,7.74-3.82,6.65" transform="translate(-1.2 -1.78)"/><path d="M174.59,548.4c-2.27,6.25-4.56,12.48-6.79,18.74-3.76,10.52-7.48,21-11.23,31.57a16.86,16.86,0,0,1-1.6,3.59c-.4.6-1.33.85-2,1.26a6.45,6.45,0,0,1-.5-2.27,17,17,0,0,1,1.1-3.08Q166,564.62,178.38,531c1.85-5,3.8-10,6.15-15a26.67,26.67,0,0,1-.24,4.15c-1.37,6.5-2.49,13.08-4.33,19.45-7,24.41-14.32,48.75-21.59,73.08-.29,1-1.51,1.7-2.3,2.54-.12-1.2-.62-2.52-.29-3.58,4.21-13.58,8.54-27.13,12.82-40.69q3.51-11.09,7-22.19l-1-.43" transform="translate(-1.2 -1.78)"/><path d="M63.56,13.16H73.3l.14,1.07c-1.13.26-2.24.55-3.38.76-7.5,1.43-15.15,2.34-22.48,4.39C38,22,30.51,27.54,27,37.44A64.54,64.54,0,0,1,23.86,44c-1.43-2.34-1.41-2.38,1.79-8.44,1.43-2.71,3.36-5.31,4.08-8.21,1-3.87,5-2.86,6.92-5.46l-.82-2.27c.31-.27.46-.51.62-.51,1.52-.05,3.19.33,4.56-.15C53.79,14.44,66.51,9.76,80.17,4.79c-17.1,2.64-33.08,5.67-47.47,14.8-.68-1.69.87-2.82,2.32-3.53,5-2.44,9.95-5.21,15.23-6.85C57.85,6.86,65.73,4,73.52,3.88c10.67-.12,21.11-2.54,31.75-2a37.45,37.45,0,0,1,5.85.76,8.68,8.68,0,0,1,3,1.58C96.42,2,80.11,7.85,63.55,12.1q0,.53,0,1.06" transform="translate(-1.2 -1.78)"/><path d="M103,420.52l-3.61,4.6c.31-4.08,4.82-6.47,3.45-11.56l-2.73,5-.72-.32,4.14-10-.92-.41-3.49,5.7-.73-.33c1-2,1.55-4.44,3-5.94,3.12-3.13,1.61-6.51,1.63-9.77l-3.3,7.38-.34-.14,5.12-19.51a31.88,31.88,0,0,1,.66,4.12c.2,11.38.19,22.77.55,34.15.55,17.39,1.36,34.76,2,52.15a34,34,0,0,1-.3,4l-1.45,0-2.22-32.1L101.5,450l-.54-.21,2.81-7-.85-.45-3,5.84-.7-.35a25.21,25.21,0,0,0,1.93-4.7c.27-1.31,3.18-3-.18-4.3a12.46,12.46,0,0,0,.34-3.23l-5.08,7.89-.67-.35,8-14.62-1.13-.67-3.91,6.16c-.16-5.11,5.61-7.75,4.61-13.54" transform="translate(-1.2 -1.78)"/><path d="M99.56,693.54l7.65,4.62-.39.85c-1.71-.65-3.47-1.19-5.11-2a5.3,5.3,0,0,0-5.44,0,56.86,56.86,0,0,1-14.13,4.06A52.85,52.85,0,0,1,68,702c-5.13-.43-7.29-.61-5.76-6.06-3.78-5.65-.34-11.12,0-16.67l1,0a21.71,21.71,0,0,1,.16,3.66c-.33,2.71-.75,5.42-1.3,8.09-.45,2.17.51,3.26,2.36,4,4.72,2,9.44,1.2,14.17.13a31.29,31.29,0,0,1,7.12-1l-6.12,2.07,3.81.85-1.64,2.17c2.16-1.69,5.19.33,5.85-3.12.06-.34,1.32-.54,2-.64,2.12-.29,4.26-.5,6.5-.75l-22-16.28.52-.91a16.9,16.9,0,0,1,2.75,1.17c4.41,2.86,8.76,5.81,13.15,8.68,1.08.71,2.27,1.26,3.4,1.88l5.59,4.3m-29.34,7.2c-1.31-3.26-3.12-3.55-5.11-2.87-.41.14-.42,1.46-.61,2.24l5.72.63" transform="translate(-1.2 -1.78)"/><path d="M106.71,214.2c-1-3.08,1.71-4.34,4.28-5.8-3.72-4.79,1.54-6.08,3.29-8.73-2.84-3-2.57-4.11,3-8.47l-.94,5a26.07,26.07,0,0,1,4.88-1.09,91.76,91.76,0,0,1,10.48.14c1,.07,2,1.09,3,1.67a19.68,19.68,0,0,1-2.76,2.24,10.44,10.44,0,0,1-2.73.69l2.4,2.1a11.77,11.77,0,0,1-2.55,2.25c-1.25.58-2.82.49-4.06,1.08-6.08,2.88-12.11,5.89-18.26,8.91m6.48-9.23.46.8,5.82-2.65c-3.56-2.2-4.56.66-6.28,1.85" transform="translate(-1.2 -1.78)"/><path d="M145,647.11l-.78-2.85-2.74,4.21-.71-.39A20.38,20.38,0,0,0,143,644a19,19,0,0,0,.7-5.86c-.09-2-1.09-3.94-1.12-5.92-.17-9.27,0-18.55-.21-27.83-.15-8.09-.77-16.18-.83-24.28-.14-16.62,0-33.23,0-49.77,3,27.94,2.21,56.19,3.49,84.33.47,10.28.49,20.58.71,30.87a14.9,14.9,0,0,1-.12,1.55l-.53,0" transform="translate(-1.2 -1.78)"/><path d="M145.87,152.78l10.9-6.72.56.83c-1.76,1.39-3.43,2.91-5.29,4.14-3.53,2.32-3.84,3.25-1.64,7.52-10.94-7.25-19.71-17-31.86-21.75-12-4.71-23.93-9.6-35.77-14.37l1.16-.73-6-1.93c0-.23,0-.46,0-.69,1.4.11,2.91-.09,4.18.38,7.38,2.72,14.75,5.51,22,8.45,6.08,2.45,12.11,5.05,18.1,7.71,8.62,3.82,15.89,9.59,22.72,16a7.81,7.81,0,0,1,.95,1.18" transform="translate(-1.2 -1.78)"/><path d="M84.77,520V532.7h.38l.56-11.5.47-.09A10.15,10.15,0,0,1,86.5,523c-.06,6.35-.4,12.7-.2,19,.39,12.25,1.19,24.48,1.64,36.73.51,14.1.82,28.2,1.22,42.31l-.93,0-1.5-36.28h-.4l-.61,11.66-1,0-1-76.39,1.06,0" transform="translate(-1.2 -1.78)"/><path d="M155.73,261.85c3.23-5.05,7-9.86,9.58-15.21a257.52,257.52,0,0,0,10.16-24.06c3.63-9.84,7.13-19.77,9.89-29.88,1.49-5.48.34-11.31-1.9-16.66-1.49-3.56-3.22-7-4.85-10.53l.75-.49c.64.87,1.36,1.68,1.91,2.6,5.73,9.65,8.16,20,4.79,30.87-4.87,15.64-9.42,31.45-17.31,46-3.5,6.44-7.12,12.77-13,17.38" transform="translate(-1.2 -1.78)"/><path d="M151.58,315.7l-13,8-2,9.48-1.13-.17,1.16-8.86a58.8,58.8,0,0,1-6.92,1.46c-5.53.49-11.08.6-16.6,1.14-3.57.35-5.79-2-8.4-3.58-.26-.17-.27-.74-.5-1.42,3.76.7,7.21,1.53,10.72,1.9,1.19.13,2.49-.9,3.75-1.34a5.69,5.69,0,0,1,2.39-.65c9.7,1.38,17.73-3.52,26.15-6.9,1.45-.58,2.81-1.82,4.45,1" transform="translate(-1.2 -1.78)"/><path d="M210.26,395.51c-14.73-36.33-20.07-74.85-25.28-113.39,1.49,7,3.35,14,4.4,21.09a619.51,619.51,0,0,0,14.77,70c1.88,7,4.46,13.73,6.71,20.58.16.48.25,1,.38,1.47l-1,.25" transform="translate(-1.2 -1.78)"/><path d="M119,637q-.54-9.27-1.08-18.53l-.66,0-.51,3.78-.6,0c-.62-13.44-1.21-26.88-1.87-40.31-.4-8,.33-16.29-1.7-23.84-2.73-10.17-1.43-20.47-3.18-30.57a6.85,6.85,0,0,1,.33-3.63l1.15,8.2.27-1.06.76,0Q116,584,120.08,636.94L119,637" transform="translate(-1.2 -1.78)"/><path d="M44.16,647.78,49.45,541.4H50.8c.15,4.74.63,9.49.4,14.2q-1.36,28-3.13,56.07c-.72,11.13-1.85,22.24-2.82,33.36a24.86,24.86,0,0,1-.56,2.81l-.53-.06" transform="translate(-1.2 -1.78)"/><path d="M99.56,693.54,94,689.23c-4.2-4.3-8.19-8.83-12.69-12.8-2.45-2.16-5.7-3.47-8.73-4.87-.74-.34-2.07.4-3.05.83-7.53,3.32-14.43,2.09-21-2.69.9-1.13,3.63,1.85,2.67-2.38,5.78,6.34,12,5.32,18.13,3a6.34,6.34,0,0,1,6.68.77c4.85,3.5,10.58,3.16,16.14,2.95,3.9-.15,7.56-.23,10.94,2.26,1.09.8,2.89.82,4.38.87,3.77.11,7.55,0,11.32,0l.12,1.26a19,19,0,0,1-3.15.62,51.09,51.09,0,0,1-7.87-.05,16.13,16.13,0,0,1-6.4-1.89c-3.15-1.94-6.26-2-9.73-1.46-2.86.48-5.81.43-9.6.67,9.66,8.21,17.43,18.07,31.07,18.61l-.28.9-13.34-2.37" transform="translate(-1.2 -1.78)"/><path d="M201.18,688.89l-9.58-8L192,680a12.1,12.1,0,0,1,2.46.5c2.41,1,4.82,2.08,7.13,3.31,1.53.82,2.22,1.86,2.78,4,.72,2.74,3.94,5.09,6.54,7,2.09,1.54,4.85,2.17,7.31,3.2l-.26.89a11.75,11.75,0,0,1-2.93-.45c-3.24-1.38-6.37-3-9.63-4.33a5.25,5.25,0,0,0-3.14,0c-6.32,1.74-12.61,3.59-18.91,5.4a7.52,7.52,0,0,1-2.51.66,2.94,2.94,0,0,1-2.15-1.19c-.22-.46.43-1.7,1-2.09a16.25,16.25,0,0,1,3.35-1.28l18.09-6.65" transform="translate(-1.2 -1.78)"/><path d="M112.84,360c-2.5.92-2.53-.76-2.46-2.36.22-5.36.58-10.71.75-16.07A86.43,86.43,0,0,1,111.8,330l.48,2.82,1.37-1.09-1.82,25.47,1.13.14,1.71-15,.46-.12a8.23,8.23,0,0,1,.48,2.12c-.13,3.06-.41,6.11-.57,9.17-.12,2.3-1.68,4.93,1.35,6.61.07,0,.07.2.09.31,1.33,8.41,2.66,16.82,4.16,26.35l-7.08-7.73c-1.33,4.07-.62,7.21,1.84,9.18l-1.71,2.21L107,380.37l.85-.67,4.41,5.09a47.85,47.85,0,0,1-1-5.07c-.16-2.22,1-2.91,2.81-1.7,1.58,1.08,2.89,2.56,5,3.66q-1.72-4.8-3.43-9.6a6.74,6.74,0,0,1-.43-1.54c-.17-1.67.48-3.34-1.89-4.51-.87-.43-.35-3.66-.49-6.07" transform="translate(-1.2 -1.78)"/><path d="M115.55,19.61a32,32,0,0,0-1.5-5c-.29-.61-1.49-1-2.33-1.11-2-.3-4.39.86-5.86-1.73-.21-.38-1.83-.1-2.74.09C96.07,13.42,89,15,82,16.51a11.8,11.8,0,0,1-4.79.13c7.3-4,15.68-4.08,23.41-6.43l-.12-.85-16.66,1.9-.3-.42A16.86,16.86,0,0,1,86.9,9.08a43.63,43.63,0,0,1,22.36-.47c1.69.44,3.58.06,5.38.06l.84-1.11,3.38,12h-3.39Z" transform="translate(-1.2 -1.78)"/><path d="M156.94,382.09c-4-1.31-19.65-33.66-20.14-41.78,1.56,1,3.2,1.53,3.65,2.54,5.56,12.5,10.95,25.07,16.36,37.63a6.28,6.28,0,0,1,.13,1.6" transform="translate(-1.2 -1.78)"/><path d="M115.47,19.53a38.32,38.32,0,0,1-.2,4.43c-.47,3,.16,3.64,3.24,3.73a3.28,3.28,0,0,1,2.3,2.13c.84,4.57,1.44,9.19,2,13.81.34,2.71.48,5.45.71,8.17l-1.79.2-2.2-18c-2.11,0-3.82-.09-5.51,0-2.55.16-5.09.48-7.64.7a10.09,10.09,0,0,1-3.18,0c-.48-.12-.74-1.13-1.09-1.74.58-.31,1.19-.94,1.72-.87,4,.5,6.14-2.16,7.94-5a79.26,79.26,0,0,0,3.78-7.47l-.09-.08" transform="translate(-1.2 -1.78)"/><path d="M111.45,51.06v3.25H96.94l0-.83,13.91-4.81c-4.45-1.27-10,.57-12.79-5.28a3.45,3.45,0,0,1,4.42-2.4c5.11,1.13,9.84,2.84,12.83,7.35l-3.83,2.73" transform="translate(-1.2 -1.78)"/><path d="M129,278.15c0,2.64.19,5.3,0,7.92-.31,3.37,2.22,5.18,4.32,5.92s5-.26,7.54-.8c.51-.11.72-1.58,1.06-2.42,1.61,1.5,1.66,2.34.2,3.77-2.32,2.28-11.43,3.75-14.07,2-.67-.44-.79-2-.88-3-.14-1.71,0-3.43,0-5.79-3,2.89-4.9,5.57-7.47,6.88s-5.69,1.13-9.46,1.75c.7-1.06,1.36-2.71,1.85-2.66,9.31.88,11.82-6.3,15.16-12.53A11.43,11.43,0,0,1,128,278l1,.11" transform="translate(-1.2 -1.78)"/><path d="M155.29,528.32c-1.73-2.39,3.18-47.58,5.13-49.79-.71,16.7-1.91,33.35-5.13,49.79" transform="translate(-1.2 -1.78)"/><path d="M14.09,483.2a20.55,20.55,0,0,1-1-4.14c-.14-4,.11-8.1-.11-12.13-.25-4.54-.86-9.06-1.27-13.59a6.93,6.93,0,0,1,.59-1.92L14,454.17h1l4.24-36h.51c0,4.27.42,8.59-.09,12.8-1,8.34-2.83,16.58-3.71,24.92-.95,9-1.21,18-1.79,27.37" transform="translate(-1.2 -1.78)"/><path d="M178.15,683.43l-10.53,12.16-.9-.63c0-.39-.16-.9,0-1.14,3.31-4.34,6.61-8.71,10.08-12.93.64-.78,2-1,3.07-1.4l.45,3.24,4.52-2.85.88,1-15.39,17.86-.94-.54c.85-1.56,1.59-3.18,2.56-4.66,1.14-1.73,2.48-3.34,3.73-5,1.11-1.48,2.2-3,3.3-4.47l-.84-.63" transform="translate(-1.2 -1.78)"/><path d="M156.9,554.67c-1.23-3.54,8.43-30.12,14-39.12a24.07,24.07,0,0,1-.75,4.58c-1.61,4.42-3.54,8.71-5.11,13.14-2.13,6-4,12.13-6.08,18.15a16.12,16.12,0,0,1-2.09,3.25" transform="translate(-1.2 -1.78)"/><path d="M149.29,543a191.06,191.06,0,0,1,6.14-47.72l-5,47.76-1.1,0" transform="translate(-1.2 -1.78)"/><path d="M194.34,357.32c-7.43-19.1-9.09-39.44-13-59.3l.82-.18Z" transform="translate(-1.2 -1.78)"/><path d="M103.78,93.81c.3-5.19-.92-9.84-5.18-13.78l1.24,5c-3.22-1-4.65-4.7-3.71-8.94,1.28.1,3.15-.32,3.86.4,1.93,2,4,4.19,4.87,6.7,1.21,3.48,1.42,7.33,2,11,.08.51-.39,1.1-.82,2.21l-2.29-2.72.07.1" transform="translate(-1.2 -1.78)"/><path d="M198.83,657c-.66-13.34-2.54-26,.48-38.69,1.73,7.33,1.66,36.64-.48,38.69" transform="translate(-1.2 -1.78)"/><path d="M74.07,71c-4.75-1.24-6.68-4.54-8.91-7.67.41-2,5.17-2.69,1.65-6l-1.2,1.34L65,58.44c.32-1,.38-2.31,1.06-2.95a2.74,2.74,0,0,1,2.62.43,101.82,101.82,0,0,1,4.14,9.52A44.86,44.86,0,0,1,74.07,71" transform="translate(-1.2 -1.78)"/><path d="M93.26,682.08c6.11-.24,10.52,3.45,15.44,6l-.28.81-4.2-.67,2.33,1.8c-3.95,1.72-13.33-4-13.29-7.92" transform="translate(-1.2 -1.78)"/><path d="M120.76,330.85c.73.36,1.72.53,2.15,1.11a91.51,91.51,0,0,1,14.72,31.54c.08.29,0,.63-.46,1.15-3.06-12.39-10.08-22.72-17.06-33.09l.64-.71" transform="translate(-1.2 -1.78)"/><path d="M147.51,268.54c-6.19-1.06-12.46-1.81-18.55-3.3-3.34-.81-7.22-1.94-7.2-7.28,7.83,5.47,16.45,8.78,26.18,8.9l-.43,1.67" transform="translate(-1.2 -1.78)"/><path d="M83.94,497.13c-1-4,1.26-8.51-1.88-12.21V460.41l1,0c1.25,12.25,1,24.56.87,36.74" transform="translate(-1.2 -1.78)"/><path d="M149.19,673.51c-4.08,2.8-8,5.81-12.31,8.27-1.49.85-4.56,1.14-5.53.23-2.32-2.18-4.53-3-7.55-2.33a7.47,7.47,0,0,1-2.48-.47c5.93-2,5.91-1.91,10.75,1.14.94.59,3,.3,4-.33,2.71-1.6,5.08-3.78,7.78-5.41,1.54-.93,3.46-1.26,5.21-1.85l.09.76" transform="translate(-1.2 -1.78)"/><path d="M118.5,155.74A36.56,36.56,0,0,0,95.69,143c2-1,2-1,6.51.56,1.69-.58,2.84-1.37,3.29-1.08a101.75,101.75,0,0,1,9.9,6.94c1.66,1.37,2.76,3.43,4.11,5.18l-1,1.1" transform="translate(-1.2 -1.78)"/><path d="M124.7,54.28c3.55,5.1,8.13,9.75,6.94,16.9a34.29,34.29,0,0,1-6.94-16.9" transform="translate(-1.2 -1.78)"/><path d="M120.1,84.16c-3.56,4.51-6.69,2.19-9.48.64-.77-.43-.42-2.86-.59-4.37l.85-.47,3.44,2.21,1.83-2.46,4,4.45" transform="translate(-1.2 -1.78)"/><path d="M71.13,542.77l-.28-5.92L69.6,549.57l-.66,0,1.3-28.88H71v22.09h.09" transform="translate(-1.2 -1.78)"/><path d="M125.83,95.54l-1.31-2.92-3.65.5-.53-.84c7.43-2.3,5.19-9,7-13.93,1.07,5.7.1,11.28-.2,16.88l-1.33.3" transform="translate(-1.2 -1.78)"/><path d="M94.34,109C89,106.51,78.78,94.37,77.58,88.52L94.34,109" transform="translate(-1.2 -1.78)"/><path d="M115.25,694q8.23-3,16.45-6c.7-.26,1.76-.45,2-1,2.05-4.5,3.73-.45,6-.3-.54.77-.75,1.25-.87,1.23-4.54-.85-7.86,2.42-11.82,3.5s-7.65,2.19-11.48,3.29l-.25-.75" transform="translate(-1.2 -1.78)"/><path d="M122,297.66l1.62,1.16c-1.14,1.27-10.73-.31-12.12-2.7,5.5,1.42,9.85-.25,13.7-3.7l.59,1.19-3.79,4" transform="translate(-1.2 -1.78)"/><path d="M159.6,143.83l17.63,17.53a46.4,46.4,0,0,1-17.63-17.53" transform="translate(-1.2 -1.78)"/><path d="M189.38,601.07l3.82-6.65.71-1.11c.82,2.82-5.16,15.47-9,18l4.49-10.24" transform="translate(-1.2 -1.78)"/><path d="M53.83,63.68c-.28,4.45-3.59,3.9-5.81,4.56-1.91.57-4,.6-4.27-1.9L39,66.61q-.07-.82-.13-1.64l7-.84c-.76,3.46,1.33,3.17,3.06,2.54s3-1.79,4.93-3" transform="translate(-1.2 -1.78)"/><path d="M109.59,128.32c-2-4.87-1.79-9.92-1.29-15l1.37-.1,1,15-1.13.09" transform="translate(-1.2 -1.78)"/><path d="M87.81,630q.88,15.14,1.76,30.29l-1.46.05V630Z" transform="translate(-1.2 -1.78)"/><path d="M139.82,163.16c7.09,4.75,8.74,12.33,13.09,18l-.8.58-12.29-18.57" transform="translate(-1.2 -1.78)"/><path d="M24.85,660.56a58.42,58.42,0,0,0,5.93,1.59c3.72.63,7.48,1,11.21,1.54a9,9,0,0,1,3.08,1.25c-10.37.61-18.58-1.46-20.22-4.38" transform="translate(-1.2 -1.78)"/><path d="M149.86,266.75c-1.52-5,3.68-7.7,4.29-12a18.14,18.14,0,0,1-4.29,12" transform="translate(-1.2 -1.78)"/><path d="M67.66,636.88l1-29,.66,0q-.58,14.48-1.15,29l-.5,0" transform="translate(-1.2 -1.78)"/><path d="M141.16,160.48c2.07-2.21,2.07-2.21,9.6.62-3.33,1.91-3.33,1.91-9.6-.62" transform="translate(-1.2 -1.78)"/><path d="M12.9,288.75v17.61h-.5V288.75h.5" transform="translate(-1.2 -1.78)"/><path d="M102.37,344.91l2.79-16.9,1.37.25-3.19,16.83-1-.19" transform="translate(-1.2 -1.78)"/><path d="M186.76,459.93c-2.73-4.43-6.24-8.6-7.1-14l1.16-.51,5.93,14.47" transform="translate(-1.2 -1.78)"/><path d="M52,120.22a34.08,34.08,0,0,1-13,4.37l-.34-1.12,13-4.2.29,1" transform="translate(-1.2 -1.78)"/><path d="M212.43,699.93l8.19,6.89-.84,1c-3.46-1.41-5.55-4.49-8.36-6.7l1-1.21" transform="translate(-1.2 -1.78)"/><path d="M206.28,699.12l7.8,9.83c-3.49-.46-7.78-5.58-7.8-9.83" transform="translate(-1.2 -1.78)"/><path d="M193,585.69l-6.48,12.08-1.35-.77,7.12-11.92.71.61" transform="translate(-1.2 -1.78)"/><path d="M192.79,578.88l-8.08,12.34-1.15-.76,8.51-12.06Z" transform="translate(-1.2 -1.78)"/><path d="M219.89,696.27c4.45-1.15,9.41,2.22,9.44,4.94l-9.44-4.94" transform="translate(-1.2 -1.78)"/><path d="M142.9,649.9c2.32,2.62,1.72,4.79-2.25,9.65l2.25-9.65" transform="translate(-1.2 -1.78)"/><path d="M196.74,627.07l-5.16,14.21-1.07-.38L196,626.74l.73.33" transform="translate(-1.2 -1.78)"/><path d="M106.7,57.24l4.41.46c.35,3.83-2,3.51-4.76,3l.35-3.43" transform="translate(-1.2 -1.78)"/><path d="M58.42,120.75l-14.56,5.89-.3-.73,14.44-6,.42.88" transform="translate(-1.2 -1.78)"/><path d="M63.78,117.93l9.88,2.66-.26,1-9.91-2.43.29-1.28" transform="translate(-1.2 -1.78)"/><path d="M152.43,160.79l1.62-9.56c1.78,2.56,1.17,6.79-1.62,9.56" transform="translate(-1.2 -1.78)"/><path d="M191.53,662.61c.88,3.79-2.37,4.7-3.92,6.61-.47-3.1,2.14-4.39,3.92-6.61" transform="translate(-1.2 -1.78)"/><path d="M160,402.8l-12.16-3.43.26-.93,12.07,3.42-.18.95" transform="translate(-1.2 -1.78)"/><path d="M113.91,691.86l5.15-6.23c-.07,2.78-3.17,5.92-5.15,6.23" transform="translate(-1.2 -1.78)"/><path d="M154.42,241.09V224.9l.43,0V241l-.43.09" transform="translate(-1.2 -1.78)"/><path d="M113.22,698.6l12.66-4.16.26.82-12.6,4-.32-.67" transform="translate(-1.2 -1.78)"/><path d="M63.86,658.1l.84-10.92c2.32,3.93,0,7.21-.84,10.92" transform="translate(-1.2 -1.78)"/><path d="M226.47,706.29l-7.34-3.59c2.74-.88,5.66.39,7.34,3.59" transform="translate(-1.2 -1.78)"/><path d="M127.95,144.58,116.47,138l.41-.71,11.4,6.68Z" transform="translate(-1.2 -1.78)"/><path d="M135.35,436.65l2.08-1.85.86.6-3.47,5.82-.88-.4,1.5-4.28-.1.11" transform="translate(-1.2 -1.78)"/><path d="M147.13,390.09l-7-1.32.26-1.49c2.4-.21,4.39,2,6.82,1.61l-.11,1.2" transform="translate(-1.2 -1.78)"/><path d="M186.42,664l1.13-5.64,2.31,2-2.71,4-.73-.33" transform="translate(-1.2 -1.78)"/><path class="c" d="M66.43,321.66c.42-3.2,1.05-6.38,1.24-9.6,1.16-19.65,9.48-37.58,13-56.65l1,.24L66.8,321.71l-.37-.05" transform="translate(-1.2 -1.78)"/><path class="c" d="M118.15,177.6c-2.69-1.78-5.39-3.56-8.08-5.35a2.54,2.54,0,0,1-.92-.86c-.79-1.67-1.52-3.38-2.41-5.4,5.32,2.25,7.58,7.76,11.4,11.61" transform="translate(-1.2 -1.78)"/><path class="c" d="M29.2,149.54,22.93,166.6c.68-6.23,1.92-12.27,6.27-17.06" transform="translate(-1.2 -1.78)"/><path class="c" d="M18.36,289.34c-.46.77-1.25,1.52-1.31,2.33-.18,2.39-.06,4.8-.06,7.56-1.85-3.5-1.35-8.75,1.29-13.62,0,1.6,0,2.72,0,3.83l.08-.11" transform="translate(-1.2 -1.78)"/><path class="c" d="M16.69,271.42V260l.47,0q.26,5.71.53,11.42l-1,0" transform="translate(-1.2 -1.78)"/><path class="c" d="M56.82,102.2,54.5,99.52l.36-1,6.28,1c0,.32,0,.64,0,1l-4.34,1.71" transform="translate(-1.2 -1.78)"/><path class="c" d="M219.22,593.42c-1.94-5-1.67-8.7,1.06-9.74l-1.06,9.74" transform="translate(-1.2 -1.78)"/><path class="c" d="M81.12,190c9.1-4.87,18.18-5.56,27.48-5.09L81.12,190" transform="translate(-1.2 -1.78)"/><path class="c" d="M131.8,390.67c.47,3.35,1,6.69,1.41,10,.52,3.8,1.06,7.59,1.48,11.4.06.56-.41,1.21-.73,1.76-1.26,2.2-1.27,2.19,1.23,3.59l-1.74,3.25-.82-.16c-.93-9.93-2.72-19.83-.84-29.89h0" transform="translate(-1.2 -1.78)"/><path class="c" d="M33.9,86.65c-3.51-1.51-6.35-3.06-7-7.06,2.51.22,4.89.31,7.21.73a2.43,2.43,0,0,1,1.43,1.91,25.86,25.86,0,0,1-1.62,4.42" transform="translate(-1.2 -1.78)"/><path class="c" d="M31.95,73.46l-8.58-3.7c5.81-1.84,8.15-.86,8.58,3.7" transform="translate(-1.2 -1.78)"/><path class="c" d="M94.61,91.5l-3.24-7.4,1.56-.67,3,7.51-1.3.56" transform="translate(-1.2 -1.78)"/><path class="c" d="M70.21,700.74l-5.72-.63c.19-.78.2-2.1.61-2.24,2-.68,3.8-.39,5.11,2.87" transform="translate(-1.2 -1.78)"/><path class="c" d="M113.19,205c1.71-1.19,2.72-4,6.28-1.85l-5.82,2.65-.46-.8" transform="translate(-1.2 -1.78)"/></g></svg>