<?xml version="1.0" encoding="utf-8"?>
<!-- Generator: Adobe Illustrator 15.0.0, SVG Export Plug-In . SVG Version: 6.00 Build 0)  -->
<!DOCTYPE svg PUBLIC "-//W3C//DTD SVG 1.1//EN" "http://www.w3.org/Graphics/SVG/1.1/DTD/svg11.dtd">
<svg version="1.1" id="Layer_1" xmlns="http://www.w3.org/2000/svg" xmlns:xlink="http://www.w3.org/1999/xlink" x="0px" y="0px"
	 width="228.428px" height="700.789px" viewBox="0 0 228.428 700.789" enable-background="new 0 0 228.428 700.789"
	 xml:space="preserve">
<g opacity="0.5">
	<g>
		<defs>
			<rect id="SVGID_1_" x="0.001" y="0.001" width="228.427" height="700.788"/>
		</defs>
		<clipPath id="SVGID_2_">
			<use xlink:href="#SVGID_1_"  overflow="visible"/>
		</clipPath>
		<path clip-path="url(#SVGID_2_)" fill="#FFFFFF" d="M0,0h228.428v700.789H0V0z M65.116,159.938
			c7.902,3.952,16.703,4.434,25.061,6.648c-2.408-1.033-4.88-1.846-7.4-2.457c-5.895-1.427-11.812-2.758-17.72-4.127
			c-1.771-1.12-3.657-2.092-5.29-3.386c-5.928-4.694-12.037-9.227-15.974-15.925c0.8,0.07,1.774-0.134,2.373,0.251
			c9.026,5.795,19.163,8.885,29.396,11.866c-13.158-6.039-27.725-9.603-37.429-20.734c11.763,4.544,23.913,9.237,36.063,13.931
			l0.543-1.236c-2.814-1.352-5.553-2.907-8.461-4.012c-5.342-2.029-10.844-3.639-16.166-5.716
			c-4.217-1.646-8.266-3.729-12.389-5.617c0.063-0.243,0.127-0.485,0.191-0.727c2.641,0.294,5.281,0.588,7.924,0.883
			c0.061-0.354,0.12-0.709,0.182-1.063c-5.982-1.121-11.965-2.241-18.336-3.435c1.853-2.361,3.362-4.004,4.541-5.857
			c1.692-2.658,3.055-5.616,7.189-3.773c0.586-2.28,1.066-4.154,1.549-6.028c-0.268-0.147-0.534-0.293-0.801-0.44
			c-0.904,0.795-1.807,1.59-2.889,2.54c0.06-2.219,0.66-3.77,2.578-4.963c2.62-1.628,5.055-3.566,7.498-5.463
			c0.693-0.538,1.139-1.395,1.699-2.105c-0.148-0.12-0.297-0.24-0.445-0.36c-4.164,2.784-8.328,5.568-12.494,8.351
			c-0.271-0.381-0.541-0.763-0.812-1.145c1.225-1.007,2.428-2.041,3.68-3.012c1.146-0.891,3.135-1.088,2.989-3.659
			c-5.255,2.194-9.646,6.092-15.478,3.613c-0.154,0.276-0.31,0.553-0.465,0.829c1.229,0.931,2.457,1.862,3.799,2.881
			c-0.565,1.452-1.215,3.144,1.41,3.544c-0.405,2.282,1.231,2.735,2.742,3.33c0.723-0.79,1.326-1.448,2.135-2.33
			c-0.535,3.527-2.395,5.61-5.347,6.172c-0.071-0.852-0.142-1.689-0.253-3.007c-1.083,3.098,0.176,6.609-2.23,7.918
			c-2.327-0.836-3.875-1.392-6.069-2.18c-0.655-1.87-1.572-4.49-2.49-7.11c-0.337,0.106-0.674,0.213-1.012,0.319
			c3.937,16.369,9.462,32.285,14.403,48.373c-0.024-1.792-1.182-3.915-0.559-5.108c1.146-2.196,0.432-3.964,0.069-5.93
			c-0.237-1.284-0.461-2.57-0.69-3.855c0.114-0.007,0.229-0.012,0.344-0.018c4.263,7.002,8.525,14.004,12.789,21.006
			c0.192-0.123,0.385-0.246,0.578-0.37c-4.166-7.303-8.609-14.467-12.384-21.968c-1.889-3.756-2.563-8.124-3.771-12.219
			c-0.28-0.951-0.498-1.92-0.744-2.88c-0.219,0.047-0.436,0.095-0.655,0.142v4.549c-1.59-2.103-2.674-3.536-4.252-5.623
			c4.624,0.546,1.028-2.333,2.092-2.871c7.714,2.813,13.238,8.024,17.929,14.254C48.167,150.122,55.817,155.935,65.116,159.938
			 M165.366,536.626c0.871,7.271,1.744,14.541,2.617,21.812c0.229-0.03,0.459-0.061,0.688-0.09
			c-0.841-7.516-1.682-15.03-2.545-22.741c-0.379,0.514-0.6,0.814-0.823,1.116c-0.702-10.367-1.407-20.734-2.11-31.102l-0.758,0.053
			c0.313,4.187,0.553,8.379,0.957,12.556C163.987,524.372,164.698,530.501,165.366,536.626 M110.762,599.541
			c3.699,3.057,7.824,2.907,11.751,0.923c2.987-1.509,5.588-3.781,8.361-5.714c2.352-0.741,2.921-0.515,3.125,2.346
			c0.525,7.372,0.941,14.757,1.176,22.145c0.434,13.663,0.747,27.33,1.02,40.998c0.074,3.649,0.045,7.207,4.256,8.946
			c0.246,0.354,0.494,0.71,0.74,1.064c-1.25,0.444-2.5,0.889-3.748,1.333c0.307,0.577,0.614,1.154,0.922,1.73
			c2.729-5.327,6.963-3.856,10.891-3.772c0.064,0.233,0.128,0.468,0.193,0.701c-1.664,0.424-3.327,0.848-4.991,1.271
			c0.853,0.461,1.741,0.781,2.418,0.529c4.685-1.745,9.323-3.61,13.979-5.436c-0.662-0.897-1.539-1.467-2.285-1.329
			c-1.893,0.354-3.703,1.365-5.588,1.499c-4.082,0.289-8.194,0.296-12.287,0.164c-0.75-0.024-2.041-1.2-2.103-1.926
			c-0.586-6.992-1.203-13.996-1.347-21.007c-0.328-15.908-0.362-31.822-0.609-47.732c-0.029-1.94,0.699-2.308,2.428-2.433
			c2.721-0.198,5.416-0.75,8.123-1.151c-0.037-0.276-0.076-0.552-0.115-0.827c-2.375,0.275-4.748,0.746-7.127,0.768
			c-2.236,0.02-4.769,1.197-7.03-1.606c-0.742,1.356-1.388,2.539-2.035,3.722c-1.86,0.95-3.733,1.879-5.582,2.856
			c-4.444,2.35-8.913,4.46-14.051,2.05c-0.157-0.073-0.367-0.033-0.552-0.045c2.529-0.335,5.06-0.669,8.039-1.062
			c-1.535-0.237-2.688-0.498-3.855-0.579c-2.426-0.168-4.896-0.008-7.279-0.402c-4.736-0.783-9.414-1.912-14.137-2.781
			c-3.905-0.718-6.764-0.342-7.536,0.276c4.136,0.623,8.909,1.248,13.644,2.086C103.323,597.81,107.03,598.734,110.762,599.541
			 M39.44,433.29c0.01,1.852,0.021,3.703,0.03,5.555v6.245c0.285-0.015,0.569-0.03,0.854-0.045
			c3.215-20.461,1.968-41.166,3.203-61.744c-0.351,1.077-0.576,2.168-0.648,3.27c-0.632,9.711-1.182,19.427-1.871,29.134
			C40.592,421.573,39.971,427.429,39.44,433.29 M116.819,355.14c-0.629,0.798-1.832,1.623-1.797,2.389
			c0.25,5.239,0.517,10.498,1.224,15.69c3.301,24.227,6.76,48.433,10.134,72.649c1.643,11.786,3.205,23.584,4.84,35.372
			c0.439,3.166,1.014,6.314,1.525,9.47c-0.047-5.475-0.162-10.937-0.954-16.299c-2.531-17.145-5.474-34.229-7.953-51.381
			c-2.669-18.457-5.114-36.949-7.373-55.461c-0.497-4.072,0.201-8.289,0.333-12.467c1.271-7,2.566-13.996,3.803-21.003
			c0.709-4.012,1.318-8.041,1.973-12.063c-2.004,8.601-3.52,17.273-4.955,25.96C117.228,350.358,117.079,352.758,116.819,355.14
			 M50.94,588.05c-2.744-0.069-5.541-0.503-8.213-0.104c-2.619,0.391-4.826,0.41-7.231-0.982c-2.581-1.494-5.476-1.122-8.384-0.328
			c2.972,0.525,5.809,0.654,8.354,1.581c2.538,0.924,4.785,2.646,7.159,4.018c0.077-0.131,0.153-0.263,0.231-0.395
			c-0.718-0.777-1.434-1.554-2.149-2.331c0.048-0.279,0.095-0.559,0.144-0.839c3.389-0.217,6.778-0.434,10.166-0.649
			c-0.076,0.725-0.277,1.461-0.212,2.172c0.28,3.057,0.687,6.101,0.957,9.157c0.566,6.391,1.074,12.785,1.65,19.702
			c0.479-1.067,0.702-1.562,0.925-2.058c0.259,0.023,0.52,0.046,0.777,0.068c0.74,13.737,1.478,27.474,2.217,41.21
			c0.46-2.912,0.578-5.813,0.439-8.702c-0.748-15.618-1.562-31.233-2.354-46.85c-0.02-0.372,0.094-0.894-0.105-1.096
			c-2.888-2.914-0.697-6.52-1.574-9.772c1.396,0.549,2.475,1.246,3.561,1.925c1.191,0.744,2.396,1.466,3.585,2.213
			c1.11,0.697,2.155,1.522,3.325,2.095c1.255,0.613,2.594,1.107,3.947,1.448c1.16,0.292,2.393,0.295,3.593,0.426
			c0.009-0.178,0.017-0.356,0.026-0.535c-0.465-0.274-0.929-0.55-1.188-0.703c3.953-1.532,7.865-3.049,11.777-4.565
			c-0.104-0.26-0.207-0.519-0.312-0.778c-2.458,1.07-4.901,2.177-7.378,3.204c-4.42,1.833-8.643,1.594-12.671-1.183
			C58.364,592.89,54.655,590.484,50.94,588.05 M173.465,681.612c0.382-0.173,0.765-0.346,1.146-0.519
			c0.697-0.216,1.388-0.46,2.094-0.641c2.309-0.592,5.16-4.222,4.859-6.434c-0.098-0.707-0.601-1.671-1.188-1.949
			c-4.758-2.259-9.559-4.434-14.403-6.499c-0.815-0.348-1.907-0.049-2.87-0.049c-0.022,0.385-0.046,0.77-0.068,1.155
			c1.125,0.25,2.287,0.813,3.363,0.679c1.625-0.202,2.039,0.513,2.104,1.825c0.165,3.362,0.38,6.726,0.439,10.091
			c0.088,4.933-0.51,5.738-5.191,7.66c-0.771-2.408-0.292-2.267,0.833-6.081c1.083-3.674,1.034-7.682,1.485-11.543
			c-1.91,5.29-3.291,10.596-4.535,15.936c-0.182,0.783,0.305,1.722,0.638,3.35c-3.942,0.872-8.054,2.162-12.252,2.604
			c-4.265,0.449-8.677,0.355-12.548-2.304c0.96,0.842,1.919,1.684,3.328,2.92c-4.129-0.779-6.406-3.334-6.684-7.188
			c-0.215-2.982-0.291-5.992-0.16-8.979c0.19-4.346,0.623-8.68,0.951-13.019c-0.617,1.151-1.208,2.403-1.387,3.712
			c-0.504,3.693-0.758,7.422-1.264,11.116c-0.517,3.785-1.58,7.222,1.211,11.041c2.931,4.012,6.859,6.319,11.652,4.712
			c0.965-0.322,1.963-0.713,2.957-0.745C157.885,692.14,166.03,687.724,173.465,681.612 M221.159,578.707
			c0.219,0.352,0.55,1.035,0.637,1.006c1.872-0.643,3.9-1.105,5.464-2.217c0.527-0.374-0.14-2.43-0.261-3.718l-0.662,0.085
			c0.145,0.889,0.289,1.777,0.501,3.079c-1.952,0.624-3.847,1.23-5.741,1.836c0.364-0.487,0.727-0.975,1.153-1.547
			c-3.696,0.291-7.166,0.564-10.765,0.848c0.793-4.48,1.506-8.499,2.218-12.518c-3.438,2.455-2.564,6.781-3.964,10.108
			c-0.213-0.074-0.428-0.148-0.643-0.223c0.289-1.988,0.578-3.975,0.867-5.963c-0.193-0.043-0.387-0.086-0.581-0.129
			c-0.862,3.123-1.726,6.246-2.601,9.41c0.578,0.336,1.502,0.569,1.759,1.115c0.228,0.484-0.259,1.897-0.478,1.907
			c-2.811,0.134-5.629,0.089-8.808,0.089c1.356-2.227,2.321-3.81,3.286-5.393c-1.307,0.065-2.046,0.583-2.809,1.062
			c-5.83,3.664-11.068,8.548-19.117,5.735c-5.612-1.961-11.598-3.022-17.687-2.451c-0.118,0.012-0.258-0.217-0.521-0.452
			c0.629-1.078,1.279-2.192,1.928-3.307c-5.516,5.178-11.21,9.864-17.637,13.766c1.4-0.264,2.856-0.572,3.998-1.344
			c3.027-2.043,5.752-4.584,8.927-6.328c1.679-0.924,4.053-0.781,6.087-0.662c0.335,0.02,0.85,2.434,0.73,3.69
			c-0.338,3.62-0.99,7.209-1.459,10.818c-1.193,9.193-1.875,18.484-3.646,27.563c-2.311,11.831-3.678,23.665-3.229,35.705
			c0.035,0.956,0.105,1.91,0.16,2.865c0.717-0.572,0.926-1.15,0.913-1.723c-0.241-10.709,0.245-21.314,2.769-31.822
			c1.418-5.9,1.974-12.014,2.789-18.049c1.238-9.161,2.412-18.33,3.492-27.512c0.186-1.583,0.797-1.962,2.149-1.653
			c2.283,0.521,4.669,0.805,6.813,1.676c5.762,2.341,11.27,2.243,16.668-0.94c0.209-0.124,0.5-0.11,0.854-0.181
			c-0.155,0.667-0.288,1.229-0.287,1.224c2.683-0.231,5.347-0.499,8.015-0.676c1.496-0.1,3-0.021,4.498-0.071
			c1.404-0.048,2.461-0.4,2.805-2.116c0.144-0.722,1.189-1.692,1.928-1.792C214.815,579.089,217.994,578.95,221.159,578.707
			 M207.3,443.522l-2.43-15.817c-0.354,0.068-0.707,0.137-1.061,0.206C204.973,433.114,206.137,438.318,207.3,443.522
			c0.357,2.469,0.737,4.934,1.045,7.409c0.053,0.417-0.097,1.181-0.337,1.266c-2.041,0.724-1.43,2.396-1.362,3.775
			c0.672,13.668,1.488,27.328,2.073,41.001c0.649,15.169,1.093,30.348,1.647,45.522c0.029,0.779,0.259,1.552,0.395,2.327
			c0.189-0.041,0.378-0.081,0.566-0.122c-0.301-12.489-0.602-24.978-0.901-37.469c0.336-0.025,0.673-0.051,1.009-0.078
			c0.596,2.286,1.191,4.572,1.786,6.86c0.071-0.029,0.142-0.058,0.214-0.086c-1.296-11.972-2.591-23.942-3.887-35.913
			c0.275-0.034,0.551-0.068,0.826-0.102c6.074,28.956,7.501,58.691,14.322,87.538c0.111-2.577-0.154-5.106-0.568-7.612
			c-1.374-8.319-2.9-16.614-4.188-24.946c-2.832-18.335-5.386-36.715-8.391-55.021c-1.552-9.454-2.996-18.849-2.568-28.479
			C209.067,447.469,207.892,445.487,207.3,443.522 M157.806,263.163c-0.224,2.11-0.447,4.22-0.676,6.366
			c-0.215,0.068-0.992,0.121-1.055,0.363c-0.682,2.59,4.724,15.175,7.423,16.557c-0.319-1.498-1.121-2.838-1.464-4.287
			c-1.489-6.307-2.846-12.646-4.252-18.973c0.453-0.47,1.171-1.42,1.318-1.338c2.381,1.318,3.459-0.589,4.711-1.863
			c1.842-1.872,3.568-3.854,5.365-5.769c0.442-0.47,0.989-1.252,1.452-1.227c4.065,0.224,2.151-1.98,1.532-3.638
			c-0.36-0.961-0.776-1.902-1.201-2.836c-2.768-6.082-1.964-12.773-3.209-19.124c-0.794-4.045-2.145-8.426,1.201-12.205
			c0.279-0.315,0.281-0.882,0.394-1.337c0.74-3.004,1.591-5.986,2.187-9.019c1.213-6.154,2.059-12.391,3.508-18.485
			c0.814-3.426,0.74-6.678-0.227-9.893c-1.668-5.552-3.845-10.958-5.375-16.544c-1.472-5.363-2.394-10.876-3.557-16.323
			c0.393-0.098,0.784-0.197,1.176-0.296c3.745,13.444,7.489,26.888,11.235,40.332c0.565-0.492,0.644-0.872,0.554-1.208
			c-3.238-12.232-6.309-24.512-9.805-36.671c-2.657-9.238-6.12-18.247-8.721-27.5c-1.594-5.673-0.91-12.01-4.664-17.055
			c-1.487-1.999-3.2-4.17-5.323-5.285c-4.625-2.43-9.617-4.153-14.392-6.314c-4.426-2.005-8.709-4.335-13.179-6.233
			c-1.263-0.536-3.42-0.656-4.37,0.072c-3,2.3-5.428,5.358-8.453,7.618c-2.826,2.109-6.117,3.606-9.252,5.28
			c-0.494,0.264-1.248,0.038-2.43,0.038c1.816-1.41,3.098-2.404,4.721-3.663c-4.676-1.946-6.248,1.97-9.279,3.485
			c1.475,0.966,3.418,1.545,3.625,2.5c0.699,3.216,3.306,2.603,5.933,3.836c-1.178-1.948-1.935-3.199-2.712-4.486
			c3.26,0.076,6.338-5.39,10.034-0.248c-1.97,1.981-3.66,4.891-6.107,5.827c-2.905,1.112-6.462,0.613-9.735,0.59
			c-0.504-0.004-1.293-1.145-1.405-1.848c-0.085-0.525,0.705-1.191,1.112-1.806c-1.478-2.641-3.164-5.654-4.853-8.668
			c0.247-0.161,0.494-0.321,0.741-0.482c0.804,0.765,1.609,1.53,2.413,2.295c0.18-1.198-0.048-2.16-0.476-3.02
			c-0.879-1.762-1.91-3.447-2.781-5.212c-0.312-0.631-0.59-1.462-0.441-2.098c0.277-1.183,6.303-3.83,7.523-3.459
			c3.36,1.021,3.99,0.709,5.259-2.521c0.297-0.757,0.69-1.475,1.032-2.196c0.811,0.327,1.42,0.573,2.39,0.965
			c0-5.292-0.019-10.225,0.019-15.157c0.006-0.802,0.021-2.119,0.445-2.319c2.729-1.285,1.477-2.974,0.655-4.632
			c-0.832-1.679-1.755-3.313-2.574-4.997c-0.272-0.559-0.661-1.611-0.469-1.761c1.979-1.545,0.329-2.49-0.593-3.309
			c-2.023-1.8-3.584-3.642-3.299-6.654c0.135-1.43-0.127-3.088-0.763-4.369c-2.265-4.561-4.621-9.091-7.244-13.453
			c-1.212-2.016-3.172-3.571-4.694-5.415c-2.512-3.04-6.58-2.841-9.644-4.739c-1.304-0.808-2.819-1.273-4.239-1.894l-0.475,0.863
			c2.357,1.512,4.713,3.025,7.068,4.536c-0.137,0.173-0.275,0.345-0.414,0.518c-3.041-1.919-6.082-3.838-9.914-6.256
			c-2.504-0.461-6.187-1.14-9.868-1.818c0.161-0.259,0.321-0.517,0.483-0.776c-1.18-1.074-2.217-2.469-3.6-3.083
			c-0.656-0.292-2.074,0.772-2.975,1.453c-2.612,1.98-5.131,4.087-7.703,6.122c-0.805,0.636-1.805,1.073-2.477,1.817
			c-3.404,3.776-6.701,7.649-10.123,11.407c-0.346,0.378-1.285,0.212-2.459,0.365c-0.617,2.38-1.178,5.232-2.104,7.961
			c-1.549,4.56,0.489,10.127-3.897,13.895c-0.199,0.171-0.039,0.727-0.101,1.094c-0.335,2.024-0.687,4.045-1.035,6.067
			c-0.125,0.729-0.327,1.453-0.368,2.186c-0.095,1.693,0.322,3.558-0.254,5.051c-1.152,2.992-1.074,5.859-0.234,8.807
			c0.98,3.443,1.385,3.652,4.865,2.804c0.799,0.784,1.703,1.491,2.354,2.384c0.352,0.483,0.551,1.4,0.336,1.92
			c-1.426,3.437-0.887,6.946,1.617,9.546c1.531,1.59,3.09,1.187,3.715-0.973c0.234-0.807,0.428-1.626,0.592-2.251
			c1.773,1.056,3.545,2.943,4.607,2.605c5.072-1.617,8.589,1.546,12.436,3.131c-0.281,1.691-1.203,4.15-0.662,4.531
			c2.043,1.44,0.736,2.66,0.357,4.474c-0.207-0.955-0.316-1.457-0.598-2.76c-0.545,3.22-0.955,5.655-1.453,8.589
			c3.416-3.269,3.871-4.417,3.857-8.045c-0.006-1.84,0.146-3.693,0.401-5.516c0.065-0.467,0.749-1.139,1.219-1.203
			c1.237-0.17,2.513-0.058,3.827-0.058c-0.275,1.74-0.495,3.138-0.622,3.948c1.933-1.575,3.628-3.952,5.795-4.518
			c4.673-1.22,9.362-3.749,14.468-1.634c0.301,0.124,0.704,0.058,1.049,0.005c2.321-0.356,4.641-0.733,7.368-1.169
			c-0.255,1.54-0.655,2.609-0.538,3.618c0.137,1.183,0.704,2.321,1.12,3.467c0.608,1.675,1.249,3.337,1.872,5.006
			c0.557,1.493,1.133,2.979,1.653,4.485c1.169,3.376-0.026,4.767-3.509,4.234c-1.828-0.279-3.697-0.296-5.528-0.571
			c-3.115-0.468-6.209-1.072-9.321-1.556c-0.684-0.107-1.488-0.146-2.103,0.11c-4.324,1.802-8.622,3.668-12.91,5.556
			c-2.651,1.167-5.254,2.66-8.291,0.67c0.985,1.85,1.974,3.7,2.692,5.047c1.844-0.854,3.86-1.124,4.393-2.158
			c1.664-3.235,5.041-3.267,7.609-4.719c4.137-2.339,8.531-3.18,13.207-1.461c1.562,0.575,3.24,0.921,4.896,1.132
			c6.365,0.808,12.743,1.517,19.113,2.282c0.121,0.015,0.213,0.27,0.607,0.807c-0.906,0.199-1.834,0.719-2.291,0.448
			c-1.738-1.034-2.705,0.315-3.632,1.128c-2.569,2.257-4.966,4.71-7.446,7.07c-0.182,0.172-0.487,0.215-0.858,0.369
			c-0.211-0.627-0.397-1.182-0.59-1.754c-0.597,0.286-1.027,0.493-1.78,0.855c0.807-1.315,1.389-2.267,1.973-3.218
			c-2.871,2.428-5.328,5.132-7.938,7.682c-0.601,0.586-1.858,1.09-2.579,0.869c-7.527-2.309-15.016-4.748-22.495-7.213
			c-2.129-0.702-4.403-1.298-6.203-2.536c-0.983-0.676-1.448-1.522-2.666-0.702c-1.413,0.952-3.741,1.207-2.905,4.034
			c0.448-0.058,1.095,0.047,1.273-0.194c2.062-2.769,4.529-1.76,6.977-0.807c2.531,0.986,4.998,2.155,7.569,3.018
			c5.066,1.7,10.195,3.214,15.274,4.875c1.033,0.338,1.965,0.985,2.943,1.489c-0.08,0.252-0.162,0.503-0.244,0.755
			c-3.439,0-6.946,0.428-10.308-0.089c-7.168-1.102-14.028-3.106-18.399-9.861c0.254,1.204,0.5,2.771,1.396,3.379
			c3.521,2.391,6.996,5.304,10.95,6.507c7.835,2.382,15.999,3.292,24.207,1.449c0.191-0.043,0.443,0.184,1.068,0.467
			c-4.109,3.678-7.033,8.217-12.047,10.573c-0.93,0.436-1.396,1.857-2.076,2.824c0.967,0.157,2.312,0.802,2.844,0.393
			c3.352-2.58,6.652-5.258,9.722-8.165c4.031-3.819,6.771-9.022,12.421-11.109c1.11-0.41,1.803-1.853,2.799-2.687
			c5.125-4.291,8.508-10.695,15.631-12.867c-0.686-0.471-1.313-0.903-1.918-1.319c0.887-1.854,1.771-3.509,2.455-5.243
			c0.228-0.58,0.176-1.795-0.154-1.976c-1.36-0.742-2.885-1.18-4.336-1.767c-1.039-0.422-2.057-0.903-3.748-1.652
			c3.008-1.975,5.371-3.458,7.652-5.061c0.799-0.562,1.586-1.312,2.043-2.158c1.746-3.225,3.617-3.591,6.871-1.655
			c3.524,2.096,7.149,4.063,10.877,5.769c4.512,2.064,9.346,3.48,13.707,5.803c2.2,1.174,4.118,3.486,5.331,5.732
			c1.202,2.226,1.649,4.987,1.916,7.566c0.806,7.754,0.451,15.505-0.627,23.227c-0.233,1.67-0.282,3.365-0.418,5.049
			c0.29,0.042,0.581,0.086,0.872,0.129c0.376-1.693,0.753-3.386,1.129-5.079c0.294,0.025,0.587,0.049,0.881,0.074v22.061
			c0.441,0.004,0.883,0.007,1.322,0.011c0.312-10.26,0.624-20.52,0.936-30.78c0.764,0.924,1.133,1.931,1.309,2.972
			c1.512,8.955,2.847,17.943,4.525,26.867c1.192,6.346,2.797,12.616,4.314,18.897c0.238,0.987,0.989,1.85,1.503,2.77
			c0.196-0.111,0.392-0.223,0.587-0.335c-0.588-2.313-1.176-4.625-1.764-6.938c1.072,1.999,2.016,4.093,2.245,6.262
			c0.36,3.416,0.657,6.936,0.218,10.313c-0.562,4.309-1.898,8.516-2.877,12.774c-0.936,4.072-1.84,8.152-2.805,12.439
			c1.74,1.562,0.065,3.201-0.489,4.909c-0.292,0.012-0.584,0.024-0.877,0.035c-1.091-14.645-2.181-29.29-3.272-43.934
			c-0.281,0.02-0.564,0.04-0.848,0.06c0.18,16.964,1.576,33.865,3.418,50.743c-0.316,0.046-0.633,0.093-0.949,0.141
			c-2.264-11.923-4.527-23.846-6.656-35.056c0,2.687-0.603,6.311,0.102,9.66c3.51,16.679,5.783,33.652,11.542,49.821
			c0.448,1.261,0.168,3.342-0.634,4.379c-2.269,2.943-4.983,5.541-7.512,8.264c-2.188-1.916-4.08-0.56-5.625,0.308
			c-2.963,1.665-5.621,3.861-8.504,5.685c-1.461,0.924-3.132,1.518-4.707,2.26c0.088,0.268,0.176,0.537,0.266,0.805
			c3.031,0.441,5.197-2.382,8.154-2.634c-2.293,2.091-4.674,4.038-7.307,5.546c-1.17,0.671-3.092,1.022-4.243,0.524
			c-2.286-0.99-4.729-2.29-6.278-4.152c-2.174-2.612-4.73-3.171-7.717-3.036c-2.617,0.118-5.257,0.223-7.832,0.652
			c-9.984,1.665-19.949,3.452-29.914,5.216c-0.457,0.081-0.875,0.385-1.312,0.585c0.058,0.273,0.114,0.545,0.17,0.818
			c4.869-0.619,9.75-1.144,14.601-1.877c7.961-1.204,15.914-2.477,23.849-3.846c5.425-0.937,7.735,3.624,11.471,5.665
			c-0.087,0.222-0.174,0.445-0.262,0.668c-1.769-0.292-3.539-0.585-5.423-0.896c0.177,0.336,0.218,0.56,0.348,0.642
			c5.889,3.705,18.689,0.259,22.182-5.698C154.278,265.694,156.278,264.552,157.806,263.163 M33.646,331.269
			c-4.619,33.131-14.469,65.421-15.062,99.554c0.319-0.879,0.51-1.403,0.994-2.734c0,1.771,0.079,2.695-0.013,3.603
			c-1.611,15.946-3.334,31.883-4.817,47.842c-0.437,4.69-0.153,9.443-0.287,14.165c-0.324,11.334-1.149,22.675-0.935,33.997
			c0.23,12.099,0.89,24.163-1.104,36.179c-0.167,1.001-0.17,2.07-0.019,3.072c0.281,1.85,1.004,3.667,1.047,5.509
			c0.062,2.606-0.439,5.222-0.465,7.836c-0.01,1.201,0.218,3.209,0.89,3.479c3.619,1.455,7.44,1.285,11.22,0.588
			c-2.949-0.502-5.904-0.826-8.869-0.935c-2.119-0.078-2.414-1.19-2.258-2.955c0.232-2.608,0.446-5.23,0.436-7.845
			c-0.027-6.432-0.476-12.871,0.705-19.261c0.151-0.819,0.098-1.685,0.08-2.527c-0.178-8.995-0.34-17.991-0.56-26.985
			c-0.399-16.271,1.636-32.368,3.117-48.526c2.138-23.333,3.549-46.731,5.39-70.093c0.477-6.039,1.078-12.103,2.178-18.051
			c3.949-21.384,8.183-42.714,12.211-64.084c1.352-7.173,2.364-14.409,3.643-21.597c0.222-1.243,0.997-2.389,1.518-3.58l0.533,0.224
			c-2.257,16.527-4.514,33.053-6.771,49.579c0.309,0.052,0.619,0.105,0.928,0.157c1.402-4.785,2.806-9.57,4.218-14.351
			c0.042-0.141,0.192-0.25,0.365-0.463c0.181,0.516,0.339,0.963,0.728,2.066c0.264-3.104-0.306-6.037,0.872-7.805
			c1.499-2.252,1.255-4.351,1.433-6.603c0.192-2.428,0.271-4.876,0.668-7.271c0.826-4.965,1.914-9.887,2.74-14.852
			c1.41-8.482,2.678-16.987,4.076-25.471c0.157-0.951,0.784-1.823,1.215-2.781c-3.166-1.162,0.09-3.546-1.05-5.284
			c-0.291,0.223-0.684,0.372-0.809,0.645c-1.791,3.9-3.503,7.837-5.33,11.721c-0.804,1.708-1.851,3.301-2.733,4.975
			c-0.408,0.776-1.182,2.133-0.951,2.355c1.812,1.744,0.623,3.61,0.203,5.229c-1.266,4.877-3.046,9.623-4.242,14.514
			c-2.047,8.374-3.787,16.823-5.687,25.233c-1.104,4.887-2.265,9.762-3.399,14.642l0.537,0.131L33.646,331.269z M109.685,386.373
			c0.246-0.014,0.492-0.025,0.738-0.04c0.12,0.89,0.264,1.774,0.355,2.666c1.531,14.729,2.998,29.465,4.638,44.183
			c0.259,2.323,1.282,4.562,1.952,6.841c-2.914-20.233-4.381-40.482-4.914-60.819c0.424,0.396,0.531,0.824,0.574,1.26
			c1.172,11.55,2.108,23.127,3.572,34.638c1.319,10.385,3.213,20.696,4.854,31.04c0.479-1.174,0.36-2.268,0.266-3.363
			c-0.878-10.245-4.967-19.928-4.097-30.608c0.605-7.439-1.338-15.079-2.066-22.636c-0.762-7.915-1.65-15.827-2.072-23.763
			c-0.309-5.784,0.152-11.605,0.08-17.408c-0.068-5.503,1.701-11.027-0.273-16.527c-0.393-1.093-0.153-2.419-0.174-3.638
			c-0.022-1.203-0.006-2.407-0.006-3.611c-0.414,0.01-0.826,0.021-1.24,0.03c-0.092,4.523-0.123,9.048-0.289,13.568
			c-0.164,4.475-0.464,8.944-0.703,13.415c-0.742-9.597-1.032-19.179-3.514-28.505c-0.305,0.944-0.344,1.858-0.299,2.768
			c0.319,6.261,1.114,12.538,0.886,18.778c-0.392,10.667-0.994,21.362-2.277,31.953c-2.208,18.24-5.019,36.407-7.541,54.609
			c-0.315,2.278-0.415,4.587-0.614,6.881c0.276,0.016,0.553,0.028,0.828,0.043c1.858-12.568,3.717-25.137,5.573-37.705
			c0.233,0.032,0.468,0.063,0.702,0.096c-1.312,13.153-2.602,26.309-3.946,39.458c-1.331,13.008-2.718,26.011-4.081,39.016
			c1.691-4.489,2.821-8.994,3.807-13.53c3.522-16.208,3.082-32.933,6.643-49.19c1.788-8.167,1.529-16.78,2.204-25.191
			C109.376,389.509,109.539,387.941,109.685,386.373 M152.694,284.944c-0.133-0.027-0.266-0.054-0.397-0.08
			c-0.377,2.881-0.753,5.761-1.204,9.212c-0.598-1.527-0.947-2.419-1.298-3.312c-0.543,1.05-0.595,2.021-0.535,2.987
			c0.495,8.137,1.537,16.28,1.42,24.407c-0.37,25.92,1.091,51.75,2.979,77.571c1.109,15.147,2.217,30.298,3.578,45.423
			c0.318,3.519,1.863,6.799,1.623,10.578c-0.323,5.114,0.319,10.289,0.517,15.438c0.058,1.521,0.008,3.045,0.008,4.567
			c0.899-2.447,1.798-4.821,1.784-7.19c-0.025-4.198-0.646-8.393-0.941-12.595c-0.613-8.721-1.367-17.438-1.721-26.171
			c-0.997-24.643-1.816-49.293-2.714-73.939c-0.595-16.302-1.202-32.602-1.808-48.903c-0.006-0.141-0.07-0.28-0.092-0.364
			c-0.222,0.388-0.457,0.804-0.693,1.219c-0.17-0.037-0.338-0.074-0.506-0.111V284.944z M9.733,188.798l0.674-0.091
			c0.586,0.919,1.172,1.839,1.758,2.758c0.184-0.081,0.367-0.161,0.552-0.242c-1.21-5.379-2.42-10.758-3.63-16.137
			c0.238-0.046,0.477-0.092,0.716-0.138c2.964,7.701,3.787,16.197,8.455,23.276c0.185-0.538,0.12-0.991-0.015-1.422
			c-2.432-7.776-4.928-15.533-7.288-23.331c-1.236-4.084-1.638-8.534-3.49-12.29c-2.285-4.639-1.392-9.222-1.963-14.355
			c3.515,7.099,6.813,13.565,9.93,20.117c3.134,6.591,5.017,13.778,9.429,19.773c-0.385-2.082-1.268-3.944-2.062-5.843
			c-4.27-10.199-8.425-20.448-12.816-30.594c-2.031-4.691-3.658-9.347-3.291-14.574c0.235-3.356,0.418-6.779,0.018-10.099
			c-0.537-4.461,1.137-7.96,3.488-11.479c3.336-4.994,6.442-10.144,9.647-15.228c-0.182-0.23-0.362-0.459-0.546-0.689
			c-1.107,0.867-2.463,1.549-3.277,2.637c-2.801,3.735-5.422,7.606-8.078,11.447c-0.275,0.397-0.406,0.928-0.489,1.416
			c-0.171,1.015-0.046,2.138-0.435,3.05c-0.988,2.318-2.193,4.545-3.088,6.355c0.604,1.333,1.443,2.276,1.338,3.099
			c-0.861,6.758-1.895,13.492-2.889,20.233c-0.266,1.79-0.576,3.572-0.866,5.358c0.304,0.057,0.608,0.114,0.912,0.17
			c0.468-1.07,0.935-2.14,1.402-3.21c0.483,1.754,0.383,3.347,0.503,4.924c0.385,5.099,0.749,10.205,1.314,15.286
			c0.661,5.941,1.791,11.84,2.236,17.793c0.566,7.566,0.62,15.169,0.979,22.752c0.052,1.081,0.58,2.14,0.887,3.209
			c0.39-0.008,0.779-0.016,1.171-0.024c0.241-1.26,0.639-2.514,0.69-3.782c0.086-2.144,1.147-2.857,3.096-2.41
			c2.554,0.585,5.098,1.221,7.623,1.918c1.602,0.443,3.16,1.039,4.74,1.565c0.119-0.292,0.239-0.584,0.359-0.876
			c-1.264-0.694-2.455-1.63-3.805-2.033c-3.221-0.963-6.537-1.601-9.771-2.525c-1.176-0.335-3.113-1.007-3.191-1.698
			C10.124,198.202,9.994,193.493,9.733,188.798 M162.366,263.741c-1.252,5.918-1.993,11.053,0.31,16.122
			c0.644,1.416,0.677,3.531,1.726,4.247c1.65,1.128,1.797,2.344,1.834,3.985c0.033,1.585,0.188,3.192,0.511,4.744
			c2.948,14.22,5.916,28.435,8.94,42.639c1.084,5.082,2.338,10.128,3.514,15.191c0.522-0.097,1.045-0.194,1.566-0.291
			c-4.263-26.657-8.652-53.296-13.35-79.968c-0.162,2.011-0.324,4.022-0.486,6.034c-0.779-2.505-1.109-5-1.142-7.499
			c-0.011-0.668,0.888-1.347,1.37-2.021c0.574,0.626,1.507,1.171,1.669,1.89c1.442,6.397,2.846,12.807,4.073,19.249
			c1.549,8.139,2.922,16.312,4.371,24.471c0.305-0.059,0.608-0.117,0.914-0.175c-3.029-15.883-6.058-31.767-9.014-47.268
			c-1.804,0.32-2.904,0.515-4.004,0.706c-0.544,2.302-2.55,4.229-1.25,7.021c0.74,1.59,0.68,3.554,0.98,5.35l-0.889,0.107
			C161.139,274.028,163.382,269.006,162.366,263.741 M66.81,151.601c-0.139,0.256-0.279,0.512-0.418,0.768
			c2.334,1.291,4.631,2.659,7.02,3.841c1.133,0.562,2.428,0.824,3.673,1.123c1.387,0.334,3.127,1.213,4.147,0.709
			c3.879-1.916,8.043-3.743,11.135-6.636c4.041-3.781,7.103-8.596,10.703-12.866c4.412-5.232,9.104-10.233,13.385-15.567
			c5.082-6.33,9.547-13.039,9.684-21.644c0.008-0.395,0.561-0.782,0.989-1.34c0.858,1.273,1.562,2.316,2.567,3.805
			c-0.154-2.259-0.262-3.831-0.369-5.403c0.231-0.01,0.464-0.021,0.695-0.031c0.517,0.671,1.033,1.342,1.924,2.501
			c-0.441-3.078-0.789-5.495-1.205-8.388c-1.075,2.379-1.963,4.341-2.926,6.474c-1.994-2.56-3.732-4.792-5.472-7.024l-0.962,0.608
			c2.674,2.976,4.48,6.368,3.298,10.241c-1.297,4.254-3.112,8.359-4.864,12.459c-0.394,0.921-1.348,1.805-2.263,2.214
			c-0.442,0.196-1.394-0.751-2.397-1.349c0.039,4.724-2.746,7.868-5.922,10.512c-4.17,3.471-8.646,6.581-13.068,9.739
			c-2.334,1.666-4.831,3.101-7.785,4.978c0.275-1.377,0.411-2.055,0.628-3.145c-1.646,1.444-3.01,2.461-4.14,3.694
			c-0.7,0.765-1.047,1.855-1.553,2.8c1.105-0.061,2.418,0.243,3.279-0.245c3.666-2.08,7.237-4.336,10.762-6.651
			c1.512-0.993,2.655-1.214,3.756,0.784c-5.215,6.201-10.308,12.581-17.44,16.834c-1.297,0.773-3.051,1.364-4.487,1.185
			c-2.229-0.277-4.42-1.159-6.529-2.025C70.64,153.73,68.753,152.598,66.81,151.601 M82.864,623.681
			c-1.027,7.483-2.229,14.949-3.034,22.459c-0.759,7.067-1.125,14.18-1.601,21.276c-0.107,1.586-0.507,2.84-2.298,2.942
			c-4.837,0.277-9.676,0.503-14.516,0.698c-1.103,0.043-2.212-0.122-3.974-0.231c4.735,3.531,0.974,6.791,1.029,10.663
			c-0.527-0.961-0.716-1.306-0.906-1.651c-0.186,0.021-0.373,0.042-0.56,0.063c0.142,2.92,0.281,5.839,0.421,8.759
			c0.249,0.023,0.498,0.047,0.748,0.069c0.236-0.75,0.546-1.486,0.696-2.254c0.682-3.494,1.454-6.979,1.926-10.503
			c0.313-2.332,1.153-3.079,3.62-2.911c3.238,0.221,6.592,0.14,9.763-0.485c2.482-0.489,3.206,0.228,3.459,2.414
			c0.427,3.691,0.632,7.353,2.72,10.742c1.584,2.572-0.263,6.7-3.047,7.764c-1.061,0.405-2.486-0.032-3.461,0.468
			c-5.943,3.045-11.582,2.042-17.154-0.946c-1.017-0.545-2.067-1.029-3.104-1.542c2.896,2.866,6.125,5,10.225,5.386
			c0.74,0.07,1.701,0.003,2.166,0.429c2.322,2.123,4.674,1.147,7.061,0.301c1.583-0.562,3.124-1.302,4.749-1.671
			c4.19-0.952,6.366-4.43,5.18-8.576c-1.145-4.006-2.317-8.003-3.474-11.99c0.078-0.063-0.225,0.181-0.528,0.426
			c-0.237-0.053-0.477-0.105-0.715-0.159c0.337-1.373,0.662-2.75,1.021-4.118c0.141-0.538,0.5-1.054,0.513-1.586
			c0.06-2.566-0.21-5.164,0.086-7.698c1.116-9.569,2.3-19.135,3.661-28.673c1.613-11.298,3.434-22.565,5.164-33.847
			c-0.34-0.055-0.678-0.11-1.018-0.165c-1.267,8.896-2.533,17.792-3.801,26.689c-0.236-0.03-0.473-0.059-0.709-0.087
			C83.069,625.315,82.967,624.495,82.864,623.681 M119.385,188.704c2.507-1.774,17.267-62.144,16.619-66.909
			c-0.337,0.579-0.701,1.203-1.065,1.828c-0.213-0.061-0.428-0.122-0.642-0.183v-16.419c-0.25-0.008-0.5-0.017-0.751-0.026
			c-0.509,12.867-3.521,25.223-7.762,37.33l0.716,0.275c0.856-1.884,1.714-3.768,2.569-5.652
			c-1.865,10.684-4.065,21.225-6.475,31.718c-0.486,2.118-2.064,3.976-2.607,6.09c-0.695,2.696-4.623,5.225-0.754,8.385
			c0.213,0.173-0.059,0.894-0.039,1.357C119.221,187.175,119.308,187.848,119.385,188.704 M42.087,259.328
			c-0.977-0.494-1.738-0.621-1.906-1.007c-1.104-2.536-2.059-5.134-3.101-7.697c-1.808-4.45-3.644-8.888-5.468-13.331
			c-0.342,0.103-0.684,0.207-1.025,0.31c1.863,6.253,3.725,12.506,5.449,18.293c-7.959-2.754-16.143-5.585-24.699-8.546
			c0.282-7.736,5.67-15.479,2.999-24.127c-0.374,4.816-0.331,9.706-2.474,14.151c-0.312-0.028-0.623-0.055-0.935-0.083v-18.939
			c-0.967,6.441-1.309,12.869-1.639,19.298c-0.019,0.369-0.086,0.923,0.116,1.089c2.461,2.023,0.678,4.389,0.559,6.6
			c-0.045,0.831-0.343,1.649-0.523,2.473c-0.32,1.465,0.19,2.161,1.735,2.558c4.69,1.206,9.608,2.026,13.927,4.076
			c5.98,2.839,14.033,3.086,16.209,11.524c0.367,1.428,1.577,1.572,3.111,0.496c1.6-1.122,3.672-1.628,5.598-2.202
			c1.172-0.349,2.459-0.317,3.694-0.457c-0.794-0.887-1.812-1.092-2.358-1.712c-0.5-0.566-0.492-1.582-0.858-2.97
			c-0.632,3.97-0.734,4.04-7.642,5.859c0.715-2.437,1.422-4.845,2.131-7.253c-0.096-0.021-0.192-0.04-0.289-0.06
			c-0.69,1.148-1.381,2.295-2.434,4.041C42.153,260.213,42.098,259.479,42.087,259.328 M101.937,225.776
			c-3.035-1.336-5.754-2.25-8.182-3.664c-4.229-2.463-7.634-6.145-12.359-7.983c-2.184-0.849-3.979-2.775-5.849-4.334
			c-15.524-12.945-28.235-28.223-38.052-45.931c0.947,6.629,6.51,10.843,8.867,16.721c-0.176,0.171-0.353,0.343-0.528,0.514
			c-1.724-2.113-3.447-4.227-5.17-6.34c-0.372,0.316-0.744,0.632-1.117,0.948c0.867,1.179,1.632,2.45,2.618,3.519
			c5.4,5.861,10.956,11.581,16.262,17.524c6.005,6.727,12.008,13.442,19.559,18.497c2.705,1.81,5.634,3.294,8.494,4.863
			c3.104,1.7,6.334,3.185,9.338,5.039c1.772,1.093,8.463,1.912,10.235,0.715c0.462-0.311,0.666-1.006,0.988-1.524
			c-0.451-0.258-0.875-0.593-1.356-0.756c-1.052-0.353-2.131-0.618-3.509-1.007C102.126,223.243,102.071,223.982,101.937,225.776
			 M105.86,236.827c-2.726,1.351-5.354,2.79-8.088,3.983c-15.259,6.658-11.332,7.708-26.916,3.622
			c-9.297-2.438-18.648-5.187-26.103-11.886c-0.251-0.226-0.786-0.137-1.188-0.195c0.397,1.344,1.103,2.243,1.979,2.918
			c7.439,5.728,16.268,8.339,25.025,11.119c0.85,0.269,1.604,0.909,2.332,1.471c0.811,0.627,1.444,1.778,2.319,1.974
			c3.554,0.797,7.166,1.345,10.767,1.923c1.563,0.25,3.156,0.499,4.726,0.446c0.656-0.022,1.286-0.833,1.927-1.284
			c-0.422-0.564-0.738-1.283-1.291-1.657c-0.888-0.601-1.93-0.975-3.752-1.851c5.286-2.314,9.734-4.684,14.463-6.161
			C104.612,240.451,106.046,239.696,105.86,236.827 M58.778,362.812c0.853-4.852,2.086-9.407,2.391-14.024
			c1.314-19.912,2.422-39.839,3.413-59.77c0.123-2.473-0.9-5.003-1.392-7.508c-0.177,0.032-0.353,0.064-0.528,0.095
			c-0.849,6.484-1.696,12.968-2.544,19.452c0.179,0.061,0.357,0.123,0.537,0.184c0.461-0.529,0.924-1.059,1.967-2.253
			C61.312,320.736,60.053,341.656,58.778,362.812 M74.524,291.804c0,3.92-0.127,7.297,0.022,10.661
			c0.608,13.727,1.462,27.446,1.923,41.178c0.721,21.446,1.196,42.9,1.787,64.349c0.008,0.291,0.18,0.577,0.273,0.865
			c0.601-1.048,0.625-2.015,0.597-2.98c-0.753-26.512-1.54-53.022-2.255-79.535C76.565,314.977,77.034,303.564,74.524,291.804
			 M141.31,409.604c-0.486,0.064-0.971,0.129-1.455,0.192c2.045,15.553,4.299,31.08,6.078,46.663
			c1.781,15.604,3.086,31.262,4.598,46.895l1.256-0.131L141.31,409.604z M179.371,304.93c5.778,31.4,11.556,62.8,17.334,94.202
			C192.146,367.501,186.733,336.031,179.371,304.93 M68.669,218.428c5.527,4.353,12.579,5.043,16.92,10.409
			c-0.208-1.16-0.652-2.216-1.445-2.803c-2.633-1.948-5.375-3.749-8.102-5.567c-5.657-3.771-11.824-6.932-15.614-13.343
			c0.104,1.001,0.179,1.718,0.31,2.981c-3.312-2.646-6.189-4.944-9.066-7.241c0.016,0.687,0.266,1.149,0.639,1.465
			c4.271,3.624,8.465,7.348,12.883,10.786c2.429,1.892,3.33,3.669,1.74,6.587c-0.838,1.54-1.011,3.442-1.484,5.182
			c0.427,0.094,0.854,0.188,1.279,0.282C67.348,224.377,67.967,221.589,68.669,218.428 M100.769,262.569
			c-11.136,4.789-22.529,7.459-34.976,7.071c0.573,0.75,0.616,0.865,0.676,0.875c11.731,1.994,22.569-2.382,33.522-5.192
			c3.656-0.938,6.957-3.673,11.142-3.665c0.007-0.245,0.013-0.489,0.021-0.733c-3.182-0.672-6.362-1.343-9.543-2.014
			c-0.064,0.164-0.129,0.328-0.193,0.492c1.043,0.66,2.085,1.321,3.127,1.982c-1.061,0.363-1.973,0.353-2.863,0.212
			c-0.865-0.137-1.71-0.408-3.326-0.809C99.563,261.68,100.123,262.093,100.769,262.569 M130.763,237.956
			c-0.422,0.517-0.783,0.767-0.857,1.086c-0.209,0.892-0.301,1.812-0.438,2.721c0.935-0.216,2.063-0.178,2.761-0.707
			c1.014-0.771,1.838-1.874,2.537-2.966c7.678-11.981,13.457-24.841,17.445-38.483c0.919-3.145,1.188-6.479,1.754-9.726
			c-3.305,15.661-17.777,47.608-23.201,49.867V237.956z M88.399,559.679c0.34,0.005,0.681,0.009,1.021,0.013
			c0.914-16.766,1.827-33.532,2.741-50.299C90.075,526.102,87.642,542.791,88.399,559.679 M126.187,593.545
			c0.334-0.03,0.668-0.062,1.004-0.093c-1.678-13.342-3.354-26.683-5.031-40.024c-0.25,0.021-0.502,0.042-0.754,0.062
			c0.709,7.77,1.324,15.55,2.175,23.304c0.317,2.888,1.305,5.695,1.766,8.575C125.778,588.07,125.918,590.817,126.187,593.545
			 M55.83,264.575c0.957,2.522,3.225,2.609,5.187,3.031c11.369,2.442,21.244-2.841,31.525-6.025
			c-2.497,0.248-5.102,0.282-7.405,1.132c-6.61,2.438-13.289,4.345-20.397,3.669C61.896,266.111,59.106,265.259,55.83,264.575
			 M144.14,239.19c-4.42,3.473-8.513,6.69-12.605,9.906c0.223,0.312,0.445,0.623,0.669,0.935c1.065-0.77,2.149-1.516,3.19-2.317
			c1.12-0.86,2.2-1.771,3.297-2.66c0.174,0.227,0.35,0.455,0.523,0.683c-2.639,2.162-5.277,4.323-8.355,6.846
			c1.201-0.112,2.34,0.132,2.783-0.315C137.478,248.396,143.435,246.253,144.14,239.19 M215.456,568.047
			c0.433-0.041,0.865-0.082,1.299-0.123l-4.27-38.76c-0.192,0.018-0.383,0.035-0.574,0.052
			C213.093,542.159,214.274,555.104,215.456,568.047 M116.12,135.734c-0.227-0.151-0.453-0.303-0.68-0.454
			c-4.566,5.792-9.133,11.584-13.699,17.376c0.074,0.079,0.148,0.158,0.223,0.237c2.527-2.318,5.055-4.636,7.695-7.057
			c-1.113,1.919-2.176,3.748-3.237,5.576c0.226,0.12,0.452,0.239,0.679,0.359C110.106,146.425,113.112,141.079,116.12,135.734
			 M14.565,217.312c-0.123,0.011-0.248,0.021-0.373,0.031c0.59,0.978,0.998,2.152,1.802,2.9c4.36,4.056,8.786,8.043,13.28,11.948
			c0.553,0.48,1.652,0.33,2.498,0.472c-0.387-0.812-0.563-1.877-1.192-2.397C25.289,225.892,19.915,221.617,14.565,217.312
			 M15.629,107.882c-0.276-0.001-0.556-0.003-0.833-0.005c0,4.233,0.204,8.479-0.064,12.695c-0.218,3.432-1.016,6.826-1.521,10.242
			c-0.09,0.601-0.014,1.227-0.014,1.842C16.297,127.315,17.421,113,15.629,107.882 M49.476,570.094
			c0.379,0.001,0.76,0.002,1.139,0.002V538.9C49.073,549.296,49.541,559.695,49.476,570.094 M116.858,502.552
			c-1.27,12.072,2.877,24.847,3.392,37.945c0.229-0.021,0.46-0.043,0.69-0.064C119.538,527.427,118.137,514.422,116.858,502.552
			 M55.476,672.186c-0.354-0.212-0.707-0.425-1.06-0.637c-2.162,3.562-4.324,7.122-6.677,10.997c1.147,0.44,2.011,0.771,2.865,1.101
			C52.303,679.649,53.889,675.917,55.476,672.186 M61.903,130.253c-4.559-2.935-9.117-5.869-13.676-8.803
			C51.414,126.372,56.405,128.692,61.903,130.253 M16.623,209.478c3.685,5.092,8.522,8.761,14.549,10.803L16.623,209.478z
			 M136.144,454.226c-0.395,7.499-0.812,15.451-1.229,23.403c0.409,0.016,0.819,0.03,1.229,0.046V454.226z M58.057,217.082
			c-0.866-0.059-1.731,0.112-1.919-0.17c-0.876-1.316-1.5-2.798-2.345-4.139c-0.546-0.867-1.317-1.592-1.989-2.38
			c-0.301,0.715-0.125,1.039-0.007,1.384c0.631,1.855,3.339,3.121,1.435,5.775c-0.347,0.48,0.596,2.089,1.978,0.806
			c0.129-0.12,0.466-0.016,0.709-0.016c0.069,0.809,0.131,1.508,0.192,2.208c0.193,0.024,0.389,0.048,0.582,0.073
			C57.136,219.472,57.58,218.321,58.057,217.082 M111.153,454.041c-0.354,0.022-0.707,0.046-1.062,0.069
			c1.841,3.786-1.696,7.935,0.681,11.685l1.096-0.072C111.63,461.828,111.392,457.935,111.153,454.041 M152.748,117.544
			c-0.647,4.056-1.302,8.156-2.025,12.699C153.917,125.977,154.642,120.007,152.748,117.544 M186.504,428.064
			c0.251-0.039,0.502-0.077,0.752-0.116c-0.538-5.204-1.077-10.408-1.614-15.613c-0.232,0.024-0.464,0.048-0.695,0.072
			C185.465,417.626,185.985,422.845,186.504,428.064 M122.681,233.394c-2.15,3.246-4.302,6.492-6.453,9.738
			c0.226,0.136,0.45,0.273,0.676,0.409C120.303,241.04,121.597,237.205,122.681,233.394 M57.597,691.86
			c0.15-0.191,0.299-0.383,0.449-0.574c-1.875-1.803-3.697-3.665-5.65-5.376c-0.724-0.633-1.76-0.91-2.652-1.35
			c-0.143,0.258-0.283,0.517-0.426,0.774C52.078,687.511,54.838,689.686,57.597,691.86 M82.231,670.137
			c-0.182,0.052-0.361,0.103-0.541,0.153v7.203c0.268-0.383,0.523-0.747,0.906-1.291c0.71,1.172,1.292,2.133,1.873,3.093
			l0.258-0.182L82.231,670.137z M69.476,669.291c-3.669-0.847-6.551-1.512-9.773-2.255C61.944,669.81,65.137,670.604,69.476,669.291
			 M194.073,525.345c0.363,0.004,0.725,0.005,1.088,0.008v-11.337c-0.131-0.003-0.262-0.007-0.391-0.01
			C194.538,517.785,194.305,521.565,194.073,525.345 M28.765,537.236c0.314,0.021,0.629,0.043,0.942,0.063v-15.884
			c-0.025-0.01-0.05-0.02-0.075-0.03C29.343,526.67,29.054,531.953,28.765,537.236 M145.414,225.717
			c2.706-4.011,5.479-8.143,6.383-12.905C149.743,216.964,147.578,221.34,145.414,225.717 M66.579,666.532
			c-0.045,0.329-0.092,0.657-0.137,0.986c3.094,0.677,6.188,1.353,9.28,2.029c0.066-0.354,0.132-0.71,0.199-1.064
			C72.807,667.833,69.692,667.183,66.579,666.532 M85.567,367.577c0.186,0.015,0.371,0.029,0.556,0.044
			c0.345-3.375,0.69-6.75,1.036-10.125c-0.18-0.018-0.36-0.036-0.54-0.055C86.269,360.82,85.918,364.198,85.567,367.577"/>
		<path clip-path="url(#SVGID_2_)" d="M157.825,263.144c-1.547,1.408-3.547,2.551-4.556,4.273
			c-3.489,5.957-16.292,9.404-22.18,5.699c-0.132-0.082-0.173-0.306-0.349-0.642c1.883,0.311,3.653,0.603,5.422,0.896
			c0.088-0.223,0.176-0.446,0.264-0.669c-3.737-2.04-6.047-6.601-11.473-5.664c-7.934,1.369-15.886,2.642-23.848,3.845
			c-4.85,0.733-9.732,1.259-14.6,1.877c-0.057-0.272-0.114-0.545-0.172-0.817c0.437-0.2,0.854-0.504,1.312-0.585
			c9.968-1.764,19.931-3.551,29.914-5.216c2.577-0.429,5.216-0.535,7.833-0.653c2.986-0.135,5.543,0.425,7.717,3.037
			c1.549,1.861,3.991,3.162,6.278,4.151c1.151,0.498,3.073,0.147,4.244-0.523c2.632-1.509,5.012-3.456,7.305-5.546
			c-2.957,0.252-5.122,3.075-8.153,2.634c-0.088-0.268-0.178-0.537-0.266-0.805c1.576-0.743,3.246-1.336,4.707-2.261
			c2.882-1.823,5.541-4.019,8.504-5.684c1.544-0.868,3.438-2.224,5.624-0.308c2.53-2.724,5.244-5.322,7.515-8.264
			c0.799-1.038,1.082-3.119,0.631-4.379c-5.758-16.169-8.031-33.143-11.541-49.821c-0.705-3.349-0.102-6.973-0.102-9.66
			c2.128,11.21,4.393,23.132,6.656,35.055c0.316-0.047,0.633-0.094,0.949-0.141c-1.842-16.877-3.238-33.778-3.418-50.742
			c0.283-0.02,0.565-0.041,0.848-0.061c1.091,14.645,2.182,29.29,3.271,43.935c0.293-0.012,0.586-0.024,0.877-0.035
			c0.557-1.708,2.229-3.347,0.49-4.909c0.965-4.287,1.868-8.367,2.805-12.44c0.978-4.257,2.313-8.464,2.877-12.774
			c0.439-3.376,0.143-6.897-0.219-10.312c-0.229-2.169-1.172-4.263-2.244-6.262c0.588,2.313,1.176,4.625,1.764,6.938
			c-0.196,0.112-0.391,0.223-0.586,0.335c-0.516-0.92-1.266-1.783-1.504-2.771c-1.518-6.28-3.122-12.55-4.315-18.896
			c-1.678-8.924-3.012-17.912-4.524-26.868c-0.176-1.04-0.545-2.048-1.309-2.972c-0.312,10.26-0.623,20.521-0.935,30.781
			c-0.441-0.004-0.882-0.007-1.323-0.011v-22.062c-0.294-0.024-0.587-0.049-0.881-0.073c-0.376,1.693-0.752,3.386-1.129,5.078
			c-0.29-0.042-0.581-0.086-0.872-0.129c0.135-1.683,0.187-3.379,0.419-5.049c1.077-7.721,1.431-15.472,0.627-23.227
			c-0.268-2.579-0.714-5.34-1.916-7.565c-1.213-2.247-3.131-4.559-5.332-5.732c-4.361-2.324-9.195-3.739-13.708-5.804
			c-3.728-1.705-7.353-3.672-10.876-5.769c-3.253-1.935-5.125-1.57-6.871,1.656c-0.457,0.846-1.244,1.596-2.044,2.158
			c-2.28,1.603-4.644,3.086-7.649,5.06c1.689,0.749,2.707,1.231,3.748,1.652c1.448,0.588,2.974,1.025,4.336,1.768
			c0.33,0.18,0.379,1.396,0.151,1.976c-0.683,1.734-1.567,3.389-2.455,5.242c0.604,0.416,1.234,0.849,1.918,1.319
			c-7.122,2.173-10.505,8.577-15.631,12.867c-0.996,0.834-1.688,2.278-2.798,2.688c-5.65,2.087-8.391,7.289-12.421,11.108
			c-3.069,2.908-6.37,5.585-9.722,8.165c-0.533,0.41-1.875-0.235-2.845-0.393c0.681-0.966,1.147-2.387,2.076-2.824
			c5.015-2.355,7.938-6.894,12.047-10.572c-0.624-0.283-0.876-0.511-1.067-0.468c-8.209,1.844-16.373,0.934-24.207-1.449
			c-3.955-1.202-7.428-4.115-10.949-6.507c-0.896-0.608-1.141-2.174-1.395-3.379c4.368,6.756,11.23,8.759,18.397,9.861
			c3.36,0.517,6.868,0.089,10.308,0.089c0.081-0.251,0.163-0.503,0.244-0.754c-0.979-0.505-1.911-1.151-2.943-1.489
			c-5.08-1.661-10.209-3.175-15.273-4.875c-2.572-0.863-5.039-2.033-7.57-3.019c-2.447-0.953-4.914-1.961-6.976,0.808
			c-0.181,0.241-0.826,0.135-1.275,0.193c-0.836-2.827,1.492-3.081,2.907-4.033c1.217-0.82,1.682,0.026,2.665,0.702
			c1.8,1.238,4.073,1.834,6.204,2.536c7.479,2.464,14.966,4.903,22.494,7.212c0.721,0.222,1.979-0.282,2.578-0.868
			c2.61-2.55,5.068-5.255,7.939-7.683c-0.584,0.952-1.167,1.903-1.972,3.218c0.753-0.361,1.183-0.568,1.778-0.854
			c0.192,0.571,0.379,1.127,0.59,1.753c0.371-0.153,0.678-0.196,0.859-0.369c2.481-2.359,4.877-4.812,7.446-7.069
			c0.927-0.814,1.894-2.163,3.632-1.129c0.457,0.272,1.387-0.249,2.291-0.448c-0.395-0.536-0.486-0.791-0.607-0.806
			c-6.371-0.766-12.748-1.474-19.113-2.283c-1.656-0.21-3.335-0.557-4.896-1.131c-4.677-1.719-9.07-0.878-13.207,1.46
			c-2.568,1.453-5.945,1.485-7.609,4.719c-0.532,1.034-2.549,1.304-4.394,2.158c-0.719-1.347-1.704-3.197-2.692-5.046
			c3.037,1.99,5.64,0.496,8.291-0.671c4.289-1.887,8.586-3.754,12.91-5.556c0.614-0.255,1.42-0.216,2.104-0.11
			c3.111,0.485,6.207,1.088,9.32,1.556c1.832,0.275,3.701,0.293,5.531,0.572c3.481,0.532,4.676-0.858,3.506-4.235
			c-0.521-1.505-1.097-2.992-1.652-4.484c-0.622-1.67-1.264-3.332-1.872-5.007c-0.416-1.145-0.983-2.283-1.121-3.467
			c-0.117-1.009,0.285-2.077,0.539-3.617c-2.728,0.436-5.047,0.812-7.369,1.169c-0.344,0.053-0.748,0.119-1.048-0.005
			c-5.105-2.116-9.794,0.414-14.467,1.634c-2.168,0.566-3.863,2.942-5.797,4.518c0.127-0.811,0.348-2.209,0.623-3.948
			c-1.314,0-2.59-0.113-3.826,0.057c-0.471,0.065-1.155,0.736-1.221,1.204c-0.254,1.823-0.406,3.675-0.399,5.516
			c0.012,3.627-0.443,4.775-3.856,8.045c0.495-2.934,0.906-5.369,1.45-8.589c0.283,1.303,0.392,1.805,0.599,2.759
			c0.379-1.814,1.687-3.034-0.357-4.473c-0.541-0.382,0.381-2.84,0.662-4.531c-3.848-1.586-7.363-4.749-12.434-3.132
			c-1.063,0.339-2.836-1.548-4.609-2.604c-0.163,0.624-0.358,1.443-0.592,2.251c-0.625,2.16-2.184,2.563-3.715,0.973
			c-2.502-2.6-3.043-6.109-1.617-9.546c0.215-0.521,0.016-1.438-0.336-1.921c-0.65-0.892-1.556-1.599-2.354-2.383
			c-3.479,0.848-3.883,0.638-4.864-2.804c-0.84-2.948-0.919-5.815,0.235-8.807c0.575-1.493,0.157-3.358,0.253-5.051
			c0.041-0.733,0.243-1.457,0.369-2.186c0.347-2.022,0.699-4.043,1.033-6.067c0.062-0.368-0.098-0.924,0.101-1.094
			c4.388-3.769,2.349-9.335,3.897-13.896c0.928-2.728,1.488-5.581,2.105-7.961c1.174-0.152,2.114,0.013,2.458-0.364
			c3.423-3.759,6.72-7.631,10.124-11.408c0.671-0.744,1.672-1.181,2.477-1.816c2.572-2.035,5.09-4.143,7.705-6.123
			c0.897-0.68,2.315-1.744,2.973-1.453c1.383,0.615,2.421,2.009,3.6,3.083c-0.16,0.259-0.322,0.517-0.484,0.776
			c3.683,0.678,7.365,1.357,9.869,1.818c3.832,2.419,6.873,4.338,9.914,6.257c0.139-0.173,0.276-0.345,0.416-0.518
			c-2.357-1.512-4.714-3.024-7.07-4.536l0.474-0.863c1.42,0.621,2.937,1.086,4.24,1.893c3.065,1.898,7.132,1.699,9.643,4.74
			c1.524,1.844,3.484,3.399,4.696,5.415c2.622,4.362,4.979,8.892,7.244,13.453c0.635,1.28,0.898,2.938,0.762,4.369
			c-0.285,3.011,1.275,4.854,3.299,6.653c0.922,0.82,2.572,1.765,0.592,3.31c-0.191,0.149,0.197,1.201,0.469,1.76
			c0.822,1.684,1.742,3.319,2.574,4.998c0.822,1.657,2.073,3.346-0.654,4.631c-0.426,0.2-0.439,1.518-0.445,2.32
			c-0.038,4.932-0.02,9.864-0.02,15.156c-0.969-0.391-1.578-0.638-2.389-0.964c-0.342,0.721-0.736,1.439-1.033,2.195
			c-1.268,3.23-1.897,3.542-5.258,2.522c-1.221-0.371-7.246,2.276-7.522,3.458c-0.149,0.636,0.129,1.467,0.44,2.099
			c0.87,1.765,1.902,3.449,2.78,5.211c0.429,0.861,0.656,1.822,0.476,3.021c-0.804-0.765-1.607-1.53-2.412-2.295
			c-0.248,0.16-0.493,0.321-0.74,0.482c1.688,3.013,3.375,6.027,4.854,8.667c-0.41,0.615-1.199,1.282-1.115,1.807
			c0.115,0.703,0.902,1.844,1.408,1.847c3.272,0.023,6.827,0.523,9.733-0.589c2.446-0.937,4.138-3.847,6.106-5.827
			c-3.695-5.142-6.773,0.324-10.033,0.248c0.777,1.286,1.533,2.537,2.712,4.485c-2.626-1.232-5.234-0.62-5.933-3.835
			c-0.207-0.956-2.15-1.535-3.625-2.5c3.03-1.516,4.604-5.432,9.278-3.485c-1.622,1.259-2.903,2.252-4.719,3.662
			c1.181,0,1.937,0.227,2.428-0.037c3.136-1.674,6.427-3.172,9.252-5.281c3.027-2.259,5.453-5.318,8.454-7.618
			c0.951-0.728,3.107-0.607,4.37-0.071c4.47,1.897,8.753,4.228,13.18,6.232c4.774,2.161,9.765,3.885,14.39,6.314
			c2.123,1.115,3.836,3.287,5.324,5.286c3.754,5.045,3.069,11.381,4.664,17.055c2.6,9.252,6.063,18.261,8.721,27.5
			c3.496,12.158,6.565,24.439,9.805,36.67c0.089,0.336,0.011,0.716-0.555,1.208c-3.744-13.443-7.489-26.887-11.234-40.332
			c-0.393,0.1-0.784,0.198-1.176,0.297c1.162,5.447,2.086,10.96,3.556,16.323c1.531,5.586,3.707,10.991,5.376,16.544
			c0.967,3.214,1.041,6.467,0.227,9.892c-1.448,6.095-2.295,12.331-3.506,18.485c-0.599,3.033-1.449,6.016-2.188,9.019
			c-0.113,0.456-0.116,1.022-0.395,1.338c-3.346,3.779-1.996,8.16-1.201,12.204c1.244,6.352,0.44,13.043,3.209,19.125
			c0.426,0.934,0.842,1.875,1.201,2.836c0.621,1.657,2.532,3.862-1.533,3.638c-0.463-0.026-1.01,0.756-1.45,1.227
			c-1.798,1.914-3.524,3.897-5.366,5.768c-1.253,1.274-2.331,3.181-4.712,1.864c-0.147-0.082-0.864,0.867-1.315,1.337
			L157.825,263.144z M86.28,72.168c1.592-1.094,1.605-2.466,0.961-4.159c-2.317-6.09-4.563-12.208-6.775-18.339
			c-0.35-0.966-0.379-2.048-0.557-3.076c0.256-0.044,0.51-0.088,0.766-0.131c1.49,2.614,2.98,5.227,4.457,7.86
			c-0.083,3.355,4.094,14.223,6.303,15.169c-1.404-5.624-4.025-10.316-6.331-15.13c-0.963-2.542,0.864-3.357,2.531-4.417
			c3.72,6.529,7.336,12.875,11.059,19.408c1.406-2.581,3.091-4.912,3.968-7.516c0.732-2.168,1.263-4.907,0.571-6.95
			c-1.575-4.652-3.909-9.054-6.049-13.503c-0.408-0.848-1.339-1.445-2.028-2.158c-0.1,0.124-0.201,0.247-0.3,0.37
			c0.71,1.924,1.42,3.848,2.249,6.093c-1.184-0.234-1.718-0.341-2.242-0.459c-0.221-2.85-1.617-5.035-3.467-6.964
			c-0.355,0.21-0.71,0.42-1.064,0.63c1.525,2.093,3.052,4.187,4.578,6.28c1.977,3.319,3.953,6.637,5.928,9.955
			c-0.377,0.258-0.756,0.516-1.133,0.774c-3.182-4.705-6.361-9.41-9.967-14.742c-0.162,1.31-0.182,1.676-0.259,2.028
			c-0.062,0.278-0.194,0.539-0.354,0.966c-4.933-7.319-4.933-7.319-6.612-7.185c0.308,0.989,0.616,1.979,1.088,3.497
			c-3.595-2.714-6.676-5.04-9.757-7.367c-0.107,0.144-0.215,0.288-0.321,0.431c1.877,2.632,3.753,5.264,5.629,7.896
			c-8.26-5.209-13.776-13.218-11.518-16.858c0.502,3.926,3.005,5.1,6.536,5.099c-3.61-3.937-7.221-7.873-11.059-12.057
			c0.831-0.186,2.051-0.46,3.229-0.723c-0.532-0.7-1.157-1.521-2.044-2.687c2.57-1.09,4.729-2.006,6.888-2.923
			c-1.338-0.947-2.981-1.883-3.754-1.407c-3.123,1.927-5.074,0.014-7.255-1.598c-2.104-1.553-4.088-1.917-6.237,0.2
			c-1.45,1.428-3.319,2.437-5.021,3.606c-1.594,1.099-3.215,2.128-4.758-0.258c-1.062,1.227-1.979,2.165-2.758,3.206
			c-3.224,4.303-6.328,8.697-9.645,12.928c-1.227,1.566-3.063,2.878-2.6,5.061c1.01,4.752-1.619,8.657-2.58,12.951
			c-0.65,2.905-0.76,5.932-1.129,9.057c3.82-0.426,6.748-0.89,8.191-4.243c0.624-1.449,1.675-2.709,2.492-4.078
			c2.318-3.883,4.617-7.779,6.923-11.669c-4.415,3.076-6.873,7.996-11.09,11.684c-1.009-6.505,4.146-8.71,6.841-12.234
			c-0.646-1.654-3.812-2.368-1.7-4.456c4.597-4.546,9.401-8.88,14.173-13.244c0.58-0.531,1.48-0.712,2.231-1.055
			c0.118,0.191,0.237,0.383,0.356,0.574L43.352,27.087c0.116,0.133,0.231,0.265,0.347,0.398c3.871-3,7.742-6,11.612-8.999
			c0.231,0.207,0.464,0.414,0.696,0.621c-1.61,1.743-3.221,3.487-4.83,5.23c0.124,0.146,0.248,0.292,0.371,0.438
			c3.232-1.997,6.466-3.994,9.697-5.99c0.205,0.282,0.41,0.564,0.614,0.846c-1.416,1.295-2.752,2.694-4.267,3.861
			c-2.303,1.773-4.762,3.338-7.094,5.076c-3.573,2.665-5.272,6.248-4.668,9.614c0.629-0.564,1.26-1.129,1.89-1.693l0.813,0.341
			c-0.371,1.646-0.562,3.358-1.149,4.923c-1.15,3.071-2.507,6.066-3.802,9.082c-2.359,5.495-4.777,10.964-7.082,16.482
			c-0.736,1.766-1.961,3.75,0.83,5.513c1.012-1.991,1.922-3.809,2.854-5.616c0.945-1.83,1.922-3.646,2.864-5.477
			c0.987-1.917,1.885-3.883,2.94-5.761c0.922-1.643,2.01-3.192,3.024-4.783c0.235,0.151,0.471,0.302,0.708,0.452
			c-0.025,0.259,0.021,0.553-0.085,0.772c-3.366,6.91-6.744,13.813-10.125,20.715c-1.202,2.451-1.175,3.021,0.312,4.925
			c1.696-3.708,3.412-7.393,5.07-11.104c1.26-2.819,2.366-5.708,3.7-8.489c0.627-1.308,2.14-2.346,2.371-3.662
			c0.774-4.427,1.182-8.921,1.651-13.397c0.065-0.627-0.285-1.305-0.479-1.949c-0.228-0.752-0.854-1.597-0.677-2.219
			c0.478-1.652,1.296-3.206,1.978-4.8l0.915,0.186c-0.299,4.607-0.617,9.213-0.893,13.822c-0.277,4.671-0.514,9.345-0.769,14.017
			c-0.204,0.001-0.409,0.002-0.616,0.003c-0.273-0.593-0.547-1.188-1.072-2.326c-0.662,2.191-1.195,3.775-1.617,5.386
			c-0.749,2.862-0.171,3.524,2.818,3.881c0.762,0.09,1.871,0.677,2.09,1.295c0.931,2.635,1.596,5.364,2.343,8.064
			c0.469,1.699,1.418,2.68,3.28,2.066c2.084-0.687,3.662-3.349,3.359-5.524c-0.699-5.017-1.382-10.035-2.126-15.045
			c-0.288-1.948-0.727-3.874-1.098-5.81c-0.245,0.028-0.49,0.056-0.736,0.084v11.41v11.609c-1.959-2.781-2.483-32.866-0.737-37.298
			c0.811,1.409-0.152,4.263,3.109,3.57c0.156,1.687,0.186,3.378,0.486,5.02c1.836,10.031,0.822,20.659,6.676,29.862
			c1.832,2.883,1.77,3.242,6.037,1.577c-1.714-6.297-3.176-12.688-5.227-18.883c-1.66-5.01-2.521-10.463-6.445-14.515
			c-0.242-0.249-0.311-1.106-0.114-1.272c1.8-1.523,0.595-3.245,0.519-4.941c-0.17-3.794-0.143-7.598-0.105-11.397
			c0.003-0.384,0.619-0.762,0.95-1.143c0.313,0.449,0.772,0.857,0.907,1.354c0.285,1.032,0.156,2.235,0.623,3.15
			c2.422,4.748,4.959,9.437,7.498,14.125c1.502,2.777,3.487,5.369,4.535,8.301c2.135,5.982,3.827,12.124,5.603,18.229
			c0.522,1.799,1.368,1.745,2.631,0.871c-0.741,1.878-1.481,3.756-2.175,5.515c-0.906-0.59-2.112-1.53-2.217-1.42
			c-0.82,0.86-1.931,1.886-2.004,2.928c-0.17,2.425-1.176,1.903-2.717,1.314c0.588,0.84,1.333,1.866,2.114,1.892
			c2.09,0.069,4.196-0.284,6.292-0.499c0.093-0.01,0.166-0.308,0.23-0.478c0.799-2.101,1.561-4.216,2.398-6.301
			C88.889,73.369,88.2,72.251,86.28,72.168 M79.157,76.459c2.629-0.558,3.459-1.773,2.836-3.947
			c-2.779-9.734-5.801-19.377-10.987-28.164c-1.785-3.024-3.733-5.951-5.606-8.922c0.04,3.487,0.104,6.977,1.118,10.165
			c1.868,5.872,4.282,11.572,6.511,17.326c0.204,0.526,0.844,1.386,1.069,1.323c2.229-0.617,1.933,1.134,2.259,2.282
			C77.294,69.816,78.216,73.115,79.157,76.459 M71.489,23.452c1.559,1.236,2.733,2.377,4.098,3.211
			c4.354,2.666,8.139,5.908,11.136,10.081c0.456,0.635,1.517,0.836,2.298,1.237c-0.078-0.924,0.196-2.145-0.291-2.726
			c-3.281-3.91-6.591-7.815-10.169-11.449C76.811,22.028,74.378,22.097,71.489,23.452 M63.817,78.29
			c-2.381,0.947-4.517,1.797-7.16,2.848c-0.045,0.153-0.314,1.063-0.584,1.973l-0.734,0.062c-0.393-1.428-0.783-2.857-1.409-5.141
			c-0.953,2.515-1.591,4.2-2.229,5.888c4.034,1.478,11.346,1.165,13.855-0.327C64.938,81.709,64.343,79.892,63.817,78.29
			 M94.928,118.827c-0.027,0.388-0.069,0.992-0.118,1.7c3.172-1.494,5.338-5.454,5.122-9.404
			c-4.931,4.513-9.729,8.902-14.881,13.617c4.104-0.514,5.215-1.416,6.887-5.07C92.984,119.374,93.915,119.111,94.928,118.827
			 M78.327,18.294c4.557,4.25,9.391,8.759,14.069,13.123C92.231,25.521,84.372,18.361,78.327,18.294 M44.641,43.256
			c-4.528,6.77-8.22,14.009-11.085,21.64c0.443,0.213,0.887,0.426,1.33,0.64C38.889,58.497,41.638,50.85,44.641,43.256
			 M97.265,78.494c3.878,0.281,6.929-8.96,4.729-13.925c-1.004,2.588-2.68,4.818-2.453,6.833
			C99.851,74.148,99.159,76.182,97.265,78.494 M42.05,41.974c-4.826,5.493-9.016,14.221-8.282,17.364
			C36.702,53.185,39.376,47.58,42.05,41.974 M52.282,78.963c2.221-2.631,2.725-7.398,0.639-11.221
			c-0.706,1.246-1.696,2.181-1.654,3.067C51.393,73.54,51.913,76.25,52.282,78.963 M88.997,56.186
			c-0.172,0.087-0.344,0.174-0.516,0.261c1.483,3.584,2.913,7.191,4.504,10.725c0.245,0.545,1.229,0.758,1.871,1.124
			c0.221-0.236,0.439-0.471,0.658-0.706C93.343,63.789,91.169,59.986,88.997,56.186 M42.374,80.481l1.162,0.622
			c2.484-2.302,3.174-5.561,4.399-8.534c-0.339-0.182-0.679-0.364-1.019-0.546C45.403,74.843,43.889,77.663,42.374,80.481
			 M73.366,82.203c-2.422-1.811-4.156-3.108-6.258-4.681c0.594,1.932,0.914,3.849,1.844,5.402
			C69.188,83.319,71.354,82.561,73.366,82.203 M32.479,83.104c0.285-0.083,0.569-0.165,0.854-0.247
			c1.443-3.909,1.231-4.437-3.006-5.706C31.159,79.45,31.818,81.276,32.479,83.104 M95.489,31.246
			c-0.262,0.072-0.524,0.144-0.787,0.216c0.81,2.2-0.558,5.286,2.532,6.557c0.323-0.132,0.647-0.264,0.97-0.395
			C97.3,35.498,96.395,33.372,95.489,31.246 M50.046,76.281c-3.202,4.091-3.281,5.139-0.672,5.73
			C49.6,80.083,49.823,78.183,50.046,76.281 M106.351,105.498c0.277,0.268,0.555,0.536,0.83,0.805l6.648-7.206
			c-0.037-0.033-0.074-0.066-0.111-0.099C111.262,101.165,108.806,103.331,106.351,105.498 M101.368,114.368
			c0.158,0.167,0.316,0.334,0.476,0.501c1.821-2.028,3.644-4.057,5.565-6.197C105.329,110.632,103.349,112.5,101.368,114.368
			 M94.028,74.906c0.979-3.879,0.463-4.424-3.457-4.295C91.698,72.012,92.663,73.209,94.028,74.906 M83.868,119.998
			c-1.23,1.583-2.094,2.69-2.957,3.799c0.252,0.187,0.504,0.375,0.756,0.563C82.964,123.523,85.229,123.431,83.868,119.998"/>
		<path clip-path="url(#SVGID_2_)" d="M33.645,331.27l-3.417,13.239l-0.538-0.13c1.136-4.88,2.297-9.755,3.399-14.643
			c1.9-8.41,3.641-16.859,5.688-25.233c1.195-4.891,2.976-9.637,4.241-14.513c0.419-1.619,1.609-3.486-0.203-5.23
			c-0.23-0.221,0.542-1.578,0.952-2.355c0.882-1.674,1.929-3.266,2.731-4.975c1.828-3.883,3.539-7.82,5.33-11.721
			c0.125-0.272,0.52-0.421,0.811-0.645c1.139,1.738-2.117,4.123,1.049,5.284c-0.432,0.958-1.059,1.831-1.214,2.781
			c-1.399,8.484-2.667,16.99-4.077,25.472c-0.826,4.965-1.915,9.886-2.74,14.851c-0.398,2.395-0.475,4.844-0.668,7.271
			c-0.179,2.253,0.067,4.351-1.433,6.603c-1.179,1.769-0.606,4.701-0.872,7.806c-0.389-1.104-0.546-1.55-0.729-2.067
			c-0.172,0.214-0.322,0.323-0.363,0.463c-1.413,4.782-2.815,9.567-4.219,14.351c-0.31-0.052-0.619-0.104-0.928-0.156
			c2.258-16.527,4.514-33.053,6.771-49.579l-0.534-0.224c-0.519,1.191-1.295,2.336-1.517,3.58
			c-1.278,7.188-2.291,14.424-3.644,21.597c-4.028,21.369-8.261,42.7-12.211,64.083c-1.099,5.949-1.7,12.013-2.176,18.052
			c-1.843,23.361-3.253,46.76-5.39,70.093c-1.481,16.158-3.518,32.255-3.119,48.526c0.221,8.994,0.383,17.99,0.561,26.985
			c0.018,0.843,0.072,1.708-0.08,2.527c-1.18,6.39-0.732,12.829-0.706,19.261c0.011,2.614-0.202,5.236-0.435,7.845
			c-0.157,1.765,0.138,2.877,2.258,2.955c2.964,0.108,5.92,0.433,8.87,0.935c-3.781,0.696-7.603,0.867-11.222-0.588
			c-0.67-0.271-0.899-2.278-0.888-3.479c0.024-2.614,0.527-5.229,0.464-7.835c-0.044-1.843-0.766-3.66-1.047-5.51
			c-0.152-1.002-0.148-2.071,0.018-3.072c1.994-12.016,1.336-24.08,1.105-36.179c-0.215-11.321,0.61-22.663,0.934-33.997
			c0.136-4.722-0.148-9.476,0.287-14.165c1.483-15.959,3.207-31.896,4.818-47.842c0.092-0.907,0.012-1.831,0.012-3.603
			c-0.484,1.331-0.674,1.855-0.994,2.734C19.178,396.69,29.026,364.4,33.645,331.27"/>
		<path clip-path="url(#SVGID_2_)" d="M109.685,386.373c-0.146,1.568-0.309,3.136-0.435,4.705
			c-0.675,8.411-0.417,17.024-2.205,25.191c-3.559,16.258-3.118,32.982-6.641,49.19c-0.986,4.536-2.116,9.041-3.808,13.53
			c1.362-13.005,2.75-26.008,4.082-39.015c1.344-13.15,2.631-26.306,3.944-39.459c-0.233-0.032-0.467-0.063-0.701-0.096
			c-1.858,12.568-3.716,25.137-5.573,37.705c-0.275-0.015-0.553-0.028-0.83-0.043c0.201-2.294,0.302-4.603,0.617-6.881
			c2.522-18.202,5.332-36.369,7.541-54.609c1.281-10.591,1.885-21.286,2.276-31.953c0.229-6.24-0.565-12.517-0.886-18.778
			c-0.047-0.909-0.006-1.823,0.299-2.768c2.482,9.326,2.771,18.908,3.513,28.505c0.24-4.471,0.539-8.94,0.703-13.414
			c0.166-4.52,0.199-9.046,0.29-13.569c0.414-0.01,0.827-0.02,1.241-0.03c0,1.204-0.017,2.408,0.005,3.611
			c0.021,1.219-0.219,2.545,0.173,3.638c1.976,5.5,0.206,11.024,0.274,16.527c0.072,5.803-0.389,11.624-0.08,17.408
			c0.423,7.936,1.31,15.848,2.072,23.763c0.729,7.557,2.672,15.196,2.065,22.636c-0.869,10.682,3.22,20.363,4.099,30.608
			c0.092,1.096,0.213,2.189-0.267,3.362c-1.642-10.343-3.536-20.654-4.854-31.038c-1.463-11.512-2.4-23.09-3.571-34.639
			c-0.046-0.436-0.152-0.864-0.575-1.26c0.534,20.337,2,40.586,4.914,60.819c-0.67-2.278-1.693-4.518-1.952-6.842
			c-1.639-14.717-3.106-29.452-4.637-44.182c-0.093-0.892-0.236-1.777-0.356-2.666C110.177,386.347,109.931,386.359,109.685,386.373
			"/>
		<path clip-path="url(#SVGID_2_)" d="M152.694,284.944v18.738c0.168,0.037,0.337,0.074,0.505,0.111
			c0.237-0.415,0.474-0.83,0.694-1.219c0.021,0.084,0.086,0.223,0.091,0.365c0.606,16.3,1.215,32.601,1.81,48.902
			c0.897,24.646,1.715,49.297,2.713,73.939c0.354,8.732,1.106,17.45,1.719,26.171c0.296,4.202,0.919,8.396,0.943,12.595
			c0.014,2.369-0.885,4.743-1.783,7.19c0-1.522,0.049-3.047-0.01-4.567c-0.197-5.149-0.84-10.324-0.516-15.438
			c0.24-3.779-1.305-7.06-1.622-10.578c-1.362-15.125-2.469-30.275-3.578-45.423c-1.89-25.821-3.351-51.651-2.979-77.572
			c0.115-8.127-0.926-16.27-1.422-24.407c-0.058-0.965-0.006-1.937,0.537-2.986c0.35,0.892,0.698,1.784,1.297,3.311
			c0.451-3.45,0.828-6.331,1.203-9.212C152.429,284.891,152.562,284.917,152.694,284.944"/>
		<path clip-path="url(#SVGID_2_)" d="M43.86,140.626c-4.693-6.226-10.217-11.438-17.93-14.251
			c-1.064,0.538,2.531,3.417-2.092,2.872c1.578,2.086,2.66,3.519,4.25,5.622v-4.549c0.22-0.047,0.438-0.095,0.656-0.142
			c0.246,0.96,0.463,1.93,0.743,2.88c1.208,4.095,1.884,8.464,3.772,12.219c3.772,7.501,8.217,14.666,12.384,21.969
			c-0.193,0.123-0.388,0.246-0.579,0.369c-4.264-7.002-8.527-14.004-12.79-21.006c-0.114,0.006-0.229,0.012-0.343,0.018
			c0.23,1.285,0.453,2.571,0.689,3.856c0.362,1.965,1.078,3.733-0.068,5.929c-0.622,1.194,0.535,3.317,0.559,5.109
			c-4.941-16.088-10.467-32.004-14.404-48.373c0.338-0.107,0.676-0.213,1.014-0.319c0.916,2.619,1.834,5.24,2.49,7.11
			c2.193,0.788,3.742,1.343,6.068,2.179c2.406-1.309,1.148-4.819,2.23-7.918c0.111,1.318,0.182,2.156,0.254,3.007
			c2.951-0.562,4.811-2.645,5.345-6.172c-0.808,0.882-1.41,1.54-2.134,2.33c-1.51-0.594-3.148-1.048-2.743-3.33
			c-2.624-0.4-1.976-2.091-1.409-3.544c-1.343-1.019-2.57-1.949-3.799-2.88c0.154-0.277,0.311-0.553,0.465-0.83
			c5.832,2.479,10.223-1.419,15.477-3.612c0.147,2.57-1.844,2.768-2.989,3.658c-1.251,0.972-2.454,2.006-3.679,3.013
			c0.271,0.381,0.543,0.763,0.812,1.145c4.165-2.784,8.329-5.568,12.493-8.352c0.149,0.121,0.297,0.24,0.446,0.36
			c-0.56,0.71-1.006,1.567-1.699,2.104c-2.443,1.897-4.877,3.835-7.498,5.464c-1.918,1.192-2.518,2.743-2.578,4.963
			c1.081-0.951,1.984-1.746,2.889-2.541c0.266,0.147,0.533,0.294,0.801,0.44c-0.481,1.875-0.963,3.749-1.549,6.029
			c-4.135-1.844-5.498,1.114-7.189,3.772c-1.18,1.853-2.689,3.496-4.541,5.858c6.372,1.193,12.354,2.314,18.335,3.434
			c-0.06,0.355-0.12,0.709-0.181,1.063c-2.643-0.294-5.283-0.589-7.924-0.883c-0.064,0.242-0.127,0.485-0.191,0.727
			c4.124,1.889,8.172,3.971,12.39,5.618c5.321,2.076,10.823,3.687,16.165,5.715c2.909,1.105,5.646,2.66,8.462,4.012l-0.544,1.237
			c-12.15-4.694-24.302-9.388-36.062-13.932c9.703,11.131,24.271,14.696,37.429,20.734c-10.233-2.981-20.37-6.071-29.397-11.866
			c-0.598-0.384-1.572-0.181-2.371-0.251L43.86,140.626z M27.296,135.153c-0.312,0.075-0.625,0.15-0.937,0.225
			c0.955,3.043,1.908,6.087,2.862,9.129c0.234-0.069,0.47-0.139,0.703-0.208C29.05,141.25,28.173,138.202,27.296,135.153"/>
		<path clip-path="url(#SVGID_2_)" d="M9.733,188.798c0.261,4.694,0.391,9.404,0.926,14.067c0.078,0.691,2.016,1.363,3.191,1.698
			c3.234,0.923,6.551,1.562,9.771,2.525c1.35,0.403,2.541,1.339,3.805,2.033c-0.12,0.292-0.24,0.584-0.359,0.876
			c-1.58-0.527-3.139-1.122-4.74-1.565c-2.525-0.697-5.069-1.333-7.623-1.919c-1.948-0.446-3.01,0.266-3.096,2.411
			c-0.052,1.268-0.449,2.522-0.69,3.782c-0.392,0.008-0.781,0.016-1.171,0.024c-0.307-1.069-0.835-2.128-0.887-3.209
			c-0.358-7.583-0.412-15.186-0.979-22.752c-0.445-5.953-1.575-11.852-2.236-17.793c-0.565-5.081-0.93-10.187-1.314-15.286
			c-0.12-1.577-0.02-3.17-0.503-4.924c-0.468,1.07-0.935,2.14-1.402,3.21c-0.304-0.056-0.608-0.113-0.912-0.17
			c0.29-1.786,0.601-3.569,0.865-5.359c0.995-6.74,2.028-13.475,2.89-20.232c0.105-0.823-0.734-1.767-1.338-3.099
			c0.895-1.81,2.1-4.037,3.088-6.355c0.389-0.912,0.264-2.035,0.435-3.05c0.083-0.489,0.214-1.019,0.487-1.416
			c2.658-3.841,5.279-7.712,8.08-11.448c0.814-1.087,2.17-1.769,3.277-2.636c0.184,0.23,0.364,0.459,0.546,0.689
			c-3.205,5.084-6.312,10.233-9.647,15.228c-2.352,3.518-4.025,7.017-3.488,11.478c0.4,3.32,0.218,6.743-0.018,10.099
			c-0.367,5.227,1.26,9.883,3.291,14.573c4.392,10.146,8.547,20.395,12.816,30.595c0.795,1.899,1.678,3.761,2.062,5.843
			c-4.412-5.996-6.295-13.183-9.429-19.773c-3.116-6.552-6.415-13.018-9.93-20.118c0.571,5.134-0.322,9.717,1.963,14.355
			c1.851,3.757,2.254,8.206,3.49,12.291c2.36,7.798,4.856,15.555,7.288,23.331c0.135,0.431,0.199,0.884,0.015,1.422
			c-4.668-7.079-5.491-15.575-8.455-23.277c-0.239,0.047-0.478,0.093-0.716,0.139c1.209,5.379,2.42,10.758,3.63,16.137
			c-0.185,0.08-0.368,0.161-0.552,0.242c-0.586-0.919-1.172-1.839-1.758-2.758L9.733,188.798z"/>
		<path clip-path="url(#SVGID_2_)" d="M162.365,263.741c1.017,5.265-1.228,10.288,1.646,14.535l0.889-0.107
			c-0.301-1.796-0.24-3.761-0.98-5.351c-1.301-2.792,0.705-4.719,1.248-7.018c1.1-0.193,2.202-0.389,4.006-0.709
			c2.957,15.501,5.984,31.385,9.014,47.269c-0.305,0.058-0.609,0.116-0.914,0.174c-1.449-8.158-2.822-16.331-4.371-24.47
			c-1.227-6.442-2.63-12.852-4.073-19.25c-0.161-0.719-1.094-1.264-1.67-1.89c-0.481,0.674-1.379,1.354-1.37,2.021
			c0.034,2.499,0.364,4.995,1.143,7.5c0.162-2.012,0.324-4.024,0.486-6.035c4.697,26.673,9.088,53.311,13.35,79.969
			c-0.522,0.096-1.043,0.193-1.565,0.291c-1.176-5.063-2.432-10.109-3.514-15.192c-3.026-14.203-5.993-28.419-8.942-42.638
			c-0.32-1.553-0.476-3.16-0.511-4.745c-0.036-1.641-0.183-2.857-1.833-3.984c-1.049-0.717-1.081-2.832-1.725-4.248
			C160.372,274.795,161.115,269.659,162.365,263.741 M172.822,304.446c-0.444,0.055-0.89,0.111-1.335,0.167l2.386,10.734
			c0.198-0.039,0.396-0.078,0.593-0.117L172.822,304.446z"/>
		<path clip-path="url(#SVGID_2_)" d="M207.298,443.531c0.594,1.956,1.77,3.938,1.684,5.863c-0.428,9.63,1.016,19.024,2.568,28.479
			c3.005,18.306,5.559,36.686,8.391,55.021c1.286,8.332,2.813,16.627,4.188,24.946c0.414,2.506,0.68,5.035,0.568,7.612
			c-6.821-28.847-8.248-58.582-14.322-87.538c-0.275,0.033-0.551,0.067-0.826,0.101c1.296,11.972,2.591,23.942,3.887,35.914
			c-0.072,0.028-0.143,0.057-0.214,0.085c-0.595-2.287-1.19-4.573-1.786-6.859c-0.336,0.026-0.673,0.053-1.009,0.078
			c0.3,12.49,0.601,24.979,0.901,37.469c-0.188,0.041-0.377,0.081-0.566,0.122c-0.136-0.775-0.365-1.548-0.395-2.327
			c-0.555-15.175-0.998-30.354-1.647-45.523c-0.585-13.671-1.399-27.333-2.073-41.001c-0.068-1.377-0.679-3.051,1.362-3.774
			c0.239-0.085,0.39-0.849,0.337-1.267c-0.309-2.475-0.688-4.939-1.044-7.408L207.298,443.531z"/>
		<path clip-path="url(#SVGID_2_)" d="M221.159,578.709c-3.166,0.241-6.345,0.38-9.484,0.802c-0.738,0.1-1.784,1.07-1.928,1.792
			c-0.344,1.716-1.4,2.068-2.803,2.116c-1.5,0.05-3.005-0.028-4.5,0.071c-2.668,0.177-5.33,0.444-8.015,0.676
			c-0.001,0.005,0.131-0.557,0.287-1.224c-0.353,0.07-0.646,0.057-0.854,0.181c-5.397,3.183-10.906,3.281-16.666,0.939
			c-2.146-0.87-4.533-1.153-6.815-1.675c-1.353-0.309-1.964,0.07-2.15,1.653c-1.079,9.181-2.253,18.351-3.491,27.512
			c-0.814,6.035-1.371,12.148-2.789,18.049c-2.522,10.508-3.01,21.113-2.769,31.822c0.015,0.572-0.196,1.15-0.914,1.724
			c-0.054-0.956-0.124-1.91-0.16-2.866c-0.448-12.04,0.919-23.874,3.229-35.705c1.771-9.079,2.453-18.37,3.646-27.563
			c0.469-3.609,1.121-7.198,1.461-10.818c0.116-1.257-0.397-3.671-0.732-3.69c-2.033-0.119-4.407-0.262-6.088,0.662
			c-3.174,1.744-5.899,4.285-8.924,6.328c-1.144,0.771-2.6,1.08-4,1.344c6.426-3.901,12.123-8.588,17.637-13.766
			c-0.649,1.114-1.299,2.229-1.928,3.307c0.263,0.235,0.402,0.464,0.521,0.452c6.088-0.571,12.074,0.49,17.687,2.451
			c8.049,2.812,13.287-2.071,19.116-5.735c0.763-0.479,1.505-0.997,2.81-1.062c-0.965,1.583-1.93,3.166-3.285,5.393
			c3.177,0,5.996,0.045,8.807-0.089c0.219-0.01,0.705-1.423,0.477-1.907c-0.256-0.546-1.18-0.779-1.758-1.115
			c0.875-3.164,1.737-6.287,2.602-9.411c0.193,0.044,0.386,0.087,0.58,0.13c-0.289,1.987-0.578,3.975-0.867,5.963
			c0.214,0.073,0.429,0.148,0.643,0.223c1.399-3.327,0.525-7.653,3.963-10.108c-0.711,4.019-1.424,8.037-2.217,12.518
			c3.598-0.283,7.068-0.557,10.764-0.848c-0.426,0.572-0.789,1.06-1.152,1.547L221.159,578.709z"/>
		<path clip-path="url(#SVGID_2_)" d="M66.81,151.602c1.943,0.997,3.831,2.129,5.844,2.955c2.109,0.865,4.301,1.748,6.53,2.025
			c1.437,0.179,3.188-0.413,4.485-1.186c7.135-4.252,12.226-10.632,17.441-16.834c-1.1-1.998-2.244-1.776-3.757-0.783
			c-3.524,2.315-7.095,4.571-10.76,6.65c-0.863,0.489-2.175,0.185-3.28,0.246c0.506-0.945,0.852-2.035,1.555-2.801
			c1.129-1.232,2.491-2.25,4.139-3.693c-0.219,1.09-0.354,1.768-0.629,3.144c2.953-1.876,5.451-3.312,7.785-4.978
			c4.422-3.157,8.897-6.267,13.067-9.738c3.177-2.645,5.961-5.789,5.923-10.512c1.004,0.597,1.955,1.545,2.397,1.348
			c0.916-0.408,1.868-1.292,2.263-2.213c1.752-4.101,3.566-8.205,4.865-12.459c1.182-3.874-0.625-7.266-3.299-10.242l0.963-0.608
			c1.738,2.232,3.477,4.465,5.471,7.025c0.964-2.134,1.85-4.096,2.926-6.474c0.416,2.893,0.764,5.31,1.207,8.387
			c-0.893-1.158-1.408-1.829-1.927-2.501c-0.231,0.011-0.462,0.021-0.694,0.032c0.107,1.572,0.215,3.144,0.368,5.402
			c-1.005-1.489-1.708-2.532-2.567-3.804c-0.426,0.558-0.981,0.945-0.987,1.34c-0.138,8.605-4.603,15.314-9.685,21.644
			c-4.281,5.334-8.974,10.335-13.385,15.566c-3.601,4.271-6.66,9.086-10.703,12.867c-3.092,2.892-7.257,4.72-11.136,6.635
			c-1.021,0.504-2.759-0.375-4.147-0.708c-1.244-0.299-2.539-0.562-3.672-1.123c-2.389-1.183-4.685-2.55-7.019-3.842
			C66.532,152.113,66.671,151.856,66.81,151.602"/>
		<path clip-path="url(#SVGID_2_)" d="M82.864,623.678c0.104,0.817,0.206,1.638,0.309,2.457c0.236,0.028,0.473,0.057,0.709,0.086
			c1.268-8.896,2.534-17.792,3.801-26.688c0.34,0.055,0.679,0.11,1.019,0.166c-1.731,11.28-3.553,22.548-5.165,33.846
			c-1.361,9.538-2.545,19.104-3.661,28.673c-0.296,2.534-0.026,5.132-0.087,7.698c-0.012,0.533-0.372,1.048-0.513,1.586
			c-0.358,1.368-0.683,2.745-1.021,4.118c0.238,0.054,0.478,0.106,0.715,0.159c0.305-0.245,0.607-0.489,0.528-0.426
			c1.157,3.987,2.329,7.984,3.476,11.99c1.186,4.147-0.99,7.624-5.181,8.576c-1.626,0.369-3.167,1.108-4.75,1.671
			c-2.386,0.847-4.737,1.822-7.06-0.301c-0.467-0.425-1.426-0.359-2.165-0.429c-4.101-0.386-7.329-2.52-10.226-5.386
			c1.037,0.513,2.086,0.996,3.104,1.542c5.571,2.988,11.21,3.991,17.153,0.946c0.975-0.5,2.4-0.062,3.461-0.468
			c2.783-1.063,4.632-5.191,3.047-7.764c-2.088-3.39-2.295-7.052-2.721-10.741c-0.252-2.188-0.977-2.904-3.457-2.415
			c-3.172,0.625-6.525,0.707-9.765,0.485c-2.466-0.168-3.306,0.579-3.618,2.91c-0.473,3.524-1.244,7.01-1.928,10.504
			c-0.15,0.768-0.46,1.504-0.695,2.254c-0.25-0.022-0.498-0.046-0.748-0.069c-0.141-2.919-0.281-5.839-0.42-8.759
			c0.187-0.021,0.373-0.042,0.56-0.063c0.188,0.346,0.379,0.69,0.905,1.652c-0.057-3.873,3.705-7.133-1.03-10.664
			c1.762,0.109,2.872,0.274,3.974,0.23c4.842-0.194,9.68-0.42,14.516-0.697c1.791-0.103,2.191-1.356,2.297-2.942
			c0.478-7.097,0.845-14.209,1.602-21.277C80.636,638.63,81.836,631.164,82.864,623.678"/>
		<path clip-path="url(#SVGID_2_)" d="M119.385,188.704c-0.077-0.855-0.164-1.529-0.19-2.206c-0.019-0.463,0.252-1.184,0.039-1.357
			c-3.869-3.16,0.059-5.688,0.754-8.385c0.543-2.114,2.121-3.972,2.607-6.09c2.409-10.493,4.609-21.034,6.477-31.718
			c-0.857,1.884-1.715,3.768-2.571,5.652l-0.716-0.275c4.24-12.107,7.252-24.463,7.762-37.329c0.251,0.008,0.501,0.017,0.751,0.025
			v16.419c0.214,0.061,0.428,0.122,0.642,0.183c0.364-0.625,0.729-1.249,1.065-1.828C136.651,126.56,121.892,186.93,119.385,188.704
			"/>
		<path clip-path="url(#SVGID_2_)" d="M42.087,259.329c0.011,0.151,0.066,0.885,0.178,2.384c1.053-1.746,1.743-2.894,2.434-4.041
			c0.097,0.02,0.193,0.04,0.289,0.059c-0.709,2.409-1.416,4.817-2.131,7.253c6.907-1.818,7.01-1.889,7.642-5.858
			c0.366,1.388,0.358,2.403,0.858,2.97c0.547,0.62,1.563,0.825,2.358,1.712c-1.235,0.14-2.522,0.107-3.694,0.457
			c-1.926,0.573-3.998,1.08-5.598,2.201c-1.534,1.076-2.744,0.932-3.111-0.495c-2.176-8.438-10.229-8.685-16.209-11.524
			c-4.317-2.05-9.236-2.871-13.927-4.076c-1.545-0.398-2.056-1.094-1.735-2.559c0.181-0.824,0.479-1.641,0.522-2.473
			c0.12-2.211,1.903-4.576-0.558-6.599c-0.202-0.167-0.135-0.72-0.116-1.09c0.33-6.428,0.672-12.857,1.639-19.298v18.94
			c0.312,0.027,0.623,0.055,0.935,0.082c2.143-4.445,2.1-9.334,2.474-14.15c2.671,8.647-2.717,16.39-2.999,24.127
			c8.557,2.96,16.74,5.792,24.699,8.546c-1.725-5.788-3.586-12.041-5.449-18.293c0.342-0.104,0.684-0.207,1.025-0.311
			c1.824,4.443,3.66,8.882,5.468,13.331c1.042,2.563,1.997,5.162,3.101,7.697C40.349,258.707,41.11,258.833,42.087,259.329"/>
		<path clip-path="url(#SVGID_2_)" d="M101.937,225.776c0.134-1.794,0.189-2.533,0.238-3.199c1.379,0.389,2.459,0.654,3.509,1.008
			c0.481,0.162,0.907,0.498,1.356,0.755c-0.322,0.519-0.525,1.213-0.987,1.524c-1.772,1.197-8.464,0.378-10.234-0.714
			c-3.005-1.854-6.235-3.339-9.339-5.04c-2.861-1.569-5.789-3.052-8.494-4.863c-7.551-5.055-13.553-11.769-19.559-18.496
			c-5.307-5.944-10.862-11.663-16.262-17.524c-0.985-1.07-1.752-2.341-2.619-3.519c0.373-0.316,0.746-0.633,1.117-0.949
			c1.725,2.114,3.447,4.227,5.17,6.34c0.178-0.171,0.354-0.343,0.53-0.514c-2.358-5.878-7.922-10.092-8.868-16.721
			c9.816,17.708,22.526,32.987,38.053,45.931c1.869,1.559,3.664,3.485,5.847,4.334c4.728,1.838,8.132,5.52,12.36,7.983
			C96.183,223.526,98.901,224.44,101.937,225.776"/>
		<path clip-path="url(#SVGID_2_)" d="M130.88,594.746c0.646-1.182,1.293-2.364,2.033-3.721c2.262,2.804,4.795,1.626,7.031,1.606
			c2.378-0.021,4.752-0.493,7.127-0.768c0.038,0.275,0.077,0.551,0.115,0.827c-2.706,0.401-5.402,0.953-8.123,1.151
			c-1.729,0.125-2.458,0.492-2.428,2.433c0.248,15.91,0.281,31.824,0.608,47.732c0.146,7.011,0.763,14.015,1.347,21.006
			c0.062,0.727,1.354,1.902,2.104,1.927c4.092,0.132,8.205,0.125,12.286-0.164c1.887-0.135,3.696-1.146,5.59-1.499
			c0.745-0.139,1.621,0.432,2.283,1.329c-4.654,1.825-9.294,3.69-13.978,5.436c-0.678,0.252-1.566-0.068-2.42-0.529
			c1.664-0.424,3.328-0.848,4.991-1.271c-0.063-0.233-0.128-0.468-0.192-0.701c-3.928-0.084-8.162-1.555-10.891,3.772
			c-0.309-0.576-0.615-1.153-0.923-1.73c1.25-0.444,2.5-0.889,3.749-1.333c-0.247-0.354-0.494-0.71-0.74-1.064
			c-4.212-1.739-4.183-5.297-4.256-8.946c-0.273-13.668-0.586-27.335-1.02-40.998c-0.233-7.388-0.65-14.772-1.176-22.145
			c-0.203-2.86-0.773-3.087-3.125-2.346L130.88,594.746z"/>
		<path clip-path="url(#SVGID_2_)" d="M173.466,681.612c-7.435,6.11-15.58,10.527-25.49,10.853
			c-0.993,0.032-1.993,0.423-2.957,0.745c-4.795,1.607-8.721-0.701-11.652-4.712c-2.791-3.819-1.727-7.256-1.21-11.041
			c0.505-3.694,0.759-7.423,1.263-11.116c0.178-1.309,0.77-2.561,1.387-3.712c-0.33,4.338-0.76,8.673-0.951,13.019
			c-0.131,2.985-0.055,5.996,0.16,8.979c0.277,3.854,2.555,6.408,6.685,7.188c-1.411-1.236-2.37-2.078-3.329-2.92
			c3.871,2.659,8.283,2.753,12.549,2.304c4.197-0.441,8.307-1.731,12.252-2.604c-0.334-1.628-0.82-2.566-0.639-3.35
			c1.243-5.34,2.626-10.646,4.534-15.936c-0.449,3.861-0.401,7.869-1.485,11.543c-1.125,3.814-1.604,3.673-0.832,6.081
			c4.682-1.922,5.279-2.728,5.192-7.66c-0.06-3.365-0.276-6.729-0.44-10.092c-0.064-1.312-0.479-2.026-2.103-1.824
			c-1.076,0.135-2.239-0.429-3.364-0.679c0.023-0.386,0.045-0.771,0.068-1.155c0.964,0,2.055-0.299,2.869,0.049
			c4.846,2.065,9.646,4.24,14.404,6.499c0.586,0.278,1.09,1.242,1.188,1.949c0.302,2.212-2.551,5.842-4.859,6.434
			c-0.707,0.18-1.396,0.425-2.094,0.641c1.666-1.55,3.449-2.994,4.964-4.68c1.539-1.714,1.058-2.781-1.067-3.61
			c-2.221-0.866-4.35-1.967-6.535-2.928c-0.612-0.269-1.283-0.404-2.024-0.63v14.202
			C171.103,682.846,172.283,682.229,173.466,681.612"/>
		<path clip-path="url(#SVGID_2_)" d="M105.861,236.827c0.185,2.869-1.249,3.624-3.804,4.422c-4.727,1.477-9.174,3.847-14.461,6.161
			c1.822,0.876,2.865,1.25,3.752,1.851c0.552,0.374,0.869,1.093,1.291,1.657c-0.642,0.451-1.271,1.262-1.928,1.284
			c-1.568,0.053-3.162-0.196-4.725-0.446c-3.602-0.578-7.212-1.126-10.768-1.923c-0.873-0.196-1.508-1.347-2.318-1.974
			c-0.727-0.562-1.482-1.202-2.332-1.471c-8.758-2.78-17.586-5.391-25.025-11.119c-0.877-0.675-1.58-1.574-1.978-2.918
			c0.401,0.058,0.937-0.031,1.188,0.195c7.453,6.699,16.805,9.448,26.102,11.886c15.583,4.086,11.658,3.036,26.916-3.622
			C100.507,239.617,103.134,238.178,105.861,236.827"/>
		<path clip-path="url(#SVGID_2_)" d="M50.976,588.034c3.68,2.45,7.39,4.854,11.028,7.363c4.028,2.776,8.251,3.016,12.671,1.183
			c2.477-1.027,4.92-2.134,7.379-3.204c0.104,0.26,0.207,0.519,0.311,0.778c-3.912,1.517-7.824,3.033-11.777,4.565
			c0.26,0.153,0.723,0.429,1.186,0.703c-0.008,0.179-0.016,0.357-0.024,0.535c-1.2-0.131-2.433-0.134-3.593-0.426
			c-1.354-0.341-2.693-0.835-3.947-1.448c-1.17-0.572-2.215-1.397-3.324-2.095c-1.189-0.747-2.395-1.469-3.586-2.213
			c-1.087-0.68-2.164-1.376-3.561-1.925c0.877,3.253-1.312,6.858,1.572,9.772c0.201,0.202,0.088,0.724,0.107,1.096
			c0.792,15.616,1.604,31.231,2.354,46.85c0.139,2.889,0.02,5.79-0.44,8.702c-0.737-13.736-1.478-27.473-2.215-41.21
			c-0.261-0.022-0.519-0.045-0.778-0.068c-0.223,0.495-0.445,0.99-0.925,2.058c-0.576-6.917-1.084-13.312-1.649-19.702
			c-0.271-3.057-0.678-6.101-0.957-9.157c-0.065-0.711,0.133-1.447,0.211-2.172L50.976,588.034z"/>
		<path clip-path="url(#SVGID_2_)" d="M58.778,362.812c1.274-21.155,2.533-42.075,3.844-63.824
			c-1.043,1.195-1.506,1.724-1.967,2.253c-0.18-0.061-0.358-0.123-0.537-0.184c0.848-6.484,1.695-12.968,2.543-19.452
			c0.177-0.031,0.353-0.063,0.529-0.095c0.491,2.505,1.514,5.035,1.392,7.508c-0.991,19.931-2.099,39.858-3.413,59.771
			C60.864,353.404,59.632,357.96,58.778,362.812"/>
		<path clip-path="url(#SVGID_2_)" d="M116.813,355.131c-0.148,4.15-0.846,8.368-0.35,12.439c2.26,18.512,4.705,37.004,7.373,55.461
			c2.479,17.151,5.422,34.236,7.955,51.381c0.791,5.362,0.908,10.824,0.953,16.299c-0.513-3.156-1.086-6.304-1.525-9.47
			c-1.635-11.788-3.198-23.586-4.84-35.372c-3.375-24.217-6.834-48.423-10.133-72.649c-0.709-5.192-0.976-10.452-1.225-15.691
			c-0.036-0.766,1.167-1.59,1.796-2.388L116.813,355.131z"/>
		<path clip-path="url(#SVGID_2_)" d="M74.524,291.804c2.51,11.76,2.042,23.173,2.348,34.538
			c0.715,26.513,1.502,53.023,2.256,79.535c0.026,0.966,0.002,1.933-0.597,2.98c-0.095-0.288-0.266-0.574-0.274-0.865
			c-0.592-21.449-1.065-42.903-1.787-64.349c-0.461-13.732-1.315-27.451-1.924-41.178C74.398,299.101,74.524,295.724,74.524,291.804
			"/>
		<path clip-path="url(#SVGID_2_)" d="M141.31,409.604l10.477,93.618l-1.256,0.132c-1.513-15.634-2.816-31.291-4.598-46.895
			c-1.777-15.584-4.033-31.11-6.079-46.663C140.339,409.733,140.825,409.669,141.31,409.604"/>
		<path clip-path="url(#SVGID_2_)" d="M179.371,304.93c7.362,31.102,12.774,62.571,17.333,94.202
			C190.927,367.73,185.149,336.331,179.371,304.93"/>
		<path clip-path="url(#SVGID_2_)" fill="#FFFFFF" d="M173.466,681.612c-1.183,0.617-2.363,1.233-3.519,1.836v-14.202
			c0.741,0.226,1.412,0.361,2.024,0.63c2.186,0.961,4.314,2.062,6.535,2.928c2.125,0.829,2.606,1.896,1.067,3.61
			c-1.515,1.686-3.298,3.13-4.964,4.68C174.229,681.267,173.847,681.439,173.466,681.612"/>
		<path clip-path="url(#SVGID_2_)" d="M68.669,218.428c-0.703,3.161-1.322,5.95-1.94,8.739c-0.427-0.094-0.853-0.189-1.28-0.283
			c0.473-1.739,0.646-3.642,1.485-5.182c1.589-2.918,0.688-4.695-1.742-6.587c-4.417-3.437-8.61-7.161-12.881-10.785
			c-0.374-0.317-0.625-0.778-0.64-1.465c2.877,2.297,5.754,4.595,9.067,7.24c-0.132-1.262-0.206-1.979-0.312-2.98
			c3.791,6.411,9.957,9.571,15.615,13.343c2.727,1.817,5.469,3.618,8.102,5.566c0.793,0.587,1.238,1.644,1.445,2.803
			C81.247,223.471,74.196,222.782,68.669,218.428"/>
		<path clip-path="url(#SVGID_2_)" d="M100.769,262.569c-0.646-0.477-1.205-0.889-2.414-1.781c1.617,0.401,2.461,0.672,3.326,0.809
			c0.891,0.141,1.803,0.151,2.863-0.213c-1.043-0.66-2.085-1.321-3.127-1.981c0.064-0.164,0.128-0.328,0.191-0.492
			c3.182,0.671,6.363,1.342,9.545,2.013c-0.008,0.245-0.014,0.489-0.021,0.733c-4.185-0.007-7.487,2.728-11.141,3.665
			c-10.954,2.811-21.791,7.186-33.523,5.193c-0.06-0.01-0.102-0.125-0.676-0.875C78.24,270.027,89.633,267.358,100.769,262.569"/>
		<path clip-path="url(#SVGID_2_)" d="M130.763,237.957v1.792c5.423-2.26,19.896-34.206,23.201-49.868
			c-0.567,3.247-0.835,6.582-1.754,9.726c-3.988,13.642-9.768,26.503-17.445,38.483c-0.7,1.093-1.523,2.196-2.538,2.967
			c-0.696,0.529-1.823,0.491-2.76,0.706c0.138-0.909,0.229-1.828,0.438-2.721C129.979,238.724,130.341,238.473,130.763,237.957"/>
		<path clip-path="url(#SVGID_2_)" d="M39.44,433.29c0.53-5.861,1.151-11.717,1.568-17.586c0.689-9.707,1.239-19.423,1.871-29.134
			c0.072-1.102,0.298-2.192,0.648-3.27c-1.235,20.578,0.012,41.283-3.203,61.744c-0.285,0.016-0.569,0.03-0.854,0.045v-6.245
			c0.401-0.466,1.112-0.905,1.156-1.402c0.476-5.435,0.846-10.877,1.246-16.317c-0.229-0.019-0.461-0.038-0.69-0.057
			c-0.096,0.789-0.173,1.581-0.287,2.368C40.417,426.721,39.927,430.005,39.44,433.29"/>
		<path clip-path="url(#SVGID_2_)" d="M88.399,559.679c-0.758-16.888,1.676-33.577,3.763-50.286
			c-0.914,16.767-1.827,33.533-2.741,50.299C89.08,559.688,88.739,559.684,88.399,559.679"/>
		<path clip-path="url(#SVGID_2_)" d="M126.187,593.545c-0.27-2.729-0.408-5.475-0.84-8.176c-0.462-2.88-1.451-5.688-1.767-8.575
			c-0.851-7.754-1.466-15.534-2.175-23.304c0.252-0.021,0.504-0.041,0.755-0.062c1.677,13.342,3.353,26.683,5.028,40.024
			C126.854,593.482,126.521,593.514,126.187,593.545"/>
		<path clip-path="url(#SVGID_2_)" d="M55.83,264.575c3.274,0.684,6.063,1.536,8.909,1.807c7.109,0.676,13.787-1.231,20.398-3.669
			c2.303-0.85,4.906-0.884,7.403-1.132c-10.28,3.184-20.155,8.467-31.524,6.025C59.056,267.184,56.787,267.097,55.83,264.575"/>
		<path clip-path="url(#SVGID_2_)" d="M157.783,263.189c1.405,6.327,2.761,12.666,4.251,18.973c0.343,1.449,1.145,2.789,1.464,4.287
			c-2.698-1.382-8.106-13.967-7.423-16.557c0.062-0.242,0.839-0.295,1.055-0.363c0.229-2.146,0.452-4.256,0.686-6.376
			C157.824,263.144,157.783,263.189,157.783,263.189"/>
		<path clip-path="url(#SVGID_2_)" d="M144.14,239.19c-0.705,7.062-6.662,9.206-10.498,13.078c-0.441,0.446-1.583,0.202-2.784,0.315
			c3.079-2.523,5.718-4.685,8.356-6.846c-0.174-0.228-0.348-0.456-0.523-0.684c-1.097,0.889-2.177,1.801-3.297,2.661
			c-1.042,0.801-2.126,1.547-3.191,2.317c-0.223-0.312-0.445-0.624-0.668-0.936C135.626,245.879,139.72,242.664,144.14,239.19"/>
		<path clip-path="url(#SVGID_2_)" d="M215.456,568.047c-1.182-12.943-2.363-25.888-3.545-38.831
			c0.191-0.017,0.382-0.034,0.572-0.052l4.271,38.76C216.321,567.965,215.89,568.006,215.456,568.047"/>
		<path clip-path="url(#SVGID_2_)" d="M116.12,135.734c-3.006,5.345-6.014,10.691-9.02,16.037c-0.227-0.12-0.453-0.239-0.68-0.359
			c1.062-1.828,2.125-3.657,3.238-5.576c-2.641,2.421-5.168,4.739-7.695,7.057c-0.074-0.079-0.148-0.159-0.223-0.238
			c4.566-5.792,9.133-11.583,13.699-17.375C115.667,135.432,115.894,135.583,116.12,135.734"/>
		<path clip-path="url(#SVGID_2_)" d="M14.565,217.312c5.35,4.305,10.723,8.58,16.016,12.954c0.629,0.52,0.805,1.585,1.192,2.397
			c-0.847-0.142-1.946,0.007-2.499-0.473c-4.495-3.904-8.921-7.891-13.28-11.947c-0.804-0.748-1.211-1.923-1.802-2.9
			C14.316,217.333,14.441,217.322,14.565,217.312"/>
		<path clip-path="url(#SVGID_2_)" d="M15.629,107.882c1.792,5.118,0.667,19.433-2.433,24.773c0-0.614-0.076-1.24,0.014-1.841
			c0.506-3.416,1.304-6.81,1.521-10.243c0.269-4.215,0.064-8.461,0.064-12.694C15.073,107.879,15.353,107.881,15.629,107.882"/>
		<path clip-path="url(#SVGID_2_)" d="M110.759,599.544c-3.729-0.81-7.436-1.734-11.188-2.398
			c-4.735-0.838-9.508-1.463-13.644-2.086c0.771-0.618,3.629-0.994,7.535-0.276c4.723,0.869,9.401,1.998,14.137,2.782
			c2.384,0.394,4.854,0.233,7.279,0.401c1.166,0.081,2.32,0.342,3.856,0.579c-2.981,0.395-5.511,0.728-8.038,1.061
			C110.697,599.606,110.759,599.544,110.759,599.544"/>
		<path clip-path="url(#SVGID_2_)" d="M49.476,570.094c0.064-10.398-0.402-20.798,1.139-31.193v31.195
			C50.233,570.096,49.854,570.095,49.476,570.094"/>
		<path clip-path="url(#SVGID_2_)" d="M116.857,502.552c1.278,11.87,2.681,24.875,4.082,37.881
			c-0.229,0.021-0.459,0.043-0.688,0.064C119.734,527.398,115.589,514.624,116.857,502.552"/>
		<path clip-path="url(#SVGID_2_)" d="M51.017,588.02c-3.389,0.216-6.777,0.433-10.166,0.649c-0.049,0.28-0.097,0.56-0.145,0.839
			c0.717,0.777,1.434,1.554,2.148,2.331c-0.076,0.132-0.152,0.264-0.229,0.395c-2.375-1.372-4.621-3.095-7.159-4.018
			c-2.546-0.926-5.382-1.056-8.354-1.581c2.908-0.794,5.802-1.166,8.384,0.328c2.403,1.393,4.612,1.373,7.229,0.982
			c2.674-0.398,5.472,0.035,8.232,0.097C50.976,588.034,51.017,588.02,51.017,588.02"/>
		<path clip-path="url(#SVGID_2_)" d="M55.475,672.186c-1.585,3.731-3.171,7.464-4.87,11.461c-0.855-0.329-1.718-0.66-2.863-1.101
			c2.352-3.875,4.512-7.436,6.674-10.997C54.769,671.761,55.122,671.974,55.475,672.186"/>
		<path clip-path="url(#SVGID_2_)" d="M165.36,536.636c-0.662-6.135-1.373-12.264-1.969-18.405
			c-0.404-4.177-0.644-8.369-0.957-12.556l0.758-0.053c0.703,10.368,1.407,20.734,2.11,31.101L165.36,536.636z"/>
		<path clip-path="url(#SVGID_2_)" d="M43.793,140.691c3.937,6.698,10.046,11.231,15.974,15.925c1.631,1.294,3.52,2.266,5.291,3.386
			l0.053-0.057c-9.293-4.009-16.943-9.823-21.252-19.317C43.86,140.626,43.793,140.691,43.793,140.691"/>
		<path clip-path="url(#SVGID_2_)" d="M130.874,594.75c-2.772,1.933-5.375,4.205-8.36,5.714c-3.929,1.984-8.054,2.133-11.755-0.921
			c0,0.001-0.062,0.062-0.063,0.063c0.183,0.014,0.394-0.026,0.552,0.047c5.137,2.409,9.605,0.3,14.051-2.05
			c1.847-0.978,3.72-1.906,5.58-2.856C130.88,594.746,130.874,594.75,130.874,594.75"/>
		<path clip-path="url(#SVGID_2_)" d="M65.057,160.002c5.908,1.37,11.825,2.7,17.719,4.127c2.521,0.611,4.992,1.424,7.401,2.457
			c-8.357-2.214-17.159-2.696-25.062-6.645C65.11,159.945,65.057,160.002,65.057,160.002"/>
		<path clip-path="url(#SVGID_2_)" d="M116.819,355.141c0.26-2.382,0.408-4.783,0.799-7.144c1.436-8.686,2.951-17.359,4.955-25.959
			c-0.654,4.021-1.265,8.051-1.973,12.063c-1.236,7.006-2.531,14.002-3.795,21.017C116.813,355.131,116.819,355.141,116.819,355.141
			"/>
		<path clip-path="url(#SVGID_2_)" d="M61.903,130.253c-5.498-1.561-10.49-3.88-13.677-8.803
			C52.786,124.384,57.345,127.318,61.903,130.253"/>
		<path clip-path="url(#SVGID_2_)" d="M165.304,536.723c0.222-0.301,0.443-0.602,0.821-1.115c0.864,7.711,1.704,15.226,2.546,22.741
			c-0.229,0.029-0.459,0.06-0.688,0.09c-0.872-7.271-1.744-14.542-2.619-21.808C165.361,536.636,165.304,536.723,165.304,536.723"/>
		<path clip-path="url(#SVGID_2_)" d="M16.622,209.478l14.549,10.803C25.145,218.239,20.309,214.57,16.622,209.478"/>
		<path clip-path="url(#SVGID_2_)" d="M136.143,454.226v23.449c-0.41-0.016-0.819-0.03-1.229-0.046
			C135.331,469.677,135.749,461.725,136.143,454.226"/>
		<path clip-path="url(#SVGID_2_)" d="M58.058,217.082c-0.479,1.239-0.922,2.39-1.365,3.541c-0.194-0.024-0.389-0.049-0.582-0.073
			c-0.062-0.699-0.122-1.399-0.192-2.208c-0.243,0-0.58-0.104-0.709,0.016c-1.382,1.284-2.323-0.326-1.979-0.806
			c1.906-2.654-0.801-3.92-1.433-5.775c-0.118-0.345-0.295-0.669,0.007-1.383c0.67,0.788,1.442,1.512,1.989,2.379
			c0.845,1.341,1.47,2.823,2.345,4.14C56.325,217.194,57.19,217.023,58.058,217.082"/>
		<path clip-path="url(#SVGID_2_)" d="M111.154,454.041c0.237,3.894,0.476,7.787,0.714,11.681l-1.096,0.073
			c-2.376-3.75,1.16-7.899-0.68-11.685C110.446,454.087,110.8,454.063,111.154,454.041"/>
		<path clip-path="url(#SVGID_2_)" d="M152.748,117.544c1.894,2.463,1.168,8.434-2.024,12.699
			C151.446,125.7,152.101,121.601,152.748,117.544"/>
		<path clip-path="url(#SVGID_2_)" fill="#FFFFFF" d="M39.44,433.29c0.486-3.285,0.977-6.569,1.455-9.854
			c0.114-0.787,0.191-1.579,0.287-2.368c0.229,0.019,0.461,0.038,0.69,0.057c-0.4,5.44-0.771,10.883-1.246,16.317
			c-0.044,0.497-0.755,0.937-1.156,1.402C39.461,436.993,39.45,435.142,39.44,433.29"/>
		<path clip-path="url(#SVGID_2_)" d="M186.503,428.064c-0.519-5.22-1.037-10.438-1.558-15.657c0.231-0.024,0.464-0.048,0.696-0.071
			c0.537,5.204,1.076,10.408,1.615,15.612C187.005,427.987,186.755,428.025,186.503,428.064"/>
		<path clip-path="url(#SVGID_2_)" d="M122.681,233.395c-1.083,3.811-2.378,7.646-5.777,10.146
			c-0.225-0.136-0.451-0.272-0.676-0.409C118.379,239.886,120.53,236.641,122.681,233.395"/>
		<path clip-path="url(#SVGID_2_)" d="M57.597,691.86c-2.759-2.175-5.52-4.35-8.277-6.525c0.141-0.258,0.281-0.517,0.424-0.774
			c0.893,0.439,1.929,0.717,2.651,1.35c1.954,1.711,3.776,3.573,5.651,5.376C57.896,691.478,57.747,691.669,57.597,691.86"/>
		<path clip-path="url(#SVGID_2_)" d="M82.23,670.137l2.498,8.977l-0.258,0.182c-0.582-0.96-1.163-1.921-1.874-3.093
			c-0.383,0.544-0.639,0.908-0.907,1.291v-7.203C81.87,670.239,82.05,670.188,82.23,670.137"/>
		<path clip-path="url(#SVGID_2_)" d="M207.302,443.522c-1.164-5.204-2.328-10.408-3.494-15.611
			c0.354-0.069,0.709-0.138,1.062-0.206c0.81,5.272,1.62,10.546,2.431,15.821C207.298,443.531,207.302,443.522,207.302,443.522"/>
		<path clip-path="url(#SVGID_2_)" d="M69.476,669.291c-4.338,1.312-7.53,0.519-9.773-2.255
			C62.925,667.779,65.808,668.444,69.476,669.291"/>
		<path clip-path="url(#SVGID_2_)" d="M194.073,525.345c0.231-3.779,0.465-7.56,0.696-11.339c0.13,0.003,0.261,0.007,0.392,0.01
			v11.337C194.798,525.35,194.436,525.348,194.073,525.345"/>
		<path clip-path="url(#SVGID_2_)" d="M28.765,537.236c0.289-5.283,0.579-10.566,0.868-15.851c0.024,0.011,0.049,0.021,0.073,0.03
			V537.3C29.393,537.279,29.079,537.258,28.765,537.236"/>
		<path clip-path="url(#SVGID_2_)" d="M145.413,225.717c2.166-4.377,4.33-8.753,6.383-12.905
			C150.894,217.574,148.12,221.706,145.413,225.717"/>
		<path clip-path="url(#SVGID_2_)" d="M66.579,666.532c3.113,0.65,6.229,1.301,9.342,1.951c-0.066,0.354-0.132,0.71-0.197,1.064
			c-3.095-0.677-6.188-1.353-9.281-2.029C66.488,667.189,66.534,666.861,66.579,666.532"/>
		<path clip-path="url(#SVGID_2_)" d="M221.097,578.778c1.896-0.605,3.789-1.212,5.74-1.836c-0.212-1.302-0.355-2.19-0.5-3.079
			l0.662-0.085c0.121,1.288,0.788,3.344,0.262,3.718c-1.563,1.111-3.593,1.574-5.465,2.217c-0.087,0.029-0.419-0.654-0.637-1.005
			C221.159,578.709,221.097,578.778,221.097,578.778"/>
		<path clip-path="url(#SVGID_2_)" d="M85.567,367.577c0.351-3.379,0.701-6.757,1.052-10.136c0.18,0.019,0.36,0.037,0.54,0.055
			c-0.346,3.375-0.691,6.75-1.036,10.125C85.938,367.606,85.753,367.592,85.567,367.577"/>
		<path clip-path="url(#SVGID_2_)" fill="#FFFFFF" d="M86.261,72.166C85,73.04,84.153,73.094,83.63,71.294
			c-1.775-6.105-3.467-12.247-5.604-18.229c-1.047-2.932-3.031-5.524-4.534-8.301c-2.537-4.688-5.075-9.377-7.497-14.125
			c-0.469-0.915-0.338-2.118-0.622-3.15c-0.138-0.497-0.595-0.905-0.908-1.354c-0.332,0.381-0.946,0.76-0.95,1.143
			c-0.037,3.799-0.065,7.603,0.105,11.397c0.076,1.696,1.281,3.418-0.518,4.941c-0.197,0.166-0.129,1.023,0.113,1.272
			c3.924,4.052,4.785,9.505,6.445,14.515c2.051,6.195,3.513,12.586,5.227,18.883c-4.267,1.665-4.205,1.306-6.037-1.577
			c-5.854-9.203-4.84-19.831-6.677-29.862c-0.3-1.642-0.329-3.333-0.485-5.02c-3.263,0.693-2.299-2.16-3.109-3.57
			c-1.746,4.432-1.221,34.517,0.738,37.298V63.946v-11.41c0.244-0.028,0.49-0.056,0.736-0.084c0.369,1.936,0.807,3.862,1.098,5.81
			c0.744,5.01,1.425,10.029,2.125,15.045c0.304,2.175-1.275,4.837-3.359,5.524c-1.863,0.614-2.811-0.367-3.281-2.066
			c-0.746-2.7-1.41-5.429-2.342-8.064c-0.218-0.618-1.329-1.205-2.089-1.295c-2.99-0.357-3.567-1.019-2.819-3.881
			c0.422-1.611,0.954-3.194,1.617-5.386c0.525,1.139,0.799,1.733,1.073,2.326c0.205-0.001,0.409-0.002,0.616-0.003
			c0.254-4.672,0.49-9.346,0.769-14.017c0.274-4.609,0.593-9.215,0.892-13.821l-0.916-0.187c-0.682,1.594-1.498,3.148-1.976,4.8
			c-0.179,0.622,0.448,1.467,0.675,2.219c0.195,0.644,0.547,1.322,0.48,1.949c-0.471,4.476-0.877,8.97-1.652,13.397
			c-0.23,1.316-1.742,2.354-2.371,3.662c-1.334,2.781-2.439,5.67-3.699,8.489c-1.658,3.711-3.373,7.396-5.069,11.104
			c-1.486-1.904-1.515-2.474-0.313-4.925c3.383-6.902,6.76-13.805,10.127-20.715c0.105-0.219,0.059-0.513,0.084-0.771
			c-0.236-0.151-0.473-0.302-0.709-0.453c-1.014,1.591-2.101,3.14-3.023,4.783c-1.055,1.878-1.954,3.844-2.94,5.761
			c-0.942,1.832-1.919,3.647-2.864,5.477c-0.932,1.807-1.843,3.625-2.853,5.616c-2.792-1.763-1.567-3.747-0.83-5.513
			c2.304-5.518,4.722-10.987,7.082-16.482c1.295-3.016,2.651-6.011,3.801-9.082c0.587-1.565,0.778-3.277,1.149-4.923l-0.812-0.341
			c-0.631,0.564-1.261,1.129-1.891,1.692c-0.604-3.365,1.094-6.948,4.669-9.613c2.331-1.738,4.791-3.303,7.093-5.076
			c1.516-1.167,2.852-2.566,4.268-3.861c-0.205-0.282-0.41-0.564-0.614-0.846c-3.233,1.996-6.466,3.993-9.698,5.99
			c-0.124-0.146-0.248-0.292-0.371-0.438c1.61-1.743,3.219-3.487,4.829-5.23c-0.231-0.207-0.463-0.414-0.694-0.621
			c-3.871,2.999-7.742,5.999-11.612,8.999c-0.116-0.132-0.231-0.265-0.347-0.398l10.515-10.782
			c-0.119-0.191-0.238-0.383-0.357-0.574c-0.752,0.343-1.651,0.524-2.231,1.055c-4.771,4.364-9.576,8.698-14.174,13.244
			c-2.11,2.088,1.056,2.802,1.701,4.456c-2.695,3.524-7.849,5.729-6.842,12.234c4.219-3.688,6.676-8.608,11.092-11.684
			c-2.307,3.89-4.605,7.786-6.924,11.67c-0.818,1.368-1.869,2.628-2.492,4.077c-1.443,3.353-4.371,3.817-8.19,4.243
			c0.368-3.125,0.477-6.151,1.128-9.057c0.961-4.294,3.591-8.198,2.58-12.95c-0.465-2.184,1.371-3.496,2.6-5.061
			c3.314-4.231,6.422-8.626,9.645-12.929c0.779-1.041,1.695-1.979,2.758-3.206c1.544,2.386,3.164,1.357,4.759,0.259
			c1.7-1.17,3.569-2.179,5.019-3.607c2.15-2.117,4.135-1.753,6.237-0.2c2.181,1.612,4.132,3.525,7.255,1.599
			c0.773-0.477,2.418,0.459,3.756,1.406c-2.16,0.917-4.319,1.833-6.889,2.923c0.887,1.166,1.512,1.987,2.044,2.687
			c-1.178,0.263-2.399,0.537-3.229,0.723c3.838,4.184,7.449,8.12,11.059,12.057c-3.531,0.001-6.034-1.173-6.536-5.099
			c-2.259,3.64,3.259,11.649,11.517,16.858c-1.875-2.632-3.752-5.264-5.627-7.896c0.106-0.143,0.213-0.287,0.319-0.43
			c3.082,2.326,6.163,4.652,9.759,7.366c-0.474-1.518-0.781-2.508-1.088-3.496c1.678-0.135,1.678-0.135,6.611,7.184
			c0.16-0.427,0.293-0.688,0.355-0.966c0.076-0.352,0.096-0.718,0.258-2.028c3.604,5.332,6.785,10.037,9.967,14.742
			c0.378-0.258,0.756-0.516,1.134-0.774c-1.978-3.318-3.953-6.636-5.929-9.955l-0.057,0.066c0.535,0.106,1.069,0.213,2.252,0.447
			c-0.828-2.245-1.539-4.169-2.25-6.093c0.101-0.123,0.201-0.246,0.301-0.369c0.689,0.712,1.621,1.309,2.029,2.157
			c2.139,4.449,4.473,8.851,6.047,13.503c0.692,2.043,0.162,4.782-0.569,6.95c-0.878,2.604-2.562,4.935-3.97,7.516
			c-3.721-6.533-7.338-12.879-11.059-19.408c-1.667,1.06-3.492,1.875-2.529,4.417l0.041-0.058l-4.471-7.841
			c-0.256,0.043-0.51,0.087-0.765,0.131c0.177,1.028,0.207,2.11,0.555,3.076c2.212,6.131,4.458,12.249,6.777,18.339
			c0.644,1.693,0.631,3.065-0.961,4.158L86.261,72.166 M88.714,45.504c-0.271-0.045-0.541-0.09-0.811-0.135
			c0.172,1.054,0.021,2.332,0.57,3.127c3.395,4.923,6.94,9.742,10.461,14.577c0.229,0.316,0.662,0.482,1,0.718
			c0.133-1.213-0.102-2.185-0.629-2.955c-2.535-3.698-5.162-7.334-7.73-11.01C90.585,48.411,89.666,46.946,88.714,45.504
			 M36.812,27.354c2.541,0.095,8.729-6.043,8.905-9.137C42.666,21.349,39.709,24.381,36.812,27.354"/>
		<path clip-path="url(#SVGID_2_)" fill="#FFFFFF" d="M79.157,76.46c-0.941-3.346-1.862-6.644-2.801-9.937
			c-0.326-1.148-0.031-2.899-2.26-2.282c-0.225,0.062-0.863-0.797-1.068-1.323c-2.229-5.754-4.643-11.454-6.511-17.326
			c-1.015-3.188-1.078-6.679-1.118-10.165c1.873,2.971,3.821,5.898,5.606,8.921c5.187,8.787,8.208,18.431,10.987,28.164
			C82.616,74.687,81.786,75.901,79.157,76.46"/>
		<path clip-path="url(#SVGID_2_)" fill="#FFFFFF" d="M71.488,23.451c2.89-1.354,5.323-1.423,7.072,0.354
			c3.577,3.634,6.888,7.539,10.169,11.45c0.488,0.581,0.213,1.801,0.291,2.725c-0.781-0.401-1.842-0.601-2.299-1.237
			c-2.996-4.173-6.779-7.415-11.135-10.081C74.224,25.828,73.048,24.687,71.488,23.451"/>
		<path clip-path="url(#SVGID_2_)" fill="#FFFFFF" d="M63.817,78.289c0.525,1.602,1.121,3.42,1.738,5.304
			c-2.509,1.492-9.82,1.804-13.855,0.327c0.639-1.689,1.277-3.374,2.229-5.888c0.626,2.284,1.018,3.712,1.41,5.14l0.732-0.061
			c0.271-0.91,0.541-1.821,0.586-1.973C59.3,80.086,61.437,79.236,63.817,78.289"/>
		<path clip-path="url(#SVGID_2_)" fill="#FFFFFF" d="M86.261,72.166l0.021,0.002c1.918,0.084,2.606,1.201,1.903,2.949
			c-0.838,2.085-1.601,4.2-2.398,6.301c-0.064,0.17-0.138,0.468-0.23,0.478c-2.097,0.215-4.201,0.568-6.293,0.499
			c-0.779-0.026-1.526-1.052-2.112-1.892c1.541,0.589,2.545,1.111,2.716-1.314c0.072-1.042,1.184-2.068,2.003-2.928
			c0.106-0.11,1.312,0.83,2.217,1.42C84.78,75.922,85.521,74.043,86.261,72.166"/>
		<path clip-path="url(#SVGID_2_)" fill="#FFFFFF" d="M94.927,118.826c-1.011,0.286-1.941,0.548-2.988,0.843
			c-1.672,3.655-2.783,4.556-6.887,5.07c5.151-4.714,9.948-9.104,14.879-13.616c0.218,3.95-1.949,7.91-5.121,9.404
			C94.859,119.818,94.9,119.214,94.927,118.826"/>
		<path clip-path="url(#SVGID_2_)" fill="#FFFFFF" d="M78.327,18.295c6.045,0.066,13.904,7.226,14.07,13.123
			C87.718,27.053,82.884,22.545,78.327,18.295"/>
		<path clip-path="url(#SVGID_2_)" fill="#FFFFFF" d="M44.642,43.255c-3.004,7.594-5.752,15.241-9.756,22.28
			c-0.443-0.214-0.887-0.426-1.33-0.639C36.42,57.265,40.113,50.025,44.642,43.255"/>
		<path clip-path="url(#SVGID_2_)" fill="#FFFFFF" d="M97.265,78.494c1.895-2.312,2.586-4.345,2.276-7.092
			c-0.228-2.015,1.449-4.245,2.453-6.833C104.193,69.534,101.144,78.774,97.265,78.494"/>
		<path clip-path="url(#SVGID_2_)" fill="#FFFFFF" d="M42.05,41.974c-2.674,5.605-5.348,11.21-8.283,17.364
			C33.033,56.195,37.224,47.467,42.05,41.974"/>
		<path clip-path="url(#SVGID_2_)" fill="#FFFFFF" d="M52.281,78.963c-0.367-2.713-0.888-5.424-1.015-8.153
			c-0.041-0.887,0.947-1.822,1.656-3.068C55.007,71.565,54.503,76.333,52.281,78.963"/>
		<path clip-path="url(#SVGID_2_)" fill="#FFFFFF" d="M85.104,54.362c2.306,4.814,4.927,9.506,6.331,15.13
			c-2.208-0.945-6.387-11.814-6.296-15.178C85.146,54.304,85.104,54.362,85.104,54.362"/>
		<path clip-path="url(#SVGID_2_)" fill="#FFFFFF" d="M88.997,56.186c2.172,3.801,4.346,7.603,6.519,11.404
			c-0.22,0.235-0.438,0.471-0.659,0.706c-0.642-0.366-1.626-0.579-1.871-1.124c-1.591-3.534-3.021-7.141-4.504-10.725
			C88.653,56.359,88.825,56.272,88.997,56.186"/>
		<path clip-path="url(#SVGID_2_)" fill="#FFFFFF" d="M42.374,80.481c1.514-2.819,3.029-5.639,4.543-8.458
			c0.34,0.182,0.68,0.364,1.02,0.546c-1.227,2.973-1.916,6.232-4.399,8.535L42.374,80.481z"/>
		<path clip-path="url(#SVGID_2_)" fill="#FFFFFF" d="M73.366,82.203c-2.012,0.358-4.177,1.117-4.414,0.721
			c-0.929-1.554-1.251-3.471-1.844-5.402C69.211,79.095,70.945,80.391,73.366,82.203"/>
		<path clip-path="url(#SVGID_2_)" fill="#FFFFFF" d="M32.479,83.104c-0.661-1.828-1.32-3.655-2.152-5.953
			c4.237,1.269,4.449,1.797,3.006,5.706C33.048,82.939,32.765,83.021,32.479,83.104"/>
		<path clip-path="url(#SVGID_2_)" fill="#FFFFFF" d="M95.489,31.246c0.905,2.126,1.811,4.252,2.715,6.378
			c-0.322,0.131-0.646,0.263-0.969,0.394c-3.091-1.27-1.725-4.356-2.533-6.556C94.965,31.39,95.228,31.317,95.489,31.246"/>
		<path clip-path="url(#SVGID_2_)" fill="#FFFFFF" d="M50.046,76.281c-0.223,1.901-0.445,3.803-0.672,5.729
			C46.765,81.42,46.843,80.371,50.046,76.281"/>
		<path clip-path="url(#SVGID_2_)" fill="#FFFFFF" d="M106.351,105.498c2.455-2.167,4.912-4.333,7.367-6.5
			c0.036,0.033,0.073,0.066,0.111,0.099l-6.648,7.206C106.904,106.034,106.627,105.766,106.351,105.498"/>
		<path clip-path="url(#SVGID_2_)" fill="#FFFFFF" d="M101.368,114.367c1.98-1.868,3.961-3.735,6.041-5.696
			c-1.922,2.141-3.744,4.169-5.565,6.197C101.685,114.701,101.526,114.534,101.368,114.367"/>
		<path clip-path="url(#SVGID_2_)" fill="#FFFFFF" d="M94.028,74.906c-1.365-1.696-2.33-2.895-3.457-4.295
			C94.491,70.482,95.008,71.027,94.028,74.906"/>
		<path clip-path="url(#SVGID_2_)" fill="#FFFFFF" d="M94.909,45.177c-1.525-2.093-3.052-4.187-4.578-6.28
			c0.354-0.21,0.709-0.42,1.064-0.63c1.85,1.929,3.246,4.114,3.462,6.97C94.853,45.243,94.909,45.177,94.909,45.177"/>
		<path clip-path="url(#SVGID_2_)" fill="#FFFFFF" d="M83.868,119.998c1.361,3.433-0.904,3.526-2.201,4.362
			c-0.252-0.188-0.504-0.376-0.756-0.563C81.774,122.688,82.638,121.581,83.868,119.998"/>
		<path clip-path="url(#SVGID_2_)" fill="#FFFFFF" d="M27.296,135.153c0.877,3.049,1.754,6.097,2.629,9.146
			c-0.233,0.069-0.469,0.139-0.703,0.208c-0.954-3.042-1.907-6.086-2.862-9.129C26.671,135.303,26.984,135.228,27.296,135.153"/>
		<path clip-path="url(#SVGID_2_)" fill="#FFFFFF" d="M172.822,304.446l1.644,10.784c-0.197,0.039-0.395,0.078-0.593,0.117
			l-2.386-10.734C171.933,304.557,172.378,304.501,172.822,304.446"/>
		<path clip-path="url(#SVGID_2_)" d="M88.714,45.505c0.952,1.442,1.872,2.906,2.861,4.322c2.568,3.676,5.195,7.311,7.73,11.01
			c0.528,0.77,0.762,1.741,0.629,2.955c-0.338-0.236-0.771-0.403-1-0.718c-3.521-4.836-7.066-9.654-10.462-14.577
			c-0.549-0.796-0.397-2.073-0.569-3.128C88.173,45.415,88.442,45.46,88.714,45.505"/>
		<path clip-path="url(#SVGID_2_)" d="M36.812,27.354c2.897-2.973,5.854-6.006,8.905-9.137
			C45.541,21.312,39.353,27.45,36.812,27.354"/>
	</g>
</g>
</svg>
