<?xml version="1.0" encoding="utf-8"?>
<!-- Generator: Adobe Illustrator 15.0.0, SVG Export Plug-In . SVG Version: 6.00 Build 0)  -->
<!DOCTYPE svg PUBLIC "-//W3C//DTD SVG 1.1//EN" "http://www.w3.org/Graphics/SVG/1.1/DTD/svg11.dtd">
<svg version="1.1" id="Layer_1" xmlns="http://www.w3.org/2000/svg" xmlns:xlink="http://www.w3.org/1999/xlink" x="0px" y="0px"
	 width="480.044px" height="640px" viewBox="0 0 480.044 640" enable-background="new 0 0 480.044 640" xml:space="preserve">
<g>
	<g>
		<path fill-rule="evenodd" clip-rule="evenodd" fill="#FFFFFF" d="M224.044,85c-4.294,2.039-9.246,3.421-10,9
			C210.891,88.941,220.03,82.964,224.044,85z"/>
		<path fill-rule="evenodd" clip-rule="evenodd" fill="#FFFFFF" d="M239.044,89c-1.44-0.226-0.349-2.984-2-3
			c0.85-2.934,2.517,1.301,5,0C242.35,88.306,239.155,87.111,239.044,89z"/>
		<path fill-rule="evenodd" clip-rule="evenodd" fill="#FFFFFF" d="M210.044,92c0.116,13.787-3.348,32.648-6,47
			C200.765,125.432,207.25,105.987,210.044,92z"/>
		<path fill-rule="evenodd" clip-rule="evenodd" fill="#FFFFFF" d="M191.044,156c0.628-4.788,2.688-16.767,5-26
			c1.209-4.828,2.202-3.73,1,7C196.241,144.17,193.146,148.319,191.044,156z"/>
		<path fill-rule="evenodd" clip-rule="evenodd" fill="#FFFFFF" d="M238.044,133c0.532-5.002,7.152,3.583,9-2
			c-1.317-1.904-3.283,2.304-6,0c0.223-3.11,4.977-1.689,8-2C248.449,135.644,242.255,134.695,238.044,133z"/>
		<path fill-rule="evenodd" clip-rule="evenodd" fill="#FFFFFF" d="M213.044,133c3.465,1.868,2.85,7.817,4,12
			C213.615,143.095,214.949,136.428,213.044,133z"/>
		<path fill-rule="evenodd" clip-rule="evenodd" fill="#FFFFFF" d="M200.044,151c2.648,2.714-4.067,4.55-4,8
			c0.577,5.423,3.577,8.423,4,14C192.981,169.449,191.759,153.899,200.044,151z"/>
		<path fill-rule="evenodd" clip-rule="evenodd" fill="#FFFFFF" d="M295.044,219c-4.942-1.409-13.074-4.901-19-2
			c-1.605-4.299,6.655-7.324,10-10C288.749,211.295,294.119,212.925,295.044,219z"/>
		<path fill-rule="evenodd" clip-rule="evenodd" fill="#FFFFFF" d="M298.044,221c2.281,2.385,1.75,7.583,3,11
			c-9.108-3.23-20.561-9.432-30-9C270.84,213.39,291.065,217.914,298.044,221z"/>
		<path fill-rule="evenodd" clip-rule="evenodd" fill="#FFFFFF" d="M245.044,232c-17.617,24.383-35.104,48.896-72,54
			c26.706-14.294,50.107-31.893,64-59C239.782,228.595,241.978,230.732,245.044,232z"/>
		<path fill-rule="evenodd" clip-rule="evenodd" d="M183.044,243c2.144-0.11,0.472,12.17,1,17
			C181.9,260.11,183.572,247.83,183.044,243z"/>
		<path fill-rule="evenodd" clip-rule="evenodd" fill="#FFFFFF" d="M270.044,327c-8.055-11.945-7.471-32.529-11-49
			C264.661,292.383,264.29,312.754,270.044,327z"/>
		<path fill-rule="evenodd" clip-rule="evenodd" d="M105.044,344c2.756,3.436-0.717,7.583,1,11
			C100.405,354.097,104.399,347.359,105.044,344z"/>
		<path fill-rule="evenodd" clip-rule="evenodd" fill="#FFFFFF" d="M124.044,346c1.806,4.426,7.532,9.484,7,13
			C127.223,356.154,125.19,351.521,124.044,346z"/>
		<path fill-rule="evenodd" clip-rule="evenodd" fill="#FFFFFF" d="M233.044,548c-7.937-27.73-3.729-67.604-7-100
			c6.829-9.172,10.46-21.54,20-28c1.755,37.46,9.609,82.018,9,124c-4.491,0.491-7.493-0.507-11-1c-5.484-33.517-5.621-72.379-7-110
			c-0.836,14.442-0.838,29.937,0,49c0.956,21.748,7.003,46.354,4,60C240.43,544.792,240.456,548.892,233.044,548z"/>
		<path fill-rule="evenodd" clip-rule="evenodd" fill="#FFFFFF" d="M270.044,542c-3.386,0.281-5.742,1.591-10,1
			c-4.514-38.819-6.872-79.795-10-120c7.957,7.043,4.494,25.507,15,30C267.698,481.68,268.187,512.524,270.044,542z"/>
		<path fill-rule="evenodd" clip-rule="evenodd" fill="#FFFFFF" d="M224.044,452c1.163-0.162,1.779,0.221,2,1
			c-0.078,19.006,0.119,37.959,1,58c0.57,12.969,4.299,26.322-1,36c-7.392-6.377-3.52-19.072-4-30
			C221.014,493.569,215.525,467.848,224.044,452z"/>
		<path fill-rule="evenodd" clip-rule="evenodd" fill="#FFFFFF" d="M215.044,471c3.009,23.324,4.45,48.217,5,74
			c-3.343,1.657-6.657,3.343-10,5c-4.456,0.122-6.2-2.467-10-3c-9.373,2.524-18.438,4.61-22-3c-2.034-4.345-2.392-20.74-1-26
			C180.79,503.842,211.122,488.736,215.044,471z"/>
		<path fill-rule="evenodd" clip-rule="evenodd" fill="#FFFFFF" d="M252.044,548c-1.457,5.701-15.274,10.476-18,3
			C238.306,548.354,247.27,541.013,252.044,548z"/>
		<path fill-rule="evenodd" clip-rule="evenodd" fill="#FFFFFF" d="M196.044,549c2.107,2.825-2.291,7.671-2,12
			c-3.811-3.855-9.099-6.234-17-6c0.26-3.073,2.169-4.497,3-7C183.937,550.904,191.356,552.03,196.044,549z"/>
		<path fill-rule="evenodd" clip-rule="evenodd" fill="#FFFFFF" d="M277.044,576c-0.81-0.189-0.997-1.003-2-1
			c0.309,2.358,3.473,1.86,3,5c-2.772-3.228-8.387-3.613-9-9c1.987-0.013,1.271-2.729,4-2
			C274.931,570.779,277.471,571.906,277.044,576z"/>
		<path fill-rule="evenodd" clip-rule="evenodd" fill="#FFFFFF" d="M271.044,576c0.424,2.09-0.686,2.648-1,4
			c4.353,0.051,4.598-1.501,7,1c-4.159,4.431-12.653-0.372-16-3C262.535,573.169,267.331,574.195,271.044,576z"/>
		<path fill-rule="evenodd" clip-rule="evenodd" d="M243.044,88c-7.002,2.374-18.63-1.86-25,5c-1.211,10.123-3.261,19.406-5,29
			c4.185-4.62,2.224,4.115,4,7c1.017-0.65,1.034-2.299,3-2c-1.238,5.898,7.316,1.796,2,5c0.711,0.896,6.592-0.792,5,5
			c2.555-1.716,3.5,1.146,5-1c-1.406,4.121,5.049,0.409,5,7c3.236,1.236,0.764-3.236,4-2c-0.34,2.007,0.205,3.129,2,3
			c-0.184-0.851,0.39-0.943,1-1c-4.489-0.97,1.063-1.518,2-5c-3.715-1.934-9.239-2.818-11-9c4.956-1.307,7.497-3.55,15-2
			c-1.173,9.213,0.662,10.583,1,19c-2.203,1.464-4.295,3.039-8,3c-2.615,8.115,5.875,12.43,7,20c-6.705,0.628-9.619,5.048-11,11
			c2.779-7.133-0.719-18.285,1-29c-6.5-2.5-14.469-3.531-20-7c-4.98,11.146-1.558,23.417-7,32c1.806,9.554,23.046,2.642,28,6
			c1.874-1.904,0.109-2.512,0-5c2.741,0.021,2.375,4.717,1,6c-8.211-0.123-15.016-1.65-24-1c-0.086,1.419-0.165,2.832,1,3
			c-2.6,1.226-4.443-6.86-8-8c-5.053,4.404-11.791,1.353-20,3c-1.967-1.7-4.266-3.068-5-6c-7.774,4.283-14.828,2.12-21,6
			c-6.542,4.113-7.223,13.533-9,22c-3.265,15.558-9.736,34.92-13,46c0.89-0.443,1.789-0.878,2-2c-0.766,4.583-9.74,9.583-13,15
			c0.31,5.444,1.464,7.273-1,11c-0.736-3.001,1.264-6.079,0-12c19.933-16.734,19.492-53.842,30-80c7.771-1.917,23.239-7.486,26-7
			c2.236-0.431,0.405-4.928,1-7c-1.357,0.31-0.83,2.504-1,4c1.997-20.671,10.438-43.56,13-67c2.853,2.275-1.405,5.861,0,10
			c3.797-5.203,3.601-14.399,6-21c-2.334,1.666-2.568,5.432-4,8c-1.934,2.962,0.286-4.686,2-8c7.987-15.448,24.706-9.519,38-9
			c6.204,8.847,8.491,26.774,7,40c1.021-4.48-11.012-16.889-1-21C246.551,97.159,245.026,92.351,243.044,88z M242.044,86
			c-2.483,1.301-4.15-2.934-5,0c1.651,0.016,0.56,2.774,2,3C239.155,87.111,242.35,88.306,242.044,86z M249.044,129
			c-3.023,0.311-7.777-1.11-8,2c2.717,2.304,4.683-1.904,6,0c-1.848,5.583-8.468-3.002-9,2
			C242.255,134.695,248.449,135.644,249.044,129z M197.044,137c1.202-10.73,0.209-11.828-1-7c-2.312,9.233-4.372,21.212-5,26
			C193.146,148.319,196.241,144.17,197.044,137z M214.044,94c0.754-5.579,5.706-6.961,10-9C220.03,82.964,210.891,88.941,214.044,94
			z M204.044,139c2.652-14.352,6.116-33.213,6-47C207.25,105.987,200.765,125.432,204.044,139z M204.044,176
			c6.493-14.294,15.042-31.669,5-47c5.378,15.705,2.124,24.586-3,38c-5.653-9.762,7.595-18.557,3-24
			C204.282,150.802,203.208,168.704,204.044,176z M217.044,145c-1.15-4.183-0.535-10.132-4-12
			C214.949,136.428,213.615,143.095,217.044,145z M200.044,173c-0.423-5.577-3.423-8.577-4-14c-0.067-3.45,6.648-5.286,4-8
			C191.759,153.899,192.981,169.449,200.044,173z"/>
		<path fill-rule="evenodd" clip-rule="evenodd" fill="#FFFFFF" d="M1.044,0c159.669,0,319.328,0,479,0c0,213.329,0,426.672,0,640
			c-160.002,0-319.996,0-480,0c0-212.336,0-424.662,0-637C-0.042,1.581-0.121,0.168,1.044,0z M248.044,102
			c-10.012,4.111,2.021,16.52,1,21c1.491-13.226-0.796-31.153-7-40c-13.294-0.519-30.013-6.448-38,9c-1.714,3.314-3.934,10.962-2,8
			c1.432-2.568,1.666-6.334,4-8c-2.399,6.601-2.203,15.797-6,21c-1.405-4.139,2.853-7.725,0-10c-2.562,23.44-11.003,46.329-13,67
			c0.17-1.496-0.357-3.69,1-4c-0.595,2.072,1.236,6.569-1,7c-2.761-0.486-18.229,5.083-26,7c-10.508,26.158-10.067,63.266-30,80
			c1.264,5.921-0.736,8.999,0,12c2.464-3.727,1.31-5.556,1-11c3.26-5.417,12.234-10.417,13-15c-0.211,1.122-1.11,1.557-2,2
			c3.264-11.08,9.735-30.442,13-46c1.777-8.467,2.458-17.887,9-22c6.172-3.88,13.226-1.717,21-6c0.734,2.932,3.033,4.3,5,6
			c8.209-1.647,14.947,1.404,20-3c3.557,1.14,5.4,9.226,8,8c-1.165-0.168-1.086-1.581-1-3c8.984-0.65,15.789,0.877,24,1
			c1.375-1.283,1.741-5.979-1-6c0.109,2.488,1.874,3.096,0,5c-4.954-3.358-26.194,3.554-28-6c5.442-8.583,2.02-20.854,7-32
			c5.531,3.469,13.5,4.5,20,7c-1.719,10.715,1.779,21.867-1,29c1.381-5.952,4.295-10.372,11-11c-1.125-7.57-9.615-11.885-7-20
			c3.705,0.039,5.797-1.536,8-3c-0.338-8.417-2.173-9.787-1-19c-7.503-1.55-10.044,0.693-15,2c1.761,6.182,7.285,7.066,11,9
			c-0.937,3.482-6.489,4.03-2,5c-0.61,0.057-1.184,0.149-1,1c-1.795,0.129-2.34-0.993-2-3c-3.236-1.236-0.764,3.236-4,2
			c0.049-6.591-6.406-2.879-5-7c-1.5,2.146-2.445-0.716-5,1c1.592-5.792-4.289-4.104-5-5c5.316-3.204-3.238,0.898-2-5
			c-1.966-0.299-1.983,1.35-3,2c-1.776-2.885,0.185-11.62-4-7c1.739-9.594,3.789-18.877,5-29c6.37-6.86,17.998-2.626,25-5
			C245.026,92.351,246.551,97.159,248.044,102z M223.044,109c2.41-2.584,6.52-5.386,11-3c0.056-3.723-4.449-2.884-8-3
			C226.947,106.315,220.488,107.338,223.044,109z M231.044,114c2.555-0.112,1.985-3.349,2-6c-1.891,0.224-2.207-1.127-4-1
			C227.578,108.585,226.98,114.94,231.044,114z M233.044,221c5.314-0.116,0.804-0.188,1-3c2.333-0.856,4.309,3.497,5,1
			c-1.872-1.128-4.817-1.183-4-5c3.295-0.883,4.997,4.897,7,2c-5.158-2.561-8.012-5.472-10-9c6.828,0.188,11.183,8.129,17,6
			c-6.836-1.498-10.361-6.306-17-8c0.889,6.212-1.873,16.435,4,23c-4.654,3.346-4.807,11.193-11,13
			c-2.666-10.006-7.062-23.598-14-26c7.098,6.902,10.55,17.45,14,28c-12.343,15.657-26.203,29.797-47,37
			c0.658-6.792-0.499-18.543-1-16c-1.109,5.627,3.095,14.682-3,19c-2.32-5.612,0.868-13.585,2-19c-0.452-5.926-1.667,1.79-2,3
			c-4.853,17.672-18.534,26.246-22,39c0.11-4.904,8.171-6.308,11-9c0.428-2.806-3.728,2.506-4-1c4.697,0.637,2.664-4.741,7-2
			c-2.061,12.231-13.586,30.98-20,42c-1.933-2.104-3.305-9.978-6-8c6.974,6.776,5.215,23.593-3,24c-0.695-16.305-4.006-29.994-14-37
			c-4.48-1.423-8.559,2.697-11,0c2.332-3.324,6.933-1.639,8-3c-3.173,4.048-9.704-4.136,0-4c-1.571-0.096-3.467,0.134-3-2
			c7.397-3.481,14.159,1.658,17,6c-1.508-7.185-9.693-10.663-16-10c-4.061,6.272-7.162,13.505-9,22c-5.929,1.087-12.325,6.987-10,13
			c0.786-10.214,9.667-12.333,19-14c-3.36-1.35-5.29,0.539-7-1c1.958-8.055,16.123-7.18,17,1c-7.692,7.975-2.233,29.101-14,33
			c1.089-2.389,6.221-7.465,2-9c0.066,4.863-6.246,9.562,0,12c3.146-2.854,4.199-7.801,8-10c1.191,5.475,2.833,10.5,8,12
			c5.186-4.481,9.228-10.105,14-15c0-2.667,0-5.333,0-8c9.537-9.13,12.077-25.256,21-35c1.306,5.973-1.532,7.801-3,11
			c0.4,19.284,6.49,41.326,5,57c-0.608,6.398,1.664,13.449,2,20c0.574,11.186-2.041,21.64-3,33c-0.89,10.542,2.547,19.485,3,30
			c0.108,2.517-1.898,5.286-2,8c-0.612,16.262,5.892,33.947,3,51c0.463,3.203,3.808,3.526,4,7c-0.301,10.968,1.283,20.051,2,30
			c-10.618,7.136-19.643,36.582,0,36c16.895-0.501,15.894-23.393,22-37c3.699,0.634,5.953,2.713,11,2c5.955-6.221,13.873-0.388,19-5
			c0.294,2.039,2.706,1.961,3,4c0.735,7.068-4.099,8.567-4,15c13.261,6.844,35.142,24.725,53,15c-3.811-17.189-26.573-15.427-29-34
			c6.47-3.477,19.812,0.752,23-8c-0.384-25.282-2.66-48.673-4-73c1.353,0.314,1.91,1.424,4,1c2.367-17.771-1.738-34.84-3-52
			c1.338-2.611-1.523-6.555-1-8c-0.835,2.304-0.183,7.869,0,12c0.576,13.018,6.854,35.694,2,46c-6.388-12.945-19.7-18.966-19-39
			c-2.744-2.59-5.456-5.211-9-7c3.039-5.307,8.8-13.185,13-14c2.803,12.456,0.291,34.688,5,42c1.144-16.538-9.496-46.501,6-53
			c1.848,1.535-0.023,11.957,2,10c0.673-5.006-0.926-7.74-1-12c1.544-2.456,4.017-3.983,6-6c-1.726-19.941-7.476-35.857-9-56
			c12.278-8.056,19.541-21.126,28-33c0.802-3.469-1.489-3.844-1-7c4.914-7.458,14.312-14.506,11-27c8.381-12.903,1.007-21.467-4-32
			c-4.282-9.009-7.705-18.994-14-23c-3.004-15.663-11.036-26.297-18-38c-4.688-1.312-10.973-1.028-17-1
			c2.408,15.242,3.213,32.937-6,41c-1.357-1.376-5.867-4.71-8-2c13.412,2.588,17.598,14.402,28,20c-1.906,16.973,1.88,33.857-2,48
			c-8.346-7.32-1.942-29.391-10-37c3.812,8.854,4.264,21.069,5,33c0.257,2.477,4.63,5.947,3,7c-8.569-8.14-3.69-32.875-10-42
			c-26.191,58.476-34.011,135.323-76,178c-2.091-1.575-1.758-5.575-4-7c-0.044,4.377,2.496,6.171,4,9
			c42.085-41.915,49.882-118.119,76-176c4.747,33.966,11.268,75.361,16,109c1.47,10.449,8.341,25.285,7,33
			c-1.719,9.891-16.99,17.239-23,24c-21.672,24.381-29.447,56.862-49,81c-4.349,5.369-10.25,9.996-15,15
			c-4.518,4.759-8.573,11.188-15,13c-2.96-12.928,1.407-27.213-1-40c-0.306-3.125,2.889,2.542,3-1c-3.457-2.563-6.784-10.521-4-16
			c2.198,3.469,1.27,10.063,6,11c24.62-19.612,32.739-54.745,41-90c8.31-35.463,18.864-73.398,24-108
			c-9.945,33.422-15.387,70.7-26,105c-10.451,33.775-15.961,69.667-40,91c-14.948-21.119-3.348-47.451-4-70
			c-0.894-30.925-6.614-58.188-7-85c17.089,27.086,43.045,0.941,51-18c10.939-5.728,15.164-18.169,21-29
			c-8.815,16.093-19.583,33.603-38,36c8.167,1.166,10.646-3.354,16-5c-5.509,14.278-43.071,34.826-48,8c2.682,0.375,4.427,6.829,7,4
			c-2.724-2.942-7.181-4.152-8-9c1.001-1.332,1.648-3.018,3-4c17.451,4.76,40.171-4.206,44-16c-7.753,9.067-28.217,19.776-43,12
			c3.535-5.54,10.045-3.363,15-5c16.474-5.442,32.516-18.393,44-30c7.125-7.202,10.899-17.342,19-22c3.633,0.638-2.32,4.675,1,5
			c0.112-2.555,1.833-3.5,3-5c5.656,3.344,6.815,11.184,12,15C261.08,230.883,242.278,233.766,233.044,221z M204.044,243
			c0-3,0-6,0-9c-3.482,9.827,2.992,18.333,6,25C209.461,252.25,205.632,248.745,204.044,243z M162.044,302
			c-4.022,10.23-22.511,15.809-16,30c0-3.667,0-7.333,0-11C153.493,315.037,160.084,311.519,162.044,302z M230.044,184
			c-2.333,0-4.667,0-7,0c1.138,0.244,11.502,5.117,15,3C234.082,187.295,231.932,185.778,230.044,184z M187.044,197
			c-0.762-10.02-1.165,1.524-1,0c-0.536,4.969-1.026,24.125-1,23C186.714,212.403,187.595,204.249,187.044,197z M181.044,210
			c-0.595,2.072,1.236,6.569-1,7c-2.241-5.426-0.362-14.971-5-18c5.154,10.3,3.109,31.386,1,36c0.334-2.333,1.025-4.309,3-5
			c6.841,20.22-7.603,31.875-16,43c7.323-2.852,8.174-14.626,16-14C183.561,239.918,180.021,224.502,181.044,210z M153.044,236
			c0.356-8.422,5.85-22,4-26C156.26,217.994,151.07,231.875,153.044,236z M184.044,260c-0.528-4.83,1.144-17.11-1-17
			C183.572,247.83,181.9,260.11,184.044,260z M137.044,266c-3.011-12.236,17.198-14.634,18-23
			C150.285,250.88,131.95,254.817,137.044,266z M118.044,301c2.752-9.587,9.932-20.06,11-28
			C125.243,281.538,118.87,292.818,118.044,301z M102.044,356c-0.41,1.257-1.29,2.044-3,2c-0.714-8.714,2.043-13.957,3-21
			c2.663-3.67,10.725-1.942,12-7c-13.646,1.021-16.625,12.708-16,28C99.354,360.564,105.435,357.776,102.044,356z M106.044,355
			c-1.717-3.417,1.756-7.564-1-11C104.399,347.359,100.405,354.097,106.044,355z M106.044,361c-1.679-9.668-4.185,1.84,3,1
			c1.214-1.786,0.183-5.817,2-7c0,2,0,4,0,6c1.496-0.17,3.69,0.357,4-1c-6.778,0.111-0.125-13.209-5-15
			C107.734,349.357,111.791,360.081,106.044,361z M245.044,248c0.733-1.026,4.9-6.501,3-7
			C246.296,244.498,243.024,250.828,245.044,248z M247.044,404c2.235-4.945,4.411-10.692,5-16c4.472-40.273-1.065-89.886,1-130
			C247.095,302.104,252.386,358.468,247.044,404z M211.044,331c-10.445,13.901-15.832,42.356-38,38
			C192.703,378.79,205.132,341.465,211.044,331z M180.044,428c2.828-4.001,7.041-9.421,10-15c2.955-5.571,6.886-12.718,6-16
			C192.603,407.942,182.14,422.361,180.044,428z"/>
		<path fill-rule="evenodd" clip-rule="evenodd" d="M226.044,103c3.551,0.116,8.056-0.723,8,3c-4.48-2.386-8.59,0.416-11,3
			C220.488,107.338,226.947,106.315,226.044,103z"/>
		<path fill-rule="evenodd" clip-rule="evenodd" fill="#FFFFFF" d="M209.044,143c4.595,5.443-8.653,14.238-3,24
			c5.124-13.414,8.378-22.295,3-38c10.042,15.331,1.493,32.706-5,47C203.208,168.704,204.282,150.802,209.044,143z"/>
		<path fill-rule="evenodd" clip-rule="evenodd" d="M265.044,249c-5.185-3.816-6.344-11.656-12-15c-1.167,1.5-2.888,2.445-3,5
			c-3.32-0.325,2.633-4.362-1-5c-8.101,4.658-11.875,14.798-19,22c-11.484,11.607-27.526,24.558-44,30
			c-4.955,1.637-11.465-0.54-15,5c14.783,7.776,35.247-2.933,43-12c-3.829,11.794-26.549,20.76-44,16c-1.352,0.982-1.999,2.668-3,4
			c0.819,4.848,5.276,6.058,8,9c-2.573,2.829-4.318-3.625-7-4c4.929,26.826,42.491,6.278,48-8c-5.354,1.646-7.833,6.166-16,5
			c18.417-2.397,29.185-19.907,38-36c-5.836,10.831-10.061,23.272-21,29c-7.955,18.941-33.911,45.086-51,18
			c0.386,26.812,6.106,54.075,7,85c0.652,22.549-10.948,48.881,4,70c24.039-21.333,29.549-57.225,40-91
			c10.613-34.3,16.055-71.578,26-105c-5.136,34.602-15.69,72.537-24,108c-8.261,35.255-16.38,70.388-41,90
			c-4.73-0.937-3.802-7.531-6-11c-2.784,5.479,0.543,13.437,4,16c-0.111,3.542-3.306-2.125-3,1c2.407,12.787-1.96,27.072,1,40
			c6.427-1.812,10.482-8.241,15-13c4.75-5.004,10.651-9.631,15-15c19.553-24.138,27.328-56.619,49-81
			c6.01-6.761,21.281-14.109,23-24c1.341-7.715-5.53-22.551-7-33c-4.732-33.639-11.253-75.034-16-109
			c-26.118,57.881-33.915,134.085-76,176c-1.504-2.829-4.044-4.623-4-9c2.242,1.425,1.909,5.425,4,7
			c41.989-42.677,49.809-119.524,76-178c6.31,9.125,1.431,33.86,10,42c1.63-1.053-2.743-4.523-3-7c-0.736-11.931-1.188-24.146-5-33
			c8.058,7.609,1.654,29.68,10,37c3.88-14.143,0.094-31.027,2-48c-10.402-5.598-14.588-17.412-28-20c2.133-2.71,6.643,0.624,8,2
			c9.213-8.063,8.408-25.758,6-41c6.027-0.028,12.312-0.312,17,1c6.964,11.703,14.996,22.337,18,38c6.295,4.006,9.718,13.991,14,23
			c5.007,10.533,12.381,19.097,4,32c3.312,12.494-6.086,19.542-11,27c-0.489,3.156,1.802,3.531,1,7
			c-8.459,11.874-15.722,24.944-28,33c1.524,20.143,7.274,36.059,9,56c-1.983,2.017-4.456,3.544-6,6c0.074,4.26,1.673,6.994,1,12
			c-2.023,1.957-0.152-8.465-2-10c-15.496,6.499-4.856,36.462-6,53c-4.709-7.312-2.197-29.544-5-42c-4.2,0.815-9.961,8.693-13,14
			c3.544,1.789,6.256,4.41,9,7c-0.7,20.034,12.612,26.055,19,39c4.854-10.306-1.424-32.982-2-46c-0.183-4.131-0.835-9.696,0-12
			c-0.523,1.445,2.338,5.389,1,8c1.262,17.16,5.367,34.229,3,52c-2.09,0.424-2.647-0.686-4-1c1.34,24.327,3.616,47.718,4,73
			c-3.188,8.752-16.53,4.523-23,8c2.427,18.573,25.189,16.811,29,34c-17.858,9.725-39.739-8.156-53-15
			c-0.099-6.433,4.735-7.932,4-15c-0.294-2.039-2.706-1.961-3-4c-5.127,4.612-13.045-1.221-19,5c-5.047,0.713-7.301-1.366-11-2
			c-6.106,13.607-5.105,36.499-22,37c-19.643,0.582-10.618-28.864,0-36c-0.717-9.949-2.301-19.032-2-30
			c-0.192-3.474-3.537-3.797-4-7c2.892-17.053-3.612-34.738-3-51c0.102-2.714,2.108-5.483,2-8c-0.453-10.515-3.89-19.458-3-30
			c0.959-11.36,3.574-21.814,3-33c-0.336-6.551-2.608-13.602-2-20c1.49-15.674-4.6-37.716-5-57c1.468-3.199,4.306-5.027,3-11
			c-8.923,9.744-11.463,25.87-21,35c0,2.667,0,5.333,0,8c-4.772,4.895-8.814,10.519-14,15c-5.167-1.5-6.809-6.525-8-12
			c-3.801,2.199-4.854,7.146-8,10c-6.246-2.438,0.066-7.137,0-12c4.221,1.535-0.911,6.611-2,9c11.767-3.899,6.308-25.025,14-33
			c-0.877-8.18-15.042-9.055-17-1c1.71,1.539,3.64-0.35,7,1c-9.333,1.667-18.214,3.786-19,14c-2.325-6.013,4.071-11.913,10-13
			c1.838-8.495,4.939-15.728,9-22c6.307-0.663,14.492,2.815,16,10c-2.841-4.342-9.603-9.481-17-6c-0.467,2.134,1.429,1.904,3,2
			c-9.704-0.136-3.173,8.048,0,4c-1.067,1.361-5.668-0.324-8,3c2.441,2.697,6.52-1.423,11,0c9.994,7.006,13.305,20.695,14,37
			c8.215-0.407,9.974-17.224,3-24c2.695-1.978,4.067,5.896,6,8c6.414-11.02,17.939-29.769,20-42c-4.336-2.741-2.303,2.637-7,2
			c0.272,3.506,4.428-1.806,4,1c-2.829,2.692-10.89,4.096-11,9c3.466-12.754,17.147-21.328,22-39c0.333-1.21,1.548-8.926,2-3
			c-1.132,5.415-4.32,13.388-2,19c6.095-4.318,1.891-13.373,3-19c0.501-2.543,1.658,9.208,1,16c20.797-7.203,34.657-21.343,47-37
			c-3.45-10.55-6.902-21.098-14-28c6.938,2.402,11.334,15.994,14,26c6.193-1.807,6.346-9.654,11-13c-5.873-6.565-3.111-16.788-4-23
			c6.639,1.694,10.164,6.502,17,8c-5.817,2.129-10.172-5.812-17-6c1.988,3.528,4.842,6.439,10,9c-2.003,2.897-3.705-2.883-7-2
			c-0.817,3.817,2.128,3.872,4,5c-0.691,2.497-2.667-1.856-5-1c-0.196,2.812,4.314,2.884-1,3
			C242.278,233.766,261.08,230.883,265.044,249z M237.044,227c-13.893,27.107-37.294,44.706-64,59c36.896-5.104,54.383-29.617,72-54
			C241.978,230.732,239.782,228.595,237.044,227z M131.044,359c0.532-3.516-5.194-8.574-7-13
			C125.19,351.521,127.223,356.154,131.044,359z M135.044,356c-1.229-10.883,0.125-23.216-7-32
			C121.913,335.418,124.762,354.516,135.044,356z M168.044,288c0.776,0.224,1.973,0.028,2,1c-1.556-0.08-0.693,2.908,0,1
			c-0.044-1.744,1.908-7.413,1-9C169.95,283.24,169.388,286.011,168.044,288z M177.044,518c-1.392,5.26-1.034,21.655,1,26
			c3.562,7.61,12.627,5.524,22,3c3.8,0.533,5.544,3.122,10,3c3.343-1.657,6.657-3.343,10-5c-0.55-25.783-1.991-50.676-5-74
			C211.122,488.736,180.79,503.842,177.044,518z M180.044,548c-0.831,2.503-2.74,3.927-3,7c7.901-0.234,13.189,2.145,17,6
			c-0.291-4.329,4.107-9.175,2-12C191.356,552.03,183.937,550.904,180.044,548z M265.044,453c-10.506-4.493-7.043-22.957-15-30
			c3.128,40.205,5.486,81.181,10,120c4.258,0.591,6.614-0.719,10-1C268.187,512.524,267.698,481.68,265.044,453z M273.044,569
			c-2.729-0.729-2.013,1.987-4,2c0.613,5.387,6.228,5.772,9,9c0.473-3.14-2.691-2.642-3-5c1.003-0.003,1.19,0.811,2,1
			C277.471,571.906,274.931,570.779,273.044,569z M191.044,567c-7.618,0.049-7.832,7.501-9,14
			C187.293,582.875,193.863,573.193,191.044,567z M222.044,517c0.48,10.928-3.392,23.623,4,30c5.299-9.678,1.57-23.031,1-36
			c-0.881-20.041-1.078-38.994-1-58c-0.221-0.779-0.837-1.162-2-1C215.525,467.848,221.014,493.569,222.044,517z M241.044,542
			c3.003-13.646-3.044-38.252-4-60c-0.838-19.063-0.836-34.558,0-49c1.379,37.621,1.516,76.483,7,110c3.507,0.493,6.509,1.491,11,1
			c0.609-41.982-7.245-86.54-9-124c-9.54,6.46-13.171,18.828-20,28c3.271,32.396-0.937,72.27,7,100
			C240.456,548.892,240.43,544.792,241.044,542z M234.044,551c2.726,7.476,16.543,2.701,18-3
			C247.27,541.013,238.306,548.354,234.044,551z M253.044,571c-1.638-4.001,5.964-7.347,9-10c-4.635-1.031-5.243-6.091-10-7
			c-4.066,4.934-11.58,6.42-12,15c3.64,1.027,5.835,3.498,10,4C250.338,569.516,252.75,573.084,253.044,571z M167.044,576
			c4.43-2.823,2.172,3.629,6,4c0.157-1.177-0.172-2.839,1-3c0,1,0,2,0,3c4.146-0.271,3.896,1.313,7,0
			C189.682,562.528,163.77,555.873,167.044,576z M261.044,578c3.347,2.628,11.841,7.431,16,3c-2.402-2.501-2.647-0.949-7-1
			c0.314-1.352,1.424-1.91,1-4C267.331,574.195,262.535,573.169,261.044,578z M273.044,223c-2.645,0.355-0.904,5.096-3,6
			c-0.443-1.89,1.36-6.027-2-5c-0.769,18.982,1.112,34.917-1,53c3.307-1.027,7.641-1.026,10-3c0.903-14.524-1.179-38.373-4-49
			c9.648,28.816,4.367,62.168,4,94c5.041-8.761,14.818-13.892,18-24c0.531-1.688-1.287-4.261-1-6c1.413-8.573,16.26-13.921,11-25
			c-1.382-2.915-4.618,5.915-6,3c10.03-5.939,12.766-23.672,4-33c-9.82,1.808-10.32-10.996-20-6c4.283,6.059,16.854,9.136,17,16
			C291.975,236.069,283.423,228.621,273.044,223z M259.044,278c3.529,16.471,2.945,37.055,11,49
			C264.29,312.754,264.661,292.383,259.044,278z M277.044,276c-4.461,2.206-10.691,2.642-15,5c2.63,14.037,4.186,29.147,8,42
			C278.711,314.431,276.526,292.304,277.044,276z M271.044,223c9.439-0.432,20.892,5.77,30,9c-1.25-3.417-0.719-8.615-3-11
			C291.065,217.914,270.84,213.39,271.044,223z M286.044,207c-3.345,2.676-11.605,5.701-10,10c5.926-2.901,14.058,0.591,19,2
			C294.119,212.925,288.749,211.295,286.044,207z M284.044,197c0.154-3.172-4.205-6.552-5-8c-4.448-8.099-6.346-24.827-24-20
			c-1.42,9.037,1.941,16.599,1,24c-0.97,7.625-9.102,13.257-5,19c6.849-3.151,5.112-14.888,8-22c1.423,4.48-2.697,8.559,0,11
			c3.851-8.816,6.731-18.602,14-24c-8.076,10.257-13.048,23.619-19,36c1.275,2.059,1.595,5.072,5,5c1.336-4.997,1.861-10.805,5-14
			c-1.343,5.657-3.657,10.343-5,16c3.344,0.99,4.656,4.01,8,5C267.274,214.419,283.562,206.91,284.044,197z"/>
		<path fill-rule="evenodd" clip-rule="evenodd" d="M210.044,259c-3.008-6.667-9.482-15.173-6-25c0,3,0,6,0,9
			C205.632,248.745,209.461,252.25,210.044,259z"/>
		<path fill-rule="evenodd" clip-rule="evenodd" d="M146.044,321c0,3.667,0,7.333,0,11c-6.511-14.191,11.978-19.77,16-30
			C160.084,311.519,153.493,315.037,146.044,321z"/>
		<path fill-rule="evenodd" clip-rule="evenodd" fill="#FFFFFF" d="M267.044,225c-3.344-0.99-4.656-4.01-8-5
			c1.343-5.657,3.657-10.343,5-16c-3.139,3.195-3.664,9.003-5,14c-3.405,0.072-3.725-2.941-5-5c5.952-12.381,10.924-25.743,19-36
			c-7.269,5.398-10.149,15.184-14,24c-2.697-2.441,1.423-6.52,0-11c-2.888,7.112-1.151,18.849-8,22c-4.102-5.743,4.03-11.375,5-19
			c0.941-7.401-2.42-14.963-1-24c17.654-4.827,19.552,11.901,24,20c0.795,1.448,5.154,4.828,5,8
			C283.562,206.91,267.274,214.419,267.044,225z M266.044,209c-2.678,3.824-5.084,14.449-2,8c1.419-2.968,4.447-10.474,3-16
			C267.752,204.708,265.336,205.292,266.044,209z"/>
		<path fill-rule="evenodd" clip-rule="evenodd" d="M238.044,187c-3.498,2.117-13.862-2.756-15-3c2.333,0,4.667,0,7,0
			C231.932,185.778,234.082,187.295,238.044,187z"/>
		<path fill-rule="evenodd" clip-rule="evenodd" fill="#FFFFFF" d="M300.044,244c-0.146-6.864-12.717-9.941-17-16
			c9.68-4.996,10.18,7.808,20,6c8.766,9.328,6.03,27.061-4,33c1.382,2.915,4.618-5.915,6-3c5.26,11.079-9.587,16.427-11,25
			c-0.287,1.739,1.531,4.312,1,6c-3.182,10.108-12.959,15.239-18,24c0.367-31.832,5.648-65.184-4-94c2.821,10.627,4.903,34.476,4,49
			c-2.359,1.974-6.693,1.973-10,3c2.112-18.083,0.231-34.018,1-53c3.36-1.027,1.557,3.11,2,5c2.096-0.904,0.355-5.645,3-6
			C283.423,228.621,291.975,236.069,300.044,244z"/>
		<path fill-rule="evenodd" clip-rule="evenodd" d="M185.044,220c-0.026,1.125,0.464-18.031,1-23c-0.165,1.524,0.238-10.02,1,0
			C187.595,204.249,186.714,212.403,185.044,220z"/>
		<path fill-rule="evenodd" clip-rule="evenodd" d="M179.044,259c-7.826-0.626-8.677,11.148-16,14c8.397-11.125,22.841-22.78,16-43
			c-1.975,0.691-2.666,2.667-3,5c2.109-4.614,4.154-25.7-1-36c4.638,3.029,2.759,12.574,5,18c2.236-0.431,0.405-4.928,1-7
			C180.021,224.502,183.561,239.918,179.044,259z"/>
		<path fill-rule="evenodd" clip-rule="evenodd" d="M267.044,201c1.447,5.526-1.581,13.032-3,16c-3.084,6.449-0.678-4.176,2-8
			C265.336,205.292,267.752,204.708,267.044,201z"/>
		<path fill-rule="evenodd" clip-rule="evenodd" d="M157.044,210c1.85,4-3.644,17.578-4,26
			C151.07,231.875,156.26,217.994,157.044,210z"/>
		<path fill-rule="evenodd" clip-rule="evenodd" d="M248.044,241c1.9,0.499-2.267,5.974-3,7
			C243.024,250.828,246.296,244.498,248.044,241z"/>
		<path fill-rule="evenodd" clip-rule="evenodd" d="M155.044,243c-0.802,8.366-21.011,10.764-18,23
			C131.95,254.817,150.285,250.88,155.044,243z"/>
		<path fill-rule="evenodd" clip-rule="evenodd" d="M253.044,258c-2.065,40.114,3.472,89.727-1,130c-0.589,5.308-2.765,11.055-5,16
			C252.386,358.468,247.095,302.104,253.044,258z"/>
		<path fill-rule="evenodd" clip-rule="evenodd" fill="#FFFFFF" d="M128.044,324c7.125,8.784,5.771,21.117,7,32
			C124.762,354.516,121.913,335.418,128.044,324z"/>
		<path fill-rule="evenodd" clip-rule="evenodd" d="M129.044,273c-1.068,7.94-8.248,18.413-11,28
			C118.87,292.818,125.243,281.538,129.044,273z"/>
		<path fill-rule="evenodd" clip-rule="evenodd" fill="#FFFFFF" d="M171.044,281c0.908,1.587-1.044,7.256-1,9
			c-0.693,1.908-1.556-1.08,0-1c-0.027-0.972-1.224-0.776-2-1C169.388,286.011,169.95,283.24,171.044,281z"/>
		<path fill-rule="evenodd" clip-rule="evenodd" d="M98.044,358c-0.625-15.292,2.354-26.979,16-28c-1.275,5.058-9.337,3.33-12,7
			c-0.957,7.043-3.714,12.286-3,21c1.71,0.044,2.59-0.743,3-2C105.435,357.776,99.354,360.564,98.044,358z"/>
		<path fill-rule="evenodd" clip-rule="evenodd" d="M173.044,369c22.168,4.356,27.555-24.099,38-38
			C205.132,341.465,192.703,378.79,173.044,369z"/>
		<path fill-rule="evenodd" clip-rule="evenodd" d="M110.044,345c4.875,1.791-1.778,15.111,5,15c-0.31,1.357-2.504,0.83-4,1
			c0-2,0-4,0-6c-1.817,1.183-0.786,5.214-2,7c-7.185,0.84-4.679-10.668-3-1C111.791,360.081,107.734,349.357,110.044,345z"/>
		<path fill-rule="evenodd" clip-rule="evenodd" d="M196.044,397c0.886,3.282-3.045,10.429-6,16c-2.959,5.579-7.172,10.999-10,15
			C182.14,422.361,192.603,407.942,196.044,397z"/>
		<path fill-rule="evenodd" clip-rule="evenodd" fill="#FFFFFF" d="M250.044,573c-4.165-0.502-6.36-2.973-10-4
			c0.42-8.58,7.934-10.066,12-15c4.757,0.909,5.365,5.969,10,7c-3.036,2.653-10.638,5.999-9,10
			C252.75,573.084,250.338,569.516,250.044,573z"/>
		<path fill-rule="evenodd" clip-rule="evenodd" fill="#FFFFFF" d="M181.044,580c-3.104,1.313-2.854-0.271-7,0c0-1,0-2,0-3
			c-1.172,0.161-0.843,1.823-1,3c-3.828-0.371-1.57-6.823-6-4C163.77,555.873,189.682,562.528,181.044,580z"/>
		<path fill-rule="evenodd" clip-rule="evenodd" d="M229.044,107c1.793-0.127,2.109,1.224,4,1c-0.015,2.651,0.555,5.888-2,6
			C226.98,114.94,227.578,108.585,229.044,107z"/>
		<path fill-rule="evenodd" clip-rule="evenodd" fill="#FFFFFF" d="M270.044,323c-3.814-12.853-5.37-27.963-8-42
			c4.309-2.358,10.539-2.794,15-5C276.526,292.304,278.711,314.431,270.044,323z"/>
		<path fill-rule="evenodd" clip-rule="evenodd" fill="#FFFFFF" d="M182.044,581c1.168-6.499,1.382-13.951,9-14
			C193.863,573.193,187.293,582.875,182.044,581z"/>
	</g>
</g>
</svg>
