<?xml version="1.0" encoding="utf-8"?>
<!-- Generator: Adobe Illustrator 15.0.0, SVG Export Plug-In . SVG Version: 6.00 Build 0)  -->
<!DOCTYPE svg PUBLIC "-//W3C//DTD SVG 1.1//EN" "http://www.w3.org/Graphics/SVG/1.1/DTD/svg11.dtd">
<svg version="1.1" xmlns="http://www.w3.org/2000/svg" xmlns:xlink="http://www.w3.org/1999/xlink" x="0px" y="0px"
	 width="512.252px" height="944.387px" viewBox="0 0 512.252 944.387" enable-background="new 0 0 512.252 944.387"
	 xml:space="preserve">
<g id="Layer_1">
	<g>
		<g>
			<path fill="#CCCCCC" d="M263.952,503.247c-2.241-0.327-4.953-0.036-6.497,1.814c-0.077,0.093-0.134,0.214-0.021,0.309
				c2.082,1.764,5.422,1.469,7.8,0.528c0.7-0.276,1.93-0.834,1.988-1.722c0.069-1.049-1.721-1.402-2.432-1.562
				c-0.451-0.101-0.951,0.011-1.356,0.223c-0.165,0.085-0.668,0.492-0.212,0.595c0.624,0.14,1.745,0.307,2.041,0.986
				c0.221,0.503-0.564,0.845-0.903,0.979c-1.626,0.643-3.772,0.418-5.115-0.72c-0.007,0.103-0.015,0.206-0.021,0.309
				c0.914-1.095,2.199-1.043,3.503-0.853C263.208,504.202,264.974,503.396,263.952,503.247L263.952,503.247z"/>
		</g>
	</g>
	<g>
		<g>
			<path fill="#CCCCCC" d="M511.429,939.002c-2.491,0.091-4.974,2.193-5.068,4.766c-0.036,0.988,1.924,0.687,1.955-0.158
				c0.058-1.577,1.275-3.173,2.932-3.234C512.33,940.336,512.748,938.954,511.429,939.002L511.429,939.002z"/>
		</g>
	</g>
</g>
<g id="Layer_13">
	<g>
		<rect x="9.338" y="0.689" fill="#0E53A7" width="448.67" height="325.98"/>
		<path fill="#99C0FF" d="M26.529,15.309c0.469-3.382-2.287-4.201-0.843-5.073c1.082-0.653,5.717,1.525,7.402,1.068
			c3.936-1.068-1.332-4.993,3.842-3.828c2.562,0.577,7.16,2.736,10.494,5.875c3.207,3.018,3.835,1.23,7.683,4.628
			s15.835,14.019,18.084,15.754c2.249,1.735-1.687-6.943,6.184-1.602c7.871,5.34,3.795-3.605,3.654-6.542
			c-0.141-2.938,6.747,3.249,13.211,9.079c6.465,5.83,13.118,18.379,15.46,16.155c2.343-2.225,22.956,27.503,29.796,41.121
			s9.65,9.523,16.304,19.759c6.653,10.236,3.58-1.064,5.06,0c1.479,1.064,9.276,6.676,9.276,6.676s3.185,2.848,7.308,4.54
			c4.124,1.691,3.654-2.136,3.654-2.136s0.656-0.089-2.811-4.54c-3.467-4.45,7.589,1.869,7.589,1.869s2.249,0.979,4.779-1.602
			c2.53-2.581,8.526,2.403,17.99,7.744c9.464,5.34,19.396,5.34,19.396,5.34s7.309,0,12.931,0s4.778-3.738,4.778-3.738
			s-3.278,1.602,0-3.738s13.773-3.561,25.018,1.068c11.244,4.629,2.91-3.21,3.092-4.806c0.159-1.396,17.288,9.101,14.428,6.067
			c-7.613-8.074,4.103,0.299,6.375,0.966c18.178,5.34,33.449,26.878,33.449,26.878s3.936,7.565,2.53-1.869
			c-1.406-9.435,4.778,3.026,9.275,6.942c4.498,3.917,3.936-2.67,3.936-2.67s10.868,11.037,9.839,4.539
			c-1.03-6.497,4.216-5.073,4.216-5.073s0.187-2.314,6.185-3.204c5.997-0.89,16.115,18.157,15.179,14.152s9.293,9.446,9.558,3.293
			c0.381-8.859,4.575,5.815,4.371,9.12c-0.204,3.304,2.354-4.664,2.967-3.401c0.614,1.263-0.013,10.824,0.512,12.05
			c1.311,3.064-0.596,5.981,0.864,9.378c2.718,6.319,0,9.167,0,10.681c0,1.514-0.469,13.796,0,17.356s-4.103,8.812-4.908,8.011
			c-0.806-0.801,0.13-4.628-4.648,0c-4.779,4.628-15.836,9.613-14.336,4.005c1.499-5.607-5.812-2.226-7.59,0
			c-1.779,2.225-4.592,2.581-3.373-1.869s-26.236,13.707-30.077,12.016c-3.842-1.691-11.152,4.45-8.996,0
			c2.157-4.45-3.935-2.67-3.935-2.67s-9.466,7.565-9.276,2.67c0.188-4.895-2.812-5.875-2.812-5.875s-7.965-2.314-8.433,1.068
			c-0.468,3.382-2.905-0.089-5.06-1.869c-2.154-1.78-15.836-0.267-22.487,1.335c-6.652,1.603,1.029-3.649-0.281-4.539
			c-1.312-0.89-43.852,12.817-57.625,15.487c-13.773,2.67-29.609,3.56-31.483,2.136c-1.873-1.424,5.059-1.602-2.249-2.67
			c-7.308-1.068-24.269,1.068-28.11,0.534c-3.841-0.534-0.562-4.807-5.06-5.875c-4.497-1.068-45.53,1.439-55.091,3.924
			s-6.546-1.491-9.749-0.542c-3.203,0.949-6.372-2.225-10.026-4.45c-3.654-2.225-11.993,7.56-16.022,3.738s-2.062,0.177-3.279,5.34
			s-17.24,22.698-22.3,22.609c-5.06-0.089-12.837-0.446-12.837-0.446h-8.714l1.405-254.471l12.931-5.073"/>
		<path fill="#0E53A7" d="M18.255,79.408c3.1-1.698,30.377,20.993,39.429,31.388c9.051,10.394,12.771,7.269,21.574,15.082
			c8.804,7.813,4.738-0.812,6.696,0c1.958,0.813,12.275,5.096,12.275,5.096s4.215,2.174,9.671,3.465s4.835-1.63,4.835-1.63
			s0.868-0.068-3.72-3.465c-4.588-3.397,10.043,1.426,10.043,1.426s2.976,0.748,6.323-1.223c3.348-1.97,11.283,1.834,23.806,5.911
			c12.524,4.076,25.666,4.076,25.666,4.076s9.671,0,17.11,0c7.439,0,6.323-2.854,6.323-2.854s-4.338,1.223,0-2.853
			c4.339-4.076,18.227-2.718,33.105,0.815c14.879,3.532,3.851-2.451,4.092-3.669c0.212-1.066,22.876,6.947,19.092,4.631
			c-10.074-6.163,5.429,0.229,8.437,0.738c24.054,4.077,44.261,20.516,44.261,20.516s5.209,5.774,3.348-1.427
			c-1.859-7.201,6.324,2.31,12.275,5.299c5.951,2.99,5.207-2.039,5.207-2.039s14.383,8.424,13.02,3.465
			c-1.363-4.959,5.58-3.873,5.58-3.873s0.246-1.767,8.184-2.446c7.936-0.679,21.326,13.859,20.086,10.802
			c-1.238-3.057,12.299,7.21,12.646,2.514c0.506-6.763,6.057,4.438,5.787,6.961c-0.271,2.521,3.111-3.561,3.926-2.596
			c0.811,0.964-0.018,8.262,0.678,9.198c1.73,2.339-0.791,4.565,1.141,7.159c3.598,4.823,0,6.998,0,8.153s-0.619,10.53,0,13.248
			c0.623,2.717-5.428,6.726-6.494,6.114s0.172-3.533-6.152,0c-6.324,3.533-20.955,7.338-18.971,3.057
			c1.984-4.28-7.689-1.698-10.043,0c-2.354,1.699-6.076,1.97-4.463-1.427c1.611-3.396-34.719,10.463-39.803,9.172
			c-5.082-1.291-14.756,3.397-11.902,0c2.854-3.397-5.207-2.038-5.207-2.038s-12.525,5.775-12.275,2.038
			c0.25-3.736-3.719-4.484-3.719-4.484s-10.541-1.767-11.16,0.815c-0.619,2.582-3.844-0.067-6.695-1.426
			c-2.851-1.359-20.955-0.204-29.757,1.019c-8.803,1.223,1.363-2.786-0.372-3.465s-58.027,9.783-76.253,11.821
			c-18.226,2.038-39.182,2.718-41.661,1.63c-2.479-1.087,6.695-1.223-2.976-2.038s-32.115,0.815-37.197,0.408
			c-5.083-0.408-0.745-3.669-6.695-4.484"/>
		<path fill="#99C0FF" d="M7.647,161.458c1.328-0.5,5.918-6.333,7.167-8.333s0.834,6.666,3,5.333s1.666,0.083,3.666-0.667
			s0.594,2.319,4.5,0s6.5-3.333,6.5-3.333s15.746-8.5,18.996-9.75s7.426-0.833,6.671,0.75s5.172-1.332,8.667-0.833
			s0.934,5.806,3.666,6s5.171,0.417,9.5,0.5s18.756-8.952,15.334-6.56s2.339,2.108,5.5,0s-2.334,5.56-1.667,5.226
			s11.167-5.226,11.167-5.226s13.422-8.856,18-10.774s-21.834,17.333-21.834,17.333s4.338-3.583-1.5,1.333s1.899,1.774,1.167,3.667
			s-2,5.167-2,5.167s-0.495,5.667,1.5,4.167s3.588,0.084,5.5,0s2.588-4,4-4.333s1.421,3.834,2.833,5.333s2.112-7.249,5.373-1.333
			s2.883,6.25,4.961,9s2.235-2.004,5.186,3.079s5.267,0.497,10.81-0.496c12.499-2.238-8.212,5.902,5.005,1.25
			c12.078-4.25,28.421-1.082,34.333-0.333s10.339,0,15.167,2.333s1.839-0.666,8.667,0s6.921,1.167,14.833,3.333
			c7.913,2.166,9.088,3.75,12.167,4.167c3.079,0.417-4.578,5.333-7.167,5c-2.589-0.333-3.662,1.667-7.167,2.167
			s-19.578-0.5-26.333,2.833s-39.077-0.5-40.833,3.333s26.755,5.167,35,6.333s83.334-6.167,83.334-6.167s55.586-5.25,64.166-7
			c8.582-1.75,45.514-5.47,48.014-4.803c2.498,0.667-19.848,3.386-21.016,4.636s31.17-4.333,31.668-3.833
			c0.5,0.5-11.748,1.5-13.666,3s14.918-1.75,20.334-2.5c5.414-0.75-6.834,3.333-14.668,7s-22.08,5.333-25.666,5.667
			c-3.584,0.333-5.666-1.333-3.834-3.833c1.834-2.5-24.082,0.583-34.5,1.167c-10.416,0.583-27.164,4.583-34.666,5.667
			s-39.666-0.083-49.166,2c-9.502,2.083-23.334,2.583-26.168,4.333s11.667,2.333,17.333,2.333c5.666,0,56.168-5,64.334-6.5
			c8.164-1.5,50.25-3.584,54.332-5.167s-6.916,8.917-13.5,10s-22.498,5.75-31.332,4.5c-8.836-1.25-28.582,0.917-33.5,3.5
			s27.916,4.5,33.832,6.833s-4.582,1.25-10,1c-5.416-0.25-34.832-6-36.666-4s2.584,2.584,0.5,3.167s-17.832-7.25-24.167-6
			c-6.335,1.25,10,3.5,4.167,5c-5.834,1.5-29.083-0.917-34.917-0.167s-31.082,0.167-39.75,0.667s-3.249,5.25-14.5,5
			s-2.999,5.333-23.167,4s-47.166-11.083-51-13.5s-7.666,1.083-7-1.167s-17.582-1.25-13.5,0.167s-3.498-0.417-12.166-0.167
			s-8.249,7.917-12.667,5s-10.582-8.76-12.5-10.838s0.584,3.828-4,0s-3.833,1.005-3.833,1.005s-4.166,0.167-4.167-4.167
			s-2.331-9.584-3.333-8.333s-1.582-3.083,0-5.5s4.667-13.5,3.666-17.833s-1.665-11.083,0.167-8.167s-2.912-7.916-0.667-8.5
			s1.538-0.278-0.212-2.048S6.319,161.958,7.647,161.458z"/>
		<path fill="#61A1FF" d="M6.027,174.552c0.588-0.222,2.623-2.808,3.177-3.694c0.554-0.887,0.369,2.955,1.33,2.364
			c0.96-0.591,0.738,0.037,1.625-0.295c0.886-0.333,0.263,1.028,1.994,0s2.882-1.478,2.882-1.478s6.979-3.768,8.42-4.322
			s3.292-0.369,2.957,0.333c-0.334,0.702,2.293-0.59,3.842-0.369c1.55,0.221,0.414,2.574,1.625,2.66
			c1.212,0.086,2.292,0.185,4.211,0.222s8.314-3.968,6.798-2.908s1.036,0.935,2.438,0s-1.034,2.464-0.738,2.316
			c0.295-0.147,4.949-2.316,4.949-2.316s5.95-3.926,7.979-4.776c2.029-0.85-9.679,7.684-9.679,7.684s1.923-1.588-0.665,0.591
			c-2.588,2.18,0.842,0.787,0.518,1.625s-0.887,2.29-0.887,2.29s-0.22,2.512,0.665,1.847s1.591,0.037,2.438,0
			c0.847-0.037,1.146-1.773,1.772-1.921s0.63,1.7,1.256,2.364s0.937-3.213,2.382-0.591s1.278,2.771,2.199,3.99
			s0.991-0.889,2.299,1.365c1.308,2.253,2.334,0.22,4.791-0.22c5.541-0.992-3.64,2.616,2.219,0.554
			c5.354-1.884,12.599-0.48,15.219-0.148c2.621,0.332,4.583,0,6.724,1.034c2.14,1.034,0.814-0.295,3.842,0
			c3.026,0.295,3.067,0.518,6.575,1.478c3.507,0.96,4.028,1.662,5.394,1.847c1.364,0.185-2.03,2.364-3.178,2.216
			c-1.147-0.147-1.623,0.739-3.177,0.961c-1.554,0.221-8.679-0.222-11.673,1.255c-2.994,1.478-17.321-0.221-18.1,1.478
			c-0.778,1.699,11.859,2.291,15.515,2.807c3.654,0.517,36.938-2.733,36.938-2.733s24.641-2.327,28.444-3.103
			s20.175-2.425,21.282-2.129c1.108,0.296-8.797,1.501-9.314,2.055c-0.519,0.554,13.816-1.921,14.037-1.699
			c0.222,0.222-5.207,0.665-6.058,1.33s6.612-0.775,9.013-1.108s-3.028,1.477-6.501,3.103s-9.788,2.364-11.377,2.512
			c-1.59,0.147-2.513-0.591-1.7-1.699c0.812-1.108-10.675,0.258-15.293,0.517c-4.617,0.259-12.041,2.031-15.366,2.512
			s-17.583-0.037-21.795,0.887c-4.211,0.923-10.343,1.145-11.599,1.921c-1.257,0.776,5.172,1.034,7.684,1.034
			c2.511,0,24.897-2.216,28.518-2.881c3.619-0.665,22.274-1.588,24.084-2.29c1.81-0.702-3.065,3.952-5.984,4.433
			c-2.918,0.48-9.973,2.548-13.889,1.995c-3.917-0.554-12.67,0.407-14.85,1.552c-2.181,1.145,12.375,1.995,14.997,3.029
			s-2.031,0.554-4.433,0.443s-15.44-2.66-16.254-1.773c-0.812,0.886,1.146,1.145,0.222,1.404c-0.924,0.258-7.904-3.214-10.712-2.66
			c-2.809,0.554,4.433,1.551,1.847,2.216s-12.892-0.407-15.478-0.074s-13.778,0.074-17.62,0.295
			c-3.843,0.222-1.44,2.327-6.428,2.216c-4.987-0.11-1.329,2.364-10.27,1.773c-8.939-0.591-20.907-4.913-22.606-5.984
			s-3.398,0.48-3.104-0.517c0.296-0.997-7.793-0.554-5.983,0.074c1.809,0.628-1.551-0.185-5.394-0.074
			c-3.842,0.111-3.656,3.509-5.614,2.216c-1.959-1.292-4.691-3.883-5.541-4.804c-0.851-0.921,0.259,1.697-1.773,0
			s-1.699,0.445-1.699,0.445s-1.847,0.074-1.847-1.847c-0.001-1.921-1.033-4.249-1.478-3.694c-0.444,0.555-0.701-1.367,0-2.438
			c0.701-1.071,2.068-5.984,1.625-7.905c-0.444-1.921-0.738-4.913,0.074-3.62c0.812,1.293-1.291-3.509-0.296-3.768
			s0.682-0.124-0.094-0.908C3.605,174.263,5.438,174.774,6.027,174.552z"/>
		<path opacity="0.16" fill="#FFFFFF" d="M468.692,205.905c-0.588,0.222-2.623,2.808-3.177,3.694
			c-0.554,0.887-0.369-2.955-1.33-2.364c-0.96,0.591-0.738-0.037-1.625,0.295c-0.886,0.333-0.263-1.028-1.994,0
			s-2.882,1.478-2.882,1.478s-6.979,3.768-8.42,4.322s-3.292,0.369-2.957-0.333c0.334-0.702-2.293,0.59-3.842,0.369
			c-1.55-0.221-0.414-2.574-1.625-2.66c-1.212-0.086-2.292-0.185-4.211-0.222s-8.314,3.968-6.798,2.908s-1.036-0.935-2.438,0
			s1.034-2.464,0.738-2.316c-0.295,0.147-4.949,2.316-4.949,2.316s-5.95,3.926-7.979,4.776c-2.029,0.85,9.679-7.684,9.679-7.684
			s-1.923,1.588,0.665-0.591c2.588-2.18-0.842-0.787-0.518-1.625s0.887-2.29,0.887-2.29s0.22-2.512-0.665-1.847
			s-1.591-0.037-2.438,0c-0.847,0.037-1.146,1.773-1.772,1.921s-0.63-1.7-1.256-2.364s-0.937,3.213-2.382,0.591
			s-1.278-2.771-2.199-3.99s-0.991,0.889-2.299-1.365c-1.308-2.253-2.334-0.22-4.791,0.22c-5.541,0.992,3.64-2.616-2.219-0.554
			c-5.354,1.884-12.599,0.48-15.219,0.148c-2.621-0.332-4.583,0-6.724-1.034c-2.14-1.034-0.814,0.295-3.842,0
			c-3.026-0.295-3.067-0.518-6.575-1.478c-3.507-0.96-4.028-1.662-5.394-1.847c-1.364-0.185,2.03-2.364,3.178-2.216
			c1.147,0.147,1.623-0.739,3.177-0.961c1.554-0.221,8.679,0.222,11.673-1.255c2.994-1.478,17.321,0.221,18.1-1.478
			c0.778-1.699-11.859-2.291-15.515-2.807c-3.654-0.517-36.938,2.733-36.938,2.733s-24.641,2.327-28.444,3.103
			s-20.175,2.425-21.282,2.129c-1.108-0.296,8.797-1.501,9.314-2.055c0.519-0.554-13.816,1.921-14.037,1.699
			c-0.222-0.222,5.207-0.665,6.058-1.33s-6.612,0.775-9.013,1.108s3.028-1.477,6.501-3.103s9.788-2.364,11.377-2.512
			c1.59-0.147,2.513,0.591,1.7,1.699c-0.812,1.108,10.675-0.258,15.293-0.517c4.617-0.259,12.041-2.031,15.366-2.512
			s17.583,0.037,21.795-0.887c4.211-0.923,10.343-1.145,11.599-1.921c1.257-0.776-5.172-1.034-7.684-1.034
			c-2.511,0-24.897,2.216-28.518,2.881c-3.619,0.665-22.274,1.588-24.084,2.29c-1.81,0.702,3.065-3.952,5.984-4.433
			c2.918-0.48,9.973-2.548,13.889-1.995c3.917,0.554,12.67-0.407,14.85-1.552c2.181-1.145-12.375-1.995-14.997-3.029
			s2.031-0.554,4.433-0.443s15.44,2.66,16.254,1.773c0.812-0.886-1.146-1.145-0.222-1.404c0.924-0.258,7.904,3.214,10.712,2.66
			c2.809-0.554-4.433-1.551-1.847-2.216s12.892,0.407,15.478,0.074s13.778-0.074,17.62-0.295c3.843-0.222,1.44-2.327,6.428-2.216
			c4.987,0.11,1.329-2.364,10.27-1.773c8.939,0.591,20.907,4.913,22.606,5.984s3.398-0.48,3.104,0.517
			c-0.296,0.997,7.793,0.554,5.983-0.074c-1.809-0.628,1.551,0.185,5.394,0.074c3.842-0.111,3.656-3.509,5.614-2.216
			c1.959,1.292,4.691,3.883,5.541,4.804c0.851,0.921-0.259-1.697,1.773,0s1.699-0.445,1.699-0.445s1.847-0.074,1.847,1.847
			c0.001,1.921,1.033,4.249,1.478,3.694c0.444-0.555,0.701,1.367,0,2.438c-0.701,1.071-2.068,5.984-1.625,7.905
			c0.444,1.921,0.738,4.913-0.074,3.62c-0.812-1.293,1.291,3.509,0.296,3.768s-0.682,0.124,0.094,0.908
			C471.114,206.194,469.281,205.683,468.692,205.905z"/>
		<path fill="#99C0FF" d="M421.424,146.08c0.821,3.128,2.721,3.269,2.148,4.359c-0.428,0.818-3.883-0.135-4.733,0.636
			c-1.985,1.801,2.409,4.183-1.034,4.251c-1.707,0.034-5.132-0.91-8.127-3.002c-2.88-2.012-2.674-0.277-6.057-2.492
			c-3.384-2.214-13.937-9.146-15.834-10.216c-1.896-1.069,3.256,5.852-3.145,2.764c-6.399-3.088-1.078,4.043-0.04,6.642
			c1.035,2.6-5.053-1.458-10.779-5.287c-5.725-3.83-13.742-13.634-14.407-11.14c-0.667,2.497-22.537-19.685-31.014-30.406
			c-8.476-10.72-8.812-6.451-16.078-14.185c-7.267-7.733-1.776,1.722-2.999,1.089c-1.222-0.636-7.665-3.984-7.665-3.984
			s-2.812-1.864-5.806-2.491c-2.992-0.626-1.472,2.698-1.472,2.698s-0.36,0.221,3.14,3.459c3.499,3.239-5.105-0.04-5.105-0.04
			s-1.649-0.394-2.312,2.46c-0.661,2.854-5.834-0.318-13.176-3.065c-7.344-2.746-13.229-0.611-13.229-0.611s-4.331,1.571-7.664,2.78
			c-3.331,1.208-1.618,4.373-1.618,4.373s1.423-2.139,1.215,3.346c-0.208,5.486-7.008,6.148-15.174,4.423
			c-8.168-1.728-0.684,3.499-0.272,4.967c0.358,1.285-13.201-4.431-10.521-2.331c7.134,5.592-2.529,0.615-4.092,0.505
			c-12.509-0.873-28.552-16.871-28.552-16.871s-4.789-5.927-0.894,2.217c3.897,8.144-3.813-1.681-7.751-4.22
			c-3.938-2.541-1.465,3.235-1.465,3.235s-10.026-7.544-7.305-1.947c2.719,5.594-0.852,5.447-0.852,5.447s0.641,2.111-2.624,4.198
			c-3.267,2.084-15.448-12.792-13.593-9.406c1.856,3.384-8.575-6.458-6.734-0.894c2.651,8.012-4.598-4.223-5.551-7.224
			c-0.953-3.003,0.119,4.681-0.654,3.681c-0.773-0.998-3.507-9.691-4.216-10.677c-1.772-2.461-1.59-5.482-3.556-8.208
			c-3.665-5.074-2.978-8.208-3.47-9.564c-0.492-1.353-4.201-12.451-5.636-15.536c-1.435-3.087-0.429-8.771,0.308-8.229
			c0.737,0.545,1.426,4.173,2.754-0.999c1.33-5.17,6.265-12.009,7.196-6.667c0.932,5.341,4.166,0.742,4.498-1.632
			c0.332-2.375,1.884-3.299,2.606,0.947c0.722,4.247,11.097-17.91,13.923-17.223c2.826,0.689,5.164-6.38,5.33-1.934
			c0.168,4.448,3.199,1.545,3.199,1.545s3.154-8.808,4.631-4.385c1.479,4.423,3.574,4.654,3.574,4.654s5.472,0.36,4.651-2.768
			C184.574,0,187.147,2.584,189,3.713c1.854,1.129,13.469-2.541,14.536-2.025c1.064,0.513,174.931,1.146,177.957,0.138
			c3.027-1.008,46.521,135.912,46.521,135.912l-6.017,7.322"/>
		<path fill="#99C0FF" d="M461.341,112.013c0.516-0.542,1.338,0.705,1.148-0.07c-0.142-0.581-1.675-2.605-2-3.458
			c-0.76-1.992,1.251,0.17-0.225-2.208c-0.731-1.178-2.251-3.185-3.646-4.493c-1.34-1.257-1.162-1.729-2.729-3.259
			c-1.568-1.529-6.459-6.294-7.33-7.213c-0.869-0.917,1.701,0.159-1.208-3.124c-2.908-3.282-0.254-2.164,0.327-2.371
			c0.579-0.21-2.246-2.938-4.903-5.5c-2.657-2.559-6.608-4.578-6.766-5.912c-0.157-1.337-10.698-8.453-14.894-10.46
			c-4.195-2.008-4.118-3.744-7.64-5.98c-3.521-2.236-0.674-1.822-1.231-2.434c-0.558-0.61-3.499-3.831-3.499-3.831
			s-1.305-1.264-2.622-3.087c-1.318-1.824-0.493-1.958-0.493-1.958s-0.144-0.324,1.527,0.924c1.671,1.247-2.194-3.474-2.194-3.474
			s-0.729-0.989-0.866-2.449c-0.136-1.458-2.521-3.874-5.818-7.92c-3.296-4.049-5.714-8.824-5.714-8.824s-1.779-3.514-3.148-6.218
			c-1.368-2.703-0.469-2.648-0.469-2.648s0.501,1.727,0.695-0.351c0.193-2.079-2.692-6.958-6.289-11.929
			c-3.599-4.971-0.113-1.702,0.14-1.939c0.221-0.208-28.414-1.179-28.928-0.636c-0.515,0.543,0.725,1.39,1.579,2.257
			c0.854,0.869,3.905,7.59,5.227,10.938c1.322,3.349,0.427-0.839,0.913-0.291c0.483,0.545,8.294,22.289,11.151,29.163
			c2.857,6.873,6.546,14.57,7.268,15.339c0.721,0.765-0.935-2.584,1.043,0.83c1.978,3.413,5.711,11.77,6.745,13.566
			c1.034,1.796,1.029-0.183,2.323,1.879c1.293,2.062,10.816,22.026,12.683,26.857c1.865,4.83,1.871,3.008,2.474,4.636
			c0.604,1.628,1.965,2.854,3.268,4.402c1.304,1.547,1.517,6.479,3.207,8.055c1.691,1.578,0.469,1.008-0.193,2.08
			c-0.662,1.071-0.02,10.424,1.229,12.848s3.208,6.13,3.208,6.13l2.122,4.191l46.931-24.612l-2.206-6.695"/>
		<path opacity="0.16" fill="#FFFFFF" d="M394.076,297.374c-1.29,0.222-5.758,2.808-6.974,3.694c-1.215,0.887-0.81-2.955-2.92-2.364
			c-2.106,0.591-1.62-0.037-3.566,0.295c-1.944,0.333-0.577-1.028-4.378,0s-6.326,1.478-6.326,1.478s-15.321,3.768-18.483,4.322
			s-7.227,0.369-6.491-0.333c0.733-0.702-5.033,0.59-8.434,0.369c-3.402-0.221-0.909-2.574-3.567-2.66
			c-2.66-0.086-5.031-0.185-9.243-0.222c-4.213-0.037-18.252,3.968-14.923,2.908s-2.274-0.935-5.351,0s2.27-2.464,1.62-2.316
			c-0.647,0.147-10.864,2.316-10.864,2.316s-13.062,3.926-17.517,4.776c-4.455,0.85,21.247-7.684,21.247-7.684
			s-4.222,1.588,1.46-0.591c5.681-2.18-1.849-0.787-1.137-1.625s1.946-2.29,1.946-2.29s0.482-2.512-1.46-1.847
			c-1.941,0.665-3.492-0.037-5.353,0c-1.858,0.037-2.517,1.773-3.891,1.921s-1.383-1.7-2.757-2.364s-2.057,3.213-5.229,0.591
			c-3.173-2.622-2.807-2.771-4.828-3.99s-2.176,0.889-5.046-1.365c-2.871-2.253-5.124-0.22-10.518,0.22
			c-12.164,0.992,7.989-2.616-4.871-0.554c-11.754,1.884-27.656,0.48-33.408,0.148c-5.754-0.332-10.061,0-14.76-1.034
			c-4.697-1.034-1.788,0.295-8.434,0c-6.644-0.295-6.733-0.518-14.434-1.478c-7.698-0.96-8.843-1.662-11.84-1.847
			c-2.995-0.185,4.457-2.364,6.976-2.216c2.519,0.147,3.563-0.739,6.974-0.961c3.411-0.221,19.051,0.222,25.624-1.255
			c6.573-1.478,38.024,0.221,39.732-1.478c1.709-1.699-26.033-2.291-34.057-2.807c-8.022-0.517-81.087,2.733-81.087,2.733
			s-54.091,2.327-62.441,3.103s-44.288,2.425-46.719,2.129c-2.433-0.296,19.311-1.501,20.447-2.055
			c1.138-0.554-30.33,1.921-30.814,1.699c-0.486-0.222,11.431-0.665,13.298-1.33s-14.515,0.775-19.785,1.108
			s6.648-1.477,14.271-3.103s21.487-2.364,24.975-2.512c3.49-0.147,5.516,0.591,3.732,1.699c-1.784,1.108,23.433-0.258,33.571-0.517
			c10.136-0.259,26.433-2.031,33.732-2.512s38.598,0.037,47.844-0.887c9.244-0.923,22.704-1.145,25.461-1.921
			c2.759-0.776-11.353-1.034-16.867-1.034c-5.512,0-54.655,2.216-62.602,2.881c-7.945,0.665-48.897,1.588-52.869,2.29
			c-3.973,0.702,6.729-3.952,13.137-4.433c6.406-0.48,21.892-2.548,30.488-1.995c8.599,0.554,27.813-0.407,32.598-1.552
			c4.787-1.145-27.166-1.995-32.921-3.029s4.459-0.554,9.73-0.443s33.895,2.66,35.681,1.773c1.784-0.886-2.515-1.145-0.487-1.404
			c2.028-0.258,17.352,3.214,23.515,2.66c6.165-0.554-9.73-1.551-4.054-2.216c5.677-0.665,28.3,0.407,33.977,0.074
			c5.676-0.333,30.246-0.074,38.679-0.295c8.436-0.222,3.162-2.327,14.11-2.216c10.948,0.11,2.918-2.364,22.544-1.773
			c19.624,0.591,45.896,4.913,49.625,5.984c3.73,1.071,7.461-0.48,6.813,0.517c-0.65,0.997,17.106,0.554,13.135-0.074
			c-3.971-0.628,3.404,0.185,11.84,0.074c8.434-0.111,8.025-3.509,12.324-2.216c4.3,1.292,10.299,3.883,12.163,4.804
			c1.867,0.921-0.567-1.697,3.894,0s3.729-0.445,3.729-0.445s4.055-0.074,4.055,1.847c0.002,1.921,2.268,4.249,3.243,3.694
			c0.976-0.555,1.539,1.367,0,2.438c-1.539,1.071-4.54,5.984-3.567,7.905c0.976,1.921,1.621,4.913-0.163,3.62
			c-1.781-1.293,2.834,3.509,0.649,3.768c-2.184,0.259-1.496,0.124,0.206,0.908C399.392,297.663,395.369,297.152,394.076,297.374z"
			/>
		<path opacity="0.95" fill="#FEF8DB" d="M460.953,58.612c-0.588,0.222-2.623,2.808-3.177,3.694
			c-0.554,0.887-0.369-2.955-1.33-2.364c-0.96,0.591-0.738-0.037-1.625,0.295c-0.886,0.333-0.263-1.028-1.994,0
			s-2.882,1.478-2.882,1.478s-6.979,3.768-8.42,4.322s-3.292,0.369-2.957-0.333c0.334-0.702-2.293,0.59-3.842,0.369
			c-1.55-0.221-0.414-2.574-1.625-2.66c-1.212-0.086-2.292-0.185-4.211-0.222s-8.314,3.968-6.798,2.908s-1.036-0.935-2.438,0
			s1.034-2.464,0.738-2.316c-0.295,0.147-4.949,2.316-4.949,2.316s-5.95,3.926-7.979,4.776c-2.029,0.85,9.679-7.684,9.679-7.684
			s-1.923,1.588,0.665-0.591c2.588-2.18-0.842-0.787-0.518-1.625s0.887-2.29,0.887-2.29s0.22-2.512-0.665-1.847
			s-1.591-0.037-2.438,0c-0.847,0.037-1.146,1.773-1.772,1.921s-0.63-1.7-1.256-2.364s-0.937,3.213-2.382,0.591
			s-1.278-2.771-2.199-3.99s-0.991,0.889-2.299-1.365c-1.308-2.253-2.334-0.22-4.791,0.22c-5.541,0.992,3.64-2.616-2.219-0.554
			c-5.354,1.884-12.599,0.48-15.219,0.148c-2.621-0.332-4.583,0-6.724-1.034c-2.14-1.034-0.814,0.295-3.842,0
			c-3.026-0.295-3.067-0.518-6.575-1.478c-3.507-0.96-4.028-1.662-5.394-1.847c-1.364-0.185,2.03-2.364,3.178-2.216
			c1.147,0.147,1.623-0.739,3.177-0.961c1.554-0.221,8.679,0.222,11.673-1.255c2.994-1.478,17.321,0.221,18.1-1.478
			c0.778-1.699-11.859-2.291-15.515-2.807c-3.654-0.517-36.938,2.733-36.938,2.733s-24.641,2.327-28.444,3.103
			s-20.175,2.425-21.282,2.129c-1.108-0.296,8.797-1.501,9.314-2.055c0.519-0.554-13.816,1.921-14.037,1.699
			c-0.222-0.222,5.207-0.665,6.058-1.33s-6.612,0.775-9.013,1.108s3.028-1.477,6.501-3.103s9.788-2.364,11.377-2.512
			c1.59-0.147,2.513,0.591,1.7,1.699c-0.812,1.108,10.675-0.258,15.293-0.517c4.617-0.259,12.041-2.031,15.366-2.512
			s17.583,0.037,21.795-0.887c4.211-0.923,10.343-1.145,11.599-1.921c1.257-0.776-5.172-1.034-7.684-1.034
			c-2.511,0-24.897,2.216-28.518,2.881c-3.619,0.665-22.274,1.588-24.084,2.29c-1.81,0.702,3.065-3.952,5.984-4.433
			c2.918-0.48,9.973-2.548,13.889-1.995c3.917,0.554,12.67-0.407,14.85-1.552c2.181-1.145-12.375-1.995-14.997-3.029
			s2.031-0.554,4.433-0.443s15.44,2.66,16.254,1.773c0.812-0.886-1.146-1.145-0.222-1.404c0.924-0.258,7.904,3.214,10.712,2.66
			c2.809-0.554-4.433-1.551-1.847-2.216s12.892,0.407,15.478,0.074s13.778-0.074,17.62-0.295c3.843-0.222,1.44-2.327,6.428-2.216
			c4.987,0.11,1.329-2.364,10.27-1.773c8.939,0.591,20.907,4.913,22.606,5.984s3.398-0.48,3.104,0.517
			c-0.296,0.997,7.793,0.554,5.983-0.074c-1.809-0.628,1.551,0.185,5.394,0.074c3.842-0.111,3.656-3.509,5.614-2.216
			c1.959,1.292,4.691,3.883,5.541,4.804c0.851,0.921-0.259-1.697,1.773,0s1.699-0.445,1.699-0.445s1.847-0.074,1.847,1.847
			c0.001,1.921,1.033,4.249,1.478,3.694c0.444-0.555,0.701,1.367,0,2.438c-0.701,1.071-2.068,5.984-1.625,7.905
			c0.444,1.921,0.738,4.913-0.074,3.62c-0.812-1.293,1.291,3.509,0.296,3.768s-0.682,0.124,0.094,0.908
			C463.375,58.901,461.542,58.39,460.953,58.612z"/>
		<g>
			<g>
				<path fill="#99C0FF" d="M48.243,212.698c8.519,1.679,16.877-2.368,25.324,0.447c0.566,0.189,2.317-0.654,1.543-0.912
					c-8.654-2.884-17.001,1.157-25.676-0.553C48.847,211.564,47.157,212.484,48.243,212.698L48.243,212.698z"/>
			</g>
		</g>
		<polygon fill="#FEF8DB" points="2.637,263.963 76.838,302.689 180.901,268.067 254.005,276.101 289.472,297.521 367.367,290.689 
			461.588,283.326 453.867,326.669 12.136,326.669 		"/>
		<g>
			<g>
				<path fill="#99C0FF" d="M53.436,212.548c5.771,5.601,15.647,3.076,22.797,4.615c0.531,0.114,2.264-0.721,1.21-0.947
					c-7.009-1.509-16.622,1.031-22.203-4.385C54.804,211.407,52.997,212.122,53.436,212.548L53.436,212.548z"/>
			</g>
		</g>
		<g>
			<g>
				<path fill="#99C0FF" d="M85.247,223.373c6.814-0.057,12.982-0.091,19.375,2.542c3.967,1.635,7.389,1.351,11.388-0.088
					c1.138-0.41,0.827-1.696-0.342-1.275c-5.718,2.058-8.979,0.116-14.267-1.496c-5.149-1.57-10.668-1.094-15.97-1.05
					C84.345,222.014,83.932,223.384,85.247,223.373L85.247,223.373z"/>
			</g>
		</g>
	</g>
</g>
<g id="grass_midsection">
</g>
<g id="board_2">
	<g id="Layer_3">
		<g id="Layer_4">
		</g>
	</g>
</g>
<g id="Layer_11">
</g>
<g id="Layer_10">
</g>
<g id="Layer_12">
</g>
<g id="flat_layer_of_mountain">
</g>
<g id="flat_back_layer_of_mountain">
	<g display="none">
		<path display="inline" fill="#003366" d="M183.338,384.778c-0.167,2.833,8.5,6.333,10.833,7.667c6,3.333,11.333,7.833,16.167,12.5
			l-3.833-3.833c2.833,4,6.667,7.5,10,11.167c1.833,2.167,3.167,5,5.333,6.833c2.334,2.167,5.5,3.667,7.834,6l6.5-6
			c-0.667-0.333-1.334-0.667-1.834-1c1.167,1,3,1.167,4.167,2c-2.333-0.5-4.833-1.333-7.333-1.167c3.666,0,7.166,0.5,10.666,1
			c1.834,0.333,4.834,1.167,6.5,0.333c-2.166-1.5-5.5-1.333-8-1.333c-3.666,0.167-6.666-0.333-10.166-0.667
			c4.833,0,10.333,1.167,15,2.5c-1.5-0.5-3.667-0.667-4.667,0.833c0.5-0.5,0.667-1.5,1-2c0,0,0-0.167-0.167-0.167
			c-0.5,0.667-0.5,0.833-0.666,1.667c1.166-0.5,2.166-1.5,3.166-2.5c-0.166,0.5,0,1,0,1.5c0.334-0.5,1-0.833,1.334-1.167
			c0,0.5,0.333,1.5,0.333,2.167c0.167-0.333,0.5-0.667,0.667-1c-0.167,0.667,0.166,1.5,0.166,2.167
			c0.167-0.333,0.334-0.833,0.5-1.333c0,0.667,0.167,1.5,0.167,2.333c0.167-0.333,0.5-0.833,0.667-1.333c0,1,0,1.833-0.167,2.667
			c0.333-1,0.833-2.167,1.5-3c0,1.333-0.667,2.833-1.333,4.167c0.833-1.333,1.5-2.667,2.333-3.833c-0.5,1-1.167,2.167-2,3.167
			c1-1.167,2-2.667,3.167-3.667c-0.5,1.333-1.5,2.333-2.334,3.5c0.167,0,0.834-0.667,1-0.833c0,0-0.166,0.5,0,0.5
			c0.334-0.833,1-1.333,1.5-2c0,0.167,0,0.5,0.167,0.667c0-0.333,0.333-1.167,0.5-1.667c0,1.333,0,2.667,0.5,4
			c0.167-1.167,0.167-2.333,0.333-3.5c0,1.667-0.333,3.833,0.667,5.167c0.167-1.333,0.5-2.667,0.833-4c0,2.167-1.5,4-1.333,6.167
			c0.667-2.667,1.167-5.167,2.333-7.833c0.334,1.333-0.5,2.833-0.333,4.167c0.833-0.833,0.833-2.167,1-3.333
			c0,1.5-0.167,2.833,0.333,4.333c0.334-1.333,0.5-2.667,0.667-4c-0.167,1,0,2.167,0.5,3c0.167-1,0.333-2,0.333-3
			c0.334,1.167,0.5,2.5,1.167,3.5c0-1-0.167-2-0.333-3c-0.167,1,0.166,2.167,0.166,3c-1-0.833-0.833-2.333-2.333-3
			c-2-0.833-2.333,2-1.333,3.833c0.833-1.5,1-4.833-1.167-5.333c-0.5,0.833-1.333,4.667-0.5,5.5c1.5,1.167,2.333-2.667,2-3.667
			c-1.833-5.333-4,2.833-1.333,2.833c1.666,0,1.5-3.667,0.666-4.5c-1.5-1.833-2-0.333-3.666,0.333c-2.834,1.167-5,0-7.667-1.167
			c1,0.667,2,1.167,3.167,1.5c-1-1-2.167-1.667-3.334-2.167c0.667,0.333,1.5,0.833,2.334,1.167c-1.5-0.167-3-0.5-4.5-0.833
			c0.833,0.167,1.333,0,2.166-0.167c-1.5-0.167-3-0.5-4.333-0.333c1.5,1,3.5,1,5.333,1.167c-1.166-0.833-3.166-0.833-4.666-1.167
			c1.666,1.833,4.333,1.667,6.5,2.667c-0.667-0.667-1.5-1.333-2.334-2c0.667,1.333,1.667,2.833,2.834,3.667
			c0-0.5-0.167-1.333-0.5-1.833c-0.334,4.833,4,3,2.166-0.667c-0.666,1.5-0.666,3.5-0.333,5c1.333-0.833,1.667-4.333,1-5.667
			c-1,1-1.833,2.833-1.333,4.167c1.833-0.667,2.166-4.333,1.833-6.167c-0.833,2-2,5.667-1.167,7.5c1.167-1.667,1.667-4.333,2-6.333
			c-0.333,1-0.5,2.167-0.166,3c1.5-2.333,5.333,1,5.5-1.833c1.166,0.5,2.5,0.5,3.5-0.333c-0.5-0.5-1.167-1.167-1.834-1.333
			c0.5,1.333,2.167,2.167,3.5,2.833c-0.833-0.333-1.666-0.667-2.5-1.167c2,0.667,4,0.5,5.834-0.667
			c-1.167-0.5-3.834-0.167-3.667,1.5c0.167,2.167,4-0.167,4.5-1c-1.5-0.5-4.5-0.5-5.5,1.167c1,0.167,2.167-0.167,3.167-0.333
			c-0.167,0.833-0.5,2-0.5,2.833c1.5,0,3.333-1.167,4.333-2.333c-0.833,0.333-1.333,0.667-2,1c1,0.167,1.5,0,1.833-1
			c-0.833,0.667-1.333,1.667-1.666,2.667c1.166-0.167,1.166-0.5,1.166-1.333c-0.5,0.167-1.333,2.333,0,1.833
			c1.667-0.833,0.667-2.333-0.666-2.5c-0.5,1.833,1.5,2.667,2.833,1.333c-0.667-1-3.167-1.833-4.333-1.333
			c0.333,1.667,3.166,2.167,4.166,1c-1-0.5-2-0.667-3-0.833c0.167,1.667,2.5,3.167,4,3.167c-1-1.5-3-2.5-4.666-2.833
			c0.166,1.167,1.5,1.833,2.666,2c0,0-0.333-0.5-0.333-0.333c0.667,0.167,1.333,0.333,1.833,0.5c-1.666-0.5-4.333-2.5-5.833-0.833
			c0.333,0.167,1.167,0.5,1.333,0.5c-1.5-0.667-3-0.5-4.5,0.5c0.334-0.167,0.5-0.333,0.834-0.5c-0.667,0.5-1.167,1.167-1.834,1.667
			c0.334-0.167,0.667-0.333,1-0.5c-2,0.167-3.5-1.667-5.333-2.333c-0.167,1.5,0,3.167-0.833,4.5c0.5-1,1.166-2,2-2.833
			c-0.334,0.5-0.667,1.167-1,1.833c0.333-0.5,0.666-1,1-1.333c-1.834,2-3.834-3.833-5.5-5.167c0.5,1,1.333,1.833,2,2.833
			c-0.667-0.833-1.667-1.333-2.5-1.5c0.333,1,1.166,2.167,2.333,2.5c-0.333-1-1.333-1.667-2.167-1.667
			c-0.166,0.833,0,1.667,0.667,2.333c-2-1.667-4.5-3-6.833-4.167c0,2.167,2,4.5,3,6.167c1-0.5,1.5-0.667,1.5,0.5
			c0.333,0.333,0.5-0.333,0.5-0.333c0,0.333,0,0.667-0.167,1c0.333-0.333,1.333-0.833,1.833-1.167c-0.166,0.5-0.166,1-0.333,1.667
			c0.5-0.167,1.167,0,1.667-0.167c-0.334,0.833-0.5,1.667-0.667,2.667c3.167,0.5,2.167,2.833,2.333,4.5l-33.667-23.333
			c6.5,3,12.667,4.167,19.667,4.833c4,0.333,7.834,0,11.667,0.667c2,0.167,3.667,0.5,5.5,0.667s3.833,1,5.667,1
			c0.666,0,1-0.167,1.666-0.5l-13.333-2.333c3.333,0.333,6.667-1.667,10-2.667c6.667-2,14-2.667,20.667-3.333
			c8-0.667,13.666-2,20.333-6c5.667-3.333,5.667-2.667,11-1.667c2.333,0.333,6.333,1.333,8.667,0.333l-6.858,3.069
			c26.419-13.566,55.694-22.849,82.828-36.416l23.03-7.32l24.555,7c0,0,10.277-3,17.361-4.667s7.541-10.696,16.312-8.681
			s20.106-12.652,20.106-12.652l19.334-7.349c0,0,7.163-2.015,13.247,0s17.417,7.015,17.417,7.015l27,10l17,2.985l50.667-10.986
			l10.667,13.147l6,58.19l2.592,108.33h-19.299c-10.915,0.56-21.732,1.002-32.358,1.002c-15.898,0-28.617-8.666-44.515-9.333
			c-16.535-1.333-33.705-2.667-49.603,0.667c-10.176,2-17.807,6-27.982,5.333c-6.358-0.667-12.718-2.667-19.077-2.667
			c-9.174,0.001-17.224,4.836-26.53,3.647c-6.19-0.79-12.634-2.228-18.864-1.038c-3.415,0.651-5.007,2.62-7.844,4.084
			c-2.73,1.408-5.82,2.275-8.775,3.906c-3.662,2.019-10.188,0.754-13.998-0.316c-6.201-1.744-13.269-2.025-19.132-4.634
			c-3.021-1.345-4.973-2.882-5.701-6.602c-4.204-0.91-10.894,7.745-13.942,9.96c-2.103,1.527-3.211,2.975-6.042,3.324
			c-2.081,0.257-3.827-0.297-5.724-0.666l6.199-3.667c-7.154,1-15.739,2-22.894,0.5c-4.77-1.5-9.062-5-13.831-6.5l1.27,0.662
			c-23.53,4-47.059-7.332-69.952,0.668l-26.165-1.455l-26,8.625L183.338,384.778z"/>
		<g display="inline">
			<path fill="#CC9933" d="M182.373,385.037c0.509,3.655,6.839,5.701,9.651,7.083c6.536,3.214,12.171,8.153,17.402,13.142
				c0.336,0.321,2.066-0.395,1.826-0.635c-1.277-1.278-2.555-2.556-3.833-3.833c-0.308-0.308-2.003,0.409-1.879,0.576
				c3.567,4.792,8.305,8.606,11.716,13.494c3.196,4.579,7.419,6.894,11.504,10.565c0.328,0.295,1.516-0.166,1.782-0.412
				c2.167-2,4.333-4,6.5-6c0.056-0.051,0.165-0.162,0.044-0.223c-0.63-0.298-1.242-0.632-1.834-1
				c-0.444-0.26-2.024,0.51-1.826,0.635c1.327,0.836,2.788,1.263,4.167,2c0.57-0.223,1.142-0.447,1.713-0.67
				c-1.803-0.422-3.763-1.095-5.626-1.137c-2.381,0.994-1.685,1.323,2.089,0.987c1.763,0.163,3.519,0.439,5.271,0.688
				c2.652,0.375,4.77,0.96,7.368,0.237c0.063-0.018,1.158-0.408,0.845-0.573c-2.242-1.187-4.461-1.354-6.969-1.385
				c-2.66-0.034-5.278-0.029-7.935-0.292c-4.284-0.424,0.527,0.773,1.732,0.951c2.264,0.333,4.493,0.896,6.708,1.459
				c1.118,0.285,3.434-0.941,0.291-0.6c-1.542,0.167-2.343,0.638-3.442,1.612c0.605-0.092,1.212-0.184,1.817-0.276
				c0.4-0.633,0.734-1.3,1-2c0.034-0.058,0.022-0.103-0.036-0.136c-0.056-0.056-0.111-0.111-0.167-0.167
				c-0.303-0.303-1.672,0.177-1.862,0.499c-0.395,0.486-0.617,1.042-0.666,1.667c-0.105,0.454,1.505-0.082,1.681-0.184
				c1.279-0.743,2.232-1.548,3.303-2.592c-0.611,0.118-1.223,0.235-1.834,0.353c0,0.5,0,1,0,1.5c0,0.372,1.674-0.197,1.834-0.353
				c0.404-0.437,0.849-0.826,1.334-1.167c-0.611,0.118-1.223,0.235-1.834,0.353c0.123,0.72,0.234,1.443,0.333,2.167
				c0.06,0.412,1.749-0.191,1.915-0.44c0.223-0.333,0.445-0.667,0.667-1c-0.638,0.147-1.276,0.293-1.915,0.44
				c-0.027,0.729,0.027,1.451,0.166,2.167c0.048,0.355,1.795-0.119,1.915-0.44c0.167-0.444,0.334-0.889,0.5-1.333
				c-0.638,0.147-1.276,0.293-1.915,0.44c0.062,0.777,0.117,1.555,0.167,2.333c0.024,0.357,1.768-0.146,1.915-0.44
				c0.223-0.444,0.445-0.889,0.667-1.333c-0.638,0.147-1.276,0.293-1.915,0.44c0.033,0.895-0.022,1.784-0.167,2.667
				c-0.026,0.23,1.771-0.057,1.915-0.44c0.411-1.095,0.855-2.023,1.5-3c-0.638,0.147-1.276,0.293-1.915,0.44
				c-0.179,1.455-0.618,2.818-1.316,4.089c-0.117,0.251,1.654,0.048,1.898-0.363c0.767-1.288,1.517-2.576,2.333-3.833
				c-0.633,0.121-1.266,0.242-1.898,0.363c-0.601,1.127-1.237,2.143-2,3.167c-0.093,0.124,1.565,0.05,1.898-0.363
				c0.97-1.244,1.998-2.437,3.086-3.58c-0.605,0.092-1.212,0.184-1.817,0.276c-0.667,1.289-1.453,2.349-2.334,3.5
				c-0.172,0.224,1.563-0.096,1.817-0.276c0.375-0.228,0.708-0.506,1-0.833c-0.605,0.092-1.212,0.184-1.817,0.276
				c-0.076,0.306-0.093,0.271-0.017,0.577c0.105,0.424,1.747-0.18,1.915-0.44c0.407-0.737,0.907-1.403,1.5-2
				c-0.638,0.147-1.276,0.293-1.915,0.44c0.056,0.222,0.111,0.444,0.167,0.667c0.09,0.359,1.833-0.102,1.915-0.44
				c0.113-0.571,0.279-1.127,0.5-1.667c-0.638,0.147-1.276,0.293-1.915,0.44c0.02,1.423,0.137,2.622,0.5,4
				c0.099,0.374,1.893-0.103,1.932-0.518c0.111-1.167,0.223-2.333,0.333-3.5c-0.644,0.172-1.288,0.345-1.932,0.518
				c-0.052,1.882-0.137,3.432,0.667,5.167c0.185,0.399,1.866-0.115,1.932-0.518c0.202-1.323,0.475-2.63,0.816-3.923
				c-0.638,0.147-1.276,0.293-1.915,0.44c-0.32,2.173-1.144,4.003-1.333,6.167c-0.02,0.222,1.814-0.026,1.915-0.44
				c0.653-2.67,1.32-5.273,2.333-7.833c-0.638,0.147-1.276,0.293-1.915,0.44c0.025,1.43-0.244,2.742-0.333,4.167
				c-0.021,0.321,1.745-0.16,1.915-0.44c0.706-1.161,0.854-2.098,1.017-3.411c-0.644,0.172-1.288,0.345-1.932,0.518
				c-0.026,1.528,0.016,2.835,0.333,4.333c0.074,0.349,1.842-0.096,1.915-0.44c0.29-1.358,0.505-2.698,0.684-4.077
				c-0.644,0.172-1.288,0.345-1.932,0.518c-0.171,1.057-0.005,2.057,0.5,3c0.138,0.396,1.871-0.118,1.932-0.518
				c0.193-0.991,0.305-1.991,0.333-3c-0.644,0.172-1.288,0.345-1.932,0.518c0.312,1.241,0.612,2.345,1.167,3.5
				c0.178,0.37,1.96-0.108,1.932-0.518c-0.029-1.009-0.14-2.009-0.333-3c-0.05-0.325-1.938,0.068-1.932,0.518
				c-0.033,1.005,0.022,2.005,0.166,3c0.644-0.172,1.288-0.345,1.932-0.518c-1.205-1.521-1.798-3.781-4.229-3.13
				c-2.252,0.604-2.122,2.578-1.368,4.481c0.154,0.389,1.786-0.117,1.915-0.44c0.826-2.06,0.974-4.342-1.203-5.469
				c-0.37-0.192-1.688,0.082-1.862,0.499c-0.57,1.355-1.997,5.519,0.25,5.888c1.072,0.176,2.114-0.582,2.671-1.39
				c1.888-2.74-1.654-7.275-3.391-4.06c-1.316,2.439,0.919,6.654,3.141,3.66c0.947-1.276,1.15-4.917-1.061-5.28
				c-0.496-0.082-1.164,0.006-1.667,0.141c-2.895,0.775-5.595,1.189-8.581-0.124c-0.428-0.188-2.049,0.5-1.826,0.635
				c1.043,0.634,2.014,1.099,3.167,1.5c0.334,0.116,2.137-0.37,1.826-0.635c-1.072-0.915-2.066-1.554-3.334-2.167
				c-0.473-0.229-1.999,0.544-1.826,0.635c0.761,0.422,1.539,0.812,2.334,1.167c0.57-0.223,1.142-0.447,1.713-0.67
				c-1.82-0.262-3.123-0.009-4.852-0.076c0.457,0.018,1.2-0.193,1.527-0.256c0.128-0.025,1.584-0.589,0.99-0.668
				c-1.532-0.203-2.959-0.372-4.498-0.345c-0.197,0.003-1.868,0.527-1.548,0.681c1.786,0.858,3.467,1.043,5.446,1.202
				c0.277,0.022,2.011-0.527,1.713-0.67c-1.541-0.743-3.098-0.913-4.779-1.202c-0.26-0.044-2.044,0.406-1.713,0.67
				c2.027,1.621,4.063,1.79,6.5,2.667c0.33,0.119,2.138-0.353,1.826-0.635c-0.742-0.708-1.521-1.375-2.334-2
				c-0.283-0.231-2.029,0.311-1.879,0.576c0.851,1.498,1.645,2.574,2.887,3.726c0.259,0.241,1.934-0.175,1.879-0.576
				c-0.011-0.653-0.178-1.264-0.5-1.833c-0.153-0.375-1.941,0.105-1.932,0.518c0.115,4.995,5.578,2.911,4.098-1.184
				c-0.136-0.376-1.811,0.108-1.915,0.44c-0.551,1.744-0.627,3.247-0.35,5.077c0.06,0.396,1.666-0.175,1.834-0.353
				c1.492-1.577,1.717-3.791,1.098-5.832c-0.136-0.448-1.726,0.201-1.915,0.44c-1.098,1.387-1.58,2.516-1.35,4.244
				c0.051,0.381,1.537-0.156,1.697-0.261c2.16-1.414,2.337-4.027,2.067-6.424c-0.039-0.351-1.791,0.119-1.915,0.44
				c-0.943,2.442-1.831,4.961-1.184,7.577c0.102,0.411,1.759-0.162,1.915-0.44c1.142-2.023,1.617-4.147,2.017-6.41
				c0.028-0.157-1.817-0.022-1.915,0.44c-0.428,2.005-0.409,1.132-0.183,3.077c0.047,0.4,1.665-0.191,1.834-0.353
				c1.63-1.562,4.718,1.169,5.581-1.921c-0.583,0.178-1.166,0.356-1.749,0.534c1.978,0.527,3.273,0.226,5.031-0.688
				c0.108-0.057,0.32-0.188,0.182-0.315c-0.503-0.594-1.114-1.038-1.834-1.333c-0.283-0.157-2.057,0.293-1.879,0.576
				c0.899,1.437,2.042,2.112,3.553,2.892c0.608-0.211,1.218-0.423,1.826-0.635c-0.865-0.321-1.698-0.709-2.5-1.167
				c-0.57,0.223-1.142,0.447-1.713,0.67c2.69,0.613,4.742,0.27,7.181-0.929c0.143-0.07,0.671-0.346,0.253-0.443
				c-1.754-0.407-6.322-0.054-5.157,2.782c0.748,1.821,5.624-1.551,6.14-2.111c0.098-0.105-0.101-0.159-0.149-0.171
				c-2.488-0.588-5.354-0.339-7.168,1.613c-0.197,0.211,0.013,0.275,0.233,0.27c2.262-0.06,2.653-0.008,2.336,2.395
				c-0.025,0.192,0.723,0.066,0.775,0.057c2.194-0.376,3.765-1.172,5.392-2.743c0.444-0.429-1.242-0.077-1.415,0.004
				c-0.787,0.371-1.421,0.685-2.185,1.092c-0.339,0.181-0.242,0.347,0.097,0.362c1.479,0.065,2.673-0.17,3.417-1.545
				c0.141-0.26-1.625,0.039-1.898,0.363c-0.811,0.729-1.365,1.619-1.666,2.667c-0.146,0.329,0.926,0.101,1.018,0.074
				c1.224-0.35,1.975-0.45,2.063-1.848c0.021-0.338-1.674,0.181-1.834,0.353c-0.586,0.627-0.808,1.083-0.73,1.946
				c0.036,0.061,0.092,0.092,0.167,0.094c2.135,0.176,4.931-1.877,1.679-3.118c-0.349-0.133-1.866,0.071-1.879,0.576
				c-0.078,2.973,2.872,2.138,4.53,1.072c0.104-0.067,0.322-0.181,0.182-0.315c-1.458-1.399-3.164-1.669-5.056-1.331
				c-0.11,0.02-1.297,0.316-1.156,0.574c1.264,2.325,3.915,1.989,5.863,0.739c0.034-0.022,0.384-0.243,0.182-0.315
				c-1.802-0.651-1.267-0.509-3.113-0.869c-0.236-0.046-1.905,0.208-1.766,0.611c0.687,1.98,2.147,2.91,4.166,3.26
				c0.209,0.036,1.974-0.378,1.766-0.611c-1.39-1.56-2.833-2.351-4.832-2.927c-0.225-0.065-1.938,0.272-1.766,0.611
				c0.704,1.392,1.352,1.672,2.832,2.094c0.225,0.064,1.958-0.346,1.766-0.611c-0.164-0.226-0.168-0.255-0.386-0.392
				c-0.57,0.223-1.142,0.447-1.713,0.67c0.617,0.146,1.229,0.312,1.833,0.5c0.433,0.127,1.873-0.608,1.713-0.67
				c-2.751-1.066-4.828-2.26-7.478-0.514c-0.044,0.029-0.377,0.232-0.182,0.315c0.427,0.213,0.871,0.38,1.333,0.5
				c0.57-0.223,1.142-0.447,1.713-0.67c-3.045-0.789-4.812-0.028-7.168,2.114c-0.449,0.408,1.389,0.009,1.6-0.096
				c0.333-0.167,0.667-0.333,1-0.5c0.146-0.074,0.386-0.319,0.068-0.351c-2.06-0.206-3.44-1.44-5.22-2.298
				c-0.351-0.169-1.846,0.09-1.879,0.576c-0.015,1.515-0.287,2.989-0.816,4.423c-0.117,0.303,1.672,0.021,1.898-0.363
				c0.517-1.051,1.183-1.995,2-2.833c-0.633,0.121-1.266,0.242-1.898,0.363c-0.369,0.592-0.702,1.203-1,1.833
				c-0.132,0.258,1.632-0.007,1.898-0.363c0.334-0.444,0.667-0.889,1-1.333c0.18-0.239-1.574,0.11-1.817,0.276
				c0.286-0.195-3.059-4.9-3.719-5.578c-0.288-0.296-2.013,0.375-1.879,0.576c0.61,0.984,1.277,1.928,2,2.833
				c0.626-0.192,1.253-0.384,1.879-0.576c-0.666-0.784-1.499-1.284-2.5-1.5c-0.256-0.098-2.062,0.2-1.879,0.576
				c0.648,1.338,1.131,1.872,2.386,2.559c0.279,0.153,2.057-0.28,1.879-0.576c-0.652-1.091-1.099-1.459-2.333-1.761
				c-0.318-0.078-1.773,0.148-1.766,0.611c-0.186,0.892,0.037,1.67,0.667,2.333c0.626-0.192,1.253-0.384,1.879-0.576
				c-2.148-1.646-4.426-2.939-6.833-4.167c-0.294-0.15-1.953,0.125-1.879,0.576c0.396,2.405,1.697,4.158,3,6.167
				c0.228,0.352,1.244-0.055,1.513-0.168c-0.004,0.223-0.009,0.446-0.013,0.668c0.035,0.161,0.448,0.103,0.537,0.093
				c0.125-0.014,0.25-0.028,0.375-0.042c0.329-0.036,1.22-0.164,1.378-0.533c0.042-0.097,0.084-0.195,0.125-0.292
				c-0.638,0.147-1.276,0.293-1.915,0.44c-0.056,0.333-0.111,0.667-0.167,1c-0.059,0.348,1.687-0.252,1.834-0.353
				c0.565-0.358,1.131-0.716,1.696-1.074c-0.561,0.061-1.121,0.122-1.681,0.184c-0.135,0.625-0.231,1.109-0.35,1.744
				c-0.027,0.146,0.503,0.096,0.537,0.093c1.463-0.146,0.67,1.338,0.463,2.407c0.018,0.02,0.035,0.039,0.053,0.059
				c2.485,0.771,2.254,2.261,2.28,4.441c0.626-0.192,1.253-0.384,1.879-0.576c-11.222-7.778-22.444-15.556-33.667-23.333
				c-0.609,0.211-1.217,0.423-1.826,0.635c8.536,3.758,17.42,4.903,26.67,5.109c4.85,0.108,9.809,0.953,14.542,1.96
				c1.595,0.339,2.977,0.018,4.414-0.629c0.129-0.059,0.682-0.368,0.253-0.443c-2.695-0.472-5.391-0.943-8.086-1.415
				c-1.503-0.263-3.006-0.526-4.509-0.789c-1.017-0.178-0.362,0.573-0.506,0.575c0.796-0.006,1.605-0.212,2.369-0.417
				c3.904-1.046,7.531-2.688,11.513-3.557c3.925-0.856,7.951-1.266,11.941-1.687c5.431-0.572,10.979-0.88,16.185-2.682
				c5.336-1.847,11.021-6.771,16.71-5.609c2.146,0.438,4.432,0.965,6.626,1.024c1.249,0.034,1.544,0.022,2.771-0.092
				c0.439-0.041,1.385-0.94,0.466-0.528c-1.524,0.682-3.048,1.364-4.572,2.046c-0.548,0.245-1.096,0.49-1.644,0.735
				c2.419-1.083,5.027-1.81,7.483-3.001c7.154-3.47,14.465-6.614,21.795-9.689c14.253-5.979,28.666-11.562,42.764-17.908
				c4.352-1.959,8.595-4.559,13.142-6.004c3.454-1.098,6.907-2.195,10.361-3.293c3.143-0.999,6.285-1.998,9.428-2.997
				c1.477-0.469,1.748,0.016,0.546-0.327c0.876,0.25,1.752,0.5,2.628,0.749c6.771,1.931,13.543,3.861,20.314,5.791
				c1.1,0.313,1.733,0.552,2.838,0.232c4.76-1.381,9.541-2.692,14.346-3.913c3.476-0.883,5.992-1.641,8.609-4.188
				c1.388-1.351,2.57-2.874,4.058-4.129c2.431-2.052,6.08-0.321,8.888-0.828c6.954-1.258,12.412-6.424,16.932-11.549
				c1.791-2.031,0.404-1.203,3.168-2.253c3.615-1.375,7.23-2.749,10.846-4.123c1.899-0.722,4.233-1.813,6.008-2.286
				c7.226-1.925,13.568,0.485,20.153,3.144c5.036,2.033,9.971,4.189,15.062,6.075c6.651,2.463,13.302,4.927,19.953,7.39
				c4.593,1.701,9.84,2.01,14.645,2.854c3.573,0.627,5.244,0.464,8.758-0.298c7.008-1.52,14.016-3.039,21.022-4.559
				c7.008-1.52,14.016-3.039,21.022-4.559c1.404-0.304,2.809-0.609,4.213-0.913c-0.878,0.19-0.393,0.272,0.354,1.193
				c1.229,1.515,2.459,3.03,3.688,4.545c2.614,3.222,5.778,5.686,6.206,9.831c0.645,6.249,1.289,12.498,1.933,18.747
				c1.267,12.285,2.533,24.569,3.8,36.854c0.533,5.165,0.26,10.541,0.384,15.726c0.295,12.344,0.591,24.688,0.886,37.033
				c0.444,18.553,0.888,37.107,1.332,55.66c0.533-0.208,1.066-0.415,1.601-0.623c-5.926,0-11.851,0-17.775,0
				c-13.382,0-27.01,2.203-40.354,0.531c-12.42-1.556-23.766-8.007-36.351-8.761c-14.833-0.888-29.518-2.352-44.357-0.611
				c-6.019,0.706-11.874,2.193-17.687,3.857c-4.523,1.294-9.018,2.428-13.738,2.705c-4.307,0.253-8.661-0.838-12.867-1.625
				c-5.742-1.074-11.109-1.349-16.855-0.309c-3.282,0.595-6.501,1.562-9.758,2.279c-5.824,1.282-11.214,0.312-16.977-0.455
				c-4.557-0.606-9.617-0.923-14.036,0.613c-1.966,0.683-3.638,1.935-5.354,3.071c-2.646,1.753-5.813,2.484-8.618,3.914
				c-6.702,3.416-15.153-0.371-22.006-1.606c-6.378-1.149-14.76-2.17-16.614-9.45c-0.036-0.061-0.092-0.092-0.166-0.094
				c-4.607-0.388-8.261,3.414-11.291,6.359c-1.242,1.207-2.447,2.446-3.745,3.594c-0.574,0.458-1.154,0.909-1.738,1.353
				c-2.047,0.626-4.095,1.253-6.142,1.88c-0.889-0.255-1.794-0.356-2.716-0.303c2.019-1.194,4.036-2.388,6.055-3.582
				c0.477-0.282,0.033-0.396-0.303-0.35c-6.439,0.884-12.878,1.586-19.377,0.996c-6.208-0.564-11.146-4.896-16.863-6.961
				c-0.439-0.159-2.034,0.527-1.826,0.635c0.423,0.221,0.847,0.441,1.27,0.662c0.368-0.211,0.735-0.422,1.104-0.633
				c-18.755,2.889-37.176-3.723-55.907-2.125c-3.691,0.315-7.271,0.899-10.865,1.794c-1.693,0.421-2.643,0.956-4.325,0.863
				c-4.482-0.25-8.966-0.499-13.448-0.748c-5.8-0.322-10.367-1.002-15.804,0.801c-7.426,2.463-14.853,4.927-22.28,7.391
				c0.43-0.027,0.859-0.054,1.289-0.081c-2.545-47.757-5.09-95.513-7.635-143.27c-0.066-1.243-0.132-2.486-0.199-3.729
				C184.29,384.243,182.347,384.553,182.373,385.037c2.545,47.757,5.09,95.513,7.635,143.27c0.066,1.243,0.132,2.486,0.199,3.729
				c0.016,0.299,1.177-0.044,1.289-0.081c6.949-2.305,13.897-4.61,20.846-6.915c1.379-0.458,2.758-0.915,4.137-1.372
				c1.924-0.639-0.709-0.194,0.793-0.111c4.117,0.229,8.233,0.458,12.35,0.687c3.986,0.222,7.972,0.443,11.958,0.665
				c0.621,0.035,1.219,0.118,1.827-0.045c6.17-1.653,11.908-2.76,18.315-2.827c17.275-0.18,34.066,4.885,51.378,2.219
				c0.095-0.015,1.43-0.463,1.104-0.633c-0.423-0.221-0.847-0.441-1.27-0.662c-0.608,0.211-1.218,0.423-1.826,0.635
				c4.821,1.742,9.01,4.758,13.831,6.5c3.454,1.248,8.146,0.862,11.726,0.734c3.1-0.111,9.503-0.456,10.81-1.229
				c-1.887,1.116-3.772,2.232-5.659,3.348c-0.162,0.096-0.371,0.286-0.068,0.35c9.141,1.93,13.195-2.881,19.519-8.843
				c0.874-0.824,1.801-1.577,2.747-2.315c3.399-2.65,3.657,0.179,4.604,1.815c0.935,1.613,2.829,2.527,4.427,3.291
				c5.941,2.839,12.942,3.03,19.245,4.669c9.855,2.564,16.877,0.335,25.634-4.709c5.503-3.17,10.044-3.678,16.328-2.975
				c3.121,0.349,6.27,1.161,9.416,1.215c6.391,0.111,12.343-1.795,18.536-3.113c8.9-1.894,16.63,1.631,25.34,1.978
				c5.889,0.235,11.405-0.857,17.055-2.418c16.517-4.563,32.387-5.501,49.434-4.419c7.49,0.476,15.036,0.84,22.358,2.566
				c6.79,1.601,13.332,4.13,20.092,5.86c13.945,3.568,29.393,1.539,43.595,0.84c7.055-0.347,14.161-0.098,21.224-0.098
				c0.295,0,1.611-0.174,1.601-0.623c-1.041-43.499-0.417-87.243-4.882-130.541c-1.118-10.849-2.237-21.697-3.355-32.545
				c-0.688-6.665-6.897-11.498-11.021-16.582c-0.156-0.193-0.571-0.101-0.775-0.057c-11.922,2.585-23.845,5.17-35.767,7.755
				c-4.894,1.062-9.787,2.123-14.681,3.184c0.019-0.004,0.435,0.018-0.694-0.18c-1.509-0.265-3.018-0.53-4.526-0.795
				c-3.588-0.63-7.176-1.26-10.764-1.89c-4.996-0.877-10.179-3.655-14.933-5.416c-4.644-1.72-9.389-3.274-13.932-5.25
				c-8.562-3.723-17.098-8.208-26.663-7.071c-5.023,0.597-9.785,3.029-14.457,4.804c-3.921,1.49-8.065,2.208-10.813,5.402
				c-3.055,3.548-6.576,6.787-10.642,9.133c-4.34,2.504-9.07-0.298-13.292,1.996c-3.882,2.109-5.795,6.731-10.18,8.055
				c-5.215,1.574-10.586,2.727-15.83,4.225c-0.477,0.136-0.952,0.274-1.428,0.412c0.754-0.219,0.929-0.02,0.351-0.185
				c-0.969-0.276-1.938-0.552-2.905-0.828c-3.77-1.074-7.538-2.149-11.307-3.223c-3.182-0.907-8.129-3.584-11.481-2.519
				c-6.392,2.031-12.783,4.063-19.175,6.094c-9.982,3.173-19.36,8.604-29.026,12.677c-14.196,5.981-28.57,11.529-42.636,17.82
				c-5.062,2.264-10.059,4.671-15,7.187c-0.815,0.415,1.006,0.21,1.278,0.088c2.286-1.023,4.572-2.046,6.858-3.069
				c0.966-0.432-0.158-0.478-0.615-0.346c-4.718,1.355-9.191-1.969-13.782-1.185c-4.333,0.74-7.955,3.774-11.91,5.506
				c-7.456,3.265-16.195,3.007-24.145,4.083c-2.495,0.338-5.004,0.762-7.447,1.367c-4.133,1.024-8.41,3.422-12.68,3.454
				c-0.279,0.002-1.991,0.619-1.435,0.716c2.381,0.417,4.762,0.833,7.143,1.25c1.642,0.287,3.282,0.574,4.924,0.861
				c3.089,0.541-2.409-0.603-3.066-0.757c-4.928-1.156-10.301-1.316-15.341-1.41c-7.829-0.146-15.619-1.796-22.78-4.948
				c-0.398-0.175-2.08,0.459-1.826,0.635c11.222,7.778,22.444,15.556,33.667,23.333c0.306,0.212,1.885-0.132,1.879-0.576
				c-0.011-0.903,0.026-1.786-0.041-2.688c-0.163-2.187-2.809-0.657-1.642-4.402c0.077-0.246-0.401-0.182-0.521-0.17
				c-1.029,0.382-1.3-0.062-0.813-1.33c0.099-0.456-1.502,0.077-1.681,0.184c-0.768,0.458-1.24,0.761-1.97,1.259
				c0.611-0.118,1.223-0.235,1.834-0.353c0.056-0.333,0.111-0.667,0.167-1c0.034-0.207-1.751,0.057-1.915,0.44
				c0.416-0.289,0.832-0.578,1.248-0.866c-0.036-0.061-0.092-0.092-0.166-0.094c-1.037-0.192-1.712,0.113-2.68,0.521
				c0.504-0.056,1.009-0.112,1.513-0.168c-1.303-2.008-2.604-3.761-3-6.167c-0.626,0.192-1.253,0.384-1.879,0.576
				c2.407,1.228,4.685,2.521,6.833,4.167c0.287,0.22,2.033-0.312,1.879-0.576c-0.63-0.664-0.853-1.441-0.667-2.333
				c-0.588,0.204-1.177,0.408-1.766,0.611c0.667,0.524,1.334,1.049,2.001,1.573c0.626-0.192,1.253-0.384,1.879-0.576
				c-1.154-0.499-1.914-1.312-2.28-2.441c-0.626,0.192-1.253,0.384-1.879,0.576c1,0.216,1.834,0.716,2.5,1.5
				c0.317,0.268,2.014-0.396,1.879-0.576c-0.723-0.905-1.389-1.85-2-2.833c-0.626,0.192-1.253,0.384-1.879,0.576
				c2.253,2.313,3.436,7.371,7.281,4.755c-0.605,0.092-1.212,0.184-1.817,0.276c-0.334,0.444-0.667,0.889-1,1.333
				c0.633-0.121,1.266-0.242,1.898-0.363c0.298-0.63,0.632-1.242,1-1.833c0.134-0.227-1.612,0.018-1.898,0.363
				c-0.818,0.838-1.484,1.783-2,2.833c0.633-0.121,1.266-0.242,1.898-0.363c0.612-1.588,0.731-2.854,0.85-4.577
				c-0.626,0.192-1.253,0.384-1.879,0.576c2.973,1.435,4.79,3.626,7.948,0.755c0.429-0.39-1.361-0.046-1.6,0.096
				c-0.278,0.167-0.556,0.333-0.834,0.5c-0.803,0.481,1.017,0.214,1.278,0.088c1.051-0.079,2.103-0.159,3.153-0.238
				c0.465,0.121,1.829-0.634,1.713-0.67c-1.724-0.535,2.266,0.811,2.674,0.968c0.57-0.223,1.142-0.447,1.713-0.67
				c-0.605-0.188-1.217-0.354-1.833-0.5c-0.319-0.082-1.996,0.493-1.713,0.67c0.094,0.092,0.187,0.184,0.28,0.275
				c0.588-0.204,1.177-0.408,1.766-0.611c-0.834-0.635-1.667-1.271-2.5-1.906c-0.588,0.204-1.177,0.408-1.766,0.611
				c1.83,0.368,3.33,1.281,4.5,2.739c0.588-0.204,1.177-0.408,1.766-0.611c-1.901-0.33-3.204-1.256-3.834-3.073
				c-0.588,0.204-1.177,0.408-1.766,0.611c0.2-0.259,0.4-0.519,0.6-0.778c-0.386,0.191-0.771,0.383-1.156,0.574
				c2.997-0.537,2.589,2.021,2.656-0.574c-0.626,0.192-1.253,0.384-1.879,0.576c0.812,1.169,1.628,1.254,2.447,0.255
				c-0.611,0.118-1.223,0.235-1.834,0.353c1.095-0.191,1.9-0.783,2.415-1.774c-0.633,0.121-1.266,0.242-1.898,0.363
				c-0.66,1.296-1.249,1.008-1.768-0.863c0.067-0.304-0.619-0.16-0.759-0.134c1.646-1.081,0.403-1.315-3.725-0.704
				c-0.344-0.078-1.968,0.539-1.713,0.67c0.802,0.458,1.635,0.846,2.5,1.167c0.461,0.192,2.012-0.54,1.826-0.635
				c-1.45-0.749-2.521-1.293-3.447-2.774c-0.626,0.192-1.253,0.384-1.879,0.576c1.291,0.365,1.307,0.697,0.047,0.997
				c-0.334-0.089-1.635,0.125-1.749,0.534c-0.116,0.414-4.438,0.807-5.419,1.746c0.611-0.118,1.223-0.235,1.834-0.353
				c0.05-0.974,0.1-1.949,0.149-2.923c-0.638,0.147-1.276,0.293-1.915,0.44c-0.402,2.275-0.852,4.249-1.983,6.256
				c0.638-0.147,1.276-0.293,1.915-0.44c-0.634-2.562,0.226-5.026,1.15-7.423c-0.638,0.147-1.276,0.293-1.915,0.44
				c0.224,1.987,0.298,4.67-1.599,5.91c0.565-0.087,1.132-0.174,1.697-0.261c-0.249-1.867,0.26-2.753,1.316-4.09
				c-0.638,0.147-1.276,0.293-1.915,0.44c0.56,1.846,0.513,4.006-0.902,5.502c0.611-0.118,1.223-0.235,1.834-0.353
				c-0.274-1.813-0.265-3.08,0.316-4.923c-0.638,0.147-1.276,0.293-1.915,0.44c0.899,2.488-0.161,3.328-0.234,0.149
				c-0.644,0.172-1.288,0.345-1.932,0.518c0.322,0.569,0.488,1.181,0.5,1.833c0.626-0.192,1.253-0.384,1.879-0.576
				c-1.189-1.014-2.116-2.217-2.781-3.608c-0.626,0.192-1.253,0.384-1.879,0.576c0.813,0.625,1.591,1.292,2.334,2
				c0.608-0.211,1.218-0.423,1.826-0.635c-2.245-0.808-4.596-1.145-6.5-2.667c-0.57,0.223-1.142,0.447-1.713,0.67
				c1.591,0.273,3.057,0.411,4.553,1.131c0.57-0.223,1.142-0.447,1.713-0.67c-1.909-0.153-3.416-0.265-5.22-1.131
				c-0.516,0.227-1.031,0.454-1.548,0.681c1.253,0.471,2.397,0.395,3.437-0.228c-0.29-0.011-1.992,0.595-1.435,0.716
				c1.499,0.327,2.982,0.615,4.5,0.833c0.317,0.046,1.981-0.543,1.713-0.67c-0.795-0.356-1.572-0.745-2.334-1.167
				c-0.608,0.211-1.218,0.423-1.826,0.635c1.268,0.614,2.262,1.252,3.334,2.167c0.608-0.211,1.218-0.423,1.826-0.635
				c-1.153-0.402-2.123-0.867-3.167-1.5c-0.608,0.211-1.218,0.423-1.826,0.635c3.75,1.649,6.704,2.294,10.376,0.256
				c2.276-1.263,0.835,7.874,0.944,2.109c0.05-2.646,0.372-0.521,0.627,0.076c0.421,0.988-0.129,3.102-1.165,3.626
				c0.548-0.106,1.097-0.213,1.645-0.32c-1.914-0.69-0.523-4.488-0.064-5.581c-0.62,0.167-1.241,0.333-1.862,0.499
				c2.152,1.115,1.902,3.271,1.131,5.198c0.638-0.147,1.276-0.293,1.915-0.44c-1.161-2.933,0.466-1.917,1.734-0.316
				c0.253,0.32,1.976-0.084,1.932-0.518c-0.144-0.995-0.198-1.995-0.166-3c-0.644,0.172-1.288,0.345-1.932,0.518
				c0.193,0.991,0.304,1.991,0.333,3c0.644-0.172,1.288-0.345,1.932-0.518c-0.555-1.156-0.854-2.259-1.167-3.5
				c-0.092-0.367-1.902,0.097-1.932,0.518c-0.028,1.009-0.14,2.009-0.333,3c0.644-0.172,1.288-0.345,1.932-0.518
				c-0.505-0.943-0.671-1.943-0.5-3c0-0.262-1.869,0.036-1.932,0.518c-0.146,1.318-0.364,2.626-0.65,3.923
				c0.638-0.147,1.276-0.293,1.915-0.44c-0.317-1.498-0.358-2.806-0.333-4.333c0.004-0.25-1.871,0.026-1.932,0.518
				c0.075,1.236-0.253,2.322-0.983,3.256c0.638-0.147,1.276-0.293,1.915-0.44c0.09-1.425,0.359-2.737,0.333-4.167
				c-0.006-0.314-1.783,0.106-1.915,0.44c-1.014,2.56-1.681,5.163-2.333,7.833c0.638-0.147,1.276-0.293,1.915-0.44
				c0.187-2.127,1.023-4.068,1.333-6.167c0.027-0.182-1.808,0-1.915,0.44c-0.334,1.359-0.626,2.697-0.85,4.077
				c0.644-0.172,1.288-0.345,1.932-0.518c-0.804-1.734-0.719-3.285-0.667-5.167c0.007-0.237-1.884,0.014-1.932,0.518
				c-0.11,1.167-0.222,2.333-0.333,3.5c0.644-0.172,1.288-0.345,1.932-0.518c-0.363-1.378-0.48-2.577-0.5-4
				c-0.004-0.302-1.794,0.091-1.915,0.44c-0.222,0.54-0.388,1.095-0.5,1.667c0.638-0.147,1.276-0.293,1.915-0.44
				c-0.056-0.222-0.111-0.444-0.167-0.667c-0.114-0.456-1.726,0.222-1.915,0.44c-0.594,0.597-1.094,1.263-1.5,2
				c0.638-0.147,1.276-0.293,1.915-0.44c-0.005-0.141-0.011-0.282-0.017-0.423c0.109-0.436-1.616,0.083-1.817,0.276
				c-0.293,0.328-0.626,0.605-1,0.833c0.605-0.092,1.212-0.184,1.817-0.276c0.881-1.15,1.668-2.211,2.334-3.5
				c0.153-0.296-1.583,0.038-1.817,0.276c-1.176,1.195-2.194,2.447-3.248,3.754c0.633-0.121,1.266-0.242,1.898-0.363
				c0.764-1.024,1.4-2.04,2-3.167c0.117-0.219-1.632-0.048-1.898,0.363c-0.817,1.257-1.566,2.545-2.333,3.833
				c0.633-0.121,1.266-0.242,1.898-0.363c0.686-1.47,1.123-2.663,1.35-4.244c0.041-0.285-1.73,0.16-1.915,0.44
				c-0.646,0.977-1.09,1.905-1.5,3c0.638-0.147,1.276-0.293,1.915-0.44c0.145-0.883,0.2-1.772,0.167-2.667
				c0.005-0.321-1.762,0.133-1.915,0.44c-0.223,0.444-0.445,0.889-0.667,1.333c0.638-0.147,1.276-0.293,1.915-0.44
				c-0.05-0.778-0.105-1.556-0.167-2.333c-0.025-0.335-1.792,0.111-1.915,0.44c-0.167,0.444-0.334,0.889-0.5,1.333
				c0.638-0.147,1.276-0.293,1.915-0.44c-0.139-0.716-0.193-1.438-0.166-2.167c-0.007-0.373-1.748,0.189-1.915,0.44
				c-0.223,0.333-0.445,0.667-0.667,1c0.638-0.147,1.276-0.293,1.915-0.44c-0.099-0.724-0.209-1.447-0.333-2.167
				c-0.069-0.425-1.654,0.212-1.834,0.353c-0.486,0.342-0.931,0.731-1.334,1.167c0.611-0.118,1.223-0.235,1.834-0.353
				c0-0.5,0-1,0-1.5c0-0.371-1.674,0.196-1.834,0.353c-0.879,0.96-1.889,1.763-3.029,2.408c0.561-0.061,1.121-0.122,1.681-0.184
				c0.05-0.625,0.271-1.181,0.666-1.667c-0.62,0.167-1.241,0.333-1.862,0.499c-0.138,0.742-0.428,1.418-0.869,2.031
				c-0.166,0.293,1.583-0.068,1.817-0.276c1-0.129,2-0.258,2.999-0.387c0.407,0.097,2.106-0.565,1.6-0.705
				c-4.985-1.375-9.985-2.379-15.165-2.511c-0.333-0.009-1.938,0.665-1.434,0.716c5.182,0.535,10.568,0.191,15.685,0.988
				c0.453,0.786,0.053,0.857-1.2,0.216c-1.57-0.294-3.142-0.513-4.727-0.724c-2.437-0.325-4.868-0.477-7.324-0.53
				c-0.37-0.008-2.192,0.707-1.27,0.728c2.542,0.057,4.74,0.587,7.168,1.156c0.34,0.08,1.973-0.531,1.713-0.67
				c-1.379-0.737-2.84-1.164-4.167-2c-0.609,0.211-1.217,0.423-1.826,0.635c0.458,0.268,2.058,0.612,1.519,1.109
				c-0.733,0.676-1.466,1.353-2.198,2.029c-1.314,1.213-2.628,2.425-3.942,3.638c0.594-0.137,1.188-0.274,1.782-0.412
				c-2.064-1.855-4.37-3.332-6.605-4.965c-2.408-1.76-3.954-4.28-5.627-6.679c-3.116-4.463-7.613-7.907-10.881-12.297
				c-0.626,0.192-1.252,0.384-1.879,0.576c1.277,1.278,2.555,2.556,3.833,3.833c0.609-0.211,1.217-0.423,1.826-0.635
				c-5.091-4.856-10.491-9.441-16.713-12.795c-2.879-1.552-9.712-3.558-10.234-7.313
				C184.26,384.198,182.311,384.593,182.373,385.037z"/>
		</g>
	</g>
</g>
<g id="Layer_2">
	<g opacity="0.28">
		<g>
			<path fill="#CC9933" d="M390.472,387.772c0.77,0,2.04-1.167,0.732-1.167C390.435,386.605,389.165,387.772,390.472,387.772
				L390.472,387.772z"/>
		</g>
	</g>
	<g opacity="0.28">
		<g>
			<path fill="#CC9933" d="M390.977,383.789c0.79,0,2.03-1.2,0.723-1.2C390.91,382.589,389.669,383.789,390.977,383.789
				L390.977,383.789z"/>
		</g>
	</g>
	<g display="none">
		<g display="inline">
			<path fill="#CC9933" d="M365.361,385.038c-12.685,7.309-26.136,13.085-39.415,19.201c-7.012,3.229-13.788,7.02-20.864,10.09
				c-5.346,2.32-11.073,5.688-16.627,7.285c-0.157,0.045-1.354,0.617-0.677,0.808c3.199,0.903,6.22-0.874,9.257-1.886
				c1.083-0.361,0.373-0.966-0.462-0.694c-9.151,2.978-17.706,7.412-26.697,10.801c-2.743,1.034-5.838,1.321-8.342,2.851
				c-1.813,1.108-3.626,2.216-5.438,3.325c0.487,0.059,0.976,0.118,1.464,0.177c3.01-4.144,9.647-6.624,13.939-9.31
				c5.417-3.39,10.787-6.642,16.636-9.248c10.725-4.78,22.092-7.92,32.448-13.543c-0.444-0.099-0.889-0.197-1.334-0.296
				c-5.597,4.083-11.194,8.167-16.792,12.25c-0.814,0.595,0.809,0.521,1.114,0.397c0.926-0.373,1.569-0.663,2.47-1.101
				c1.164-0.565-0.619-0.666-1.154-0.409c-3.306,1.582-6.702,2.905-9.875,4.75c-1.041,0.605,0.403,0.751,0.935,0.51
				c6.671-3.023,12.68-5.568,18.774-9.714c0.84-0.571-0.824-0.505-1.114-0.397c-5.365,1.989-10.26,4.953-15.474,7.284
				c-2.359,1.054-4.811,1.834-7.21,2.782c-1.208,0.477-6.14,3.528-1.007,1.069c1.169-0.56-0.621-0.658-1.154-0.409
				c-7.048,3.289-13.607,7.435-20.404,11.21c-12.641,7.023-27.255,12.094-41.044,16.297c-1.123,0.342-0.929,1.123,0.208,0.776
				c14.41-4.391,28.274-10.188,41.887-16.606c2.878-1.356,5.622-3.123,8.403-4.668c2.128-1.183,4.091-2.615,6.245-3.772
				c1.446-0.776,2.944-1.459,4.428-2.16c-0.386-0.554-0.756-0.683-1.11-0.386c-0.776,0.44-1.498,0.955-2.167,1.546
				c-0.799,0.636,0.811,0.509,1.114,0.397c7.464-2.749,14.843-6.497,21.95-10.119c1.461-0.744,2.951-1.426,4.471-2.045
				c-0.89-0.25-1.638,0.034-2.244,0.852c-2.683,1.808-5.412,3.413-8.378,4.711c-1.158,0.453-2.322,0.89-3.492,1.31
				c-1.849,0.136-2.229,0.527-1.141,1.172c2.189-1.273,4.613-2.167,6.921-3.205c-0.905,0.407,0.93-0.888,1.621-1.393
				c1.851-1.35,3.701-2.699,5.551-4.049c3.061-2.233,6.122-4.466,9.183-6.698c0.851-0.621-0.996-0.48-1.334-0.296
				c-11.295,6.132-23.801,9.488-35.426,14.898c-5.846,2.72-11.198,6.387-16.671,9.765c-3.787,2.338-8.851,4.192-11.546,7.902
				c-0.481,0.663,1.235,0.317,1.464,0.177c2.106-1.287,4.213-2.575,6.318-3.862c1.722-1.052,5.045-1.408,7.021-2.111
				c3.099-1.103,6.116-2.444,9.13-3.756c3.146-1.37,6.28-2.759,9.449-4.075c1.563-0.649,3.147-1.244,4.734-1.831
				c5.195-1.92,2.24-1.608,1.244-1.276c-1.564,0.521-3.129,1.043-4.692,1.564c-1.91,0.637-0.231,0.292,0.705-0.179
				c24.83-12.493,51.224-22.348,75.355-36.254C367.639,384.799,365.893,384.73,365.361,385.038L365.361,385.038z"/>
		</g>
	</g>
</g>
</svg>
